<?xml version="1.0" encoding="us-ascii" standalone="no"?><svg xmlns="http://www.w3.org/2000/svg" xmlns:xlink="http://www.w3.org/1999/xlink" contentStyleType="text/css" height="1163px" preserveAspectRatio="none" style="width:1634px;height:1163px;background:#FFFFFF;" version="1.1" viewBox="0 0 1634 1163" width="1634px" zoomAndPan="magnify"><defs/><g><text fill="#000000" font-family="Chalkduster" font-size="42" font-weight="bold" lengthAdjust="spacing" textLength="666" x="482.75" y="61.7215">Choosing a Data Repository</text><text fill="#000000" font-family="Chalkduster" font-size="42" font-weight="bold" lengthAdjust="spacing" textLength="810" x="410.75" y="115.3238">For a Data Commons Deployment</text><path d="M672.25,138.4934 L672.8105,138.4934 L671.1451,147.8823 L672.7654,157.2713 L673.3158,166.6602 L670.3476,176.0492 L672.25,185.4381 L672.2365,185.3704 L668.1757,185.8664 L664.1831,186.7039 L660.2381,187.7787 L656.1295,188.0355 L652.25,189.4381 L652.3465,189.9207 L656.1401,189.6888 L660.2155,190.8657 L664.3253,192.2146 L668.235,192.5634 L672.25,193.4381 L672.432,193.4381 L672.1648,202.8271 L672.7261,212.216 L672.8877,221.605 L673.8118,230.9939 L672.25,240.3829 L672.25,240.3829 L672.25,242.1723 L682.2628,242.1942 L692.2756,241.0619 L702.2885,241.6191 L712.3013,242.2555 L722.3141,238.4597 L732.3269,242.1922 L742.3397,239.5922 L752.3526,241.8064 L762.3654,239.0628 L772.3782,240.2002 L782.391,242.3605 L792.4038,240.2529 L802.4167,240.6637 L812.4295,241.2859 L822.4423,241.4928 L832.4551,240.3725 L842.4679,241.1488 L852.4808,238.8564 L862.4936,241.1412 L872.5064,241.8447 L882.5192,241.5683 L892.5321,242.0176 L902.5449,239.0947 L912.5577,238.6437 L922.5705,238.7258 L932.5833,240.2259 L942.5962,239.8588 L952.609,242.2 L962.6218,239.9171 L972.6346,239.4681 L982.6474,240.9916 L992.6603,238.6046 L1002.6731,238.9985 L1012.6859,242.1134 L1022.6987,241.5447 L1032.7115,242.3415 L1042.7244,239.5248 L1052.7372,241.2341 L1062.75,241.9573 L1072.7628,239.1231 L1082.7756,240.1272 L1092.7885,240.7188 L1102.8013,242.1209 L1112.8141,240.3717 L1122.8269,241.6164 L1132.8397,238.9061 L1142.8526,238.5769 L1152.8654,241.7258 L1162.8782,238.471 L1172.891,241.7401 L1182.9038,240.9339 L1192.9167,239.6684 L1202.9295,239.4395 L1212.9423,241.6062 L1222.9551,239.5847 L1232.9679,241.9612 L1242.9808,238.9089 L1252.9936,242.0293 L1263.0064,241.6743 L1273.0192,241.0361 L1283.0321,240.5088 L1293.0449,242.3205 L1303.0577,242.0191 L1313.0705,240.8342 L1323.0833,241.098 L1333.0962,240.0355 L1343.109,242.2934 L1353.1218,240.7958 L1363.1346,240.8431 L1373.1474,238.7606 L1383.1603,239.3023 L1393.1731,241.7982 L1403.1859,241.5289 L1413.1987,240.2684 L1423.2115,239.5238 L1433.2244,239.7991 L1443.2372,238.5531 L1453.25,240.3829 L1453.25,240.3829 L1454.356,240.3829 L1455.2222,230.1729 L1454.6537,219.963 L1455.1032,209.753 L1452.8854,199.5431 L1453.4826,189.3331 L1452.2164,179.1232 L1454.0074,168.9133 L1453.908,158.7033 L1453.25,148.4934 L1453.5972,148.8406 L1451.1057,146.349 L1449.1655,144.4089 L1447.5287,142.7721 L1445.6066,140.85 L1443.25,138.4934 L1443.25,137.1266 L1433.237,137.9764 L1423.224,138.8914 L1413.211,136.8645 L1403.1981,139.4358 L1393.1851,139.1813 L1383.1721,138.2247 L1373.1591,138.8727 L1363.1461,140.4365 L1353.1331,137.659 L1343.1201,139.3333 L1333.1071,139.2551 L1323.0942,138.8021 L1313.0812,138.8692 L1303.0682,138.796 L1293.0552,136.829 L1283.0422,137.4245 L1273.0292,137.2626 L1263.0162,138.6636 L1253.0032,138.7284 L1242.9903,138.9247 L1232.9773,137.7174 L1222.9643,138.3133 L1212.9513,138.1728 L1202.9383,140.0316 L1192.9253,139.6309 L1182.9123,137.1986 L1172.8994,138.2989 L1162.8864,136.9541 L1152.8734,139.2624 L1142.8604,140.116 L1132.8474,139.9455 L1122.8344,137.3319 L1112.8214,139.7306 L1102.8084,136.5125 L1092.7955,139.0271 L1082.7825,137.6952 L1072.7695,138.7513 L1062.7565,139.1343 L1052.7435,139.7523 L1042.7305,136.5736 L1032.7175,139.7613 L1022.7045,138.9685 L1012.6916,139.4409 L1002.6786,140.4875 L992.6656,138.508 L982.6526,138.9608 L972.6396,139.0625 L962.6266,139.0193 L952.6136,138.4912 L942.6006,140.3886 L932.5877,136.8674 L922.5747,140.0008 L912.5617,136.8294 L902.5487,137.0525 L892.5357,138.6001 L882.5227,138.5688 L872.5097,137.1792 L862.4968,139.5966 L852.4838,138.7836 L842.4708,140.4311 L832.4578,140.2723 L822.4448,137.298 L812.4318,137.4322 L802.4188,138.1489 L792.4058,139.4414 L782.3929,139.568 L772.3799,139.2965 L762.3669,137.5815 L752.3539,140.1903 L742.3409,140.1835 L732.3279,138.3673 L722.3149,137.8559 L712.3019,137.423 L702.289,137.9212 L692.276,138.8598 L682.263,138.311 L672.25,138.4934 L672.25,138.4934 " fill="#FFFFE0" style="stroke:#181818;stroke-width:4.0;"/><path d="M1443.25,138.4934 L1443.4368,138.4934 L1442.8817,140.4934 L1443.4218,142.4934 L1443.6053,144.4934 L1442.6159,146.4934 L1443.25,148.4934 L1443.25,148.4243 L1445.25,148.1143 L1447.25,148.1525 L1449.25,148.4328 L1451.25,147.8788 L1453.25,148.4934 L1453.598,148.8414 L1450.8538,146.0972 L1449.1257,144.3691 L1447.5215,142.7649 L1445.1961,140.4395 L1443.25,138.4934 " fill="#FFFFE0" style="stroke:#181818;stroke-width:4.0;"/><text fill="#000000" font-family="Chalkduster" font-size="24" lengthAdjust="spacing" textLength="760" x="678.25" y="167.3343">Domain sepecific repositories are few and far between</text><text fill="#000000" font-family="Chalkduster" font-size="24" lengthAdjust="spacing" textLength="12" x="678.25" y="197.9641">&#160;</text><text fill="#000000" font-family="Chalkduster" font-size="24" lengthAdjust="spacing" textLength="12" x="678.25" y="228.5939">&#160;</text><polygon fill="#F1F1F1" points="129.75,164.1232,129.75,164.3334,139.75,163.7089,149.75,164.3165,159.75,164.5229,169.75,163.4098,179.75,164.0455,189.75,163.6967,199.75,163.7397,209.75,164.055,219.75,163.4318,229.75,164.6768,239.75,163.4929,249.75,163.9254,259.75,164.5552,269.75,164.0374,279.75,164.1914,289.75,164.0913,299.75,164.3017,309.75,164.3623,319.75,164.7089,329.75,164.7943,339.75,164.8025,349.75,164.3778,359.75,164.5868,369.75,164.8254,379.75,163.402,389.75,164.8017,399.75,163.8267,409.75,164.657,419.75,163.6282,429.75,164.0547,439.75,164.8648,449.75,164.0745,459.75,164.2285,469.75,164.4618,479.75,164.5394,489.75,164.1193,499.75,164.4104,509.75,163.5508,519.75,164.4076,529.75,164.6714,539.75,164.5677,549.75,164.7362,559.75,163.6401,569.75,163.471,579.75,163.5018,589.75,164.0643,599.75,163.9267,609.75,164.8046,619.75,163.9485,629.75,163.7802,639.75,164.1232,639.7791,164.1935,641.4327,164.6501,643.2193,165.4278,645.1361,166.5198,646.8766,167.1863,648.5888,167.7844,648.815,167.8781,649.222,169.5111,650.1516,171.3606,650.9674,173.163,651.3723,174.7952,652.25,176.6232,652.218,176.6232,652.292,181.7492,652.4673,186.8751,652.2486,192.0011,652.4042,197.1271,652.25,202.253,652.0795,202.1824,651.3092,203.9344,650.9406,205.8528,649.8325,207.4649,649.4778,209.389,648.5888,211.0919,648.6152,211.1555,646.7869,211.7416,645.0082,212.4474,643.3441,213.4299,641.4796,213.9286,639.75,214.753,639.75,215.3449,629.75,214.2003,619.75,215.3705,609.75,215.2373,599.75,214.998,589.75,214.8003,579.75,215.4796,569.75,215.3666,559.75,214.9223,549.75,215.0212,539.75,214.6228,529.75,215.4695,519.75,214.9079,509.75,214.9256,499.75,214.1447,489.75,214.3478,479.75,215.2838,469.75,215.1828,459.75,214.7101,449.75,214.4309,439.75,214.5341,429.75,214.0669,419.75,215.1678,409.75,215.4926,399.75,215.2794,389.75,215.448,379.75,214.6163,369.75,214.8403,359.75,214.3654,349.75,215.0371,339.75,214.9998,329.75,215.3054,319.75,214.5234,309.75,214.6186,299.75,215.1965,289.75,215.3204,279.75,214.2405,269.75,214.5592,259.75,214.9023,249.75,214.1422,239.75,215.1064,229.75,215.011,219.75,214.6523,209.75,214.8953,199.75,215.4817,189.75,214.4402,179.75,215.068,169.75,215.0387,159.75,214.8688,149.75,214.894,139.75,214.8665,129.75,214.753,129.6704,214.5608,127.9311,213.8974,126.1556,213.1464,124.4548,212.576,122.6902,211.8512,120.9112,211.0919,120.961,211.1125,120.0893,209.287,119.4259,207.5477,118.6774,205.7732,118.1599,204.0944,117.25,202.253,117.3922,202.253,117.0882,197.1271,117.2257,192.0011,117.0576,186.8751,117.3461,181.7492,117.25,176.6232,117.4374,176.7008,118.1499,174.9249,118.5803,173.0321,119.5896,171.3791,119.9502,169.4574,120.9112,167.7844,120.9367,167.846,122.6408,166.96,124.459,166.3497,126.2451,165.6617,128.0425,165.0008,129.75,164.1232" style="stroke:#181818;stroke-width:0.5;"/><text fill="#000000" font-family="Chalkduster" font-size="24" lengthAdjust="spacing" textLength="515" x="127.25" y="197.9641">Choosing a repo for your collections</text><polygon fill="#F1F1F1" points="177.75,260.3829,177.75,260.5931,187.8476,259.9686,197.9451,260.5762,208.0427,260.7826,218.1402,259.6695,228.2378,260.3052,238.3354,259.9564,248.4329,259.9994,258.5305,260.3147,268.628,259.6915,278.7256,260.9365,288.8232,259.7526,298.9207,260.1851,309.0183,260.8148,319.1159,260.2971,329.2134,260.4511,339.311,260.3509,349.4085,260.5614,359.5061,260.622,369.6037,260.9686,379.7012,261.0539,389.7988,261.0621,399.8963,260.6375,409.9939,260.8465,420.0915,261.0851,430.189,259.6617,440.2866,261.0614,450.3841,260.0864,460.4817,260.9167,470.5793,259.8878,480.6768,260.3144,490.7744,261.1245,500.872,260.3341,510.9695,260.4882,521.0671,260.7215,531.1646,260.7991,541.2622,260.379,551.3598,260.6701,561.4573,259.8105,571.5549,260.6673,581.6524,260.9311,591.75,260.3829,592.1862,260.4683,594.3516,270.7107,595.2759,280.7099,597.11,290.8873,599.1402,301.1032,601.6922,311.4213,603.75,321.6425,603.5571,321.6048,602.4187,331.9835,599.5786,342.0288,597.4133,352.2064,595.974,362.5262,593.0956,372.5641,591.75,382.9022,591.75,382.3831,581.6524,383.5512,571.5549,383.3379,561.4573,383.6367,551.3598,382.5804,541.2622,383.2214,531.1646,383.4926,521.0671,382.4298,510.9695,382.8063,500.872,383.0282,490.7744,383.554,480.6768,382.898,470.5793,383.3648,460.4817,382.3484,450.3841,382.2249,440.2866,383.4058,430.189,382.1853,420.0915,383.4112,409.9939,383.1088,399.8963,382.6343,389.7988,382.5484,379.7012,383.361,369.6037,382.6029,359.5061,383.4941,349.4085,382.3495,339.311,383.5196,329.2134,383.3865,319.1159,383.1472,309.0183,382.9494,298.9207,383.6288,288.8232,383.5158,278.7256,383.0715,268.628,383.1704,258.5305,382.7719,248.4329,383.6187,238.3354,383.0571,228.2378,383.0748,218.1402,382.2939,208.0427,382.497,197.9451,383.433,187.8476,383.332,177.75,382.9022,177.7079,382.894,175.4338,372.6303,173.5352,362.4402,171.0766,352.1405,170.157,342.1422,168.4758,331.9947,165.75,321.6425,166.2666,321.7437,168.432,311.5662,169.6158,301.1964,171.8356,291.0295,173.3696,280.7283,176.0287,270.6474,177.75,260.3829" style="stroke:#181818;stroke-width:0.5;"/><text fill="#000000" font-family="Chalkduster" font-size="24" lengthAdjust="spacing" textLength="344" x="177.75" y="284.2238">Select/Identify a Subject</text><text fill="#000000" font-family="Chalkduster" font-size="24" lengthAdjust="spacing" textLength="414" x="177.75" y="314.8536">or Domain Specific Repository</text><text fill="#000000" font-family="Chalkduster" font-size="24" lengthAdjust="spacing" textLength="12" x="177.75" y="345.4834">&#160;</text><text fill="#000000" font-family="Chalkduster" font-size="24" lengthAdjust="spacing" textLength="364" x="177.75" y="376.1133">eg PARADISEC / ADA / ???</text><text fill="#000000" font-family="Chalkduster" font-size="24" lengthAdjust="spacing" textLength="48" x="117.75" y="314.8536">Yes</text><text fill="#000000" font-family="Chalkduster" font-size="24" lengthAdjust="spacing" textLength="35" x="603.75" y="314.8536">no</text><polygon fill="#F1F1F1" points="23.5,392.9022,23.5,393.1124,33.6429,392.4879,43.7857,393.0955,53.9286,393.3019,64.0714,392.1888,74.2143,392.8245,84.3571,392.4757,94.5,392.9022,94.4511,392.7841,96.2591,393.6134,97.9473,394.1538,99.8739,395.2694,101.4907,395.637,103.3388,396.5634,103.2779,396.5381,104.2041,398.3862,104.7769,400.088,105.5565,401.8754,106.2579,403.6304,107,405.4022,107.0595,405.4022,107.0797,410.5282,107.1952,415.6541,107.2237,420.7801,107.2264,425.9061,107,431.032,107.0784,431.0645,106.4105,432.8589,105.7518,434.6571,104.5812,436.2433,104.28,438.1897,103.3388,439.8709,103.301,439.7796,101.6392,440.7675,99.7402,441.1829,98.0268,442.0465,96.3624,443.0282,94.5,443.532,94.5,443.4833,84.3571,443.6373,74.2143,443.8707,64.0714,443.9483,53.9286,443.5281,43.7857,443.8193,33.6429,442.9596,23.5,443.532,23.5363,443.6196,21.8022,442.9686,20.0212,442.2045,18.2749,441.5241,16.3673,440.4543,14.6612,439.8709,14.4603,439.7877,13.7376,438.0238,13.1786,436.3278,12.4039,434.5425,11.9421,432.8867,11,431.032,10.9418,431.032,10.8856,425.9061,11.0761,420.7801,10.7777,415.6541,10.827,410.5282,11,405.4022,11.1999,405.485,11.8664,403.69,12.6907,401.9604,13.0976,400.0579,14.0272,398.3719,14.6612,396.5634,14.7365,396.7452,16.3687,395.6857,18.1845,395.0694,19.9805,394.4055,21.8154,393.8352,23.5,392.9022" style="stroke:#181818;stroke-width:0.5;"/><text fill="#000000" font-family="Chalkduster" font-size="24" lengthAdjust="spacing" textLength="76" x="21" y="426.7431">Use it</text><path d="M888.5,392.9022 L889.0605,392.9022 L887.3951,403.1026 L889.0154,413.303 L889.5658,423.5034 L886.5976,433.7038 L888.2928,443.9042 L887.3627,454.1046 L887.4773,464.305 L888.3182,474.5054 L886.6563,484.7058 L889.9764,494.9062 L886.8193,505.1066 L887.9726,515.307 L889.6519,525.5074 L888.2713,535.7078 L888.682,545.9082 L888.4148,556.1086 L888.9761,566.309 L889.1377,576.5094 L890.0618,586.7098 L890.2895,596.9102 L890.3114,607.1106 L888.5,617.311 L888.5,617.99 L898.5548,618.5473 L908.6096,619.1837 L918.6644,615.3879 L928.7192,619.1204 L938.774,616.5204 L948.8288,618.7345 L958.8836,615.991 L968.9384,617.1284 L978.9932,619.2887 L989.0479,617.1811 L999.1027,617.5918 L1009.1575,618.214 L1019.2123,618.421 L1029.2671,617.3006 L1039.3219,618.0769 L1049.3767,615.7846 L1059.4315,618.0694 L1069.4863,618.7729 L1079.5411,618.4965 L1089.5959,618.9458 L1099.6507,616.0228 L1109.7055,615.5719 L1119.7603,615.654 L1129.8151,617.154 L1139.8699,616.787 L1149.9247,619.1281 L1159.9795,616.8452 L1170.0342,616.3962 L1180.089,617.9198 L1190.1438,615.5328 L1200.1986,615.9267 L1210.2534,619.0416 L1220.3082,618.4728 L1230.363,619.2697 L1240.4178,616.4529 L1250.4726,618.1622 L1260.5274,618.8855 L1270.5822,616.0513 L1280.637,617.0554 L1290.6918,617.647 L1300.7466,619.0491 L1310.8014,617.2999 L1320.8562,618.5446 L1330.911,615.8343 L1340.9658,615.505 L1351.0205,618.654 L1361.0753,615.3992 L1371.1301,618.6683 L1381.1849,617.862 L1391.2397,616.5966 L1401.2945,616.3676 L1411.3493,618.5344 L1421.4041,616.5128 L1431.4589,618.8893 L1441.5137,615.8371 L1451.5685,618.9575 L1461.6233,618.6025 L1471.6781,617.9643 L1481.7329,617.437 L1491.7877,619.2487 L1501.8425,618.9472 L1511.8973,617.7624 L1521.9521,618.0262 L1532.0068,616.9637 L1542.0616,619.2216 L1552.1164,617.724 L1562.1712,617.7712 L1572.226,615.6888 L1582.2808,616.2304 L1592.3356,618.7264 L1602.3904,618.4571 L1612.4452,617.1966 L1622.5,617.311 L1621.6409,617.311 L1621.9162,607.1011 L1620.6702,596.8911 L1623.606,586.6812 L1624.4722,576.4713 L1623.9037,566.2613 L1624.3532,556.0514 L1622.1354,545.8414 L1622.7326,535.6315 L1621.4664,525.4215 L1623.2574,515.2116 L1623.158,505.0016 L1623.973,494.7917 L1621.8876,484.5818 L1622.1416,474.3718 L1623.6826,464.1619 L1624.0129,453.9519 L1621.1332,443.742 L1621.983,433.532 L1622.898,423.3221 L1620.8711,413.1121 L1622.5,402.9022 L1622.7221,403.1243 L1620.6622,401.0644 L1618.4367,398.8389 L1616.5894,396.9916 L1614.958,395.3602 L1612.5,392.9022 L1612.5,392.0679 L1602.4444,393.7422 L1592.3889,393.6639 L1582.3333,393.2109 L1572.2778,393.278 L1562.2222,393.2048 L1552.1667,391.2378 L1542.1111,391.8334 L1532.0556,391.6714 L1522,393.0724 L1511.9444,393.1372 L1501.8889,393.3335 L1491.8333,392.1263 L1481.7778,392.7222 L1471.7222,392.5816 L1461.6667,394.4405 L1451.6111,394.0397 L1441.5556,391.6074 L1431.5,392.7077 L1421.4444,391.3629 L1411.3889,393.6712 L1401.3333,394.5248 L1391.2778,394.3544 L1381.2222,391.7407 L1371.1667,394.1395 L1361.1111,390.9214 L1351.0556,393.4359 L1341,392.104 L1330.9444,393.1601 L1320.8889,393.5431 L1310.8333,394.1611 L1300.7778,390.9824 L1290.7222,394.1701 L1280.6667,393.3773 L1270.6111,393.8498 L1260.5556,394.8963 L1250.5,392.9168 L1240.4444,393.3696 L1230.3889,393.4714 L1220.3333,393.4282 L1210.2778,392.9 L1200.2222,394.7974 L1190.1667,391.2762 L1180.1111,394.4096 L1170.0556,391.2382 L1160,391.4614 L1149.9444,393.0089 L1139.8889,392.9776 L1129.8333,391.588 L1119.7778,394.0054 L1109.7222,393.1925 L1099.6667,394.84 L1089.6111,394.6812 L1079.5556,391.7068 L1069.5,391.8411 L1059.4444,392.5577 L1049.3889,393.8503 L1039.3333,393.9768 L1029.2778,393.7053 L1019.2222,391.9903 L1009.1667,394.5992 L999.1111,394.5923 L989.0556,392.7761 L979,392.2647 L968.9444,391.8318 L958.8889,392.33 L948.8333,393.2686 L938.7778,392.7198 L928.7222,391.7881 L918.6667,394.2019 L908.6111,391.6784 L898.5556,394.2419 L888.5,392.9022 " fill="#FFFFE0" style="stroke:#181818;stroke-width:4.0;"/><path d="M1612.5,392.9022 L1612.6868,392.9022 L1612.1317,394.9022 L1612.6718,396.9022 L1612.8553,398.9022 L1611.8659,400.9022 L1612.5,402.9022 L1612.5,402.8331 L1614.5,402.5231 L1616.5,402.5613 L1618.5,402.8416 L1620.5,402.2877 L1622.5,402.9022 L1622.848,403.2502 L1620.1038,400.506 L1618.3757,398.7779 L1616.7715,397.1737 L1614.4461,394.8483 L1612.5,392.9022 " fill="#FFFFE0" style="stroke:#181818;stroke-width:4.0;"/><text fill="#000000" font-family="Chalkduster" font-size="24" lengthAdjust="spacing" textLength="12" x="894.5" y="421.7431">&#160;</text><text fill="#000000" font-family="Chalkduster" font-size="24" lengthAdjust="spacing" textLength="672" x="894.5" y="452.3729">Generalist &amp; Insitutional Repositories typically:</text><text fill="#000000" font-family="Chalkduster" font-size="24" lengthAdjust="spacing" textLength="544" x="894.5" y="483.0028">- Do not have access control/licensing</text><text fill="#000000" font-family="Chalkduster" font-size="24" lengthAdjust="spacing" textLength="713" x="894.5" y="513.6326">- Are not geared for collections of '000s of things</text><text fill="#000000" font-family="Chalkduster" font-size="24" lengthAdjust="spacing" textLength="525" x="894.5" y="544.2624">- Have size limits on individual items</text><text fill="#000000" font-family="Chalkduster" font-size="24" lengthAdjust="spacing" textLength="583" x="894.5" y="574.8923">- Don't support domain-specific metadata</text><text fill="#000000" font-family="Chalkduster" font-size="24" lengthAdjust="spacing" textLength="12" x="894.5" y="605.5221">&#160;</text><polygon fill="#F1F1F1" points="604.5,617.311,604.5,617.5212,614.5741,616.8967,624.6481,617.5043,634.7222,617.7107,644.7963,616.5976,654.8704,617.2333,664.9444,616.8845,675.0185,616.9275,685.0926,617.2429,695.1667,616.6197,705.2407,617.8647,715.3148,616.6808,725.3889,617.1133,735.463,617.743,745.537,617.2253,755.6111,617.3793,765.6852,617.2791,775.7593,617.4896,785.8333,617.5502,795.9074,617.8967,805.9815,617.9821,816.0556,617.9903,826.1296,617.5657,836.2037,617.7746,846.2778,618.0133,856.3519,616.5899,866.4259,617.9895,876.5,617.311,876.408,617.275,879.0657,623.5019,881.1464,629.5028,883.6787,635.6806,886.3302,641.9051,888.5,647.9409,888.4849,647.9349,886.1327,654.0796,883.8051,660.234,881.4292,666.3694,878.8988,672.4443,876.5,678.5707,876.5,678.8579,866.4259,677.9983,856.3519,678.8551,846.2778,679.1189,836.2037,679.0152,826.1296,679.1837,816.0556,678.0876,805.9815,677.9185,795.9074,677.9493,785.8333,678.5118,775.7593,678.3742,765.6852,679.2521,755.6111,678.396,745.537,678.2277,735.463,678.799,725.3889,677.9039,715.3148,678.0516,705.2407,679.2197,695.1667,679.0064,685.0926,679.3052,675.0185,678.2489,664.9444,678.8899,654.8704,679.1611,644.7963,678.0983,634.7222,678.4748,624.6481,678.6967,614.5741,679.2225,604.5,678.5707,604.4987,678.5702,602.2436,672.501,599.5281,666.2514,597.0898,660.1105,595.0563,654.1281,592.5,647.9409,592.2775,647.8537,595.058,641.8768,597.3641,635.7141,599.6168,629.5304,601.9902,623.394,604.5,617.311" style="stroke:#181818;stroke-width:0.5;"/><text fill="#000000" font-family="Chalkduster" font-size="24" lengthAdjust="spacing" textLength="272" x="604.5" y="641.1519">Use an institutional</text><text fill="#000000" font-family="Chalkduster" font-size="24" lengthAdjust="spacing" textLength="213" x="604.5" y="671.7818">data repository</text><text fill="#000000" font-family="Chalkduster" font-size="24" lengthAdjust="spacing" textLength="35" x="557.5" y="641.1519">no</text><text fill="#000000" font-family="Chalkduster" font-size="24" lengthAdjust="spacing" textLength="42" x="888.5" y="641.1519">yes</text><polygon fill="#F1F1F1" points="187,688.5707,187,688.7809,197.0588,688.1564,207.1176,688.764,217.1765,688.9704,227.2353,687.8573,237.2941,688.493,247.3529,688.1442,257.4118,688.1872,267.4706,688.5025,277.5294,687.8793,287.5882,689.1243,297.6471,687.9404,307.7059,688.3729,317.7647,689.0027,327.8235,688.4849,337.8824,688.6389,347.9412,688.5388,358,688.7492,368.0588,688.8098,378.1176,689.1564,388.1765,689.2418,398.2353,689.25,408.2941,688.8253,418.3529,689.0343,428.4118,689.2729,438.4706,687.8495,448.5294,689.2492,458.5882,688.2742,468.6471,689.1045,478.7059,688.0757,488.7647,688.5022,498.8235,689.3123,508.8824,688.522,518.9412,688.676,529,688.9093,539.0588,688.9869,549.1176,688.5668,559.1765,688.8579,569.2353,687.9983,579.2941,688.8551,589.3529,689.1189,599.4118,689.0152,609.4706,689.1837,619.5294,688.0876,629.5882,687.9185,639.6471,687.9493,649.7059,688.5118,659.7647,688.3742,669.8235,689.2521,679.8824,688.396,689.9412,688.2277,700,688.5707,700.0599,688.6176,702.225,691.4966,704.6638,694.5899,707.3703,697.8931,709.7143,700.9122,712,703.8856,712.1927,704.0366,709.5156,706.8824,707.2838,710.0772,704.9549,713.196,702.276,716.0404,700,719.2005,700,719.1047,689.9412,719.3265,679.8824,719.8523,669.8235,719.1963,659.7647,719.6631,649.7059,718.6468,639.6471,718.5233,629.5882,719.7041,619.5294,718.4836,609.4706,719.7095,599.4118,719.4072,589.3529,718.9326,579.2941,718.8468,569.2353,719.6593,559.1765,718.9012,549.1176,719.7924,539.0588,718.6478,529,719.818,518.9412,719.6848,508.8824,719.4455,498.8235,719.2478,488.7647,719.9271,478.7059,719.8141,468.6471,719.3698,458.5882,719.4687,448.5294,719.0703,438.4706,719.917,428.4118,719.3554,418.3529,719.3731,408.2941,718.5922,398.2353,718.7953,388.1765,719.7313,378.1176,719.6303,368.0588,719.1576,358,718.8784,347.9412,718.9816,337.8824,718.5144,327.8235,719.6153,317.7647,719.9401,307.7059,719.7269,297.6471,719.8955,287.5882,719.0638,277.5294,719.2878,267.4706,718.8129,257.4118,719.4846,247.3529,719.4473,237.2941,719.7529,227.2353,718.9709,217.1765,719.0661,207.1176,719.644,197.0588,719.7679,187,719.2005,186.8655,719.0952,184.5491,716.0977,182.2392,713.1053,179.6397,709.886,177.4927,707.0213,175,703.8856,175.0677,703.9387,177.3736,700.8019,179.8373,697.7889,182.3912,694.8465,184.5179,691.5694,187,688.5707" style="stroke:#181818;stroke-width:0.5;"/><text fill="#000000" font-family="Chalkduster" font-size="24" lengthAdjust="spacing" textLength="513" x="187" y="712.4116">Choose a Generalist Data Repository</text><text fill="#000000" font-family="Chalkduster" font-size="24" lengthAdjust="spacing" textLength="42" x="133" y="697.0967">yes</text><text fill="#000000" font-family="Chalkduster" font-size="24" lengthAdjust="spacing" textLength="35" x="712" y="697.0967">no</text><polygon fill="#F1F1F1" points="129.5,729.2005,129.5,729.4107,139.6429,728.7862,149.7857,729.3938,159.9286,729.6002,170.0714,728.4871,180.2143,729.1228,190.3571,728.774,200.5,729.2005,200.4511,729.0824,202.2591,729.9118,203.9473,730.4521,205.8739,731.5677,207.4907,731.9354,209.3388,732.8617,209.2779,732.8365,210.2041,734.6846,210.7769,736.3863,211.5565,738.1737,212.2579,739.9287,213,741.7005,213.0595,741.7005,213.0797,746.8265,213.1952,751.9525,213.2237,757.0784,213.2264,762.2044,213,767.3304,213.0784,767.3629,212.4105,769.1573,211.7518,770.9555,210.5812,772.5417,210.28,774.488,209.3388,776.1692,209.301,776.0779,207.6392,777.0658,205.7402,777.4812,204.0268,778.3448,202.3624,779.3265,200.5,779.8304,200.5,779.7816,190.3571,779.9357,180.2143,780.169,170.0714,780.2466,159.9286,779.8265,149.7857,780.1176,139.6429,779.258,129.5,779.8304,129.5363,779.9179,127.8022,779.267,126.0212,778.5028,124.2749,777.8225,122.3673,776.7527,120.6612,776.1692,120.4603,776.086,119.7376,774.3222,119.1786,772.6262,118.4039,770.8408,117.9421,769.1851,117,767.3304,116.9418,767.3304,116.8856,762.2044,117.0761,757.0784,116.7777,751.9525,116.827,746.8265,117,741.7005,117.1999,741.7833,117.8664,739.9883,118.6907,738.2587,119.0976,736.3562,120.0272,734.6702,120.6612,732.8617,120.7365,733.0435,122.3687,731.984,124.1845,731.3677,125.9805,730.7038,127.8154,730.1335,129.5,729.2005" style="stroke:#181818;stroke-width:0.5;"/><text fill="#000000" font-family="Chalkduster" font-size="24" lengthAdjust="spacing" textLength="76" x="127" y="763.0414">Use it</text><polygon fill="#F1F1F1" points="497,729.2005,497,729.4107,507,728.7862,517,729.3938,527,729.6002,537,728.4871,547,729.1228,557,728.774,567,728.817,577,729.1324,587,728.5092,597,729.7542,607,728.5703,617,729.0028,627,729.6325,637,729.1148,647,729.2688,657,729.1686,667,729.3791,677,729.4397,687,729.7862,697,729.8716,707,729.8798,717,729.4552,727,729.6641,737,729.9028,747,728.4794,757,729.879,767,728.904,777,729.7343,787,728.7055,797,729.132,807,729.9421,817,729.1518,827,729.3058,837,729.5392,847,729.6168,857,729.1966,867,729.4878,877,728.6281,887,729.4849,897,729.7487,907,729.6451,917,729.8136,927,728.7175,937,728.5484,947,729.2005,946.9207,729.0092,948.7603,729.9146,950.5105,730.6045,952.3902,731.6071,954.0488,732.0757,955.8388,732.8617,955.7332,732.8179,956.6414,734.6586,957.0979,736.3122,957.8757,738.0988,958.9676,740.0156,959.5,741.7005,959.9357,741.7005,960.2345,751.6327,959.1782,761.5649,959.8192,771.497,960.0904,781.4292,959.0276,791.3614,959.4041,801.2935,959.626,811.2257,960.1518,821.1579,959.4958,831.09,959.9626,841.0222,958.9462,850.9544,958.8227,860.8865,960.0036,870.8187,958.7831,880.7509,960.009,890.683,959.7066,900.6152,959.2321,910.5474,959.5,920.4795,959.3911,920.4344,958.909,922.3058,957.9434,923.9769,957.4856,925.8583,956.4008,927.4801,955.8388,929.3184,955.9176,929.5085,954.1328,930.1997,952.3345,930.8583,950.5416,931.5296,948.8605,932.4711,947,932.9795,947,933.5931,937,933.1488,927,933.2477,917,932.8493,907,933.696,897,933.1344,887,933.1521,877,932.3712,867,932.5743,857,933.5103,847,933.4093,837,932.9366,827,932.6574,817,932.7606,807,932.2934,797,933.3943,787,933.7191,777,933.5059,767,933.6745,757,932.8428,747,933.0668,737,932.5919,727,933.2636,717,933.2263,707,933.5319,697,932.7499,687,932.8451,677,933.423,667,933.5469,657,932.467,647,932.7857,637,933.1288,627,932.3687,617,933.3329,607,933.2375,597,932.8788,587,933.1218,577,933.7082,567,932.6667,557,933.2945,547,933.2652,537,933.0953,527,933.1205,517,933.093,507,932.3554,497,932.9795,496.9489,932.8561,495.1734,932.1052,493.4726,931.5347,491.7079,930.81,489.9496,930.1004,488.1612,929.3184,488.0716,929.2813,487.4081,927.542,486.6597,925.7675,486.1421,924.0887,485.3636,922.3017,484.5,920.4795,484.0145,920.4795,484.4271,910.5474,483.9228,900.6152,484.7884,890.683,485.1085,880.7509,485.0446,870.8187,484.0644,860.8865,484.964,850.9544,483.7572,841.0222,484.7002,831.09,484.2007,821.1579,484.5967,811.2257,484.7403,801.2935,484.9721,791.3614,483.7801,781.4292,484.9755,771.497,484.6782,761.5649,484.8553,751.6327,484.5,741.7005,484.7303,741.7959,485.2339,739.9335,486.0184,738.1874,486.7624,736.4245,487.4897,734.6546,488.1612,732.8617,488.1611,732.8615,490.0196,732.3483,491.6189,731.2095,493.5366,730.8391,495.1526,729.7406,497,729.2005" style="stroke:#181818;stroke-width:0.5;"/><text fill="#000000" font-family="Chalkduster" font-size="24" lengthAdjust="spacing" textLength="12" x="494.5" y="763.0414">&#160;</text><text fill="#000000" font-family="Chalkduster" font-size="24" lengthAdjust="spacing" textLength="12" x="494.5" y="793.6713">&#160;</text><text fill="#000000" font-family="Chalkduster" font-size="24" lengthAdjust="spacing" textLength="455" x="494.5" y="824.3011">Join LDaCA in using open source</text><text fill="#000000" font-family="Chalkduster" font-size="24" lengthAdjust="spacing" textLength="374" x="494.5" y="854.9309">standards based solutions?</text><text fill="#000000" font-family="Chalkduster" font-size="24" lengthAdjust="spacing" textLength="12" x="494.5" y="885.5608">&#160;</text><text fill="#000000" font-family="Chalkduster" font-size="24" lengthAdjust="spacing" textLength="12" x="494.5" y="916.1906">&#160;</text><polygon fill="none" points="733.0608,966.6552,731.4484,968.8583,729.5412,972.0852,726.8136,974.2599,723.9474,975.4491,721.662,975.5524,718.7247,974.0651,715.9532,973.0935,713.8495,971.1207,712.7461,968.8623,712.0917,967.0641,711.4506,964.7152,710.41,962.694,711.2096,960.7205,711.9102,958.5588,714.5393,956.849,716.389,954.6306,718.6784,953.894,721.4001,953.2596,724.8904,953.6365,726.8021,954.5381,729.0247,954.9467,731.7272,957.7155,732.6693,960.6385,733.0786,962.6329,732.615,965.9194" style="stroke:#222222;stroke-width:1.0;"/><polygon fill="#222222" points="728.0331,965.439,727.1536,966.6407,726.1134,968.4008,724.6256,969.587,723.0622,970.2357,721.8156,970.292,720.2135,969.4807,718.7017,968.9508,717.5543,967.8747,716.9524,966.6429,716.5955,965.662,716.2458,964.3808,715.6782,963.2783,716.1143,962.2019,716.4965,961.0227,717.9305,960.0902,718.9394,958.8801,720.1882,958.4783,721.6728,958.1323,723.5766,958.3379,724.6193,958.8296,725.8317,959.0525,727.3057,960.5628,727.8196,962.1571,728.0429,963.245,727.79,965.0376" style="stroke:#222222;stroke-width:1.0;"/><polygon fill="#F1F1F1" points="1002,688.5707,1002,688.7809,1012.1429,688.1564,1022.2857,688.764,1032.4286,688.9704,1042.5714,687.8573,1052.7143,688.493,1062.8571,688.1442,1073,688.5707,1072.9511,688.4526,1074.7591,689.2819,1076.4473,689.8223,1078.3739,690.9379,1079.9907,691.3055,1081.8388,692.2319,1081.7779,692.2066,1082.7041,694.0547,1083.2769,695.7565,1084.0565,697.5439,1084.7579,699.2989,1085.5,701.0707,1085.5595,701.0707,1085.5797,706.1967,1085.6952,711.3226,1085.7237,716.4486,1085.7264,721.5746,1085.5,726.7005,1085.5784,726.733,1084.9105,728.5274,1084.2518,730.3256,1083.0812,731.9118,1082.78,733.8582,1081.8388,735.5394,1081.801,735.4481,1080.1392,736.436,1078.2402,736.8514,1076.5268,737.715,1074.8624,738.6967,1073,739.2005,1073,739.1518,1062.8571,739.3058,1052.7143,739.5392,1042.5714,739.6168,1032.4286,739.1966,1022.2857,739.4878,1012.1429,738.6281,1002,739.2005,1002.0363,739.2881,1000.3022,738.6371,998.5212,737.873,996.7749,737.1926,994.8673,736.1228,993.1612,735.5394,992.9603,735.4562,992.2376,733.6923,991.6786,731.9963,990.9039,730.211,990.4421,728.5552,989.5,726.7005,989.4418,726.7005,989.3856,721.5746,989.5761,716.4486,989.2777,711.3226,989.327,706.1967,989.5,701.0707,989.6999,701.1535,990.3664,699.3585,991.1907,697.6289,991.5976,695.7264,992.5272,694.0404,993.1612,692.2319,993.2365,692.4137,994.8687,691.3542,996.6845,690.7379,998.4805,690.074,1000.3154,689.5037,1002,688.5707" style="stroke:#181818;stroke-width:0.5;"/><text fill="#000000" font-family="Chalkduster" font-size="24" lengthAdjust="spacing" textLength="76" x="999.5" y="722.4116">Use it</text><polygon fill="#F1F1F1" points="740.5,984.9795,740.5495,985.0291,742.8023,987.2819,745.3456,989.8251,747.7942,992.2737,749.9319,994.4114,752.5,996.9795,752.4817,996.9612,749.9995,999.279,747.6096,1001.6891,745.2839,1004.1635,742.737,1006.4166,740.5,1008.9795,740.6305,1009.11,737.9514,1006.431,735.6534,1004.1329,733.4018,1001.8813,730.8798,999.3593,728.5,996.9795,728.5161,996.9956,730.8925,994.572,733.3421,992.2216,735.7564,989.8359,738.238,987.5176,740.5,984.9795" style="stroke:#181818;stroke-width:0.5;"/><polygon fill="#F1F1F1" points="384.75,1014.9795,384.7995,1015.0291,387.0523,1017.2819,389.5956,1019.8251,392.0442,1022.2737,394.1819,1024.4114,396.75,1026.9795,396.7317,1026.9612,394.2495,1029.279,391.8596,1031.6891,389.5339,1034.1635,386.987,1036.4166,384.75,1038.9795,384.8805,1039.11,382.2014,1036.431,379.9034,1034.1329,377.6518,1031.8813,375.1298,1029.3593,372.75,1026.9795,372.7661,1026.9956,375.1425,1024.572,377.5921,1022.2216,380.0064,1019.8359,382.488,1017.5176,384.75,1014.9795" style="stroke:#181818;stroke-width:0.5;"/><path d="M449.25,1049.2685 L449.8105,1049.2685 L448.1451,1058.6574 L449.7654,1068.0464 L450.3158,1077.4353 L447.3476,1086.8243 L449.25,1096.2132 L449.2365,1096.1455 L445.1757,1096.6415 L441.1831,1097.479 L437.2381,1098.5538 L433.1295,1098.8106 L429.25,1100.2132 L429.3465,1100.6958 L433.1401,1100.4639 L437.2155,1101.6409 L441.3253,1102.9897 L445.235,1103.3385 L449.25,1104.2132 L449.432,1104.2132 L449.1648,1113.6022 L449.7261,1122.9911 L449.8877,1132.3801 L450.8118,1141.769 L449.25,1151.158 L449.25,1151.158 L449.25,1152.9475 L459.2,1152.9693 L469.15,1151.837 L479.1,1152.3942 L489.05,1153.0306 L499,1149.2348 L508.95,1152.9673 L518.9,1150.3673 L528.85,1152.5815 L538.8,1149.8379 L548.75,1150.9753 L558.7,1153.1356 L568.65,1151.028 L578.6,1151.4388 L588.55,1152.061 L598.5,1152.2679 L608.45,1151.1476 L618.4,1151.9239 L628.35,1149.6315 L638.3,1151.9164 L648.25,1152.6198 L658.2,1152.3434 L668.15,1152.7927 L678.1,1149.8698 L688.05,1149.4188 L698,1149.5009 L707.95,1151.001 L717.9,1150.6339 L727.85,1152.9751 L737.8,1150.6922 L747.75,1150.2432 L757.7,1151.7667 L767.65,1149.3797 L777.6,1149.7737 L787.55,1152.8885 L797.5,1152.3198 L807.45,1153.1166 L817.4,1150.2999 L827.35,1152.0092 L837.3,1152.7324 L847.25,1149.8982 L857.2,1150.9024 L867.15,1151.4939 L877.1,1152.896 L887.05,1151.1468 L897,1152.3915 L906.95,1149.6812 L916.9,1149.352 L926.85,1152.501 L936.8,1149.2461 L946.75,1152.5152 L956.7,1151.709 L966.65,1150.4435 L976.6,1150.2146 L986.55,1152.3813 L996.5,1150.3598 L1006.45,1152.7363 L1016.4,1149.684 L1026.35,1152.8045 L1036.3,1152.4495 L1046.25,1151.8112 L1056.2,1151.2839 L1066.15,1153.0956 L1076.1,1152.7942 L1086.05,1151.6093 L1096,1151.8732 L1105.95,1150.8106 L1115.9,1153.0685 L1125.85,1151.571 L1135.8,1151.6182 L1145.75,1149.5357 L1155.7,1150.0774 L1165.65,1152.5733 L1175.6,1152.304 L1185.55,1151.0435 L1195.5,1150.2989 L1205.45,1150.5742 L1215.4,1149.3282 L1225.35,1152.264 L1235.3,1153.1302 L1245.25,1151.158 L1245.25,1151.158 L1246.6537,1151.158 L1247.1032,1140.948 L1244.8854,1130.7381 L1245.4826,1120.5282 L1244.2164,1110.3182 L1246.0074,1100.1083 L1245.908,1089.8983 L1246.723,1079.6884 L1244.6376,1069.4784 L1245.25,1059.2685 L1245.1655,1059.184 L1243.5287,1057.5472 L1241.6066,1055.6251 L1238.9279,1052.9463 L1237.1281,1051.1466 L1235.25,1049.2685 L1235.25,1049.6665 L1225.3006,1047.6396 L1215.3513,1050.2109 L1205.4019,1049.9565 L1195.4525,1048.9998 L1185.5032,1049.6478 L1175.5538,1051.2116 L1165.6044,1048.4342 L1155.6551,1050.1085 L1145.7057,1050.0302 L1135.7563,1049.5772 L1125.807,1049.6443 L1115.8576,1049.5711 L1105.9082,1047.6041 L1095.9589,1048.1996 L1086.0095,1048.0377 L1076.0601,1049.4387 L1066.1108,1049.5035 L1056.1614,1049.6998 L1046.212,1048.4926 L1036.2627,1049.0884 L1026.3133,1048.9479 L1016.3639,1050.8068 L1006.4146,1050.406 L996.4652,1047.9737 L986.5158,1049.074 L976.5665,1047.7292 L966.6171,1050.0375 L956.6677,1050.8911 L946.7184,1050.7207 L936.769,1048.107 L926.8196,1050.5057 L916.8703,1047.2877 L906.9209,1049.8022 L896.9715,1048.4703 L887.0222,1049.5264 L877.0728,1049.9094 L867.1234,1050.5274 L857.1741,1047.3487 L847.2247,1050.5364 L837.2753,1049.7436 L827.3259,1050.216 L817.3766,1051.2626 L807.4272,1049.2831 L797.4778,1049.7359 L787.5285,1049.8377 L777.5791,1049.7944 L767.6297,1049.2663 L757.6804,1051.1637 L747.731,1047.6425 L737.7816,1050.7759 L727.8323,1047.6045 L717.8829,1047.8276 L707.9335,1049.3752 L697.9842,1049.3439 L688.0348,1047.9543 L678.0854,1050.3717 L668.1361,1049.5588 L658.1867,1051.2062 L648.2373,1051.0474 L638.288,1048.0731 L628.3386,1048.2073 L618.3892,1048.924 L608.4399,1050.2166 L598.4905,1050.3431 L588.5411,1050.0716 L578.5918,1048.3566 L568.6424,1050.9654 L558.693,1050.9586 L548.7437,1049.1424 L538.7943,1048.631 L528.8449,1048.1981 L518.8956,1048.6963 L508.9462,1049.6349 L498.9968,1049.0861 L489.0475,1048.1544 L479.0981,1050.5682 L469.1487,1048.0447 L459.1994,1050.6082 L449.25,1049.2685 L449.25,1049.2685 " fill="#FFFFE0" style="stroke:#181818;stroke-width:4.0;"/><path d="M1235.25,1049.2685 L1235.4368,1049.2685 L1234.8817,1051.2685 L1235.4218,1053.2685 L1235.6053,1055.2685 L1234.6159,1057.2685 L1235.25,1059.2685 L1235.25,1059.1994 L1237.25,1058.8894 L1239.25,1058.9276 L1241.25,1059.2079 L1243.25,1058.6539 L1245.25,1059.2685 L1245.598,1059.6165 L1242.8538,1056.8723 L1241.1257,1055.1442 L1239.5215,1053.54 L1237.1961,1051.2146 L1235.25,1049.2685 " fill="#FFFFE0" style="stroke:#181818;stroke-width:4.0;"/><text fill="#000000" font-family="Chalkduster" font-size="24" lengthAdjust="spacing" textLength="775" x="455.25" y="1078.1094">If you made it here, you found a disiplne, institutional</text><text fill="#000000" font-family="Chalkduster" font-size="24" lengthAdjust="spacing" textLength="734" x="455.25" y="1108.7392">or generalist repo that can address all of the above</text><text fill="#000000" font-family="Chalkduster" font-size="24" lengthAdjust="spacing" textLength="769" x="455.25" y="1139.369">considerations, sensitivity, access control, data volume</text><polygon fill="#F1F1F1" points="352.75,1074.8983,352.75,1075.1085,363.4167,1074.484,374.0833,1075.0916,384.75,1075.298,395.4167,1074.1849,406.0833,1074.8206,416.75,1074.8983,416.6956,1074.767,418.4688,1075.5125,420.2768,1076.3418,421.9651,1076.8821,423.8917,1077.9978,425.5888,1078.5595,425.3947,1078.4791,426.2602,1080.302,427.1863,1082.1501,427.7591,1083.8518,428.5388,1085.6393,429.25,1087.3983,429.2394,1087.3983,429.3095,1092.5243,429.3297,1097.6503,429.4452,1102.7762,429.4737,1107.9022,429.25,1113.0282,429.4592,1113.1148,428.5962,1114.8284,427.9283,1116.6228,427.2696,1118.421,426.099,1120.0072,425.5888,1121.867,425.6754,1122.0759,423.7832,1122.5079,422.1214,1123.4958,420.2224,1123.9112,418.509,1124.7748,416.75,1125.5282,416.75,1126.2698,406.0833,1125.4794,395.4167,1125.6335,384.75,1125.8668,374.0833,1125.9444,363.4167,1125.5242,352.75,1125.5282,352.7866,1125.6166,350.9092,1124.6196,349.2507,1124.1513,347.5166,1123.5003,345.7356,1122.7361,343.9112,1121.867,344.1,1121.9452,343.0302,1120.0376,342.2459,1118.2483,341.5231,1116.4844,340.9641,1114.7884,340.25,1113.0282,340.1845,1113.0282,340.4771,1107.9022,340.1918,1102.7762,340.1356,1097.6503,340.3261,1092.5243,340.25,1087.3983,340.0446,1087.3133,340.8224,1085.5643,341.9143,1083.9456,342.5809,1082.1506,343.4051,1080.4209,343.9112,1078.5595,343.8701,1078.4604,345.7196,1077.9256,347.522,1077.2768,349.1542,1076.2173,350.97,1075.601,352.75,1074.8983" style="stroke:#181818;stroke-width:0.5;"/><text fill="#000000" font-family="Chalkduster" font-size="24" lengthAdjust="spacing" textLength="69" x="350.25" y="1108.7392">done</text><path d="M722,932.9795 L722.0934,932.9795 L721.8159,936.9795 L722.0859,940.9795 L722.1776,944.9795 L721.6829,948.9795 L722,952.9795 " fill="#8B0000" style="stroke:#8B0000;stroke-width:4.0;"/><polygon fill="#8B0000" points="718,942.9795,718.065,943.0056,718.6718,944.9282,719.6598,947.0035,720.5237,949.029,720.9792,950.8912,722,952.9795,721.9759,952.9699,722.668,950.9267,723.4813,948.9321,724.3789,946.9711,724.986,944.8939,726,942.9795,726.1305,943.11,725.0514,943.631,724.3534,944.5329,723.7018,945.4813,722.7798,946.1593,722,946.9795,722.0161,946.9956,721.1925,946.172,720.4421,945.4216,719.6564,944.6359,718.938,943.9176,718,942.9795" style="stroke:#8B0000;stroke-width:1.0;"/><path d="M175,703.8856 L175,703.979 L173,703.7015 L171,703.9715 L169,704.0633 L167,703.5686 L165,703.8856 " fill="#8B0000" style="stroke:#8B0000;stroke-width:4.0;"/><path d="M165,703.8856 L165.0934,703.8856 L164.8159,708.9486 L165.0859,714.0116 L165.1776,719.0746 L164.6829,724.1376 L165,729.2005 " fill="#8B0000" style="stroke:#8B0000;stroke-width:4.0;"/><polygon fill="#8B0000" points="161,719.2005,161.065,719.2266,161.6718,721.1492,162.6598,723.2245,163.5237,725.25,163.9792,727.1122,165,729.2005,164.9759,729.1909,165.668,727.1477,166.4813,725.1531,167.3789,723.1921,167.986,721.1149,169,719.2005,169.1305,719.331,168.0514,719.852,167.3534,720.7539,166.7018,721.7023,165.7798,722.3803,165,723.2005,165.0161,723.2166,164.1925,722.393,163.4421,721.6426,162.6564,720.8569,161.938,720.1386,161,719.2005" style="stroke:#8B0000;stroke-width:1.0;"/><path d="M712,703.8856 L712,703.979 L714,703.7015 L716,703.9715 L718,704.0633 L720,703.5686 L722,703.8856 " fill="#8B0000" style="stroke:#8B0000;stroke-width:4.0;"/><path d="M722,703.8856 L722.0934,703.8856 L721.8159,708.9486 L722.0859,714.0116 L722.1776,719.0746 L721.6829,724.1376 L722,729.2005 " fill="#8B0000" style="stroke:#8B0000;stroke-width:4.0;"/><polygon fill="#8B0000" points="718,719.2005,718.065,719.2266,718.6718,721.1492,719.6598,723.2245,720.5237,725.25,720.9792,727.1122,722,729.2005,721.9759,729.1909,722.668,727.1477,723.4813,725.1531,724.3789,723.1921,724.986,721.1149,726,719.2005,726.1305,719.331,725.0514,719.852,724.3534,720.7539,723.7018,721.7023,722.7798,722.3803,722,723.2005,722.0161,723.2166,721.1925,722.393,720.4421,721.6426,719.6564,720.8569,718.938,720.1386,718,719.2005" style="stroke:#8B0000;stroke-width:1.0;"/><path d="M165,779.8304 L165.2802,779.8304 L164.4476,789.7008 L165.2577,799.5712 L165.5329,809.4416 L164.0488,819.312 L164.8964,829.1825 L164.4313,839.0529 L164.4887,848.9233 L164.9091,858.7937 L164.0782,868.6641 L165.7382,878.5345 L164.1596,888.405 L164.7363,898.2754 L165.5759,908.1458 L164.8856,918.0162 L165.091,927.8866 L164.9574,937.757 L165.238,947.6275 L165.3188,957.4979 L165.7809,967.3683 L165.8947,977.2387 L165.9057,987.1091 L165,996.9795 " fill="#8B0000" style="stroke:#8B0000;stroke-width:4.0;"/><path d="M165,996.9795 L165,997.2598 L175.0625,996.4271 L185.125,997.2373 L195.1875,997.5124 L205.25,996.0283 L215.3125,996.8759 L225.375,996.4109 L235.4375,996.4682 L245.5,996.8887 L255.5625,996.0577 L265.625,997.7177 L275.6875,996.1392 L285.75,996.7158 L295.8125,997.5555 L305.875,996.8652 L315.9375,997.0705 L326,996.9369 L336.0625,997.2176 L346.125,997.2984 L356.1875,997.7605 L366.25,997.8743 L376.3125,997.8852 L386.375,997.319 L396.4375,997.5976 L406.5,997.9158 L416.5625,996.018 L426.625,997.8842 L436.6875,996.5842 L446.75,997.6913 L456.8125,996.3195 L466.875,996.8882 L476.9375,997.9683 L487,996.9146 L497.0625,997.1199 L507.125,997.431 L517.1875,997.5345 L527.25,996.9743 L537.3125,997.3625 L547.375,996.2163 L557.4375,997.3587 L567.5,997.7105 L577.5625,997.5722 L587.625,997.7969 L597.6875,996.3354 L607.75,996.11 L617.8125,996.151 L627.875,996.901 L637.9375,996.7175 L648,997.8881 L658.0625,996.7466 L668.125,996.5221 L678.1875,997.2839 L688.25,996.0904 L698.3125,996.2874 L708.375,997.8448 L718.4375,997.5604 L728.5,996.9795 " fill="#8B0000" style="stroke:#8B0000;stroke-width:4.0;"/><polygon fill="#8B0000" points="718.5,992.9795,718.526,993.0446,720.4487,993.6513,722.5239,994.6394,724.5495,995.5032,726.4117,995.9587,728.5,996.9795,728.4904,996.9555,726.4472,997.6475,724.4525,998.4608,722.4916,999.3584,720.4144,999.9656,718.5,1000.9795,718.6305,1001.11,719.1514,1000.031,720.0534,999.3329,721.0018,998.6813,721.6798,997.7593,722.5,996.9795,722.5161,996.9956,721.6925,996.172,720.9421,995.4216,720.1564,994.6359,719.438,993.9176,718.5,992.9795" style="stroke:#8B0000;stroke-width:1.0;"/><path d="M592.5,647.9409 L592.5,648.2211 L582.5667,647.3884 L572.6333,648.1986 L562.7,648.4738 L552.7667,646.9897 L542.8333,647.8373 L532.9,647.3722 L522.9667,647.4295 L513.0333,647.85 L503.1,647.019 L493.1667,648.6791 L483.2333,647.1005 L473.3,647.6772 L463.3667,648.5168 L453.4333,647.8265 L443.5,647.9409 " fill="#8B0000" style="stroke:#8B0000;stroke-width:4.0;"/><path d="M443.5,647.9409 L443.5934,647.9409 L443.3159,656.0668 L443.5859,664.1928 L443.6776,672.3188 L443.1829,680.4447 L443.5,688.5707 " fill="#8B0000" style="stroke:#8B0000;stroke-width:4.0;"/><polygon fill="#8B0000" points="439.5,678.5707,439.565,678.5967,440.1718,680.5194,441.1598,682.5946,442.0237,684.6202,442.4792,686.4824,443.5,688.5707,443.4759,688.5611,444.168,686.5179,444.9813,684.5232,445.8789,682.5623,446.486,680.4851,447.5,678.5707,447.6305,678.7012,446.5514,679.2221,445.8534,680.1241,445.2018,681.0725,444.2798,681.7505,443.5,682.5707,443.5161,682.5868,442.6925,681.7632,441.9421,681.0128,441.1564,680.2271,440.438,679.5088,439.5,678.5707" style="stroke:#8B0000;stroke-width:1.0;"/><path d="M888.5,647.9409 L888.5,648.2211 L898.4333,647.3884 L908.3667,648.1986 L918.3,648.4738 L928.2333,646.9897 L938.1667,647.8373 L948.1,647.3722 L958.0333,647.4295 L967.9667,647.85 L977.9,647.019 L987.8333,648.6791 L997.7667,647.1005 L1007.7,647.6772 L1017.6333,648.5168 L1027.5667,647.8265 L1037.5,647.9409 " fill="#8B0000" style="stroke:#8B0000;stroke-width:4.0;"/><path d="M1037.5,647.9409 L1037.5934,647.9409 L1037.3159,656.0668 L1037.5859,664.1928 L1037.6776,672.3188 L1037.1829,680.4447 L1037.5,688.5707 " fill="#8B0000" style="stroke:#8B0000;stroke-width:4.0;"/><polygon fill="#8B0000" points="1033.5,678.5707,1033.565,678.5967,1034.1718,680.5194,1035.1598,682.5946,1036.0237,684.6202,1036.4792,686.4824,1037.5,688.5707,1037.4759,688.5611,1038.168,686.5179,1038.9813,684.5232,1039.8789,682.5623,1040.486,680.4851,1041.5,678.5707,1041.6305,678.7012,1040.5514,679.2221,1039.8534,680.1241,1039.2018,681.0725,1038.2798,681.7505,1037.5,682.5707,1037.5161,682.5868,1036.6925,681.7632,1035.9421,681.0128,1035.1564,680.2271,1034.438,679.5088,1033.5,678.5707" style="stroke:#8B0000;stroke-width:1.0;"/><path d="M1037.5,739.2005 L1037.7802,739.2005 L1036.9476,749.1151 L1037.7577,759.0297 L1038.0329,768.9443 L1036.5488,778.8588 L1037.3964,788.7734 L1036.9313,798.688 L1036.9887,808.6026 L1037.4091,818.5172 L1036.5782,828.4317 L1038.2382,838.3463 L1036.6596,848.2609 L1037.2363,858.1755 L1038.0759,868.09 L1037.3856,878.0046 L1037.591,887.9192 L1037.4574,897.8338 L1037.738,907.7483 L1037.8188,917.6629 L1038.2809,927.5775 L1038.3947,937.4921 L1038.4057,947.4067 L1037.8395,957.3212 L1038.1181,967.2358 L1038.4363,977.1504 L1036.5384,987.065 L1037.5,996.9795 " fill="#8B0000" style="stroke:#8B0000;stroke-width:4.0;"/><path d="M1037.5,996.9795 L1037.5,997.2598 L1027.6724,996.4271 L1017.8448,997.2373 L1008.0172,997.5124 L998.1897,996.0283 L988.3621,996.8759 L978.5345,996.4109 L968.7069,996.4682 L958.8793,996.8887 L949.0517,996.0577 L939.2241,997.7177 L929.3966,996.1392 L919.569,996.7158 L909.7414,997.5555 L899.9138,996.8652 L890.0862,997.0705 L880.2586,996.9369 L870.431,997.2176 L860.6034,997.2984 L850.7759,997.7605 L840.9483,997.8743 L831.1207,997.8852 L821.2931,997.319 L811.4655,997.5976 L801.6379,997.9158 L791.8103,996.018 L781.9828,997.8842 L772.1552,996.5842 L762.3276,997.6913 L752.5,996.9795 " fill="#8B0000" style="stroke:#8B0000;stroke-width:4.0;"/><polygon fill="#8B0000" points="762.5,992.9795,762.526,993.0446,760.4487,993.6513,758.5239,994.6394,756.5495,995.5032,754.4117,995.9587,752.5,996.9795,752.4904,996.9555,754.4472,997.6475,756.4525,998.4608,758.4916,999.3584,760.4144,999.9656,762.5,1000.9795,762.6305,1001.11,761.5514,1000.031,760.8534,999.3329,760.2018,998.6813,759.2798,997.7593,758.5,996.9795,758.5161,996.9956,759.2925,996.172,760.1421,995.4216,760.9564,994.6359,761.838,993.9176,762.5,992.9795" style="stroke:#8B0000;stroke-width:1.0;"/><path d="M165.75,321.6425 L165.75,321.9228 L156.0455,321.0901 L146.3409,321.9003 L136.6364,322.1754 L126.9318,320.6913 L117.2273,321.5389 L107.5227,321.0739 L97.8182,321.1312 L88.1136,321.5517 L78.4091,320.7207 L68.7045,322.3807 L59,321.6425 " fill="#8B0000" style="stroke:#8B0000;stroke-width:4.0;"/><path d="M59,321.6425 L59.2802,321.6425 L58.4476,331.8225 L59.2577,342.0024 L59.5329,352.1824 L58.0488,362.3623 L58.8964,372.5423 L58.4313,382.7223 L59,392.9022 " fill="#8B0000" style="stroke:#8B0000;stroke-width:4.0;"/><polygon fill="#8B0000" points="55,382.9022,55.065,382.9282,55.6718,384.8509,56.6598,386.9261,57.5237,388.9517,57.9792,390.8139,59,392.9022,58.9759,392.8926,59.668,390.8494,60.4813,388.8547,61.3789,386.8938,61.986,384.8166,63,382.9022,63.1305,383.0327,62.0514,383.5536,61.3534,384.4556,60.7018,385.404,59.7798,386.082,59,386.9022,59.0161,386.9183,58.1925,386.0947,57.4421,385.3443,56.6564,384.5586,55.938,383.8403,55,382.9022" style="stroke:#8B0000;stroke-width:1.0;"/><path d="M603.75,321.6425 L603.75,321.9228 L613.5179,321.0901 L623.2857,321.9003 L633.0536,322.1754 L642.8214,320.6913 L652.5893,321.5389 L662.3571,321.0739 L672.125,321.1312 L681.8929,321.5517 L691.6607,320.7207 L701.4286,322.3807 L711.1964,320.8022 L720.9643,321.3788 L730.7321,322.2185 L740.5,321.6425 " fill="#8B0000" style="stroke:#8B0000;stroke-width:4.0;"/><path d="M740.5,321.6425 L740.7802,321.6425 L739.9476,331.4982 L740.7577,341.3538 L741.0329,351.2094 L739.5488,361.065 L740.3964,370.9206 L739.9313,380.7762 L739.9887,390.6319 L740.4091,400.4875 L739.5782,410.3431 L741.2382,420.1987 L739.6596,430.0543 L740.2363,439.9099 L741.0759,449.7656 L740.3856,459.6212 L740.591,469.4768 L740.4574,479.3324 L740.738,489.188 L740.8188,499.0436 L741.2809,508.8993 L741.3947,518.7549 L741.4057,528.6105 L740.8395,538.4661 L741.1181,548.3217 L741.4363,558.1773 L739.5384,568.033 L741.4047,577.8886 L740.1047,587.7442 L741.2117,597.5998 L739.84,607.4554 L740.5,617.311 " fill="#8B0000" style="stroke:#8B0000;stroke-width:4.0;"/><polygon fill="#8B0000" points="736.5,607.311,736.565,607.3371,737.1718,609.2597,738.1598,611.335,739.0237,613.3605,739.4792,615.2227,740.5,617.311,740.4759,617.3014,741.168,615.2582,741.9813,613.2636,742.8789,611.3026,743.486,609.2254,744.5,607.311,744.6305,607.4415,743.5514,607.9625,742.8534,608.8644,742.2018,609.8128,741.2798,610.4908,740.5,611.311,740.5161,611.3271,739.6925,610.5035,738.9421,609.7531,738.1564,608.9674,737.438,608.2491,736.5,607.311" style="stroke:#8B0000;stroke-width:1.0;"/><path d="M59,443.532 L59.2802,443.532 L58.4476,453.5915 L59.2577,463.6509 L59.5329,473.7104 L58.0488,483.7698 L58.8964,493.8292 L58.4313,503.8887 L58.4887,513.9481 L58.9091,524.0076 L58.0782,534.067 L59.7382,544.1264 L58.1596,554.1859 L58.7363,564.2453 L59.5759,574.3048 L58.8856,584.3642 L59.091,594.4236 L58.9574,604.4831 L59.238,614.5425 L59.3188,624.602 L59.7809,634.6614 L59.8947,644.7208 L59.9057,654.7803 L59.3395,664.8397 L59.6181,674.8991 L59.9363,684.9586 L58.0384,695.018 L59.9047,705.0775 L58.6047,715.1369 L59.7117,725.1963 L58.34,735.2558 L58.9087,745.3152 L59.9888,755.3747 L58.935,765.4341 L59.1404,775.4935 L59.4515,785.553 L59.555,795.6124 L58.9948,805.6719 L59.383,815.7313 L58.2368,825.7907 L59.3792,835.8502 L59.7309,845.9096 L59.5927,855.9691 L59.8174,866.0285 L58.3559,876.0879 L58.1304,886.1474 L58.1715,896.2068 L58.9215,906.2663 L58.738,916.3257 L59.9085,926.3851 L58.7671,936.4446 L58.5426,946.504 L59.3044,956.5635 L58.1109,966.6229 L58.3078,976.6823 L59.8653,986.7418 L59.5809,996.8012 L59.9793,1006.8607 L58.5709,1016.9201 L59,1026.9795 " fill="#8B0000" style="stroke:#8B0000;stroke-width:4.0;"/><path d="M59,1026.9795 L59,1027.2598 L69.121,1026.4271 L79.2419,1027.2373 L89.3629,1027.5124 L99.4839,1026.0283 L109.6048,1026.8759 L119.7258,1026.4109 L129.8468,1026.4682 L139.9677,1026.8887 L150.0887,1026.0577 L160.2097,1027.7177 L170.3306,1026.1392 L180.4516,1026.7158 L190.5726,1027.5555 L200.6935,1026.8652 L210.8145,1027.0705 L220.9355,1026.9369 L231.0565,1027.2176 L241.1774,1027.2984 L251.2984,1027.7605 L261.4194,1027.8743 L271.5403,1027.8852 L281.6613,1027.319 L291.7823,1027.5976 L301.9032,1027.9158 L312.0242,1026.018 L322.1452,1027.8842 L332.2661,1026.5842 L342.3871,1027.6913 L352.5081,1026.3195 L362.629,1026.8882 L372.75,1026.9795 " fill="#8B0000" style="stroke:#8B0000;stroke-width:4.0;"/><polygon fill="#8B0000" points="362.75,1022.9795,362.776,1023.0446,364.6987,1023.6513,366.7739,1024.6394,368.7995,1025.5032,370.6617,1025.9587,372.75,1026.9795,372.7404,1026.9555,370.6972,1027.6475,368.7025,1028.4608,366.7416,1029.3584,364.6644,1029.9656,362.75,1030.9795,362.8805,1031.11,363.4014,1030.031,364.3034,1029.3329,365.2518,1028.6813,365.9298,1027.7593,366.75,1026.9795,366.7661,1026.9956,365.9425,1026.172,365.1921,1025.4216,364.4064,1024.6359,363.688,1023.9176,362.75,1022.9795" style="stroke:#8B0000;stroke-width:1.0;"/><path d="M740.5,1008.9795 L740.5934,1008.9795 L740.3159,1012.5795 L740.5859,1016.1795 L740.6776,1019.7795 L740.1829,1023.3795 L740.5,1026.9795 " fill="#8B0000" style="stroke:#8B0000;stroke-width:4.0;"/><path d="M740.5,1026.9795 L740.5,1027.2598 L730.3897,1026.4271 L720.2794,1027.2373 L710.1691,1027.5124 L700.0588,1026.0283 L689.9485,1026.8759 L679.8382,1026.4109 L669.7279,1026.4682 L659.6176,1026.8887 L649.5074,1026.0577 L639.3971,1027.7177 L629.2868,1026.1392 L619.1765,1026.7158 L609.0662,1027.5555 L598.9559,1026.8652 L588.8456,1027.0705 L578.7353,1026.9369 L568.625,1027.2176 L558.5147,1027.2984 L548.4044,1027.7605 L538.2941,1027.8743 L528.1838,1027.8852 L518.0735,1027.319 L507.9632,1027.5976 L497.8529,1027.9158 L487.7426,1026.018 L477.6324,1027.8842 L467.5221,1026.5842 L457.4118,1027.6913 L447.3015,1026.3195 L437.1912,1026.8882 L427.0809,1027.9683 L416.9706,1026.9146 L406.8603,1027.1199 L396.75,1026.9795 " fill="#8B0000" style="stroke:#8B0000;stroke-width:4.0;"/><polygon fill="#8B0000" points="406.75,1022.9795,406.776,1023.0446,404.6987,1023.6513,402.7739,1024.6394,400.7995,1025.5032,398.6617,1025.9587,396.75,1026.9795,396.7404,1026.9555,398.6972,1027.6475,400.7025,1028.4608,402.7416,1029.3584,404.6644,1029.9656,406.75,1030.9795,406.8805,1031.11,405.8014,1030.031,405.1034,1029.3329,404.4518,1028.6813,403.5298,1027.7593,402.75,1026.9795,402.7661,1026.9956,403.5425,1026.172,404.3921,1025.4216,405.2064,1024.6359,406.088,1023.9176,406.75,1022.9795" style="stroke:#8B0000;stroke-width:1.0;"/><path d="M384.75,214.753 L385.0302,214.753 L384.1976,223.879 L385.0077,233.005 L385.2829,242.1309 L383.7988,251.2569 L384.75,260.3829 " fill="#8B0000" style="stroke:#8B0000;stroke-width:4.0;"/><polygon fill="#8B0000" points="380.75,250.3829,380.815,250.4089,381.4218,252.3316,382.4098,254.4068,383.2737,256.4324,383.7292,258.2946,384.75,260.3829,384.7259,260.3733,385.418,258.3301,386.2313,256.3354,387.1289,254.3744,387.736,252.2973,388.75,250.3829,388.8805,250.5134,387.8014,251.0343,387.1034,251.9363,386.4518,252.8847,385.5298,253.5627,384.75,254.3829,384.7661,254.399,383.9425,253.5753,383.1921,252.825,382.4064,252.0392,381.688,251.3209,380.75,250.3829" style="stroke:#8B0000;stroke-width:1.0;"/><path d="M384.75,1038.9795 L384.8434,1038.9795 L384.5659,1046.1633 L384.8359,1053.347 L384.9276,1060.5308 L384.4329,1067.7146 L384.75,1074.8983 " fill="#8B0000" style="stroke:#8B0000;stroke-width:4.0;"/><polygon fill="#8B0000" points="380.75,1064.8983,380.815,1064.9243,381.4218,1066.847,382.4098,1068.9222,383.2737,1070.9478,383.7292,1072.81,384.75,1074.8983,384.7259,1074.8887,385.418,1072.8455,386.2313,1070.8508,387.1289,1068.8899,387.736,1066.8127,388.75,1064.8983,388.8805,1065.0288,387.8014,1065.5498,387.1034,1066.4517,386.4518,1067.4001,385.5298,1068.0781,384.75,1068.8983,384.7661,1068.9144,383.9425,1068.0908,383.1921,1067.3404,382.4064,1066.5547,381.688,1065.8364,380.75,1064.8983" style="stroke:#8B0000;stroke-width:1.0;"/><!--SRC=[NLDBRzim3BxxLt2NDGMI9kVa41Z97Xbs61hiC210eLXqp46M395Ev_twKUhSkCqXa2Lz9B-7Ff2lN6_ngJL-W8UbDM8MkZONRD7BWcLm-21_f2Y4nE4QTaq8JFu21lPw6Hwnqsy9SJZvpo6EsxlGji4pxB5pOKYrYlHRJ-1HaL0hP0XzX2euXvMGWZQ53u8GwT98iG-j8G-C7LPKKvLXkI4XWua8DJw3yHPg4-6CyepejHFgJYgZIwfXTiHKVNcmEWdLWxO_zkVVkdNoEi7_9iUnnvJKoUC5VfIFvVvm_BI39PJxKl-ts-qzI8CUPh-GxvNQJqOWsMIU1JhzclbmNq1gdywC1_AiClQ9fN4ddzI-yHd6UWarKQ3uWXwZSSG27-7W-RN2RSwaXGmTLSQvOLqib55Y3usvQkEgGcPLs4iCRkceGfyyq6kbwfVkNL2LjDcDYH4GQhXRhLPv8Or2M35VKqsclmYEMX8zJCGiNSdsEXC9jfmdy7S2t7TTY08sAxpWKU4MnIJw4wEoK3aVEZ9CIB_BsIZJa6G7W3V2mqJuT9Ry-nRKs-zxiojrJkXp_4Ad9LY3L-59JT7yc6WPpePL1WukAypR1D_aIYoXq-hAinwRv06ctLzENnTh6pnEmmp5eKvfXzRO18868yxpJXrwrS609QREUTrzavL2ZRdS5CbFHneZK6cgZBKn6QpUlnYb-fs3cbIevKnMKPdDN5zHIeyw9SFyNIpcaDDuLUejJbxFFm00]--></g></svg>