<?xml version="1.0" encoding="us-ascii" standalone="no"?><svg xmlns="http://www.w3.org/2000/svg" xmlns:xlink="http://www.w3.org/1999/xlink" contentStyleType="text/css" height="1025px" preserveAspectRatio="none" style="width:1089px;height:1025px;background:#FFFFFF;" version="1.1" viewBox="0 0 1089 1025" width="1089px" zoomAndPan="magnify"><defs/><g><text fill="#000000" font-family="Chalkduster" font-size="42" font-weight="bold" lengthAdjust="spacing" textLength="890" x="92.5" y="51.7215">PILARS Implementations - mid 2024</text><!--cluster Implementations--><g id="cluster_Implementations"><polygon fill="none" points="9.5,83.8912,9.5,84.1013,19.511,83.4768,29.522,84.0844,39.533,84.2908,49.544,83.1778,59.5549,83.8134,69.5659,83.4647,79.5769,83.5077,89.5879,83.823,99.5989,83.1998,109.6099,84.4448,119.6209,83.2609,129.6319,83.6934,139.6429,84.3231,149.6538,83.8054,159.6648,83.9594,169.6758,83.8592,179.6868,84.0697,189.6978,84.1303,199.7088,84.4769,209.7198,84.5622,219.7308,84.5704,229.7418,84.1458,239.7527,84.3547,249.7637,84.5934,259.7747,83.17,269.7857,84.5697,279.7967,83.5947,289.8077,84.425,299.8187,83.3961,309.8297,83.8227,319.8407,84.6328,329.8516,83.8424,339.8626,83.9965,349.8736,84.2298,359.8846,84.3074,369.8956,83.8873,379.9066,84.1784,389.9176,83.3187,399.9286,84.1755,409.9396,84.4394,419.9505,84.3357,429.9615,84.5042,439.9725,83.4081,449.9835,83.239,459.9945,83.2698,470.0055,83.8323,480.0165,83.6946,490.0275,84.5726,500.0385,83.7165,510.0495,83.5481,520.0604,84.1194,530.0714,83.2243,540.0824,83.372,550.0934,84.5401,560.1044,84.3268,570.1154,84.6257,580.1264,83.5694,590.1374,84.2104,600.1484,84.4816,610.1593,83.4188,620.1703,83.7953,630.1813,84.0171,640.1923,84.5429,650.2033,83.887,660.2143,84.3537,670.2253,83.3374,680.2363,83.2139,690.2473,84.3948,700.2582,83.1742,710.2692,84.4001,720.2802,84.0978,730.2912,83.6232,740.3022,83.5374,750.3132,84.3499,760.3242,83.5918,770.3352,84.483,780.3462,83.3384,790.3571,84.5086,800.3681,84.3755,810.3791,84.1361,820.3901,83.9384,830.4011,84.6178,840.4121,84.5047,850.4231,84.0604,860.4341,84.1593,870.4451,83.7609,880.456,84.6076,890.467,84.046,900.478,84.0637,910.489,83.2828,920.5,83.8912,920.4483,83.7664,920.9213,84.2011,921.2619,84.3164,921.5552,84.3173,921.8731,84.3777,922.2678,84.6234,922.2003,84.5955,922.2029,84.8894,922.6884,85.3834,922.9349,85.7784,923.0157,86.1048,923,86.3912,923.6949,86.3912,922.8633,96.4484,923.0872,106.5057,922.6124,116.563,923.284,126.6203,923.2468,136.6775,923.5524,146.7348,922.7703,156.7921,922.8656,166.8493,923.4435,176.9066,923.5673,186.9639,923,197.0212,922.8422,196.9558,922.7938,197.35,922.7531,197.7473,922.3725,198.0039,922.523,198.4805,922.2678,198.7889,922.3007,198.8684,921.9014,198.9043,921.5788,199.1256,921.3001,199.4527,920.8136,199.2784,920.5,199.5212,920.5,199.8361,910.489,199.8068,900.478,199.6369,890.467,199.6621,880.456,199.6346,870.4451,198.897,860.4341,199.1203,850.4231,199.0596,840.4121,199.585,830.4011,199.6093,820.3901,199.6829,810.3791,199.2302,800.3681,199.4536,790.3571,199.4009,780.3462,200.098,770.3352,199.9477,760.3242,199.0356,750.3132,199.4482,740.3022,198.9439,730.2912,199.8095,720.2802,200.1296,710.2692,200.0657,700.2582,199.0856,690.2473,199.9851,680.2363,198.7784,670.2253,199.7213,660.2143,199.2218,650.2033,199.6179,640.1923,199.7615,630.1813,199.9933,620.1703,198.8012,610.1593,199.9966,600.1484,199.6993,590.1374,199.8765,580.1264,200.269,570.1154,199.5266,560.1044,199.6964,550.0934,199.7346,540.0824,199.7184,530.0714,199.5203,520.0604,200.2319,510.0495,198.9114,500.0385,200.0864,490.0275,198.8972,480.0165,198.9808,470.0055,199.5612,459.9945,199.5494,449.9835,199.0283,439.9725,199.9349,429.9615,199.63,419.9505,200.2478,409.9396,200.1883,399.9286,199.0729,389.9176,199.1232,379.9066,199.392,369.8956,199.8767,359.8846,199.9241,349.8736,199.8223,339.8626,199.1792,329.8516,200.1575,319.8407,200.1549,309.8297,199.4739,299.8187,199.2821,289.8077,199.1198,279.7967,199.3066,269.7857,199.6586,259.7747,199.4528,249.7637,199.1034,239.7527,200.0085,229.7418,199.0622,219.7308,200.0235,209.7198,199.9484,199.7088,199.893,189.6978,200.2137,179.6868,199.2753,169.6758,199.2205,159.6648,200.04,149.6538,198.9243,139.6429,199.2872,129.6319,199.6367,119.6209,199.5898,109.6099,199.1627,99.5989,199.4782,89.5879,200.2658,79.5769,200.1696,69.5659,198.9249,59.5549,199.5997,49.544,199.0073,39.533,199.4948,29.522,199.8142,19.511,199.941,9.5,199.5212,9.4152,199.3165,9.1975,199.4981,8.794,199.2309,8.3685,198.9108,8.0257,198.7903,7.7322,198.7889,7.8328,198.8306,7.6627,198.4672,7.4343,198.0797,7.0859,197.6425,7.3491,197.4587,7,197.0212,6.6882,197.0212,6.4719,186.9639,6.9327,176.9066,7.5897,166.8493,7.6154,156.7921,7.0351,146.7348,6.8488,136.6775,7.1698,126.6203,7.1862,116.563,6.4922,106.5057,7.414,96.4484,7,86.3912,7.1721,86.4624,7.08,86.0101,7.1607,85.6293,7.6471,85.4166,7.5923,84.9796,7.7322,84.6234,7.7322,84.6233,8.1239,84.569,8.357,84.1317,8.8605,84.3473,9.1445,84.0328,9.5,83.8912" style="stroke:#181818;stroke-width:4.0;"/><text fill="#000000" font-family="Chalkduster" font-size="24" font-weight="bold" lengthAdjust="spacing" textLength="231" x="349.5" y="109.732">Implementations</text></g><!--cluster Open Source Toolkits / Software--><g id="cluster_Open Source Toolkits / Software"><polygon fill="none" points="366.5,321.5212,366.5,321.7313,376.4167,321.1068,386.3333,321.7144,396.25,321.9208,406.1667,320.8078,416.0833,321.4434,426,321.0947,435.9167,321.1377,445.8333,321.453,455.75,320.8298,465.6667,322.0748,475.5833,320.8909,485.5,321.3234,495.4167,321.9531,505.3333,321.4354,515.25,321.5894,525.1667,321.4892,535.0833,321.6997,545,321.7603,554.9167,322.1069,564.8333,322.1922,574.75,322.2004,584.6667,321.7758,594.5833,321.9847,604.5,322.2234,614.4167,320.8,624.3333,322.1997,634.25,321.2247,644.1667,322.055,654.0833,321.0261,664,321.4527,673.9167,322.2628,683.8333,321.4724,693.75,321.6265,703.6667,321.8598,713.5833,321.9374,723.5,321.5173,733.4167,321.8084,743.3333,320.9487,753.25,321.8055,763.1667,322.0694,773.0833,321.9657,783,322.1342,792.9167,321.0381,802.8333,320.869,812.75,320.8998,822.6667,321.4623,832.5833,321.3246,842.5,321.5212,842.5869,321.731,842.8313,321.6138,843.1633,321.7084,843.5898,322.0308,843.8292,321.9016,844.2678,322.2534,844.1079,322.1872,844.6141,322.6897,844.6948,323.0161,844.9333,323.4077,844.7545,323.6266,845,324.0212,845.3192,324.0212,845.5904,334.0784,844.5276,344.1357,844.9041,354.193,845.126,364.2503,845.6518,374.3075,844.9958,384.3648,845.4626,394.4221,844.4462,404.4793,844.3227,414.5366,845.5036,424.5939,845,434.6512,844.7792,434.5597,845.0103,435.0696,844.7707,435.3846,844.4782,435.6776,844.3053,436.0202,844.2678,436.4189,844.3263,436.5602,843.876,436.4732,843.6362,436.8941,843.1366,436.688,842.9323,437.1949,842.5,437.1512,842.5,437.6355,832.5833,437.3961,822.6667,437.1984,812.75,437.8778,802.8333,437.7647,792.9167,437.3204,783,437.4193,773.0833,437.0209,763.1667,437.8676,753.25,437.306,743.3333,437.3237,733.4167,436.5428,723.5,436.7459,713.5833,437.6819,703.6667,437.5809,693.75,437.1082,683.8333,436.829,673.9167,436.9322,664,436.465,654.0833,437.5659,644.1667,437.8907,634.25,437.6776,624.3333,437.8461,614.4167,437.0144,604.5,437.2384,594.5833,436.7636,584.6667,437.4352,574.75,437.3979,564.8333,437.7035,554.9167,436.9215,545,437.0168,535.0833,437.5946,525.1667,437.7185,515.25,436.6386,505.3333,436.9573,495.4167,437.3004,485.5,436.5403,475.5833,437.5046,465.6667,437.4092,455.75,437.0504,445.8333,437.2934,435.9167,437.8798,426,436.8383,416.0833,437.4661,406.1667,437.4368,396.25,437.2669,386.3333,437.2921,376.4167,437.2646,366.5,437.1512,366.4204,436.9589,366.0953,436.8813,365.734,436.7161,365.4475,436.7315,365.097,436.5925,364.7322,436.4189,364.782,436.4396,364.4962,436.0283,364.4185,435.7032,364.2559,435.3429,364.3241,435.0783,364,434.6512,364.4266,434.6512,363.5145,424.5939,363.9271,414.5366,363.4228,404.4793,364.2884,394.4221,364.6085,384.3648,364.5446,374.3075,363.5644,364.2503,364.464,354.193,363.2572,344.1357,364.2002,334.0784,364,324.0212,363.9078,323.983,364.1762,323.6799,364.3669,323.3447,364.5847,323.0207,364.3641,322.5151,364.7322,322.2534,364.7929,322.3998,365.1085,322.1618,365.4847,322.0699,365.8883,322.0443,366.1471,321.6693,366.5,321.5212" style="stroke:#181818;stroke-width:4.0;"/><text fill="#000000" font-family="Chalkduster" font-size="24" font-weight="bold" lengthAdjust="spacing" textLength="449" x="380" y="347.362">Open Source Toolkits / Software</text></g><!--cluster Specs & Standards--><g id="cluster_Specs &amp; Standards"><polygon fill="none" points="193.5,559.1512,193.5,559.3613,203.4663,558.7368,213.4326,559.3444,223.3989,559.5508,233.3652,558.4378,243.3315,559.0734,253.2978,558.7247,263.264,558.7677,273.2303,559.083,283.1966,558.4598,293.1629,559.7048,303.1292,558.5209,313.0955,558.9534,323.0618,559.5831,333.0281,559.0654,342.9944,559.2194,352.9607,559.1192,362.927,559.3297,372.8933,559.3903,382.8596,559.7369,392.8258,559.8222,402.7921,559.8304,412.7584,559.4058,422.7247,559.6147,432.691,559.8534,442.6573,558.43,452.6236,559.8297,462.5899,558.8547,472.5562,559.685,482.5225,558.6561,492.4888,559.0827,502.4551,559.8928,512.4213,559.1024,522.3876,559.2565,532.3539,559.4898,542.3202,559.5674,552.2865,559.1473,562.2528,559.4384,572.2191,558.5787,582.1854,559.4355,592.1517,559.6994,602.118,559.5957,612.0843,559.7642,622.0506,558.6681,632.0169,558.499,641.9831,558.5298,651.9494,559.0923,661.9157,558.9546,671.882,559.8326,681.8483,558.9765,691.8146,558.8081,701.7809,559.3794,711.7472,558.4843,721.7135,558.632,731.6798,559.8001,741.6461,559.5868,751.6124,559.8857,761.5787,558.8294,771.5449,559.4704,781.5112,559.7416,791.4775,558.6788,801.4438,559.0553,811.4101,559.2771,821.3764,559.8029,831.3427,559.147,841.309,559.6137,851.2753,558.5974,861.2416,558.4739,871.2079,559.6548,881.1742,558.4342,891.1404,559.6601,901.1067,559.3578,911.073,558.8832,921.0393,558.7974,931.0056,559.6099,940.9719,558.8518,950.9382,559.743,960.9045,558.5984,970.8708,559.7686,980.8371,559.6355,990.8034,559.3961,1000.7697,559.1984,1010.736,559.8778,1020.7022,559.7647,1030.6685,559.3204,1040.6348,559.4193,1050.6011,559.0209,1060.5674,559.8676,1070.5337,559.306,1080.5,559.1512,1080.522,559.2043,1080.776,559.1103,1081.1554,559.3193,1081.6284,559.7539,1081.969,559.8693,1082.2678,559.8834,1082.2545,559.8779,1082.315,560.1959,1082.4932,560.5626,1082.4958,560.8565,1082.9813,561.3505,1083,561.6512,1083.7396,561.6512,1083.5264,571.7598,1083.6949,581.8685,1082.8633,591.9772,1083.0872,602.0858,1082.6124,612.1945,1083.284,622.3032,1083.2468,632.4118,1083.5524,642.5205,1082.7703,652.6292,1082.8656,662.7378,1083.4435,672.8465,1083.5673,682.9552,1082.4875,693.0638,1082.8061,703.1725,1083.1493,713.2812,1082.3892,723.3898,1083.3534,733.4985,1083.258,743.6072,1082.8992,753.7158,1083.1422,763.8245,1083.7287,773.9332,1082.6871,784.0418,1083.315,794.1505,1083.2856,804.2592,1083.1158,814.3678,1083.1409,824.4765,1083.1135,834.5852,1082.3758,844.6938,1082.5992,854.8025,1082.5385,864.9112,1083.0638,875.0198,1083.0881,885.1285,1083.1617,895.2372,1082.709,905.3458,1082.9325,915.4545,1082.8798,925.5632,1083.5769,935.6718,1083.4266,945.7805,1082.5145,955.8892,1082.9271,965.9978,1082.4228,976.1065,1083.2884,986.2152,1083.6085,996.3238,1083.5446,1006.4325,1083,1016.5412,1082.8659,1016.4856,1082.9964,1016.9539,1082.4784,1017.1535,1082.6223,1017.6274,1082.322,1017.9172,1082.2678,1018.3089,1082.2801,1018.3387,1081.9449,1018.5294,1081.6209,1018.7472,1081.1153,1018.5266,1080.9142,1019.0411,1080.5,1019.0412,1080.5,1019.2193,1070.5337,1019.3965,1060.5674,1019.789,1050.6011,1019.0466,1040.6348,1019.2164,1030.6685,1019.2546,1020.7022,1019.2384,1010.736,1019.0403,1000.7697,1019.7519,990.8034,1018.4314,980.8371,1019.6064,970.8708,1018.4172,960.9045,1018.5008,950.9382,1019.0812,940.9719,1019.0694,931.0056,1018.5483,921.0393,1019.4549,911.073,1019.15,901.1067,1019.7678,891.1404,1019.7083,881.1742,1018.5929,871.2079,1018.6432,861.2416,1018.912,851.2753,1019.3967,841.309,1019.4441,831.3427,1019.3423,821.3764,1018.6992,811.4101,1019.6775,801.4438,1019.6749,791.4775,1018.9939,781.5112,1018.8021,771.5449,1018.6398,761.5787,1018.8266,751.6124,1019.1786,741.6461,1018.9728,731.6798,1018.6234,721.7135,1019.5285,711.7472,1018.5822,701.7809,1019.5435,691.8146,1019.4684,681.8483,1019.413,671.882,1019.7337,661.9157,1018.7953,651.9494,1018.7405,641.9831,1019.56,632.0169,1018.4443,622.0506,1018.8072,612.0843,1019.1567,602.118,1019.1098,592.1517,1018.6827,582.1854,1018.9982,572.2191,1019.7858,562.2528,1019.6896,552.2865,1018.4449,542.3202,1019.1197,532.3539,1018.5273,522.3876,1019.0148,512.4213,1019.3342,502.4551,1019.461,492.4888,1018.3764,482.5225,1019.4417,472.5562,1019.0496,462.5899,1018.4858,452.6236,1018.5701,442.6573,1019.3678,432.691,1019.291,422.7247,1019.0247,412.7584,1018.3691,402.7921,1019.6993,392.8258,1018.7293,382.8596,1018.5131,372.8933,1018.9738,362.927,1019.6309,352.9607,1019.6566,342.9944,1019.0763,333.0281,1018.89,323.0618,1019.2109,313.0955,1019.2274,303.1292,1018.5334,293.1629,1019.4551,283.1966,1019.6,273.2303,1018.8254,263.264,1018.612,253.2978,1019.7158,243.3315,1019.0622,233.3652,1019.041,223.3989,1019.3402,213.4326,1018.3955,203.4663,1019.5711,193.5,1019.0412,193.498,1019.0364,193.2318,1019.1007,192.7654,1018.6818,192.4915,1018.7278,192.0292,1018.3186,191.7322,1018.3089,191.8077,1018.3402,191.7026,1018.0038,191.3385,1017.5601,191.4047,1017.2946,190.9705,1016.8218,191,1016.5412,190.5295,1016.5412,191.6828,1006.4325,191.6844,996.3238,191.5685,986.2152,190.6396,976.1065,191.3842,965.9978,190.5279,955.8892,191.0582,945.7805,190.9987,935.6718,190.7376,925.5632,191.6159,915.4545,191.4433,905.3458,190.6792,895.2372,191.5266,885.1285,191.0919,875.0198,190.4164,864.9112,190.7667,854.8025,190.4747,844.6938,190.8609,834.5852,190.371,824.4765,190.3998,814.3678,191.0703,804.2592,190.8796,794.1505,190.9414,784.0418,190.8568,773.9332,191.1673,763.8245,190.4449,753.7158,191.1601,743.6072,190.2569,733.4985,191.296,723.3898,191.5928,713.2812,191.5221,703.1725,191.3613,693.0638,191.1922,682.9552,191.1057,672.8465,190.36,662.7378,191.4465,652.6292,191.3296,642.5205,190.8466,632.4118,190.9942,622.3032,190.7914,612.1945,191.2177,602.0858,191.6805,591.9772,190.6461,581.8685,191.4689,571.7598,191,561.6512,190.9725,561.6398,191.0296,561.2492,191.1599,560.889,191.2408,560.5083,191.45,560.1807,191.7322,559.8834,191.7369,559.8946,192.1206,559.821,192.5128,559.7679,192.8465,559.5734,193.0557,559.0785,193.5,559.1512" style="stroke:#181818;stroke-width:4.0;"/><text fill="#000000" font-family="Chalkduster" font-size="24" font-weight="bold" lengthAdjust="spacing" textLength="253" x="510.5" y="584.992">Specs &amp; Standards</text></g><!--cluster Metadata--><g id="cluster_Metadata"><polygon fill="none" points="217.5,616.1512,217.5,616.3613,227.4744,615.7368,237.4487,616.3444,247.4231,616.5508,257.3974,615.4378,267.3718,616.0734,277.3462,615.7247,287.3205,615.7677,297.2949,616.083,307.2692,615.4598,317.2436,616.7048,327.2179,615.5209,337.1923,615.9534,347.1667,616.5831,357.141,616.0654,367.1154,616.2194,377.0897,616.1192,387.0641,616.3297,397.0385,616.3903,407.0128,616.7369,416.9872,616.8222,426.9615,616.8304,436.9359,616.4058,446.9103,616.6147,456.8846,616.8534,466.859,615.43,476.8333,616.8297,486.8077,615.8547,496.7821,616.685,506.7564,615.6561,516.7308,616.0827,526.7051,616.8928,536.6795,616.1024,546.6538,616.2565,556.6282,616.4898,566.6026,616.5674,576.5769,616.1473,586.5513,616.4384,596.5256,615.5787,606.5,616.1512,606.5363,616.2387,606.9235,616.4664,607.2638,616.581,607.6389,616.7793,607.8526,616.5882,608.2678,616.8834,608.0669,616.8002,608.2228,617.1577,608.5425,617.583,608.6466,617.919,609.0634,618.3845,609,618.6512,608.8253,618.6512,608.6569,628.7563,609.2283,638.8614,608.3332,648.9666,608.4809,659.0717,609.649,669.1768,609.4357,679.282,609.7345,689.3871,608.6782,699.4922,609.3192,709.5974,609.5904,719.7025,608.5276,729.8076,608.9041,739.9128,609.126,750.0179,609.6518,760.1231,608.9958,770.2282,609.4626,780.3333,608.4462,790.4385,608.3227,800.5436,609.5036,810.6487,608.2831,820.7539,609.509,830.859,609.2066,840.9641,608.7321,851.0693,608.6462,861.1744,609.4588,871.2795,608.7007,881.3847,609.5919,891.4898,608.4473,901.5949,609.6174,911.7001,609.4843,921.8052,609.245,931.9104,609.0472,942.0155,609.7266,952.1206,609.6136,962.2258,609.1693,972.3309,609.2682,982.436,609,992.5412,608.9599,992.5245,609.0742,992.9861,608.7548,993.268,608.6138,993.6238,608.2269,993.8778,608.2678,994.3089,608.2161,994.1841,607.9819,994.6188,607.6155,994.7342,607.2016,994.735,606.8125,994.7955,606.5,995.0412,606.5,994.8222,596.5256,994.355,586.5513,995.4559,576.5769,995.7807,566.6026,995.5676,556.6282,995.7361,546.6538,994.9044,536.6795,995.1284,526.7051,994.6536,516.7308,995.3252,506.7564,995.2879,496.7821,995.5935,486.8077,994.8115,476.8333,994.9068,466.859,995.4846,456.8846,995.6085,446.9103,994.5286,436.9359,994.8473,426.9615,995.1904,416.9872,994.4303,407.0128,995.3946,397.0385,995.2992,387.0641,994.9404,377.0897,995.1834,367.1154,995.7698,357.141,994.7283,347.1667,995.3561,337.1923,995.3268,327.2179,995.1569,317.2436,995.1821,307.2692,995.1546,297.2949,994.417,287.3205,994.6403,277.3462,994.5796,267.3718,995.105,257.3974,995.1293,247.4231,995.2029,237.4487,994.7502,227.4744,994.9736,217.5,995.0412,217.4847,995.0041,217.22,995.0724,216.8473,994.8796,216.3774,994.4523,216.0765,994.4329,215.7322,994.3089,215.5545,994.2353,215.6746,993.9922,215.6267,993.6794,215.4606,993.3177,215.0123,992.8392,215,992.5412,215.464,992.5412,214.2572,982.436,215.2002,972.3309,214.7007,962.2258,215.0967,952.1206,215.2403,942.0155,215.4721,931.9104,214.2801,921.8052,215.4755,911.7001,215.1782,901.5949,215.3553,891.4898,215.7478,881.3847,215.0055,871.2795,215.1753,861.1744,215.2134,851.0693,215.1972,840.9641,214.9992,830.859,215.7107,820.7539,214.3903,810.6487,215.5653,800.5436,214.376,790.4385,214.4597,780.3333,215.04,770.2282,215.0283,760.1231,214.5072,750.0179,215.4137,739.9128,215.1089,729.8076,215.7267,719.7025,215.6671,709.5974,214.5517,699.4922,214.6021,689.3871,214.8708,679.282,215.3555,669.1768,215.403,659.0717,215.3012,648.9666,214.658,638.8614,215.6364,628.7563,215,618.6512,215.1952,618.732,215.1319,618.2916,215.2193,617.9136,215.3157,617.5393,215.5197,617.2096,215.7322,616.8834,215.7498,616.9257,216.0771,616.7159,216.386,616.4618,216.8551,616.5941,217.0879,616.1563,217.5,616.1512" style="stroke:#181818;stroke-width:4.0;"/><text fill="#000000" font-family="Chalkduster" font-size="24" font-weight="bold" lengthAdjust="spacing" textLength="127" x="348.5" y="641.992">Metadata</text></g><!--cluster Storage--><g id="cluster_Storage"><polygon fill="none" points="635.5,631.4712,635.5,631.6813,645.5238,631.0568,655.5476,631.6644,665.5714,631.8708,675.5952,630.7578,685.619,631.3934,695.6429,631.0447,705.6667,631.0877,715.6905,631.403,725.7143,630.7798,735.7381,632.0248,745.7619,630.8409,755.7857,631.2734,765.8095,631.9031,775.8333,631.3854,785.8571,631.5394,795.881,631.4392,805.9048,631.6497,815.9286,631.7103,825.9524,632.0569,835.9762,632.1422,846,632.1504,856.0238,631.7258,866.0476,631.9347,876.0714,632.1734,886.0952,630.75,896.119,632.1497,906.1429,631.1747,916.1667,632.005,926.1905,630.9761,936.2143,631.4027,946.2381,632.2128,956.2619,631.4224,966.2857,631.5765,976.3095,631.8098,986.3333,631.8874,996.3571,631.4673,1006.381,631.7584,1016.4048,630.8987,1026.4286,631.7555,1036.4524,632.0194,1046.4762,631.9157,1056.5,631.4712,1056.5782,631.6599,1056.7919,631.4688,1057.1239,631.5632,1057.4814,631.7191,1057.9067,632.0388,1058.2678,632.2034,1058.2072,632.1783,1058.6241,632.6439,1058.5069,632.8882,1058.6015,633.2203,1058.9239,633.6467,1059,633.9712,1058.3332,633.9712,1058.4809,644.0284,1059.649,654.0857,1059.4357,664.143,1059.7345,674.2003,1058.6782,684.2575,1059.3192,694.3148,1059.5904,704.3721,1058.5276,714.4293,1058.9041,724.4866,1059.126,734.5439,1059,744.6012,1059.2007,744.6843,1058.8523,744.9542,1058.8496,745.3673,1058.3901,745.5912,1058.2056,745.929,1058.2678,746.3689,1058.332,746.524,1057.8228,746.2946,1057.6256,746.8186,1057.2335,746.8719,1056.8194,746.8722,1056.5,747.1012,1056.5,746.7474,1046.4762,747.5599,1036.4524,746.8018,1026.4286,747.693,1016.4048,746.5484,1006.381,747.7186,996.3571,747.5855,986.3333,747.3461,976.3095,747.1484,966.2857,747.8278,956.2619,747.7147,946.2381,747.2704,936.2143,747.3693,926.1905,746.9709,916.1667,747.8176,906.1429,747.256,896.119,747.2737,886.0952,746.4928,876.0714,746.6959,866.0476,747.6319,856.0238,747.5309,846,747.0582,835.9762,746.779,825.9524,746.8822,815.9286,746.415,805.9048,747.5159,795.881,747.8407,785.8571,747.6276,775.8333,747.7961,765.8095,746.9644,755.7857,747.1884,745.7619,746.7136,735.7381,747.3852,725.7143,747.3479,715.6905,747.6535,705.6667,746.8715,695.6429,746.9668,685.619,747.5446,675.5952,747.6685,665.5714,746.5886,655.5476,746.9073,645.5238,747.2504,635.5,747.1012,635.4221,746.913,635.1915,747.0635,634.8258,746.8877,634.4265,746.6308,634.1039,746.5592,633.7322,746.3689,633.9566,746.4619,633.4894,745.9755,633.5363,745.702,633.3809,745.3447,633.1821,744.9695,633,744.6012,633.1409,744.6012,633.1135,734.5439,632.3758,724.4866,632.5992,714.4293,632.5385,704.3721,633.0638,694.3148,633.0881,684.2575,633.1617,674.2003,632.709,664.143,632.9325,654.0857,632.8798,644.0284,633,633.9712,633.1776,634.0447,633.2778,633.672,633.1434,633.2021,633.4169,632.9012,633.408,632.4833,633.7322,632.2034,633.769,632.2922,634.1634,632.2443,634.5088,632.0782,634.7373,631.6299,635.2056,631.7605,635.5,631.4712" style="stroke:#181818;stroke-width:4.0;"/><text fill="#000000" font-family="Chalkduster" font-size="24" font-weight="bold" lengthAdjust="spacing" textLength="101" x="795.5" y="657.312">Storage</text></g><!--entity parai--><g id="elem_parai"><polygon fill="none" points="568.5,132.8912,568.5,133.1013,578.3235,132.4768,588.1471,133.0844,597.9706,133.2908,607.7941,132.1778,617.6176,132.8134,627.4412,132.4647,637.2647,132.5077,647.0882,132.823,656.9118,132.1998,666.7353,133.4448,676.5588,132.2609,686.3824,132.6934,696.2059,133.3231,706.0294,132.8054,715.8529,132.9594,725.6765,132.8592,735.5,132.8912,735.5228,132.9461,735.8841,133.1113,736.2818,133.3644,736.6463,133.5372,737.0009,133.6861,737.2678,133.6234,737.3462,133.6559,737.557,134.0361,737.7769,134.4201,737.485,134.5921,738.0625,135.1242,738,135.3912,737.7035,135.3912,738.5338,144.5171,737.505,153.6431,737.9315,162.7691,738.7416,171.895,738,181.021,737.985,181.0148,737.886,181.388,737.8114,181.7713,737.6888,182.1347,737.413,182.4347,737.2678,182.7888,737.3044,182.8772,736.8412,182.7589,736.5969,183.1692,736.277,183.3969,735.9103,183.5114,735.5,183.521,735.5,184.134,725.6765,183.0379,715.8529,182.8688,706.0294,182.8996,696.2059,183.4621,686.3824,183.3245,676.5588,184.2024,666.7353,183.3463,656.9118,183.1779,647.0882,183.7493,637.2647,182.8542,627.4412,183.0019,617.6176,184.1699,607.7941,183.9567,597.9706,184.2555,588.1471,183.1992,578.3235,183.8402,568.5,183.521,568.5753,183.7028,568.0862,183.2291,567.7807,183.1986,567.4554,183.1205,567.1689,183.1359,566.7322,182.7888,566.7309,182.7882,566.7282,182.4942,566.2688,182.011,566.0843,181.6417,566.3015,181.4388,566,181.021,565.2831,181.021,566.509,171.895,566.2066,162.7691,565.7321,153.6431,565.6462,144.5171,566,135.3912,566.1413,135.4497,566.0543,134.9994,566.4752,134.7596,566.2691,134.26,566.7759,134.0557,566.7322,133.6234,566.794,133.7725,567.117,133.5524,567.4454,133.345,567.8856,133.4078,568.2247,133.2266,568.5,132.8912" style="stroke:#181818;stroke-width:4.0;"/><text fill="#000000" font-family="Chalkduster" font-size="24" lengthAdjust="spacing" textLength="152" x="576" y="166.732">PARADISEC</text></g><!--entity nyi--><g id="elem_nyi"><polygon fill="none" points="775.5,132.8912,775.5,133.1013,785.4231,132.4768,795.3462,133.0844,805.2692,133.2908,815.1923,132.1778,825.1154,132.8134,835.0385,132.4647,844.9615,132.5077,854.8846,132.823,864.8077,132.1998,874.7308,133.4448,884.6538,132.2609,894.5769,132.6934,904.5,132.8912,904.5551,133.0242,904.8426,133.0112,905.2158,133.2051,905.5566,133.3207,905.937,133.5319,906.2678,133.6234,906.3414,133.6539,906.5946,134.0517,906.7673,134.4161,906.9163,134.7707,906.932,135.0701,907,135.3912,907.4636,135.3912,907.7022,144.5171,906.2788,153.6431,907.6785,162.7691,906.7035,171.895,907,181.021,907.1644,181.0891,906.7011,181.3114,906.686,181.7194,906.789,182.1763,906.3992,182.429,906.2678,182.7888,906.2812,182.8212,905.9574,183.0395,905.6138,183.2098,905.2066,183.2269,904.8902,183.463,904.5,183.521,904.5,182.9486,894.5769,183.8054,884.6538,184.0692,874.7308,183.9655,864.8077,184.134,854.8846,183.0379,844.9615,182.8688,835.0385,182.8996,825.1154,183.4621,815.1923,183.3245,805.2692,184.2024,795.3462,183.3463,785.4231,183.1779,775.5,183.521,775.5291,183.5913,775.0614,183.1692,774.7267,183.0682,774.5221,183.2815,774.1414,183.0694,773.7322,182.7888,773.9584,182.8825,773.4867,182.3942,773.5376,182.1224,773.4747,181.8034,773.001,181.3143,773,181.021,772.9041,181.021,773.126,171.895,773.6518,162.7691,772.9958,153.6431,773.4626,144.5171,773,135.3912,772.8295,135.3205,772.9379,134.9512,773.448,134.7483,773.2186,134.239,773.7425,134.0419,773.7322,133.6234,773.7586,133.687,774.0516,133.3944,774.3942,133.2216,774.8514,133.3253,775.1083,132.9454,775.5,132.8912" style="stroke:#181818;stroke-width:4.0;"/><text fill="#000000" font-family="Chalkduster" font-size="24" lengthAdjust="spacing" textLength="114" x="783" y="166.732">Nyngarn</text></g><!--entity uts--><g id="elem_uts"><polygon fill="none" points="296,132.8912,296,133.1013,306.087,132.4768,316.1739,133.0844,326.2609,133.2908,336.3478,132.1778,346.4348,132.8134,356.5217,132.4647,366.6087,132.5077,376.6957,132.823,386.7826,132.1998,396.8696,133.4448,406.9565,132.2609,417.0435,132.6934,427.1304,133.3231,437.2174,132.8054,447.3043,132.9594,457.3913,132.8592,467.4783,133.0697,477.5652,133.1303,487.6522,133.4769,497.7391,133.5622,507.8261,133.5704,517.913,133.1458,528,132.8912,528.0591,133.0339,528.4431,133.2539,528.6151,132.962,529.1472,133.5395,529.3764,133.3856,529.7678,133.6234,529.9322,133.6915,529.7618,133.9138,530.0396,134.3218,530.4355,134.7787,530.3385,135.0314,530.5,135.3912,530.6053,135.3912,530.8386,144.5171,530.9162,153.6431,530.4961,162.7691,530.7872,171.895,530.5,181.021,530.3237,180.948,530.4411,181.4108,530.3759,181.798,530.1976,182.1384,530.103,182.5134,529.7678,182.7888,529.7061,182.64,529.331,182.7344,528.9814,182.8903,528.6996,183.21,528.3285,183.314,528,183.521,528,184.2024,517.913,183.3463,507.8261,183.1779,497.7391,183.7493,487.6522,182.8542,477.5652,183.0019,467.4783,184.1699,457.3913,183.9567,447.3043,184.2555,437.2174,183.1992,427.1304,183.8402,417.0435,184.1114,406.9565,183.0486,396.8696,183.4251,386.7826,183.647,376.6957,184.1728,366.6087,183.5168,356.5217,183.9836,346.4348,182.9672,336.3478,182.8437,326.2609,184.0246,316.1739,182.8041,306.087,184.03,296,183.521,296.0264,183.5846,295.6123,183.292,295.2478,183.1192,294.9979,183.2229,294.5476,182.843,294.2322,182.7888,294.4145,182.8643,293.9156,182.3647,294.1295,182.1604,293.942,181.7899,293.7219,181.4058,293.5,181.021,293.5472,181.021,294.2266,171.895,294.1136,162.7691,293.6693,153.6431,293.7682,144.5171,293.5,135.3912,293.4599,135.3745,293.8671,135.129,293.8406,134.7038,293.9925,134.3525,293.8984,133.8993,294.2322,133.6234,294.1805,133.4986,294.6535,133.6404,294.9942,133.4628,295.2874,133.1708,295.6054,132.9384,296,132.8912" style="stroke:#181818;stroke-width:4.0;"/><text fill="#000000" font-family="Chalkduster" font-size="24" lengthAdjust="spacing" textLength="217" x="303.5" y="166.732">UTS Data portal</text></g><!--entity om--><g id="elem_om"><polygon fill="none" points="26,132.8912,26,133.1013,35.7778,132.4768,45.5556,133.0844,55.3333,133.2908,65.1111,132.1778,74.8889,132.8134,84.6667,132.4647,94.4444,132.5077,104.2222,132.823,114,132.8912,113.9118,132.6782,114.4242,133.2081,114.6267,132.99,115.0354,133.2696,115.4693,133.61,115.7678,133.6234,115.7414,133.6125,115.9352,133.9857,116.0508,134.3264,116.2621,134.7068,116.4272,135.0681,116.5,135.3912,117.0857,135.3912,117.1711,144.5171,117.1793,153.6431,116.7546,162.7691,116.9636,171.895,116.5,181.021,116.7163,181.1106,116.1315,181.2826,116.4161,181.8147,115.9693,182.0438,116.0786,182.5033,115.7678,182.7888,115.7046,182.6363,115.4055,182.9141,115.1553,183.31,114.7009,183.2131,114.367,183.407,114,183.521,114,183.8596,104.2222,183.9372,94.4444,183.5171,84.6667,183.8082,74.8889,182.9486,65.1111,183.8054,55.3333,184.0692,45.5556,183.9655,35.7778,184.134,26,183.521,25.9384,183.3722,25.5633,183.1737,25.2136,183.0367,24.9318,183.0635,24.5607,182.8747,24.2322,182.7888,24.4421,182.8757,24.032,182.4129,23.8337,182.0379,23.8632,181.7572,23.4411,181.2895,23.5,181.021,22.9809,181.021,24.149,171.895,23.9357,162.7691,24.2345,153.6431,23.1782,144.5171,23.5,135.3912,23.5983,135.4319,23.8283,135.1129,23.6474,134.6238,23.9098,134.3183,24.1246,133.993,24.2322,133.6234,24.3154,133.8241,24.5853,133.4757,24.9983,133.473,25.2223,133.0135,25.5601,132.829,26,132.8912" style="stroke:#181818;stroke-width:4.0;"/><text fill="#000000" font-family="Chalkduster" font-size="24" lengthAdjust="spacing" textLength="73" x="33.5" y="166.732">OMAA</text></g><!--entity ldaca--><g id="elem_ldaca"><polygon fill="none" points="154.5,132.8912,154.5,133.1013,164.6,132.4768,174.7,133.0844,184.8,133.2908,194.9,132.1778,205,132.8134,215.1,132.4647,225.2,132.5077,235.3,132.823,245.4,132.1998,255.5,132.8912,255.5706,133.0617,255.7732,132.8435,256.1819,133.1231,256.6158,133.4635,256.9033,133.4505,257.2678,133.6234,257.2888,133.6321,257.4044,133.9729,257.6156,134.3533,257.7808,134.7146,258.0339,135.1123,258,135.3912,258.6711,135.3912,258.6793,144.5171,258.2546,153.6431,258.4636,162.7691,258.7022,171.895,258,181.021,257.7779,180.929,258.0625,181.4611,257.6158,181.6903,257.7251,182.1497,257.2618,182.3721,257.2678,182.7888,257.259,182.7677,257.0088,183.1636,256.5544,183.0666,256.2205,183.2605,255.8967,183.4788,255.5,183.521,255.5,183.9372,245.4,183.5171,235.3,183.8082,225.2,182.9486,215.1,183.8054,205,184.0692,194.9,183.9655,184.8,184.134,174.7,183.0379,164.6,182.8688,154.5,183.521,154.4207,183.3296,154.1389,183.3564,153.7678,183.1676,153.5263,183.2915,153.0635,182.8814,152.7322,182.7888,152.6266,182.745,152.6561,182.4643,152.234,181.9966,152.133,181.6619,152.3463,181.4573,152,181.021,152.4357,181.021,152.7345,171.895,151.6782,162.7691,152.3192,153.6431,152.5904,144.5171,152,135.3912,151.8545,135.3309,152.1169,135.0254,152.3317,134.7001,152.6401,134.4136,152.5845,133.9764,152.7322,133.6234,152.7912,133.7658,153.0151,133.3064,153.3529,133.1219,153.8571,133.3391,154.055,132.8168,154.5,132.8912" style="stroke:#181818;stroke-width:4.0;"/><text fill="#000000" font-family="Chalkduster" font-size="24" lengthAdjust="spacing" textLength="86" x="162" y="166.732">LDaCA</text></g><!--entity oni--><g id="elem_oni"><polygon fill="none" points="382.5,370.5212,382.5,370.7313,392.3333,370.1068,402.1667,370.7144,412,370.9208,421.8333,369.8078,431.6667,370.4434,441.5,370.5212,441.4456,370.3898,441.8046,370.5495,442.1984,370.7931,442.4725,370.7476,442.9848,371.2774,443.2678,371.2534,443.0737,371.173,443.3533,371.5817,443.6937,372.0156,443.6807,372.3031,443.8746,372.6763,444,373.0212,443.9681,373.0212,444.1785,382.1471,444.2391,391.2731,444.5857,400.3991,444.6711,409.525,444,418.651,444.2092,418.7376,443.932,419.037,443.8499,419.4172,443.7769,419.8012,443.1921,419.9732,443.2678,420.4188,443.3543,420.6277,442.8764,420.4739,442.6288,420.876,442.144,420.7057,441.8448,420.9835,441.5,421.151,441.5,421.8926,431.6667,421.1023,421.8333,421.2563,412,421.4896,402.1667,421.5672,392.3333,421.1471,382.5,421.151,382.5366,421.2394,382.0734,420.8283,381.8292,420.9457,381.5093,420.8805,381.1425,420.7021,380.7322,420.4188,380.921,420.497,380.437,420.0036,380.2385,419.6285,380.1015,419.2788,380.1283,418.997,380,418.651,379.8035,418.651,380.6814,409.525,379.8253,400.3991,379.6569,391.2731,380.2283,382.1471,380,373.0212,379.7946,372.9361,379.9866,372.6014,380.4927,372.3968,380.5735,372.0161,380.812,371.7006,380.7322,371.2534,380.6912,371.1543,381.1265,371.2052,381.5147,371.1423,381.7326,370.6686,382.1342,370.6381,382.5,370.5212" style="stroke:#181818;stroke-width:4.0;"/><text fill="#000000" font-family="Chalkduster" font-size="24" lengthAdjust="spacing" textLength="44" x="390" y="404.362">Oni</text></g><!--entity para--><g id="elem_para"><polygon fill="none" points="481.5,370.5212,481.5,370.7313,491.3235,370.1068,501.1471,370.7144,510.9706,370.9208,520.7941,369.8078,530.6176,370.4434,540.4412,370.0947,550.2647,370.1377,560.0882,370.453,569.9118,369.8298,579.7353,371.0748,589.5588,369.8909,599.3824,370.3234,609.2059,370.9531,619.0294,370.4354,628.8529,370.5894,638.6765,370.4892,648.5,370.5212,648.5228,370.5761,648.8841,370.7413,649.2818,370.9944,649.6463,371.1672,650.0009,371.3161,650.2678,371.2534,650.3462,371.2859,650.557,371.6661,650.7769,372.0501,650.485,372.2221,651.0625,372.7542,651,373.0212,650.7035,373.0212,651.5338,382.1471,650.505,391.2731,650.9315,400.3991,651.7416,409.525,651,418.651,650.985,418.6448,650.886,419.018,650.8114,419.4013,650.6888,419.7647,650.413,420.0647,650.2678,420.4188,650.3044,420.5072,649.8412,420.3889,649.5969,420.7992,649.277,421.0269,648.9103,421.1414,648.5,421.151,648.5,421.764,638.6765,420.6679,628.8529,420.4988,619.0294,420.5296,609.2059,421.0921,599.3824,420.9545,589.5588,421.8324,579.7353,420.9763,569.9118,420.8079,560.0882,421.3793,550.2647,420.4842,540.4412,420.6319,530.6176,421.7999,520.7941,421.5867,510.9706,421.8855,501.1471,420.8292,491.3235,421.4702,481.5,421.151,481.5753,421.3328,481.0862,420.8591,480.7807,420.8286,480.4554,420.7505,480.1689,420.7659,479.7322,420.4188,479.7309,420.4182,479.7282,420.1242,479.2688,419.641,479.0843,419.2717,479.3015,419.0688,479,418.651,478.2831,418.651,479.509,409.525,479.2066,400.3991,478.7321,391.2731,478.6462,382.1471,479,373.0212,479.1413,373.0797,479.0543,372.6294,479.4752,372.3896,479.2691,371.89,479.7759,371.6857,479.7322,371.2534,479.794,371.4025,480.117,371.1824,480.4454,370.975,480.8856,371.0378,481.2247,370.8566,481.5,370.5212" style="stroke:#181818;stroke-width:4.0;"/><text fill="#000000" font-family="Chalkduster" font-size="24" lengthAdjust="spacing" textLength="152" x="489" y="404.362">PARADISEC</text></g><!--entity ny--><g id="elem_ny"><polygon fill="none" points="689,370.5212,689,370.7313,698.8571,370.1068,708.7143,370.7144,718.5714,370.9208,728.4286,369.8078,738.2857,370.4434,748.1429,370.0947,758,370.1377,767.8571,370.453,777.7143,369.8298,787.5714,371.0748,797.4286,369.8909,807.2857,370.3234,817.1429,370.9531,827,370.5212,826.9891,370.4947,827.3623,370.6886,827.703,370.8042,828.0834,371.0155,828.4447,371.1806,828.7678,371.2534,828.9481,371.3281,829.1209,371.6925,829.2698,372.0471,829.2855,372.3465,829.4963,372.7267,829.5,373.0212,830.2022,373.0212,828.7788,382.1471,830.1785,391.2731,829.2035,400.3991,830.0338,409.525,829.5,418.651,829.3476,418.5878,829.3325,418.9958,829.4355,419.4527,829.0457,419.7054,828.9466,420.0786,828.7678,420.4188,828.811,420.523,828.4673,420.6934,828.0602,420.7105,827.7437,420.9466,827.2805,420.8283,827,421.151,827,421.4354,817.1429,421.6992,807.2857,421.5955,797.4286,421.764,787.5714,420.6679,777.7143,420.4988,767.8571,420.5296,758,421.0921,748.1429,420.9545,738.2857,421.8324,728.4286,420.9763,718.5714,420.8079,708.7143,421.3793,698.8571,420.4842,689,421.151,688.9338,420.9911,688.7292,421.2044,688.3485,420.9923,688.033,420.9378,687.5447,420.4661,687.2322,420.4188,687.3305,420.4595,687.2676,420.1405,686.7939,419.6514,686.7634,419.3459,686.6852,419.0206,686.5,418.651,687.1518,418.651,686.4958,409.525,686.9626,400.3991,685.9462,391.2731,685.8227,382.1471,686.5,373.0212,686.6551,373.0854,686.4257,372.5762,686.9496,372.379,687.003,371.9869,687.0033,371.5728,687.2322,371.2534,687.1871,371.1444,687.6443,371.2482,687.9012,370.8683,688.3684,370.9963,688.5759,370.4974,689,370.5212" style="stroke:#181818;stroke-width:4.0;"/><text fill="#000000" font-family="Chalkduster" font-size="24" lengthAdjust="spacing" textLength="123" x="696.5" y="404.362">Nyingarn</text></g><!--entity ldacp--><g id="elem_ldacp"><polygon fill="none" points="233.5,665.1512,233.5,665.3613,243.4167,664.7368,253.3333,665.3444,263.25,665.5508,273.1667,664.4378,283.0833,665.0734,293,664.7247,302.9167,664.7677,312.8333,665.083,322.75,664.4598,332.6667,665.7048,342.5833,664.5209,352.5,664.9534,362.4167,665.5831,372.3333,665.0654,382.25,665.2194,392.1667,665.1192,402.0833,665.3297,412,665.3903,421.9167,665.7369,431.8333,665.8222,441.75,665.8304,451.6667,665.4058,461.5833,665.6147,471.5,665.8534,481.4167,664.43,491.3333,665.8297,501.25,664.8547,511.1667,665.685,521.0833,664.6561,531,665.0827,540.9167,665.8928,550.8333,665.1024,560.75,665.2565,570.6667,665.4898,580.5833,665.5674,590.5,665.1512,590.4995,665.15,590.8902,665.3861,591.1341,665.2678,591.5969,665.6781,591.9841,665.9058,592.2678,665.8834,592.4047,665.9401,592.603,666.3151,592.4119,666.5289,592.5063,666.8609,592.6622,667.2183,593,667.6512,592.9411,667.6512,592.8035,677.1836,593.6814,686.7161,592.8253,696.2485,592.6569,705.781,593.2283,715.3135,592.3332,724.8459,592.4809,734.3784,593,743.9108,593.1999,743.9936,592.9877,744.32,592.9333,744.7116,592.4616,744.9304,592.5125,745.3658,592.2678,745.6786,592.3431,745.8604,591.854,745.6796,591.5484,745.942,591.2232,746.1567,590.9367,746.4651,590.5,746.4108,590.5,746.4066,580.5833,746.8734,570.6667,745.857,560.75,745.7336,550.8333,746.9144,540.9167,745.6939,531,746.9198,521.0833,746.6175,511.1667,746.1429,501.25,746.0571,491.3333,746.8696,481.4167,746.1115,471.5,747.0027,461.5833,745.8581,451.6667,747.0283,441.75,746.8951,431.8333,746.6558,421.9167,746.458,412,747.1374,402.0833,747.0244,392.1667,746.5801,382.25,746.679,372.3333,746.2806,362.4167,747.1273,352.5,746.5657,342.5833,746.5834,332.6667,745.8025,322.75,746.0056,312.8333,746.9416,302.9167,746.8406,293,746.3679,283.0833,746.0887,273.1667,746.1919,263.25,745.7247,253.3333,746.8256,243.4167,747.1504,233.5,746.4108,233.5671,746.5729,233.2351,746.4784,232.7755,746.0758,232.4505,745.9983,232.0363,745.7057,231.7322,745.6786,231.8197,745.7148,231.6618,745.3565,231.6095,745.042,231.2222,744.5886,231.1051,744.2472,231,743.9108,231.4435,743.9108,231.5673,734.3784,230.4875,724.8459,230.8061,715.3135,231.1493,705.781,230.3892,696.2485,231.3534,686.7161,231.258,677.1836,231,667.6512,230.969,667.6383,231.1903,667.3158,231.5173,667.037,231.343,666.5506,231.6828,666.2771,231.7322,665.8834,231.7687,665.9714,232.1006,665.7726,232.4573,665.6339,232.8074,665.479,233.0668,665.1054,233.5,665.1512" style="stroke:#181818;stroke-width:4.0;"/><text fill="#000000" font-family="Chalkduster" font-size="24" lengthAdjust="spacing" textLength="342" x="241" y="698.992">Languate Data Commons</text><text fill="#000000" font-family="Chalkduster" font-size="24" lengthAdjust="spacing" textLength="233" x="241" y="729.6219">RO-Crate Profile</text></g><!--entity rocrate--><g id="elem_rocrate"><polygon fill="none" points="287.5,928.4112,287.5,928.6213,297.5714,927.9968,307.6429,928.6044,317.7143,928.8108,327.7857,927.6978,337.8571,928.3334,347.9286,927.9847,358,928.0277,368.0714,928.343,378.1429,927.7198,388.2143,928.9648,398.2857,927.7809,408.3571,928.2134,418.4286,928.8431,428.5,928.4112,428.4891,928.3847,428.8623,928.5786,429.203,928.6942,429.5834,928.9055,429.9447,929.0706,430.2678,929.1434,430.4481,929.2181,430.6209,929.5825,430.7698,929.9371,430.7855,930.2365,430.9963,930.6167,431,930.9112,431.7022,930.9112,430.2788,940.0371,431.6785,949.1631,430.7035,958.2891,431.5338,967.415,431,976.541,430.8476,976.4778,430.8325,976.8858,430.9355,977.3427,430.5457,977.5954,430.4466,977.9686,430.2678,978.3088,430.311,978.413,429.9673,978.5834,429.5602,978.6005,429.2437,978.8366,428.7805,978.7183,428.5,979.041,428.5,979.3254,418.4286,979.5892,408.3571,979.4855,398.2857,979.654,388.2143,978.5579,378.1429,978.3888,368.0714,978.4196,358,978.9821,347.9286,978.8445,337.8571,979.7224,327.7857,978.8663,317.7143,978.6979,307.6429,979.2693,297.5714,978.3742,287.5,979.041,287.4338,978.8811,287.2292,979.0944,286.8485,978.8823,286.533,978.8278,286.0447,978.3561,285.7322,978.3088,285.8305,978.3495,285.7676,978.0305,285.2939,977.5414,285.2634,977.2359,285.1852,976.9106,285,976.541,285.6518,976.541,284.9958,967.415,285.4626,958.2891,284.4462,949.1631,284.3227,940.0371,285,930.9112,285.1551,930.9754,284.9257,930.4662,285.4496,930.269,285.503,929.8769,285.5033,929.4628,285.7322,929.1434,285.6871,929.0344,286.1443,929.1382,286.4012,928.7583,286.8684,928.8863,287.0759,928.3874,287.5,928.4112" style="stroke:#181818;stroke-width:4.0;"/><text fill="#000000" font-family="Chalkduster" font-size="24" lengthAdjust="spacing" textLength="126" x="295" y="962.252">RO-Crate</text></g><!--entity OCFL--><g id="elem_OCFL"><polygon fill="none" points="651,680.4712,651,680.6813,661.5,680.0568,672,680.6644,682.5,680.8708,693,679.7578,703.5,680.3934,714,680.0447,724.5,680.0877,735,680.4712,734.9913,680.4502,735.2654,680.4047,735.7777,680.9346,735.9803,680.7164,736.389,680.996,736.7678,681.2034,736.9008,681.2585,736.8878,681.546,737.0817,681.9192,737.1973,682.26,737.4085,682.6404,737.5,682.9712,737.7391,682.9712,738.0857,692.0971,738.1711,701.2231,738.1793,710.3491,737.7546,719.475,737.5,728.601,737.6428,728.6601,737.5698,729.0441,736.985,729.2161,737.2696,729.7482,736.8229,729.9774,736.7678,730.3688,736.8359,730.5332,736.3511,730.3628,736.0519,730.6406,735.8017,731.0365,735.3473,730.9395,735,731.101,735,731.2063,724.5,731.4396,714,731.5172,703.5,731.0971,693,731.3882,682.5,730.5286,672,731.3854,661.5,731.6492,651,731.101,651.0567,731.2379,650.7246,731.1433,650.2313,730.6593,649.8561,730.4608,649.5065,730.3238,649.2322,730.3688,649.2141,730.3613,649.0253,729.9901,649.1492,729.7486,648.7391,729.2858,648.5408,728.9108,648.5,728.601,648.7283,728.601,647.8332,719.475,647.9809,710.3491,649.149,701.2231,648.9357,692.0971,648.5,682.9712,648.7262,683.0649,648.5473,682.5766,648.8912,682.3048,649.1212,681.9858,648.9403,681.4967,649.2322,681.2034,649.22,681.1739,649.6019,681.0957,650.0225,681.1112,650.2924,680.7628,650.7055,680.7601,651,680.4712" style="stroke:#181818;stroke-width:4.0;"/><text fill="#000000" font-family="Chalkduster" font-size="24" lengthAdjust="spacing" textLength="69" x="658.5" y="714.312">OCFL</text></g><!--entity NOCFL--><g id="elem_NOCFL"><polygon fill="none" points="939.5,680.4712,939.5,680.6813,949.6,680.0568,959.7,680.6644,969.8,680.8708,979.9,679.7578,990,680.3934,1000.1,680.0447,1010.2,680.0877,1020.3,680.403,1030.4,679.7798,1040.5,680.4712,1040.5706,680.6417,1040.7732,680.4235,1041.1819,680.7031,1041.6158,681.0435,1041.9033,681.0305,1042.2678,681.2034,1042.2888,681.2121,1042.4044,681.5529,1042.6156,681.9333,1042.7808,682.2946,1043.0339,682.6923,1043,682.9712,1043.6711,682.9712,1043.6793,692.0971,1043.2546,701.2231,1043.4636,710.3491,1043.7022,719.475,1043,728.601,1042.7779,728.509,1043.0625,729.0411,1042.6158,729.2703,1042.7251,729.7297,1042.2618,729.9521,1042.2678,730.3688,1042.259,730.3477,1042.0088,730.7436,1041.5544,730.6466,1041.2205,730.8405,1040.8967,731.0588,1040.5,731.101,1040.5,731.5172,1030.4,731.0971,1020.3,731.3882,1010.2,730.5286,1000.1,731.3854,990,731.6492,979.9,731.5455,969.8,731.714,959.7,730.6179,949.6,730.4488,939.5,731.101,939.4207,730.9096,939.1389,730.9364,938.7678,730.7476,938.5263,730.8715,938.0635,730.4614,937.7322,730.3688,937.6266,730.325,937.6561,730.0443,937.234,729.5766,937.133,729.2419,937.3463,729.0373,937,728.601,937.4357,728.601,937.7345,719.475,936.6782,710.3491,937.3192,701.2231,937.5904,692.0971,937,682.9712,936.8545,682.9109,937.1169,682.6054,937.3317,682.2801,937.6401,681.9936,937.5845,681.5564,937.7322,681.2034,937.7912,681.3458,938.0151,680.8864,938.3529,680.7019,938.8571,680.9191,939.055,680.3968,939.5,680.4712" style="stroke:#181818;stroke-width:4.0;"/><text fill="#000000" font-family="Chalkduster" font-size="24" lengthAdjust="spacing" textLength="86" x="947" y="714.312">NOCFL</text></g><!--entity pr--><g id="elem_pr"><polygon fill="none" points="775,680.4712,775,680.6813,785.3333,680.0568,795.6667,680.6644,806,680.8708,816.3333,679.7578,826.6667,680.3934,837,680.0447,847.3333,680.0877,857.6667,680.403,868,679.7798,878.3333,681.0248,888.6667,679.8409,899,680.4712,898.9748,680.4103,899.4087,680.7506,899.6962,680.7376,900.0694,680.9315,900.4101,681.0471,900.7678,681.2034,900.8227,681.2262,900.9879,681.5875,901.241,681.9852,901.4138,682.3497,901.5627,682.7043,901.5,682.9712,901.7546,682.9712,901.9636,692.0971,902.2022,701.2231,900.7788,710.3491,902.1785,719.475,901.5,728.601,901.4087,728.5632,901.5179,729.0226,901.0547,729.245,901.0396,729.6529,901.1426,730.1098,900.7678,730.3688,900.7616,730.3538,900.4276,730.5476,900.1039,730.7659,899.7602,730.9363,899.3531,730.9533,899,731.101,899,731.3882,888.6667,730.5286,878.3333,731.3854,868,731.6492,857.6667,731.5455,847.3333,731.714,837,730.6179,826.6667,730.4488,816.3333,730.4796,806,731.0421,795.6667,730.9045,785.3333,731.7824,775,731.101,774.9777,731.0472,774.6027,730.8489,774.322,730.8784,773.8543,730.4563,773.5196,730.3553,773.2322,730.3688,773.4321,730.4515,773.22,730.0708,773.1655,729.7553,772.6938,729.2671,772.7447,728.9953,772.5,728.601,773.0904,728.601,772.0276,719.475,772.4041,710.3491,772.626,701.2231,773.1518,692.0971,772.5,682.9712,772.4987,682.9706,772.7889,682.6766,772.6223,682.1934,772.7308,681.8241,773.2409,681.6212,773.2322,681.2034,773.1408,680.9826,773.6507,681.2137,773.9657,680.9741,774.2587,680.6815,774.6013,680.5087,775,680.4712" style="stroke:#181818;stroke-width:4.0;"/><text fill="#000000" font-family="Chalkduster" font-size="24" lengthAdjust="spacing" textLength="109" x="782.5" y="714.312">Proxyist</text></g><!--link ny to NOCFL--><g id="link_ny_NOCFL"><path d="M790.18,421.5012 L790.2391,421.5735 L792.8875,423.6688 L795.8826,426.188 L798.7648,428.5692 L801.2757,430.4965 L804.3006,433.0521 L804.2782,433.0258 L807.3042,435.5683 L810.4429,438.2433 L813.6601,441.0105 L816.607,443.4601 L819.9325,446.3546 L820.0961,446.5384 L823.0803,449.114 L826.5423,452.2262 L830.0625,455.4039 L833.2436,458.2007 L836.6031,461.1978 L836.6237,461.2201 L838.3089,462.7741 L840.0879,464.4295 L841.8216,466.036 L843.6416,467.7358 L845.1803,469.1314 L845.3859,469.3475 L847.1204,470.9981 L848.7222,472.5093 L850.5182,474.2245 L852.3232,475.9493 L853.84,477.3712 L853.6155,477.1424 L855.7878,479.2903 L857.221,480.6849 L859.216,482.6523 L860.6324,484.0298 L862.5231,485.8908 L862.5014,485.8694 L864.4874,487.8768 L865.9667,489.3848 L867.745,491.1875 L869.5483,493.0149 L871.1706,494.6639 L871.3047,494.7913 L872.8799,496.4627 L874.6843,498.3519 L876.1179,499.8888 L878.1045,501.9511 L879.7234,503.6641 L879.9034,503.8284 L881.5492,505.6375 L883.2843,507.5282 L884.6043,509.04 L886.2286,510.8296 L888.1225,512.8652 L887.9145,512.6836 L889.74,514.7231 L891.3312,516.558 L893.2624,518.6898 L894.613,520.3146 L896.3087,522.2408 L896.1915,522.1434 L897.9697,524.2104 L899.2466,525.8609 L900.8799,527.8076 L902.8621,530.0442 L904.2231,531.7646 L904.3753,531.8842 L905.9964,533.8954 L907.1441,535.5344 L908.8847,537.6396 L910.4962,539.6432 L911.8066,541.4101 L911.6377,541.2854 L913.211,543.333 L914.729,545.3398 L916.3556,547.4268 L917.5598,549.2018 L919,551.1512 L919.1708,551.2656 L920.9273,554.1972 L923.0135,557.3497 L925.5813,560.8247 L927.2624,563.7059 L929.6589,567.0662 L929.8532,567.1819 L931.6926,570.3948 L933.4661,573.5685 L935.3881,576.8306 L937.6531,580.297 L939.4326,583.4743 L939.3154,583.4114 L941.4435,586.9153 L942.7743,589.9915 L945.0117,593.554 L946.7386,596.8426 L948.328,600.0575 L948.4258,600.1053 L949.9516,603.3548 L951.8277,606.7753 L953.3873,610.0414 L954.8146,613.2429 L956.3517,616.4979 L956.4605,616.5467 L957.7306,619.6702 L959.5058,623.02 L960.7098,626.1139 L962.1488,629.313 L963.5106,632.4776 L963.2608,632.374 L964.6044,635.4488 L966.2488,638.6483 L967.4675,641.6712 L968.5336,644.631 L969.8114,647.6785 L969.6778,647.6269 L970.8105,650.4642 L971.7067,653.2102 L973.253,656.2074 L974.4776,659.0803 L975.2609,661.7827 L975.4808,661.8625 L976.4722,664.4259 L977.0458,666.8378 L978.0603,669.4096 L978.783,671.8756 L979.8659,674.4722 " fill="none" style="stroke:#8B0000;stroke-width:4.0;"/><polygon fill="#8B0000" points="981.86,680.1312,981.9298,680.1367,981.8786,678.1566,982.2368,676.2092,982.4617,674.251,982.2481,672.258,982.6414,670.3134,982.6181,670.3022,982.0246,671.2724,981.5489,672.299,981.155,673.3648,980.479,674.2954,980.1982,675.4154,980.2779,675.5818,979.0871,674.7373,978.129,674.3786,977.1992,674.0793,976.1043,673.435,975.0962,672.9722,975.1127,672.9878,976.4412,674.3967,977.845,675.8766,979.2124,677.3223,980.6492,678.8334,981.86,680.1312" style="stroke:#8B0000;stroke-width:4.0;"/></g><!--link para to pr--><g id="link_para_pr"><path d="M603.8,421.4712 L603.8527,421.5483 L607.0068,423.5831 L610.4699,426.07 L613.8324,428.4096 L616.8638,430.2652 L620.3535,432.7909 L620.3334,432.7628 L623.9006,435.2501 L627.5689,437.8791 L631.3077,440.6066 L634.8039,442.9947 L638.6398,445.8582 L638.7863,446.0559 L640.3985,447.06 L642.4383,448.6413 L644.5303,450.293 L646.3187,451.535 L648.2668,452.9925 L648.2852,453.0166 L650.2304,454.4823 L652.2593,456.0578 L654.2478,457.5803 L656.3133,459.204 L658.1278,460.4979 L658.3117,460.7327 L660.3197,462.3066 L662.2091,463.7289 L664.272,465.373 L666.3432,467.0275 L668.1564,468.3527 L667.955,468.1034 L670.3719,470.2238 L672.1256,471.5231 L674.3834,473.4466 L676.122,474.7273 L678.2863,476.5349 L678.2667,476.5115 L680.5304,478.4854 L682.3382,479.9134 L684.415,481.6635 L686.5144,483.4406 L688.4509,485.0226 L688.5719,485.1625 L690.4763,486.7756 L692.5876,488.6276 L694.3642,490.093 L696.64,492.1352 L698.5839,493.7939 L698.7469,493.975 L700.7231,495.7474 L702.7802,497.6096 L704.4613,499.0541 L706.418,500.8049 L708.6189,502.8269 L708.4298,502.6256 L710.5751,504.6624 L712.5074,506.4724 L714.7486,508.6114 L716.4623,510.1886 L718.4895,512.0998 L718.3826,511.9911 L720.4887,514.0702 L722.1375,515.6849 L724.1116,517.6298 L726.4037,519.8979 L728.1294,521.5905 L728.2687,521.7249 L730.2328,523.7545 L731.7635,525.3659 L733.837,527.501 L735.7923,529.5221 L737.472,531.2772 L737.3167,531.1359 L739.2363,533.2207 L741.105,535.2593 L743.0736,537.3888 L744.6538,539.1647 L746.451,541.1381 L746.6073,541.2716 L747.9736,542.9809 L749.6417,544.9479 L751.7506,547.2913 L753.0479,548.9416 L755,551.1512 L755.179,551.2894 L757.4893,554.3363 L759.7391,557.3363 L762.1255,560.4419 L764.828,563.7916 L767.0832,566.796 L766.9735,566.7208 L769.5302,570.1976 L771.3407,573.1628 L773.9997,576.7097 L776.181,579.9291 L778.2335,583.0603 L778.3261,583.1175 L780.2935,586.3798 L782.5925,589.8468 L784.5919,593.1289 L786.466,596.3336 L788.4441,599.6026 L788.548,599.661 L790.2465,602.8699 L792.4274,606.3501 L794.0627,609.5236 L795.9224,612.8232 L797.7084,616.0813 L797.4683,615.9571 L799.2107,619.2134 L801.2425,622.6192 L802.8649,625.8133 L804.3405,628.9316 L806.0198,632.1551 L805.8907,632.0932 L807.4024,635.1785 L808.6855,638.1541 L810.597,641.4312 L812.1975,644.5591 L813.3715,647.4824 L813.585,647.5781 L814.9304,650.4566 L815.8702,653.1532 L817.2381,656.0418 L818.3226,658.8033 L819.7569,661.7217 L819.8732,661.7708 L820.9404,664.3263 L822.148,666.9412 L822.9103,669.3679 L824.0318,671.9463 L825.1693,674.5315 " fill="none" style="stroke:#8B0000;stroke-width:4.0;"/><polygon fill="#8B0000" points="827.45,680.0812,827.52,680.0831,827.3677,678.1083,827.6259,676.145,827.7504,674.178,827.4353,672.1985,827.7288,670.2362,827.7049,670.2263,827.1617,671.2255,826.7391,672.2751,826.4002,673.3596,825.7727,674.3236,825.5495,675.4565,825.6206,675.6268,824.4245,674.8267,823.436,674.5239,822.4728,674.2817,821.3623,673.6866,820.3293,673.2771,820.345,673.2936,821.746,674.6302,823.2187,676.0418,824.6568,677.4172,826.1607,678.8615,827.45,680.0812" style="stroke:#8B0000;stroke-width:4.0;"/></g><!--link pr to OCFL--><g id="link_pr_OCFL"><path d="M772.23,705.7812 L772.23,705.8746 L766.528,705.597 L760.826,705.8671 L755.124,705.9588 L749.422,705.4641 L743.72,705.7812 " fill="none" style="stroke:#8B0000;stroke-width:4.0;"/><polygon fill="#8B0000" points="737.72,705.7812,737.7485,705.8452,739.4639,706.455,741.3462,707.44,743.1741,708.3029,744.8234,708.7639,746.72,709.7812,746.7017,709.7628,745.8195,708.8806,745.0296,708.0908,744.3039,707.3651,743.357,706.4182,742.72,705.7812,742.8505,705.9117,743.3714,704.8326,744.2734,704.1345,745.2218,703.483,745.8998,702.5609,746.72,701.7812,746.7292,701.8019,744.9157,702.5714,743.1442,703.4355,741.3524,704.254,739.5993,705.1596,737.72,705.7812" style="stroke:#8B0000;stroke-width:4.0;"/></g><!--link oni to OCFL--><g id="link_oni_OCFL"><path d="M435.22,421.2112 L435.285,421.2783 L437.6062,423.5118 L440.3082,426.1389 L442.8863,428.6378 L445.0565,430.7153 L447.7913,433.3762 L447.7683,433.3504 L450.3069,435.5897 L452.9613,437.9589 L455.6963,440.4185 L458.1538,442.5668 L461,445.1512 L461.1547,445.3425 L463.0783,446.7562 L465.4535,448.7285 L467.8839,450.7689 L469.9936,452.4128 L472.272,454.2653 L472.2901,454.2896 L474.3948,455.8379 L476.5819,457.4971 L478.7293,459.1028 L480.9525,460.8105 L482.9285,462.1857 L483.0968,462.4319 L485.1219,463.8172 L487.0384,465.0437 L489.1139,466.5026 L491.1967,467.9725 L493.0437,469.0971 L492.8727,468.826 L495.1342,470.5695 L496.8326,471.4204 L498.9591,472.95 L500.6447,473.7806 L502.6917,475.1841 L502.6763,475.1579 L504.7099,476.5577 L506.3827,477.3444 L508.2684,478.4929 L510.172,479.6717 L511.9466,480.6315 L512.0368,480.793 L513.733,481.6285 L515.5832,482.7399 L517.1841,483.4049 L519.157,484.7358 L520.8825,485.6239 L520.9989,485.838 L524.4191,487.6692 L527.8972,489.6067 L531.1067,491.0504 L534.513,492.8561 L538.0938,494.9824 L537.9552,494.7435 L541.4455,496.9107 L544.7797,498.8087 L548.3404,501.0972 L551.5144,502.7189 L554.9183,504.737 L554.8352,504.6091 L556.664,505.9196 L558.1379,506.6834 L559.8641,507.836 L561.8373,509.3689 L563.3708,510.2245 L563.4835,510.382 L565.2764,511.7181 L566.7188,512.5644 L568.6002,514.0242 L570.386,515.3503 L571.9489,516.3651 L571.8182,516.2007 L573.678,517.7274 L575.4949,519.2002 L577.3959,520.7788 L578.9701,521.9462 L580.7268,523.3433 L580.8629,523.4974 L582.3741,524.7591 L584.1481,526.3181 L586.3061,528.3114 L587.7572,529.5051 L589.7785,531.344 L589.9368,531.5056 L591.7227,533.2511 L593.4551,534.942 L595.3083,536.7563 L597.441,538.8558 L599.1782,540.5517 L599.0807,540.4613 L601.3355,542.8504 L602.9267,544.6245 L605.2726,547.0979 L607.1935,549.1776 L609,551.1512 L609.084,551.2204 L611.5492,554.2403 L614.3153,557.5081 L616.8096,560.552 L619.1901,563.5023 L621.6651,566.5303 L621.7618,566.6 L623.9422,569.7192 L626.5716,573.1621 L628.6932,576.2389 L631.0237,579.4663 L633.2856,582.6442 L633.0581,582.4982 L635.2501,585.8443 L637.7162,589.3664 L639.7944,592.6395 L641.7336,595.8235 L643.8657,599.1312 L643.7418,599.0595 L645.6902,602.3821 L647.4192,605.5778 L649.7515,609.1225 L651.7853,612.4945 L653.4095,615.6296 L653.6165,615.7387 L655.385,619.0033 L656.7604,622.0606 L658.5507,625.3366 L660.0664,628.4679 L661.9211,631.7779 L662.0347,631.8329 L663.5165,634.913 L665.1354,638.0596 L666.3193,640.9952 L667.8541,644.101 L669.4046,647.2144 L669.5844,647.2952 L670.9265,650.1904 L671.7807,652.8662 L673.2018,655.7969 L674.6328,658.7321 L675.8642,661.5775 L675.614,661.4722 L677.0969,664.224 L678.1458,666.7932 L679.0868,669.3169 L680.2743,671.9444 L681.304,674.5055 " fill="none" style="stroke:#8B0000;stroke-width:4.0;"/><polygon fill="#8B0000" points="683.57,680.0612,683.64,680.0633,683.4929,678.0881,683.7563,676.1255,683.886,674.1588,683.5761,672.1785,683.8747,670.217,683.8508,670.207,683.3051,671.2048,682.8797,672.2532,682.5379,673.3369,681.9078,674.2992,681.6816,675.4315,681.7532,675.6016,680.5573,674.7992,679.5703,674.4935,678.6088,674.2483,677.499,673.6506,676.4672,673.2384,676.483,673.2548,677.8804,674.5953,679.3495,676.0104,680.7841,677.3895,682.2847,678.8374,683.57,680.0612" style="stroke:#8B0000;stroke-width:4.0;"/></g><!--link ny to ldacp--><g id="link_ny_ldacp"><path d="M730.27,421.5212 L730.4563,421.7305 L722.4364,427.7535 L715.5087,435.0037 L708.2253,441.8543 L699.7723,447.3907 L692.8694,454.6689 L685.0939,460.9665 L677.6657,467.6543 L670.4788,474.6134 L662.4601,480.6377 L656.0973,488.5228 L647.5815,493.9886 L640.4986,501.0644 L633.5905,508.3366 L625.6652,514.466 L618.3354,521.2644 L610.7802,527.8097 L603.5004,534.6643 L596.0878,541.3697 L588.9287,548.3599 L581.538,555.0899 L574.0789,561.7431 L566.2362,567.9652 L558.9551,574.8183 L551.7003,581.7011 L542.9722,586.9284 L536.7466,594.9675 L528.4159,600.6414 L521.6856,608.1134 L513.3073,613.7337 L506.219,620.8035 L499.4708,628.2554 L491.3039,634.1133 L483.9741,640.9117 L476.7146,647.7891 L469.317,654.5114 L461.4817,660.7419 " fill="none" style="stroke:#8B0000;stroke-width:4.0;"/><polygon fill="#8B0000" points="457,664.7312,457.0213,664.7979,458.8344,664.0004,460.7724,663.5941,462.6698,663.0604,464.4333,662.1077,466.3821,661.735,466.3806,661.7092,465.2444,661.5275,464.1157,661.4761,462.9924,661.5154,461.8508,661.2423,460.7347,661.4068,460.919,661.4175,460.5907,660.2651,460.8002,659.144,461.0755,658.0267,460.9688,656.8872,461.063,655.7594,461.0837,655.7688,460.2407,657.5494,459.492,659.3727,458.6978,661.1754,457.9904,663.0174,457,664.7312" style="stroke:#8B0000;stroke-width:4.0;"/></g><!--link para to ldacp--><g id="link_para_ldacp"><path d="M552.74,421.5212 L552.991,421.6459 L547.8686,430.0841 L544.2174,439.2534 L540.0872,448.1846 L534.3814,456.333 L530.7638,465.5189 L525.9707,474.1207 L521.6453,482.955 L517.6452,491.9508 L512.5243,500.3899 L509.6343,509.9373 L503.8439,518.0436 L499.9837,527.109 L496.3589,536.2914 L491.3641,544.793 L487.1713,553.6931 L482.675,562.4424 L478.5496,571.3761 L474.2453,580.2208 L470.2824,589.2352 L466.0077,598.0946 L461.6408,606.9082 L456.7571,615.465 L452.6299,624.3978 L448.5382,633.3481 L442.4619,641.3124 L439.7565,650.9516 L434.5696,659.3578 " fill="none" style="stroke:#8B0000;stroke-width:4.0;"/><polygon fill="#8B0000" points="431.9,664.7312,431.9447,664.7851,433.3293,663.3687,434.9758,662.2687,436.537,661.0656,437.8177,659.5238,439.4867,658.4509,439.4784,658.4263,438.369,658.6766,437.3012,659.0507,436.2623,659.5108,435.1237,659.6744,434.1247,660.2534,434.2996,660.3122,433.5651,659.114,433.3412,658.0876,433.1797,657.082,432.6556,655.9546,432.3222,654.8914,432.3449,654.8923,432.2271,656.8589,432.2128,658.8298,432.1485,660.7987,432.1795,662.7716,431.9,664.7312" style="stroke:#8B0000;stroke-width:4.0;"/></g><!--link oni to ldacp--><g id="link_oni_ldacp"><path d="M412,421.5212 L412.2802,421.5212 L411.4476,431.4049 L412.2577,441.2887 L412.5329,451.1724 L411.0488,461.0562 L411.8964,470.9399 L411.4313,480.8237 L411.4887,490.7074 L411.9091,500.5912 L411.0782,510.4749 L412.7382,520.3587 L411.1596,530.2424 L411.7363,540.1262 L412.5759,550.0099 L411.8856,559.8937 L412.091,569.7774 L411.9574,579.6612 L412.238,589.5449 L412.3188,599.4287 L412.7809,609.3124 L412.8947,619.1962 L412.9057,629.0799 L412.3395,638.9637 L412.6181,648.8474 L412,658.7312 " fill="none" style="stroke:#8B0000;stroke-width:4.0;"/><polygon fill="#8B0000" points="412,664.7312,412.064,664.7596,412.6738,662.8751,413.6589,661.1573,414.5217,659.3853,414.9827,657.4346,416,655.7312,415.9817,655.7128,415.0995,656.4306,414.3096,657.2408,413.5839,658.1151,412.637,658.7682,412,659.7312,412.1305,659.8617,411.0514,658.7826,410.3534,658.0845,409.7018,657.433,408.7798,656.5109,408,655.7312,408.0208,655.7404,408.7903,657.5268,409.6544,659.3553,410.4728,661.1635,411.3784,663.0105,412,664.7312" style="stroke:#8B0000;stroke-width:4.0;"/></g><!--link oni to rocrate--><g id="link_oni_rocrate"><path d="M379.95,401.5112 L379.9673,401.603 L377.3503,401.8134 L374.8347,402.5619 L372.286,403.1352 L369.6289,403.1322 L367.1219,403.927 L367.1148,403.8932 L364.233,404.3474 L361.3875,404.9718 L358.5672,405.7147 L355.6601,406.0495 L352.8745,406.9559 L352.932,407.1951 L349.7376,407.422 L346.7112,408.3475 L343.7053,409.3581 L340.5801,409.8729 L337.5177,410.6485 L337.5257,410.6778 L334.2827,411.5162 L331.0761,412.4879 L327.852,413.3954 L324.6613,414.4254 L321.3616,415.0557 L321.4501,415.3405 L318.1221,416.3785 L314.737,417.2328 L311.4355,418.3559 L308.1379,419.4917 L304.7162,420.2282 L304.6087,419.9262 L301.4524,421.71 L297.9422,422.4994 L294.701,424.0448 L291.1827,424.8117 L287.8916,426.2167 L287.88,426.1885 L284.6781,427.8926 L281.2059,428.9388 L277.8931,430.3732 L274.5938,431.8402 L271.1979,433.072 L271.2777,433.2389 L267.9465,434.625 L264.7518,436.2963 L261.3364,437.5062 L258.2501,439.4044 L254.945,440.8449 L255.0647,441.0571 L251.9417,442.7652 L248.8781,444.5787 L245.5384,445.9026 L242.4011,447.5854 L239.4431,449.5861 L239.2884,449.3573 L236.5402,451.5165 L233.6178,453.4179 L230.9481,455.6932 L227.8469,457.33 L225.0021,459.3464 L224.9049,459.229 L222.4529,461.5906 L219.5851,463.4503 L217.013,465.6668 L214.7303,468.2326 L211.9323,470.1765 L212.0724,470.3101 L209.8908,472.7919 L207.2732,474.8582 L205.2017,477.4448 L203.0112,479.9181 L200.5434,482.1273 L200.3727,482.005 L198.6293,484.7269 L196.8299,487.4087 L195.1403,490.1692 L193.0238,492.6238 L191.1458,495.2493 L191.33,495.3405 L189.5059,498.009 L188.0374,500.8535 L187.0885,503.9551 L185.183,506.5834 L184.0493,509.5935 L184.2667,509.6559 L183.2405,512.7422 L182.1407,515.8074 L181.207,518.9203 L180.657,522.1434 L179.564,525.2105 L179.4315,525.1983 L179.5131,528.6228 L178.6938,531.9642 L178.8988,535.4001 L178.5271,538.7828 L178,542.1512 L178.3266,542.1512 L178.063,551.9756 L178.9688,561.8 L178.8181,571.6245 L178.2257,581.4489 L178.3576,591.2734 L177.8263,601.0978 L178.9553,610.9223 L178.2065,620.7467 L178.2301,630.5712 L177.1889,640.3956 L177.4597,650.22 L178.7077,660.0445 L178.573,669.8689 L177.9428,679.6934 L177.5704,689.5178 L177.7081,699.3423 L177.0851,709.1667 L178.553,718.9912 L178.9861,728.8156 L178.7019,738.64 L178.9266,748.4645 L177.8177,758.2889 L178.1163,768.1134 L177.4832,777.9378 L178.3787,787.7623 L178.329,797.5867 L178,807.4112 L178.2451,807.4251 L178.0207,809.5602 L178.1855,811.7174 L178.5645,813.8868 L178.7421,816.0448 L178.6129,818.1853 L178.3885,818.1463 L178.8847,820.2236 L179.3916,822.3028 L179.4155,824.2981 L180.1944,826.4245 L180.3964,828.4507 L180.5064,828.4831 L180.9276,830.3919 L181.6055,832.3761 L182.4298,834.4034 L182.5599,836.2267 L183.2676,838.2197 L183.3968,838.2736 L184.16,840.1255 L184.8656,841.9533 L185.6511,843.8145 L186.4151,845.6667 L187.1438,847.5041 L186.9002,847.3715 L187.9471,849.1814 L188.883,850.9309 L190.0478,852.805 L191.017,854.5726 L191.9422,856.3163 L192.0018,856.3565 L192.9626,857.9143 L194.1725,859.6402 L195.2806,861.2975 L196.665,863.1412 L197.58,864.6682 L197.7274,864.7874 L198.6911,866.1132 L200.1126,867.8093 L201.2172,869.2491 L202.7951,871.0719 L203.9744,872.572 L204.1708,872.7579 L205.5638,874.232 L206.661,875.4261 L208.365,877.1945 L209.3891,878.3194 L211.0425,880.0399 L211.1027,880.1054 L212.4843,881.3508 L214.1353,882.8891 L215.7103,884.3449 L217.3118,885.8295 L218.7016,887.0839 L218.4999,886.8355 L220.4683,888.5744 L222.0185,889.7982 L223.7015,891.1858 L225.445,892.6477 L226.8689,893.7161 L226.8703,893.7181 L228.6332,895.0257 L230.3617,896.2859 L232.076,897.5266 L233.7428,898.7019 L235.4616,899.9487 L235.6345,900.213 L237.1003,900.8909 L239.1732,902.497 L240.6709,903.2236 L242.4783,904.4238 L244.3968,905.7938 L244.4059,905.809 L246.2422,906.8985 L247.9628,907.7934 L250.0078,909.2336 L251.7776,910.2111 L253.5918,911.2634 L253.7463,911.547 L255.6081,912.545 L257.2453,913.131 L259.1304,914.1719 L261.0619,915.2981 L262.9638,916.3698 L263.0347,916.511 L264.9374,917.4809 L266.8104,918.3915 L268.5753,919.0871 L270.6637,920.4267 L272.43,921.125 L272.5489,921.3803 L274.3166,921.9891 L276.1761,922.7951 L278.0412,923.6129 L279.9717,924.5714 L281.9075,925.5411 " fill="none" style="stroke:#8B0000;stroke-width:4.0;"/><polygon fill="#8B0000" points="287.38,928.0012,287.4322,928.0479,285.9634,926.4414,284.8005,925.1088,283.5381,923.687,281.9479,921.9718,280.8113,920.6627,280.7871,920.6535,281.0801,921.6699,281.4951,922.7327,281.995,923.8277,282.2025,924.8116,282.8196,925.9511,282.8851,926.1236,281.6873,926.1564,280.6808,926.6928,279.6977,927.2907,278.5788,927.531,277.5312,927.9594,277.5313,927.9821,279.5009,927.9571,281.471,928.0356,283.4408,928.0642,285.4111,928.188,287.38,928.0012" style="stroke:#8B0000;stroke-width:4.0;"/></g><!--link om to oni--><g id="link_om_oni"><path d="M102.53,183.8212 L102.5855,183.8963 L105.6406,186.0528 L109.0211,188.6497 L112.2956,191.1033 L115.2216,193.0852 L118.63,195.7199 L118.6098,195.6919 L121.7932,197.9264 L125.0783,200.3021 L128.4343,202.7761 L131.5463,204.9117 L135,207.5212 L135.1415,207.7224 L141.4889,211.9685 L148.2495,216.8022 L155.0605,221.7077 L161.5782,226.1959 L168.2502,230.9036 L168.2675,230.9285 L174.9911,235.5694 L181.7933,240.3237 L188.5576,245.0233 L195.3943,249.8274 L201.995,254.2909 L202.1635,254.537 L208.87,259.1315 L215.4678,263.5672 L222.2247,268.2353 L228.989,272.9143 L235.5171,277.2482 L235.3372,276.9829 L242.2027,281.9163 L248.4759,285.9761 L255.1994,290.7 L261.4592,294.7401 L268.099,299.3406 L268.0482,299.2648 L277.1457,305.855 L285.0554,310.6725 L293.6661,316.536 L302.3355,322.4873 L310.8894,328.2662 L319.0739,333.4937 L327.5731,339.191 L327.7844,339.5103 L335.0027,343.7498 L343.484,349.8977 L351.5289,355.3863 L359.3035,360.4663 L367.2783,365.849 L374.6781,370.3626 " fill="none" style="stroke:#8B0000;stroke-width:4.0;"/><polygon fill="#8B0000" points="379.69,373.6612,379.749,373.699,378.51,371.9287,377.6167,370.3803,376.6108,368.7596,375.2348,366.9014,374.3711,365.372,374.3458,365.3668,374.4604,366.4514,374.7028,367.5623,375.0342,368.6916,375.0592,369.7578,375.5134,370.9124,375.5507,371.0931,374.3629,370.935,373.2839,371.3047,372.2183,371.7387,371.0754,371.7981,369.9731,372.0546,369.9768,372.077,371.9147,372.3654,373.8695,372.7559,375.8162,373.0972,377.7785,373.5325,379.69,373.6612" style="stroke:#8B0000;stroke-width:4.0;"/></g><!--link uts to oni--><g id="link_uts_oni"><path d="M412,183.9812 L412.2802,183.9812 L411.4476,193.9845 L412.2577,203.9878 L412.5329,213.9912 L411.0488,223.9945 L411.8964,233.9978 L411.4313,244.0012 L411.4887,254.0045 L411.9091,264.0078 L411.0782,274.0112 L412.7382,284.0145 L411.1596,294.0178 L411.7363,304.0212 L412.5759,314.0245 L411.8856,324.0278 L412.091,334.0312 L411.9574,344.0345 L412.238,354.0378 L412,364.0412 " fill="none" style="stroke:#8B0000;stroke-width:4.0;"/><polygon fill="#8B0000" points="412,370.0412,412.064,370.0696,412.6738,368.1851,413.6589,366.4673,414.5217,364.6953,414.9827,362.7446,416,361.0412,415.9817,361.0228,415.0995,361.7406,414.3096,362.5508,413.5839,363.4251,412.637,364.0782,412,365.0412,412.1305,365.1717,411.0514,364.0926,410.3534,363.3945,409.7018,362.743,408.7798,361.8209,408,361.0412,408.0208,361.0504,408.7903,362.8368,409.6544,364.6653,410.4728,366.4735,411.3784,368.3205,412,370.0412" style="stroke:#8B0000;stroke-width:4.0;"/></g><!--link ldaca to oni--><g id="link_ldaca_oni"><path d="M226.76,183.9812 L226.9705,184.1661 L232.9908,191.1812 L240.2453,199.2806 L247.0979,207.0269 L252.6287,213.6121 L259.9113,221.7362 L266.2078,228.9939 L272.8967,236.5965 L279.8584,244.4386 L285.88,251.4549 L293.7729,260.1152 L299.2328,266.638 L306.3119,274.5833 L313.5885,282.7022 L319.7158,289.8112 L326.5159,297.5115 L333.0614,304.988 L339.918,312.7379 L346.6246,320.3559 L353.6175,328.2255 L360.3489,335.8653 L367.0029,343.4372 L373.2234,350.6283 L380.0786,358.3768 L386.26,365.5335 " fill="none" style="stroke:#8B0000;stroke-width:4.0;"/><polygon fill="#8B0000" points="390.22,370.0412,390.2869,370.062,389.5012,368.1197,389.1075,366.2998,388.5862,364.44,387.6451,362.4492,387.2851,360.6398,387.2593,360.6381,387.0702,361.7596,387.0115,362.8895,387.0434,364.0253,386.7631,365.1409,386.92,366.2848,386.9319,366.469,385.7775,366.0021,384.6577,366.073,383.5423,366.2094,382.4021,365.9642,381.275,365.9197,381.2845,365.9404,383.0595,366.7343,384.8779,367.6223,386.6753,368.465,388.5127,369.3942,390.22,370.0412" style="stroke:#8B0000;stroke-width:4.0;"/></g><!--link ldacp to rocrate--><g id="link_ldacp_rocrate"><path d="M403.2,746.8412 L403.4737,746.9013 L400.5219,756.4638 L399.1746,766.3786 L397.3049,776.1787 L393.7168,785.6015 L392.4061,795.5244 L389.8133,805.1657 L387.7308,814.9191 L386.0029,824.7503 L383.0527,834.3132 L382.5356,844.4103 L378.8552,853.8129 L377.2799,863.6776 L375.9615,873.5987 L373.1487,883.1918 L371.2107,892.9769 L368.9417,902.6894 L367.0773,912.4906 L364.7063,922.1807 " fill="none" style="stroke:#8B0000;stroke-width:4.0;"/><polygon fill="#8B0000" points="363.42,928.0412,363.4764,928.0827,364.476,926.3727,365.8065,924.906,367.0291,923.3602,367.8976,921.5536,369.2564,920.1079,369.2424,920.0861,368.2268,920.5981,367.2817,921.22,366.3854,921.9185,365.3205,922.3534,364.4919,923.1574,364.6473,923.2569,363.705,922.0912,363.2166,921.2161,362.7834,920.3763,362.0282,919.3304,361.4424,918.3929,361.4647,918.3975,361.8275,920.3204,362.2917,922.2642,362.707,924.1979,363.2157,926.1507,363.42,928.0412" style="stroke:#8B0000;stroke-width:4.0;"/></g><!--link parai to para--><g id="link_parai_para"><path d="M642.85,183.9812 L643.1129,184.0782 L638.8254,193.2862 L636.079,203.0632 L632.8308,212.6549 L627.9322,221.6373 L625.2209,231.4273 L621.2783,240.7626 L617.8257,250.2789 L614.7137,259.9209 L610.4278,269.1295 L608.4787,279.2009 L603.4915,288.1505 L600.5261,297.8466 L597.8073,307.6339 L593.6534,316.8912 L590.3397,326.4587 L586.708,335.9088 L583.4648,345.5024 L580.0343,355.0268 L576.2288,364.4128 " fill="none" style="stroke:#8B0000;stroke-width:4.0;"/><polygon fill="#8B0000" points="574.15,370.0412,574.2002,370.09,575.4251,368.5335,576.9443,367.2634,578.3677,365.9001,579.476,364.2299,581.0204,362.9844,581.0096,362.9609,579.9333,363.3286,578.9117,363.8149,577.9281,364.3836,576.8135,364.6682,575.8823,365.3508,576.0499,365.428,575.2182,364.2353,574.8759,363.268,574.5933,362.3282,573.9632,361.2284,573.5159,360.2127,573.5386,360.2142,573.6321,362.1777,573.8289,364.1479,573.9759,366.1149,574.218,368.088,574.15,370.0412" style="stroke:#8B0000;stroke-width:4.0;"/></g><!--link nyi to ny--><g id="link_nyi_ny"><path d="M831.38,183.9812 L831.6447,184.0733 L827.5541,193.294 L825.0151,203.0546 L821.9709,212.6394 L817.2651,221.646 L814.7615,231.419 L811.0182,240.7605 L807.7682,250.2737 L804.8611,259.9063 L800.7722,269.1276 L799.0359,279.1676 L794.2409,288.1431 L791.4814,297.827 L788.9703,307.5974 L785.0142,316.8649 L781.904,326.4267 L778.4737,335.8772 L775.4346,345.4638 L772.2068,354.9848 L768.6016,364.3743 " fill="none" style="stroke:#8B0000;stroke-width:4.0;"/><polygon fill="#8B0000" points="766.63,370.0412,766.6811,370.0891,767.8763,368.5095,769.3711,367.2109,770.7683,365.8207,771.8447,364.1298,773.3652,362.8553,773.3539,362.832,772.2849,363.22,771.2727,363.7256,770.3,364.3129,769.1911,364.6186,768.273,365.3188,768.4391,365.3992,767.5911,364.2089,767.2282,363.2532,766.9245,362.3262,766.2764,361.2325,765.8095,360.2265,765.8321,360.2284,765.963,362.1886,766.197,364.1573,766.3812,366.122,766.6604,368.0945,766.63,370.0412" style="stroke:#8B0000;stroke-width:4.0;"/></g><!--SRC=[VP9DIyD048Rl-ol67hn5fNZo88HKeH3RqkXDa25Po-9-XCqK3QN_tTcD7vjKJ0bTdlUTsTatUwPihVUDV35eUxYuR90mupNkf96MievwBI_eWmGfql86DiiotrQmDAsE3YJbR0SP6DN0_6f-BRoi2UrEIvXDN3CufEect-QBPNLNp00xQD6ZIkLLRtVeRHHjFvAU7YjOyAJGEa-eesLFNMfPF-HvvCwak5nWCN3TO8tYACIegfKMAhVtjOH7v_IReWukcRpIEteP3W2ftQfX3wj6_FHa8tdLg_He8aoHo5KhwmxEeMBGe6-ckJr8ml2T9hZa_psI798fd34S-RFThhF21xpnxbLf-NFubij5s3lfyMsE9k_gM7Y80qwj5JdFjoH6ma-QId5V1XpvSQgk_fTvoezUTJGavtzzuHTM8FYYPbdZtcsMtK9i1o9ad50k5FpoAiY2lqyYHZJkCkGnxV95nzL_mk-eE2Hd4XvSWc_c5CNBznTiJvl6gTBDufGyVyhuDE8J]--></g></svg>