<?xml version="1.0" encoding="us-ascii" standalone="no"?><svg xmlns="http://www.w3.org/2000/svg" xmlns:xlink="http://www.w3.org/1999/xlink" contentStyleType="text/css" height="1132px" preserveAspectRatio="none" style="width:1686px;height:1132px;background:#FFFFFF;" version="1.1" viewBox="0 0 1686 1132" width="1686px" zoomAndPan="magnify"><defs/><g><text fill="#000000" font-family="Chalkduster" font-size="42" font-weight="bold" lengthAdjust="spacing" textLength="666" x="508.75" y="61.7215">Choosing a Data Repository</text><text fill="#000000" font-family="Chalkduster" font-size="42" font-weight="bold" lengthAdjust="spacing" textLength="810" x="436.75" y="115.3238">For a Data Commons Deployment</text><path d="M678.5,138.4934 L679.0605,138.4934 L677.3951,147.8823 L679.0154,157.2713 L679.5658,166.6602 L676.5976,176.0492 L678.5,185.4381 L678.4865,185.3704 L674.4257,185.8664 L670.4331,186.7039 L666.4881,187.7787 L662.3795,188.0355 L658.5,189.4381 L658.5965,189.9207 L662.3901,189.6888 L666.4655,190.8657 L670.5753,192.2146 L674.485,192.5634 L678.5,193.4381 L678.682,193.4381 L678.4148,202.8271 L678.9761,212.216 L679.1377,221.605 L680.0618,230.9939 L678.5,240.3829 L678.5,240.3829 L678.5,242.1723 L688.5128,242.1942 L698.5256,241.0619 L708.5385,241.6191 L718.5513,242.2555 L728.5641,238.4597 L738.5769,242.1922 L748.5897,239.5922 L758.6026,241.8064 L768.6154,239.0628 L778.6282,240.2002 L788.641,242.3605 L798.6538,240.2529 L808.6667,240.6637 L818.6795,241.2859 L828.6923,241.4928 L838.7051,240.3725 L848.7179,241.1488 L858.7308,238.8564 L868.7436,241.1412 L878.7564,241.8447 L888.7692,241.5683 L898.7821,242.0176 L908.7949,239.0947 L918.8077,238.6437 L928.8205,238.7258 L938.8333,240.2259 L948.8462,239.8588 L958.859,242.2 L968.8718,239.9171 L978.8846,239.4681 L988.8974,240.9916 L998.9103,238.6046 L1008.9231,238.9985 L1018.9359,242.1134 L1028.9487,241.5447 L1038.9615,242.3415 L1048.9744,239.5248 L1058.9872,241.2341 L1069,241.9573 L1079.0128,239.1231 L1089.0256,240.1272 L1099.0385,240.7188 L1109.0513,242.1209 L1119.0641,240.3717 L1129.0769,241.6164 L1139.0897,238.9061 L1149.1026,238.5769 L1159.1154,241.7258 L1169.1282,238.471 L1179.141,241.7401 L1189.1538,240.9339 L1199.1667,239.6684 L1209.1795,239.4395 L1219.1923,241.6062 L1229.2051,239.5847 L1239.2179,241.9612 L1249.2308,238.9089 L1259.2436,242.0293 L1269.2564,241.6743 L1279.2692,241.0361 L1289.2821,240.5088 L1299.2949,242.3205 L1309.3077,242.0191 L1319.3205,240.8342 L1329.3333,241.098 L1339.3462,240.0355 L1349.359,242.2934 L1359.3718,240.7958 L1369.3846,240.8431 L1379.3974,238.7606 L1389.4103,239.3023 L1399.4231,241.7982 L1409.4359,241.5289 L1419.4487,240.2684 L1429.4615,239.5238 L1439.4744,239.7991 L1449.4872,238.5531 L1459.5,240.3829 L1459.5,240.3829 L1460.606,240.3829 L1461.4722,230.1729 L1460.9037,219.963 L1461.3532,209.753 L1459.1354,199.5431 L1459.7326,189.3331 L1458.4664,179.1232 L1460.2574,168.9133 L1460.158,158.7033 L1459.5,148.4934 L1459.8472,148.8406 L1457.3557,146.349 L1455.4155,144.4089 L1453.7787,142.7721 L1451.8566,140.85 L1449.5,138.4934 L1449.5,137.1266 L1439.487,137.9764 L1429.474,138.8914 L1419.461,136.8645 L1409.4481,139.4358 L1399.4351,139.1813 L1389.4221,138.2247 L1379.4091,138.8727 L1369.3961,140.4365 L1359.3831,137.659 L1349.3701,139.3333 L1339.3571,139.2551 L1329.3442,138.8021 L1319.3312,138.8692 L1309.3182,138.796 L1299.3052,136.829 L1289.2922,137.4245 L1279.2792,137.2626 L1269.2662,138.6636 L1259.2532,138.7284 L1249.2403,138.9247 L1239.2273,137.7174 L1229.2143,138.3133 L1219.2013,138.1728 L1209.1883,140.0316 L1199.1753,139.6309 L1189.1623,137.1986 L1179.1494,138.2989 L1169.1364,136.9541 L1159.1234,139.2624 L1149.1104,140.116 L1139.0974,139.9455 L1129.0844,137.3319 L1119.0714,139.7306 L1109.0584,136.5125 L1099.0455,139.0271 L1089.0325,137.6952 L1079.0195,138.7513 L1069.0065,139.1343 L1058.9935,139.7523 L1048.9805,136.5736 L1038.9675,139.7613 L1028.9545,138.9685 L1018.9416,139.4409 L1008.9286,140.4875 L998.9156,138.508 L988.9026,138.9608 L978.8896,139.0625 L968.8766,139.0193 L958.8636,138.4912 L948.8506,140.3886 L938.8377,136.8674 L928.8247,140.0008 L918.8117,136.8294 L908.7987,137.0525 L898.7857,138.6001 L888.7727,138.5688 L878.7597,137.1792 L868.7468,139.5966 L858.7338,138.7836 L848.7208,140.4311 L838.7078,140.2723 L828.6948,137.298 L818.6818,137.4322 L808.6688,138.1489 L798.6558,139.4414 L788.6429,139.568 L778.6299,139.2965 L768.6169,137.5815 L758.6039,140.1903 L748.5909,140.1835 L738.5779,138.3673 L728.5649,137.8559 L718.5519,137.423 L708.539,137.9212 L698.526,138.8598 L688.513,138.311 L678.5,138.4934 L678.5,138.4934 " fill="#FFFFE0" style="stroke:#181818;stroke-width:4.0;"/><path d="M1449.5,138.4934 L1449.6868,138.4934 L1449.1317,140.4934 L1449.6718,142.4934 L1449.8553,144.4934 L1448.8659,146.4934 L1449.5,148.4934 L1449.5,148.4243 L1451.5,148.1143 L1453.5,148.1525 L1455.5,148.4328 L1457.5,147.8788 L1459.5,148.4934 L1459.848,148.8414 L1457.1038,146.0972 L1455.3757,144.3691 L1453.7715,142.7649 L1451.4461,140.4395 L1449.5,138.4934 " fill="#FFFFE0" style="stroke:#181818;stroke-width:4.0;"/><text fill="#000000" font-family="Chalkduster" font-size="24" lengthAdjust="spacing" textLength="760" x="684.5" y="167.3343">Domain sepecific repositories are few and far between</text><text fill="#000000" font-family="Chalkduster" font-size="24" lengthAdjust="spacing" textLength="12" x="684.5" y="197.9641">&#160;</text><text fill="#000000" font-family="Chalkduster" font-size="24" lengthAdjust="spacing" textLength="12" x="684.5" y="228.5939">&#160;</text><polygon fill="#F1F1F1" points="136,164.1232,136,164.3334,146,163.7089,156,164.3165,166,164.5229,176,163.4098,186,164.0455,196,163.6967,206,163.7397,216,164.055,226,163.4318,236,164.6768,246,163.4929,256,163.9254,266,164.5552,276,164.0374,286,164.1914,296,164.0913,306,164.3017,316,164.3623,326,164.7089,336,164.7943,346,164.8025,356,164.3778,366,164.5868,376,164.8254,386,163.402,396,164.8017,406,163.8267,416,164.657,426,163.6282,436,164.0547,446,164.8648,456,164.0745,466,164.2285,476,164.4618,486,164.5394,496,164.1193,506,164.4104,516,163.5508,526,164.4076,536,164.6714,546,164.5677,556,164.7362,566,163.6401,576,163.471,586,163.5018,596,164.0643,606,163.9267,616,164.8046,626,163.9485,636,163.7802,646,164.1232,646.0291,164.1935,647.6827,164.6501,649.4693,165.4278,651.3861,166.5198,653.1266,167.1863,654.8388,167.7844,655.065,167.8781,655.472,169.5111,656.4016,171.3606,657.2174,173.163,657.6223,174.7952,658.5,176.6232,658.468,176.6232,658.542,181.7492,658.7173,186.8751,658.4986,192.0011,658.6542,197.1271,658.5,202.253,658.3295,202.1824,657.5592,203.9344,657.1906,205.8528,656.0825,207.4649,655.7278,209.389,654.8388,211.0919,654.8652,211.1555,653.0369,211.7416,651.2582,212.4474,649.5941,213.4299,647.7296,213.9286,646,214.753,646,215.3449,636,214.2003,626,215.3705,616,215.2373,606,214.998,596,214.8003,586,215.4796,576,215.3666,566,214.9223,556,215.0212,546,214.6228,536,215.4695,526,214.9079,516,214.9256,506,214.1447,496,214.3478,486,215.2838,476,215.1828,466,214.7101,456,214.4309,446,214.5341,436,214.0669,426,215.1678,416,215.4926,406,215.2794,396,215.448,386,214.6163,376,214.8403,366,214.3654,356,215.0371,346,214.9998,336,215.3054,326,214.5234,316,214.6186,306,215.1965,296,215.3204,286,214.2405,276,214.5592,266,214.9023,256,214.1422,246,215.1064,236,215.011,226,214.6523,216,214.8953,206,215.4817,196,214.4402,186,215.068,176,215.0387,166,214.8688,156,214.894,146,214.8665,136,214.753,135.9204,214.5608,134.1811,213.8974,132.4056,213.1464,130.7048,212.576,128.9402,211.8512,127.1612,211.0919,127.211,211.1125,126.3393,209.287,125.6759,207.5477,124.9274,205.7732,124.4099,204.0944,123.5,202.253,123.6422,202.253,123.3382,197.1271,123.4757,192.0011,123.3076,186.8751,123.5961,181.7492,123.5,176.6232,123.6874,176.7008,124.3999,174.9249,124.8303,173.0321,125.8396,171.3791,126.2002,169.4574,127.1612,167.7844,127.1867,167.846,128.8908,166.96,130.709,166.3497,132.4951,165.6617,134.2925,165.0008,136,164.1232" style="stroke:#181818;stroke-width:0.5;"/><text fill="#000000" font-family="Chalkduster" font-size="24" lengthAdjust="spacing" textLength="515" x="133.5" y="197.9641">Choosing a repo for your collections</text><polygon fill="#F1F1F1" points="184,260.3829,184,260.5931,194.0976,259.9686,204.1951,260.5762,214.2927,260.7826,224.3902,259.6695,234.4878,260.3052,244.5854,259.9564,254.6829,259.9994,264.7805,260.3147,274.878,259.6915,284.9756,260.9365,295.0732,259.7526,305.1707,260.1851,315.2683,260.8148,325.3659,260.2971,335.4634,260.4511,345.561,260.3509,355.6585,260.5614,365.7561,260.622,375.8537,260.9686,385.9512,261.0539,396.0488,261.0621,406.1463,260.6375,416.2439,260.8465,426.3415,261.0851,436.439,259.6617,446.5366,261.0614,456.6341,260.0864,466.7317,260.9167,476.8293,259.8878,486.9268,260.3144,497.0244,261.1245,507.122,260.3341,517.2195,260.4882,527.3171,260.7215,537.4146,260.7991,547.5122,260.379,557.6098,260.6701,567.7073,259.8105,577.8049,260.6673,587.9024,260.9311,598,260.3829,598.4392,260.4517,600.1056,270.0496,600.5227,279.4517,601.8557,288.9974,603.3861,298.574,605.4418,308.2329,606.8058,317.7834,609.1732,327.4911,610,336.9575,609.8274,336.9304,608.1611,346.4762,607.2255,356.1364,604.8412,365.5697,603.4871,375.1644,603.1411,384.917,601.4304,394.4558,600.2256,404.0739,598,413.532,598,413.2102,587.9024,413.8512,577.8049,414.1225,567.7073,413.0596,557.6098,413.4362,547.5122,413.658,537.4146,414.1838,527.3171,413.5278,517.2195,413.9946,507.122,412.9783,497.0244,412.8548,486.9268,414.0357,476.8293,412.8151,466.7317,414.041,456.6341,413.7387,446.5366,413.2641,436.439,413.1783,426.3415,413.9908,416.2439,413.2327,406.1463,414.1239,396.0488,412.9793,385.9512,414.1495,375.8537,414.0163,365.7561,413.777,355.6585,413.5793,345.561,414.2586,335.4634,414.1456,325.3659,413.7013,315.2683,413.8002,305.1707,413.4018,295.0732,414.2485,284.9756,413.6869,274.878,413.7046,264.7805,412.9237,254.6829,413.1268,244.5854,414.0628,234.4878,413.9618,224.3902,413.4891,214.2927,413.2099,204.1951,413.3131,194.0976,412.8459,184,413.532,184.4097,413.5962,183.2306,404.0747,181.52,394.4699,180.1866,384.9242,177.8649,375.2236,176.5862,365.6864,174.6171,356.0411,173.7806,346.5733,172,336.9575,172.2438,336.9957,174.0457,327.4712,174.7731,317.7783,176.3672,308.2212,178.4381,298.7388,180.0605,289.1862,180.4936,279.4472,182.3085,269.9247,184,260.3829" style="stroke:#181818;stroke-width:0.5;"/><text fill="#000000" font-family="Chalkduster" font-size="24" lengthAdjust="spacing" textLength="344" x="184" y="284.2238">Select/Identify a Subject</text><text fill="#000000" font-family="Chalkduster" font-size="24" lengthAdjust="spacing" textLength="414" x="184" y="314.8536">or Domain Specific Repository</text><text fill="#000000" font-family="Chalkduster" font-size="24" lengthAdjust="spacing" textLength="12" x="184" y="345.4834">&#160;</text><text fill="#000000" font-family="Chalkduster" font-size="24" lengthAdjust="spacing" textLength="223" x="184" y="376.1133">eg PARADISEC /</text><text fill="#000000" font-family="Chalkduster" font-size="24" lengthAdjust="spacing" textLength="404" x="184" y="406.7431">Australian Data Archive / ???</text><text fill="#000000" font-family="Chalkduster" font-size="24" lengthAdjust="spacing" textLength="48" x="124" y="330.1685">Yes</text><text fill="#000000" font-family="Chalkduster" font-size="24" lengthAdjust="spacing" textLength="35" x="610" y="330.1685">no</text><polygon fill="#F1F1F1" points="23.5,423.532,23.5,423.7422,33.6429,423.1177,43.7857,423.7253,53.9286,423.9317,64.0714,422.8186,74.2143,423.4543,84.3571,423.1055,94.5,423.532,94.4511,423.4139,96.2591,424.2433,97.9473,424.7836,99.8739,425.8992,101.4907,426.2669,103.3388,427.1932,103.2779,427.168,104.2041,429.0161,104.7769,430.7178,105.5565,432.5052,106.2579,434.2602,107,436.032,107.0595,436.032,107.0797,441.158,107.1952,446.284,107.2237,451.4099,107.2264,456.5359,107,461.6619,107.0784,461.6944,106.4105,463.4888,105.7518,465.287,104.5812,466.8732,104.28,468.8195,103.3388,470.5007,103.301,470.4094,101.6392,471.3973,99.7402,471.8127,98.0268,472.6763,96.3624,473.658,94.5,474.1619,94.5,474.1131,84.3571,474.2672,74.2143,474.5005,64.0714,474.5781,53.9286,474.158,43.7857,474.4491,33.6429,473.5895,23.5,474.1619,23.5363,474.2495,21.8022,473.5985,20.0212,472.8343,18.2749,472.154,16.3673,471.0842,14.6612,470.5007,14.4603,470.4175,13.7376,468.6537,13.1786,466.9577,12.4039,465.1723,11.9421,463.5166,11,461.6619,10.9418,461.6619,10.8856,456.5359,11.0761,451.4099,10.7777,446.284,10.827,441.158,11,436.032,11.1999,436.1148,11.8664,434.3198,12.6907,432.5902,13.0976,430.6877,14.0272,429.0017,14.6612,427.1932,14.7365,427.375,16.3687,426.3155,18.1845,425.6992,19.9805,425.0353,21.8154,424.465,23.5,423.532" style="stroke:#181818;stroke-width:0.5;"/><text fill="#000000" font-family="Chalkduster" font-size="24" lengthAdjust="spacing" textLength="76" x="21" y="457.3729">Use it</text><path d="M940.5,423.532 L941.0605,423.532 L939.3951,433.7324 L941.0154,443.9328 L941.5658,454.1332 L938.5976,464.3336 L940.2928,474.534 L939.3627,484.7344 L939.4773,494.9348 L940.3182,505.1352 L938.6563,515.3357 L941.9764,525.5361 L938.8193,535.7365 L939.9726,545.9369 L941.6519,556.1373 L940.2713,566.3377 L940.682,576.5381 L940.4148,586.7385 L940.9761,596.9389 L941.1377,607.1393 L942.0618,617.3397 L942.2895,627.5401 L942.3114,637.7405 L940.5,647.9409 L940.5,648.6199 L950.5548,649.1771 L960.6096,649.8135 L970.6644,646.0177 L980.7192,649.7502 L990.774,647.1502 L1000.8288,649.3644 L1010.8836,646.6208 L1020.9384,647.7582 L1030.9932,649.9185 L1041.0479,647.8109 L1051.1027,648.2217 L1061.1575,648.8439 L1071.2123,649.0508 L1081.2671,647.9305 L1091.3219,648.7068 L1101.3767,646.4144 L1111.4315,648.6992 L1121.4863,649.4027 L1131.5411,649.1263 L1141.5959,649.5756 L1151.6507,646.6527 L1161.7055,646.2017 L1171.7603,646.2838 L1181.8151,647.7839 L1191.8699,647.4168 L1201.9247,649.758 L1211.9795,647.4751 L1222.0342,647.0261 L1232.089,648.5496 L1242.1438,646.1626 L1252.1986,646.5565 L1262.2534,649.6714 L1272.3082,649.1027 L1282.363,649.8995 L1292.4178,647.0828 L1302.4726,648.7921 L1312.5274,649.5153 L1322.5822,646.6811 L1332.637,647.6852 L1342.6918,648.2768 L1352.7466,649.6789 L1362.8014,647.9297 L1372.8562,649.1744 L1382.911,646.4641 L1392.9658,646.1349 L1403.0205,649.2838 L1413.0753,646.029 L1423.1301,649.2981 L1433.1849,648.4919 L1443.2397,647.2264 L1453.2945,646.9975 L1463.3493,649.1642 L1473.4041,647.1427 L1483.4589,649.5192 L1493.5137,646.4669 L1503.5685,649.5873 L1513.6233,649.2323 L1523.6781,648.5941 L1533.7329,648.0668 L1543.7877,649.8785 L1553.8425,649.5771 L1563.8973,648.3922 L1573.9521,648.656 L1584.0068,647.5935 L1594.0616,649.8514 L1604.1164,648.3538 L1614.1712,648.4011 L1624.226,646.3186 L1634.2808,646.8603 L1644.3356,649.3562 L1654.3904,649.0869 L1664.4452,647.8264 L1674.5,647.9409 L1673.6409,647.9409 L1673.9162,637.7309 L1672.6702,627.521 L1675.606,617.311 L1676.4722,607.1011 L1675.9037,596.8911 L1676.3532,586.6812 L1674.1354,576.4713 L1674.7326,566.2613 L1673.4664,556.0514 L1675.2574,545.8414 L1675.158,535.6315 L1675.973,525.4215 L1673.8876,515.2116 L1674.1416,505.0016 L1675.6826,494.7917 L1676.0129,484.5818 L1673.1332,474.3718 L1673.983,464.1619 L1674.898,453.9519 L1672.8711,443.742 L1674.5,433.532 L1674.7221,433.7542 L1672.6622,431.6942 L1670.4367,429.4687 L1668.5894,427.6214 L1666.958,425.99 L1664.5,423.532 L1664.5,422.6977 L1654.4444,424.372 L1644.3889,424.2938 L1634.3333,423.8408 L1624.2778,423.9078 L1614.2222,423.8346 L1604.1667,421.8676 L1594.1111,422.4632 L1584.0556,422.3013 L1574,423.7022 L1563.9444,423.767 L1553.8889,423.9634 L1543.8333,422.7561 L1533.7778,423.352 L1523.7222,423.2115 L1513.6667,425.0703 L1503.6111,424.6695 L1493.5556,422.2373 L1483.5,423.3376 L1473.4444,421.9928 L1463.3889,424.3011 L1453.3333,425.1547 L1443.2778,424.9842 L1433.2222,422.3706 L1423.1667,424.7693 L1413.1111,421.5512 L1403.0556,424.0658 L1393,422.7339 L1382.9444,423.79 L1372.8889,424.1729 L1362.8333,424.791 L1352.7778,421.6123 L1342.7222,424.8 L1332.6667,424.0072 L1322.6111,424.4796 L1312.5556,425.5262 L1302.5,423.5467 L1292.4444,423.9994 L1282.3889,424.1012 L1272.3333,424.058 L1262.2778,423.5299 L1252.2222,425.4273 L1242.1667,421.9061 L1232.1111,425.0394 L1222.0556,421.868 L1212,422.0912 L1201.9444,423.6387 L1191.8889,423.6074 L1181.8333,422.2178 L1171.7778,424.6353 L1161.7222,423.8223 L1151.6667,425.4698 L1141.6111,425.311 L1131.5556,422.3367 L1121.5,422.4709 L1111.4444,423.1876 L1101.3889,424.4801 L1091.3333,424.6067 L1081.2778,424.3351 L1071.2222,422.6202 L1061.1667,425.229 L1051.1111,425.2221 L1041.0556,423.406 L1031,422.8945 L1020.9444,422.4617 L1010.8889,422.9598 L1000.8333,423.8985 L990.7778,423.3497 L980.7222,422.4179 L970.6667,424.8317 L960.6111,422.3082 L950.5556,424.8717 L940.5,423.532 " fill="#FFFFE0" style="stroke:#181818;stroke-width:4.0;"/><path d="M1664.5,423.532 L1664.6868,423.532 L1664.1317,425.532 L1664.6718,427.532 L1664.8553,429.532 L1663.8659,431.532 L1664.5,433.532 L1664.5,433.463 L1666.5,433.1529 L1668.5,433.1911 L1670.5,433.4715 L1672.5,432.9175 L1674.5,433.532 L1674.848,433.88 L1672.1038,431.1359 L1670.3757,429.4077 L1668.7715,427.8035 L1666.4461,425.4781 L1664.5,423.532 " fill="#FFFFE0" style="stroke:#181818;stroke-width:4.0;"/><text fill="#000000" font-family="Chalkduster" font-size="24" lengthAdjust="spacing" textLength="12" x="946.5" y="452.3729">&#160;</text><text fill="#000000" font-family="Chalkduster" font-size="24" lengthAdjust="spacing" textLength="672" x="946.5" y="483.0028">Generalist &amp; Insitutional Repositories typically:</text><text fill="#000000" font-family="Chalkduster" font-size="24" lengthAdjust="spacing" textLength="544" x="946.5" y="513.6326">- Do not have access control/licensing</text><text fill="#000000" font-family="Chalkduster" font-size="24" lengthAdjust="spacing" textLength="713" x="946.5" y="544.2624">- Are not geared for collections of '000s of things</text><text fill="#000000" font-family="Chalkduster" font-size="24" lengthAdjust="spacing" textLength="525" x="946.5" y="574.8923">- Have size limits on individual items</text><text fill="#000000" font-family="Chalkduster" font-size="24" lengthAdjust="spacing" textLength="583" x="946.5" y="605.5221">- Don't support domain-specific metadata</text><text fill="#000000" font-family="Chalkduster" font-size="24" lengthAdjust="spacing" textLength="12" x="946.5" y="636.1519">&#160;</text><polygon fill="#F1F1F1" points="577.5,647.9409,577.5,648.1511,587.5286,647.5265,597.5571,648.1342,607.5857,648.3405,617.6143,647.2275,627.6429,647.8632,637.6714,647.5144,647.7,647.5574,657.7286,647.8727,667.7571,647.2495,677.7857,648.4945,687.8143,647.3106,697.8429,647.7431,707.8714,648.3728,717.9,647.8551,727.9286,648.0091,737.9571,647.9089,747.9857,648.1194,758.0143,648.18,768.0429,648.5266,778.0714,648.6119,788.1,648.6201,798.1286,648.1955,808.1571,648.4045,818.1857,648.6431,828.2143,647.2197,838.2429,648.6194,848.2714,647.6444,858.3,648.4747,868.3286,647.4458,878.3571,647.8724,888.3857,648.6825,898.4143,647.8921,908.4429,648.0462,918.4714,648.2795,928.5,647.9409,928.6292,647.9915,930.8988,654.0664,933.3891,660.2277,935.5223,666.2492,938.1883,672.4793,940.5,678.5707,940.6701,678.6374,938.238,684.7507,935.8903,690.8972,933.1501,696.8899,930.6976,702.9953,928.5,709.2005,928.5,708.5791,918.4714,709.1417,908.4429,709.004,898.4143,709.8819,888.3857,709.0259,878.3571,708.8575,868.3286,709.4288,858.3,708.5337,848.2714,708.6814,838.2429,709.8495,828.2143,709.6362,818.1857,709.935,808.1571,708.8787,798.1286,709.5197,788.1,709.791,778.0714,708.7281,768.0429,709.1047,758.0143,709.3265,747.9857,709.8523,737.9571,709.1963,727.9286,709.6631,717.9,708.6468,707.8714,708.5233,697.8429,709.7041,687.8143,708.4836,677.7857,709.7095,667.7571,709.4072,657.7286,708.9326,647.7,708.8468,637.6714,709.6593,627.6429,708.9012,617.6143,709.7924,607.5857,708.6478,597.5571,709.818,587.5286,709.6848,577.5,709.2005,577.576,709.2303,575.1147,703.0803,572.9255,697.037,570.4904,690.8972,567.9525,684.7173,565.5,678.5707,565.5832,678.6033,567.8596,672.4289,570.5224,666.4059,572.7481,660.2116,575.1536,654.0878,577.5,647.9409" style="stroke:#181818;stroke-width:0.5;"/><text fill="#000000" font-family="Chalkduster" font-size="24" lengthAdjust="spacing" textLength="272" x="577.5" y="671.7818">Use an institutional</text><text fill="#000000" font-family="Chalkduster" font-size="24" lengthAdjust="spacing" textLength="351" x="577.5" y="702.4116">data repository available</text><text fill="#000000" font-family="Chalkduster" font-size="24" lengthAdjust="spacing" textLength="35" x="530.5" y="671.7818">no</text><text fill="#000000" font-family="Chalkduster" font-size="24" lengthAdjust="spacing" textLength="42" x="940.5" y="671.7818">yes</text><polygon fill="#F1F1F1" points="187,719.2005,187,719.4107,197.0588,718.7862,207.1176,719.3938,217.1765,719.6002,227.2353,718.4871,237.2941,719.1228,247.3529,718.774,257.4118,718.817,267.4706,719.1324,277.5294,718.5092,287.5882,719.7542,297.6471,718.5703,307.7059,719.0028,317.7647,719.6325,327.8235,719.1148,337.8824,719.2688,347.9412,719.1686,358,719.3791,368.0588,719.4397,378.1176,719.7862,388.1765,719.8716,398.2353,719.8798,408.2941,719.4552,418.3529,719.6641,428.4118,719.9028,438.4706,718.4794,448.5294,719.879,458.5882,718.904,468.6471,719.7343,478.7059,718.7055,488.7647,719.132,498.8235,719.9421,508.8824,719.1518,518.9412,719.3058,529,719.5392,539.0588,719.6168,549.1176,719.1966,559.1765,719.4878,569.2353,718.6281,579.2941,719.4849,589.3529,719.7487,599.4118,719.6451,609.4706,719.8136,619.5294,718.7175,629.5882,718.5484,639.6471,718.5791,649.7059,719.1417,659.7647,719.004,669.8235,719.8819,679.8824,719.0259,689.9412,718.8575,700,719.2005,700.0599,719.2475,702.225,722.1264,704.6638,725.2198,707.3703,728.5229,709.7143,731.542,712,734.5155,712.1927,734.6665,709.5156,737.5123,707.2838,740.707,704.9549,743.8258,702.276,746.6703,700,749.8304,700,749.7345,689.9412,749.9564,679.8824,750.4821,669.8235,749.8262,659.7647,750.2929,649.7059,749.2766,639.6471,749.1531,629.5882,750.334,619.5294,749.1134,609.4706,750.3393,599.4118,750.037,589.3529,749.5625,579.2941,749.4766,569.2353,750.2891,559.1765,749.531,549.1176,750.4222,539.0588,749.2776,529,750.4478,518.9412,750.3147,508.8824,750.0753,498.8235,749.8776,488.7647,750.557,478.7059,750.4439,468.6471,749.9996,458.5882,750.0986,448.5294,749.7001,438.4706,750.5468,428.4118,749.9852,418.3529,750.0029,408.2941,749.222,398.2353,749.4251,388.1765,750.3611,378.1176,750.2601,368.0588,749.7874,358,749.5082,347.9412,749.6114,337.8824,749.1442,327.8235,750.2451,317.7647,750.5699,307.7059,750.3568,297.6471,750.5253,287.5882,749.6936,277.5294,749.9176,267.4706,749.4428,257.4118,750.1144,247.3529,750.0771,237.2941,750.3828,227.2353,749.6007,217.1765,749.696,207.1176,750.2738,197.0588,750.3977,187,749.8304,186.8655,749.725,184.5491,746.7275,182.2392,743.7351,179.6397,740.5158,177.4927,737.6511,175,734.5155,175.0677,734.5685,177.3736,731.4318,179.8373,728.4187,182.3912,725.4763,184.5179,722.1992,187,719.2005" style="stroke:#181818;stroke-width:0.5;"/><text fill="#000000" font-family="Chalkduster" font-size="24" lengthAdjust="spacing" textLength="513" x="187" y="743.0414">Choose a Generalist Data Repository</text><text fill="#000000" font-family="Chalkduster" font-size="24" lengthAdjust="spacing" textLength="42" x="133" y="727.7265">yes</text><text fill="#000000" font-family="Chalkduster" font-size="24" lengthAdjust="spacing" textLength="35" x="712" y="727.7265">no</text><polygon fill="#F1F1F1" points="129.5,759.8304,129.5,760.0406,139.6429,759.416,149.7857,760.0237,159.9286,760.23,170.0714,759.117,180.2143,759.7527,190.3571,759.4039,200.5,759.8304,200.4511,759.7123,202.2591,760.5416,203.9473,761.0819,205.8739,762.1976,207.4907,762.5652,209.3388,763.4915,209.2779,763.4663,210.2041,765.3144,210.7769,767.0161,211.5565,768.8035,212.2579,770.5585,213,772.3304,213.0595,772.3304,213.0797,777.4563,213.1952,782.5823,213.2237,787.7083,213.2264,792.8342,213,797.9602,213.0784,797.9927,212.4105,799.7871,211.7518,801.5853,210.5812,803.1715,210.28,805.1178,209.3388,806.799,209.301,806.7077,207.6392,807.6957,205.7402,808.1111,204.0268,808.9746,202.3624,809.9564,200.5,810.4602,200.5,810.4115,190.3571,810.5655,180.2143,810.7988,170.0714,810.8764,159.9286,810.4563,149.7857,810.7474,139.6429,809.8878,129.5,810.4602,129.5363,810.5478,127.8022,809.8968,126.0212,809.1326,124.2749,808.4523,122.3673,807.3825,120.6612,806.799,120.4603,806.7158,119.7376,804.952,119.1786,803.256,118.4039,801.4707,117.9421,799.8149,117,797.9602,116.9418,797.9602,116.8856,792.8342,117.0761,787.7083,116.7777,782.5823,116.827,777.4563,117,772.3304,117.1999,772.4132,117.8664,770.6182,118.6907,768.8885,119.0976,766.986,120.0272,765.3,120.6612,763.4915,120.7365,763.6734,122.3687,762.6138,124.1845,761.9975,125.9805,761.3336,127.8154,760.7633,129.5,759.8304" style="stroke:#181818;stroke-width:0.5;"/><text fill="#000000" font-family="Chalkduster" font-size="24" lengthAdjust="spacing" textLength="76" x="127" y="793.6713">Use it</text><polygon fill="#F1F1F1" points="472,759.8304,472,760.0406,482,759.416,492,760.0237,502,760.23,512,759.117,522,759.7527,532,759.4039,542,759.4469,552,759.7622,562,759.139,572,760.384,582,759.2001,592,759.6326,602,760.2623,612,759.7446,622,759.8986,632,759.7984,642,760.0089,652,760.0695,662,760.4161,672,760.5014,682,760.5096,692,760.085,702,760.294,712,760.5326,722,759.1092,732,760.5089,742,759.5339,752,760.3642,762,759.3353,772,759.7619,782,760.572,792,759.7816,802,759.9357,812,760.169,822,760.2466,832,759.8265,842,760.1176,852,759.258,862,760.1148,872,760.3786,882,760.2749,892,760.4434,902,759.3473,912,759.1782,922,759.209,932,759.7715,942,759.6338,952,760.5118,962,759.6557,972,759.8304,971.9562,759.7247,973.7969,760.6329,975.4505,761.0895,977.2371,761.8672,979.1538,762.9592,980.8388,763.4915,980.973,763.5471,981.7973,765.353,982.2042,766.986,983.1338,768.8356,983.9496,770.6379,984.5,772.3304,984.0276,772.3304,984.4041,782.1236,984.626,791.9169,985.1518,801.7102,984.4958,811.5035,984.9626,821.2968,983.9462,831.09,983.8227,840.8833,985.0036,850.6766,983.7831,860.4699,985.009,870.2631,984.7066,880.0564,984.5,889.8497,984.4175,889.8155,983.6588,891.5723,983.1768,893.4438,982.2111,895.1148,981.7533,896.9963,980.8388,898.6885,980.7683,898.5183,979.1498,899.6109,977.3651,900.3021,975.5668,900.9607,973.7738,901.632,972,902.3497,972,903.0763,962,902.9633,952,902.519,942,902.6179,932,902.2194,922,903.0662,912,902.5046,902,902.5223,892,901.7414,882,901.9445,872,902.8805,862,902.7795,852,902.3068,842,902.0275,832,902.1308,822,901.6635,812,902.7644,802,903.0893,792,902.8761,782,903.0446,772,902.213,762,902.4369,752,901.9621,742,902.6337,732,902.5965,722,902.9021,712,902.12,702,902.2153,692,902.7932,682,902.917,672,901.8372,662,902.1558,652,902.499,642,901.7389,632,902.7031,622,902.6077,612,902.2489,602,902.492,592,903.0784,582,902.0368,572,902.6647,562,902.6354,552,902.4655,542,902.4906,532,902.4632,522,901.7255,512,901.9489,502,901.8882,492,902.4135,482,902.4378,472,902.3497,472.0206,902.3995,470.1951,901.5279,468.4559,900.8644,466.6814,900.116,465.0025,899.5984,463.1612,898.6885,463.2925,898.743,462.2794,896.8588,461.6742,895.1437,460.7867,893.3116,460.321,891.6543,459.5,889.8497,460.1085,889.8497,460.0446,880.0564,459.0644,870.2631,459.964,860.4699,458.7572,850.6766,459.7002,840.8833,459.2007,831.09,459.5967,821.2968,459.7403,811.5035,459.9721,801.7102,458.7801,791.9169,459.9755,782.1236,459.5,772.3304,459.5549,772.3531,460.3417,770.6079,461.1948,768.8902,461.6984,767.0278,462.4829,765.2817,463.1612,763.4915,463.1884,763.5573,464.9541,762.82,466.6966,762.0268,468.5551,761.5137,470.1545,760.3748,472,759.8304" style="stroke:#181818;stroke-width:0.5;"/><text fill="#000000" font-family="Chalkduster" font-size="24" lengthAdjust="spacing" textLength="12" x="469.5" y="793.6713">&#160;</text><text fill="#000000" font-family="Chalkduster" font-size="24" lengthAdjust="spacing" textLength="505" x="469.5" y="824.3011">Use RRKive approach and implement</text><text fill="#000000" font-family="Chalkduster" font-size="24" lengthAdjust="spacing" textLength="95" x="661.5" y="854.9309">PILARS</text><text fill="#000000" font-family="Chalkduster" font-size="24" lengthAdjust="spacing" textLength="12" x="469.5" y="885.5608">&#160;</text><polygon fill="none" points="733.0608,936.0253,731.4484,938.2285,729.5412,941.4554,726.8136,943.6301,723.9474,944.8193,721.662,944.9225,718.7247,943.4352,715.9532,942.4636,713.8495,940.4909,712.7461,938.2325,712.0917,936.4342,711.4506,934.0854,710.41,932.0642,711.2096,930.0907,711.9102,927.9289,714.5393,926.2192,716.389,924.0008,718.6784,923.2641,721.4001,922.6298,724.8904,923.0067,726.8021,923.9082,729.0247,924.3169,731.7272,927.0857,732.6693,930.0087,733.0786,932.0031,732.615,935.2896" style="stroke:#222222;stroke-width:1.0;"/><polygon fill="#222222" points="728.0331,934.8091,727.1536,936.0109,726.1134,937.771,724.6256,938.9572,723.0622,939.6059,721.8156,939.6622,720.2135,938.8509,718.7017,938.3209,717.5543,937.2449,716.9524,936.013,716.5955,935.0322,716.2458,933.751,715.6782,932.6485,716.1143,931.5721,716.4965,930.3929,717.9305,929.4603,718.9394,928.2503,720.1882,927.8485,721.6728,927.5025,723.5766,927.708,724.6193,928.1998,725.8317,928.4227,727.3057,929.933,727.8196,931.5273,728.0429,932.6152,727.79,934.4078" style="stroke:#222222;stroke-width:1.0;"/><polygon fill="#F1F1F1" points="1027,719.2005,1027,719.4107,1037.1429,718.7862,1047.2857,719.3938,1057.4286,719.6002,1067.5714,718.4871,1077.7143,719.1228,1087.8571,718.774,1098,719.2005,1097.9511,719.0824,1099.7591,719.9118,1101.4473,720.4521,1103.3739,721.5677,1104.9907,721.9354,1106.8388,722.8617,1106.7779,722.8365,1107.7041,724.6846,1108.2769,726.3863,1109.0565,728.1737,1109.7579,729.9287,1110.5,731.7005,1110.5595,731.7005,1110.5797,736.8265,1110.6952,741.9525,1110.7237,747.0784,1110.7264,752.2044,1110.5,757.3304,1110.5784,757.3629,1109.9105,759.1573,1109.2518,760.9555,1108.0812,762.5417,1107.78,764.488,1106.8388,766.1692,1106.801,766.0779,1105.1392,767.0658,1103.2402,767.4812,1101.5268,768.3448,1099.8624,769.3265,1098,769.8304,1098,769.7816,1087.8571,769.9357,1077.7143,770.169,1067.5714,770.2466,1057.4286,769.8265,1047.2857,770.1176,1037.1429,769.258,1027,769.8304,1027.0363,769.9179,1025.3022,769.267,1023.5212,768.5028,1021.7749,767.8225,1019.8673,766.7527,1018.1612,766.1692,1017.9603,766.086,1017.2376,764.3222,1016.6786,762.6262,1015.9039,760.8408,1015.4421,759.1851,1014.5,757.3304,1014.4418,757.3304,1014.3856,752.2044,1014.5761,747.0784,1014.2777,741.9525,1014.327,736.8265,1014.5,731.7005,1014.6999,731.7833,1015.3664,729.9883,1016.1907,728.2587,1016.5976,726.3562,1017.5272,724.6702,1018.1612,722.8617,1018.2365,723.0435,1019.8687,721.984,1021.6845,721.3677,1023.4805,720.7038,1025.3154,720.1335,1027,719.2005" style="stroke:#181818;stroke-width:0.5;"/><text fill="#000000" font-family="Chalkduster" font-size="24" lengthAdjust="spacing" textLength="76" x="1024.5" y="753.0414">Use it</text><polygon fill="#F1F1F1" points="753,954.3497,753.0495,954.3992,755.3023,956.652,757.8456,959.1953,760.2942,961.6439,762.4319,963.7816,765,966.3497,764.9817,966.3314,762.4995,968.6492,760.1096,971.0593,757.7839,973.5336,755.237,975.7867,753,978.3497,753.1305,978.4802,750.4514,975.8011,748.1534,973.5031,745.9018,971.2515,743.3798,968.7295,741,966.3497,741.0161,966.3658,743.3925,963.9422,745.8421,961.5918,748.2564,959.2061,750.738,956.8878,753,954.3497" style="stroke:#181818;stroke-width:0.5;"/><polygon fill="#F1F1F1" points="391,984.3497,391.0495,984.3992,393.3023,986.652,395.8456,989.1953,398.2942,991.6439,400.4319,993.7816,403,996.3497,402.9817,996.3314,400.4995,998.6492,398.1096,1001.0593,395.7839,1003.5336,393.237,1005.7867,391,1008.3497,391.1305,1008.4802,388.4514,1005.8011,386.1534,1003.5031,383.9018,1001.2515,381.3798,998.7295,379,996.3497,379.0161,996.3658,381.3925,993.9422,383.8421,991.5918,386.2564,989.2061,388.738,986.8878,391,984.3497" style="stroke:#181818;stroke-width:0.5;"/><path d="M455.5,1018.6387 L456.0605,1018.6387 L454.3951,1028.0276 L456.0154,1037.4166 L456.5658,1046.8055 L453.5976,1056.1945 L455.5,1065.5834 L455.4865,1065.5157 L451.4257,1066.0117 L447.4331,1066.8491 L443.4881,1067.924 L439.3795,1068.1808 L435.5,1069.5834 L435.5965,1070.066 L439.3901,1069.834 L443.4655,1071.011 L447.5753,1072.3599 L451.485,1072.7086 L455.5,1073.5834 L455.682,1073.5834 L455.4148,1082.9724 L455.9761,1092.3613 L456.1377,1101.7503 L457.0618,1111.1392 L455.5,1120.5282 L455.5,1120.5282 L455.5,1122.3176 L465.45,1122.3395 L475.4,1121.2072 L485.35,1121.7644 L495.3,1122.4008 L505.25,1118.605 L515.2,1122.3375 L525.15,1119.7375 L535.1,1121.9517 L545.05,1119.2081 L555,1120.3455 L564.95,1122.5058 L574.9,1120.3982 L584.85,1120.809 L594.8,1121.4312 L604.75,1121.6381 L614.7,1120.5177 L624.65,1121.2941 L634.6,1119.0017 L644.55,1121.2865 L654.5,1121.99 L664.45,1121.7136 L674.4,1122.1629 L684.35,1119.2399 L694.3,1118.789 L704.25,1118.8711 L714.2,1120.3711 L724.15,1120.0041 L734.1,1122.3452 L744.05,1120.0623 L754,1119.6133 L763.95,1121.1369 L773.9,1118.7499 L783.85,1119.1438 L793.8,1122.2587 L803.75,1121.6899 L813.7,1122.4868 L823.65,1119.67 L833.6,1121.3793 L843.55,1122.1026 L853.5,1119.2684 L863.45,1120.2725 L873.4,1120.8641 L883.35,1122.2662 L893.3,1120.517 L903.25,1121.7617 L913.2,1119.0514 L923.15,1118.7221 L933.1,1121.8711 L943.05,1118.6163 L953,1121.8854 L962.95,1121.0792 L972.9,1119.8137 L982.85,1119.5848 L992.8,1121.7515 L1002.75,1119.7299 L1012.7,1122.1065 L1022.65,1119.0542 L1032.6,1122.1746 L1042.55,1121.8196 L1052.5,1121.1814 L1062.45,1120.6541 L1072.4,1122.4658 L1082.35,1122.1644 L1092.3,1120.9795 L1102.25,1121.2433 L1112.2,1120.1808 L1122.15,1122.4387 L1132.1,1120.9411 L1142.05,1120.9883 L1152,1118.9059 L1161.95,1119.4476 L1171.9,1121.9435 L1181.85,1121.6742 L1191.8,1120.4137 L1201.75,1119.669 L1211.7,1119.9443 L1221.65,1118.6984 L1231.6,1121.6341 L1241.55,1122.5003 L1251.5,1120.5282 L1251.5,1120.5282 L1252.9037,1120.5282 L1253.3532,1110.3182 L1251.1354,1100.1083 L1251.7326,1089.8983 L1250.4664,1079.6884 L1252.2574,1069.4784 L1252.158,1059.2685 L1252.973,1049.0585 L1250.8876,1038.8486 L1251.5,1028.6387 L1251.4155,1028.5542 L1249.7787,1026.9174 L1247.8566,1024.9952 L1245.1779,1022.3165 L1243.3781,1020.5168 L1241.5,1018.6387 L1241.5,1019.0367 L1231.5506,1017.0097 L1221.6013,1019.581 L1211.6519,1019.3266 L1201.7025,1018.37 L1191.7532,1019.018 L1181.8038,1020.5818 L1171.8544,1017.8043 L1161.9051,1019.4786 L1151.9557,1019.4004 L1142.0063,1018.9474 L1132.057,1019.0144 L1122.1076,1018.9413 L1112.1582,1016.9742 L1102.2089,1017.5698 L1092.2595,1017.4079 L1082.3101,1018.8089 L1072.3608,1018.8737 L1062.4114,1019.07 L1052.462,1017.8627 L1042.5127,1018.4586 L1032.5633,1018.3181 L1022.6139,1020.1769 L1012.6646,1019.7762 L1002.7152,1017.3439 L992.7658,1018.4442 L982.8165,1017.0994 L972.8671,1019.4077 L962.9177,1020.2613 L952.9684,1020.0908 L943.019,1017.4772 L933.0696,1019.8759 L923.1203,1016.6578 L913.1709,1019.1724 L903.2215,1017.8405 L893.2722,1018.8966 L883.3228,1019.2795 L873.3734,1019.8976 L863.4241,1016.7189 L853.4747,1019.9066 L843.5253,1019.1138 L833.5759,1019.5862 L823.6266,1020.6328 L813.6772,1018.6533 L803.7278,1019.106 L793.7785,1019.2078 L783.8291,1019.1646 L773.8797,1018.6365 L763.9304,1020.5339 L753.981,1017.0127 L744.0316,1020.1461 L734.0823,1016.9746 L724.1329,1017.1978 L714.1835,1018.7454 L704.2342,1018.7141 L694.2848,1017.3244 L684.3354,1019.7419 L674.3861,1018.9289 L664.4367,1020.5764 L654.4873,1020.4176 L644.538,1017.4433 L634.5886,1017.5775 L624.6392,1018.2942 L614.6899,1019.5867 L604.7405,1019.7133 L594.7911,1019.4417 L584.8418,1017.7268 L574.8924,1020.3356 L564.943,1020.3288 L554.9937,1018.5126 L545.0443,1018.0012 L535.0949,1017.5683 L525.1456,1018.0664 L515.1962,1019.0051 L505.2468,1018.4563 L495.2975,1017.5245 L485.3481,1019.9383 L475.3987,1017.4148 L465.4494,1019.9783 L455.5,1018.6387 L455.5,1018.6387 " fill="#FFFFE0" style="stroke:#181818;stroke-width:4.0;"/><path d="M1241.5,1018.6387 L1241.6868,1018.6387 L1241.1317,1020.6387 L1241.6718,1022.6387 L1241.8553,1024.6387 L1240.8659,1026.6387 L1241.5,1028.6387 L1241.5,1028.5696 L1243.5,1028.2595 L1245.5,1028.2978 L1247.5,1028.5781 L1249.5,1028.0241 L1251.5,1028.6387 L1251.848,1028.9866 L1249.1038,1026.2425 L1247.3757,1024.5143 L1245.7715,1022.9101 L1243.4461,1020.5847 L1241.5,1018.6387 " fill="#FFFFE0" style="stroke:#181818;stroke-width:4.0;"/><text fill="#000000" font-family="Chalkduster" font-size="24" lengthAdjust="spacing" textLength="775" x="461.5" y="1047.4795">If you made it here, you found a disiplne, institutional</text><text fill="#000000" font-family="Chalkduster" font-size="24" lengthAdjust="spacing" textLength="734" x="461.5" y="1078.1094">or generalist repo that can address all of the above</text><text fill="#000000" font-family="Chalkduster" font-size="24" lengthAdjust="spacing" textLength="769" x="461.5" y="1108.7392">considerations, sensitivity, access control, data volume</text><polygon fill="#F1F1F1" points="359,1044.2685,359,1044.4787,369.6667,1043.8542,380.3333,1044.4618,391,1044.6682,401.6667,1043.5551,412.3333,1044.1908,423,1044.2685,422.9456,1044.1371,424.7188,1044.8826,426.5268,1045.712,428.2151,1046.2523,430.1417,1047.3679,431.8388,1047.9297,431.6447,1047.8493,432.5102,1049.6722,433.4363,1051.5203,434.0091,1053.222,434.7888,1055.0094,435.5,1056.7685,435.4894,1056.7685,435.5595,1061.8945,435.5797,1067.0204,435.6952,1072.1464,435.7237,1077.2724,435.5,1082.3983,435.7092,1082.485,434.8462,1084.1986,434.1783,1085.993,433.5196,1087.7912,432.349,1089.3774,431.8388,1091.2372,431.9254,1091.4461,430.0332,1091.8781,428.3714,1092.866,426.4724,1093.2814,424.759,1094.145,423,1094.8983,423,1095.6399,412.3333,1094.8496,401.6667,1095.0036,391,1095.2369,380.3333,1095.3146,369.6667,1094.8944,359,1094.8983,359.0366,1094.9868,357.1592,1093.9898,355.5007,1093.5214,353.7666,1092.8704,351.9856,1092.1063,350.1612,1091.2372,350.35,1091.3154,349.2802,1089.4078,348.4959,1087.6184,347.7731,1085.8546,347.2141,1084.1586,346.5,1082.3983,346.4345,1082.3983,346.7271,1077.2724,346.4418,1072.1464,346.3856,1067.0204,346.5761,1061.8945,346.5,1056.7685,346.2946,1056.6834,347.0724,1054.9345,348.1643,1053.3157,348.8309,1051.5208,349.6551,1049.7911,350.1612,1047.9297,350.1201,1047.8306,351.9696,1047.2957,353.772,1046.647,355.4042,1045.5875,357.22,1044.9712,359,1044.2685" style="stroke:#181818;stroke-width:0.5;"/><text fill="#000000" font-family="Chalkduster" font-size="24" lengthAdjust="spacing" textLength="69" x="356.5" y="1078.1094">done</text><path d="M722,902.3497 L722.0934,902.3497 L721.8159,906.3497 L722.0859,910.3497 L722.1776,914.3497 L721.6829,918.3497 L722,922.3497 " fill="#8B0000" style="stroke:#8B0000;stroke-width:4.0;"/><polygon fill="#8B0000" points="718,912.3497,718.065,912.3757,718.6718,914.2984,719.6598,916.3736,720.5237,918.3992,720.9792,920.2614,722,922.3497,721.9759,922.3401,722.668,920.2969,723.4813,918.3022,724.3789,916.3413,724.986,914.2641,726,912.3497,726.1305,912.4802,725.0514,913.0011,724.3534,913.9031,723.7018,914.8515,722.7798,915.5295,722,916.3497,722.0161,916.3658,721.1925,915.5422,720.4421,914.7918,719.6564,914.0061,718.938,913.2878,718,912.3497" style="stroke:#8B0000;stroke-width:1.0;"/><path d="M175,734.5155 L175,734.6089 L173,734.3313 L171,734.6014 L169,734.6931 L167,734.1984 L165,734.5155 " fill="#8B0000" style="stroke:#8B0000;stroke-width:4.0;"/><path d="M165,734.5155 L165.0934,734.5155 L164.8159,739.5784 L165.0859,744.6414 L165.1776,749.7044 L164.6829,754.7674 L165,759.8304 " fill="#8B0000" style="stroke:#8B0000;stroke-width:4.0;"/><polygon fill="#8B0000" points="161,749.8304,161.065,749.8564,161.6718,751.7791,162.6598,753.8543,163.5237,755.8798,163.9792,757.7421,165,759.8304,164.9759,759.8207,165.668,757.7776,166.4813,755.7829,167.3789,753.8219,167.986,751.7448,169,749.8304,169.1305,749.9609,168.0514,750.4818,167.3534,751.3838,166.7018,752.3322,165.7798,753.0102,165,753.8304,165.0161,753.8465,164.1925,753.0228,163.4421,752.2724,162.6564,751.4867,161.938,750.7684,161,749.8304" style="stroke:#8B0000;stroke-width:1.0;"/><path d="M712,734.5155 L712,734.6089 L714,734.3313 L716,734.6014 L718,734.6931 L720,734.1984 L722,734.5155 " fill="#8B0000" style="stroke:#8B0000;stroke-width:4.0;"/><path d="M722,734.5155 L722.0934,734.5155 L721.8159,739.5784 L722.0859,744.6414 L722.1776,749.7044 L721.6829,754.7674 L722,759.8304 " fill="#8B0000" style="stroke:#8B0000;stroke-width:4.0;"/><polygon fill="#8B0000" points="718,749.8304,718.065,749.8564,718.6718,751.7791,719.6598,753.8543,720.5237,755.8798,720.9792,757.7421,722,759.8304,721.9759,759.8207,722.668,757.7776,723.4813,755.7829,724.3789,753.8219,724.986,751.7448,726,749.8304,726.1305,749.9609,725.0514,750.4818,724.3534,751.3838,723.7018,752.3322,722.7798,753.0102,722,753.8304,722.0161,753.8465,721.1925,753.0228,720.4421,752.2724,719.6564,751.4867,718.938,750.7684,718,749.8304" style="stroke:#8B0000;stroke-width:1.0;"/><path d="M165,810.4602 L165.2802,810.4602 L164.4476,820.2033 L165.2577,829.9464 L165.5329,839.6895 L164.0488,849.4326 L164.8964,859.1757 L164.4313,868.9188 L164.4887,878.6619 L164.9091,888.405 L164.0782,898.148 L165.7382,907.8911 L164.1596,917.6342 L164.7363,927.3773 L165.5759,937.1204 L164.8856,946.8635 L165.091,956.6066 L165,966.3497 " fill="#8B0000" style="stroke:#8B0000;stroke-width:4.0;"/><path d="M165,966.3497 L165,966.6299 L174.931,965.7973 L184.8621,966.6074 L194.7931,966.8826 L204.7241,965.3985 L214.6552,966.2461 L224.5862,965.781 L234.5172,965.8384 L244.4483,966.2588 L254.3793,965.4279 L264.3103,967.0879 L274.2414,965.5093 L284.1724,966.086 L294.1034,966.9256 L304.0345,966.2353 L313.9655,966.4407 L323.8966,966.3071 L333.8276,966.5877 L343.7586,966.6685 L353.6897,967.1306 L363.6207,967.2444 L373.5517,967.2554 L383.4828,966.6892 L393.4138,966.9678 L403.3448,967.286 L413.2759,965.3881 L423.2069,967.2544 L433.1379,965.9544 L443.069,967.0615 L453,965.6897 L462.931,966.2584 L472.8621,967.3385 L482.7931,966.2847 L492.7241,966.4901 L502.6552,966.8012 L512.5862,966.9047 L522.5172,966.3445 L532.4483,966.7327 L542.3793,965.5865 L552.3103,966.7289 L562.2414,967.0806 L572.1724,966.9424 L582.1034,967.1671 L592.0345,965.7056 L601.9655,965.4801 L611.8966,965.5212 L621.8276,966.2712 L631.7586,966.0877 L641.6897,967.2583 L651.6207,966.1168 L661.5517,965.8923 L671.4828,966.6541 L681.4138,965.4606 L691.3448,965.6575 L701.2759,967.215 L711.2069,966.9306 L721.1379,967.329 L731.069,965.9206 L741,966.3497 " fill="#8B0000" style="stroke:#8B0000;stroke-width:4.0;"/><polygon fill="#8B0000" points="731,962.3497,731.026,962.4148,732.9487,963.0215,735.0239,964.0095,737.0495,964.8734,738.9117,965.3289,741,966.3497,740.9904,966.3257,738.9472,967.0177,736.9525,967.831,734.9916,968.7286,732.9144,969.3357,731,970.3497,731.1305,970.4802,731.6514,969.4011,732.5534,968.7031,733.5018,968.0515,734.1798,967.1295,735,966.3497,735.0161,966.3658,734.1925,965.5422,733.4421,964.7918,732.6564,964.0061,731.938,963.2878,731,962.3497" style="stroke:#8B0000;stroke-width:1.0;"/><path d="M565.5,678.5707 L565.5,678.8509 L555.3333,678.0183 L545.1667,678.8284 L535,679.1036 L524.8333,677.6195 L514.6667,678.4671 L504.5,678.002 L494.3333,678.0594 L484.1667,678.4798 L474,677.6489 L463.8333,679.3089 L453.6667,677.7303 L443.5,678.5707 " fill="#8B0000" style="stroke:#8B0000;stroke-width:4.0;"/><path d="M443.5,678.5707 L443.5934,678.5707 L443.3159,686.6967 L443.5859,694.8226 L443.6776,702.9486 L443.1829,711.0746 L443.5,719.2005 " fill="#8B0000" style="stroke:#8B0000;stroke-width:4.0;"/><polygon fill="#8B0000" points="439.5,709.2005,439.565,709.2266,440.1718,711.1492,441.1598,713.2245,442.0237,715.25,442.4792,717.1122,443.5,719.2005,443.4759,719.1909,444.168,717.1477,444.9813,715.1531,445.8789,713.1921,446.486,711.1149,447.5,709.2005,447.6305,709.331,446.5514,709.852,445.8534,710.7539,445.2018,711.7023,444.2798,712.3803,443.5,713.2005,443.5161,713.2166,442.6925,712.393,441.9421,711.6426,441.1564,710.8569,440.438,710.1386,439.5,709.2005" style="stroke:#8B0000;stroke-width:1.0;"/><path d="M940.5,678.5707 L940.5,678.8509 L950.6667,678.0183 L960.8333,678.8284 L971,679.1036 L981.1667,677.6195 L991.3333,678.4671 L1001.5,678.002 L1011.6667,678.0594 L1021.8333,678.4798 L1032,677.6489 L1042.1667,679.3089 L1052.3333,677.7303 L1062.5,678.5707 " fill="#8B0000" style="stroke:#8B0000;stroke-width:4.0;"/><path d="M1062.5,678.5707 L1062.5934,678.5707 L1062.3159,686.6967 L1062.5859,694.8226 L1062.6776,702.9486 L1062.1829,711.0746 L1062.5,719.2005 " fill="#8B0000" style="stroke:#8B0000;stroke-width:4.0;"/><polygon fill="#8B0000" points="1058.5,709.2005,1058.565,709.2266,1059.1718,711.1492,1060.1598,713.2245,1061.0237,715.25,1061.4792,717.1122,1062.5,719.2005,1062.4759,719.1909,1063.168,717.1477,1063.9813,715.1531,1064.8789,713.1921,1065.486,711.1149,1066.5,709.2005,1066.6305,709.331,1065.5514,709.852,1064.8534,710.7539,1064.2018,711.7023,1063.2798,712.3803,1062.5,713.2005,1062.5161,713.2166,1061.6925,712.393,1060.9421,711.6426,1060.1564,710.8569,1059.438,710.1386,1058.5,709.2005" style="stroke:#8B0000;stroke-width:1.0;"/><path d="M1062.5,769.8304 L1062.7802,769.8304 L1061.9476,779.6563 L1062.7577,789.4823 L1063.0329,799.3083 L1061.5488,809.1342 L1062.3964,818.9602 L1061.9313,828.7862 L1061.9887,838.6121 L1062.4091,848.4381 L1061.5782,858.2641 L1063.2382,868.09 L1061.6596,877.916 L1062.2363,887.742 L1063.0759,897.5679 L1062.3856,907.3939 L1062.591,917.2199 L1062.4574,927.0458 L1062.738,936.8718 L1062.8188,946.6978 L1063.2809,956.5237 L1062.5,966.3497 " fill="#8B0000" style="stroke:#8B0000;stroke-width:4.0;"/><path d="M1062.5,966.3497 L1062.5,966.6299 L1052.5833,965.7973 L1042.6667,966.6074 L1032.75,966.8826 L1022.8333,965.3985 L1012.9167,966.2461 L1003,965.781 L993.0833,965.8384 L983.1667,966.2588 L973.25,965.4279 L963.3333,967.0879 L953.4167,965.5093 L943.5,966.086 L933.5833,966.9256 L923.6667,966.2353 L913.75,966.4407 L903.8333,966.3071 L893.9167,966.5877 L884,966.6685 L874.0833,967.1306 L864.1667,967.2444 L854.25,967.2554 L844.3333,966.6892 L834.4167,966.9678 L824.5,967.286 L814.5833,965.3881 L804.6667,967.2544 L794.75,965.9544 L784.8333,967.0615 L774.9167,965.6897 L765,966.3497 " fill="#8B0000" style="stroke:#8B0000;stroke-width:4.0;"/><polygon fill="#8B0000" points="775,962.3497,775.026,962.4148,772.9487,963.0215,771.0239,964.0095,769.0495,964.8734,766.9117,965.3289,765,966.3497,764.9904,966.3257,766.9472,967.0177,768.9525,967.831,770.9916,968.7286,772.9144,969.3357,775,970.3497,775.1305,970.4802,774.0514,969.4011,773.3534,968.7031,772.7018,968.0515,771.7798,967.1295,771,966.3497,771.0161,966.3658,771.7925,965.5422,772.6421,964.7918,773.4564,964.0061,774.338,963.2878,775,962.3497" style="stroke:#8B0000;stroke-width:1.0;"/><path d="M172,336.9575 L172,337.2377 L161.7273,336.405 L151.4545,337.2152 L141.1818,337.4904 L130.9091,336.0063 L120.6364,336.8538 L110.3636,336.3888 L100.0909,336.4461 L89.8182,336.8666 L79.5455,336.0356 L69.2727,337.6956 L59,336.9575 " fill="#8B0000" style="stroke:#8B0000;stroke-width:4.0;"/><path d="M59,336.9575 L59.2802,336.9575 L58.4476,346.5769 L59.2577,356.1963 L59.5329,365.8156 L58.0488,375.435 L58.8964,385.0544 L58.4313,394.6738 L58.4887,404.2932 L58.9091,413.9126 L59,423.532 " fill="#8B0000" style="stroke:#8B0000;stroke-width:4.0;"/><polygon fill="#8B0000" points="55,413.532,55.065,413.5581,55.6718,415.4807,56.6598,417.556,57.5237,419.5815,57.9792,421.4437,59,423.532,58.9759,423.5224,59.668,421.4792,60.4813,419.4846,61.3789,417.5236,61.986,415.4464,63,413.532,63.1305,413.6625,62.0514,414.1835,61.3534,415.0854,60.7018,416.0338,59.7798,416.7118,59,417.532,59.0161,417.5481,58.1925,416.7245,57.4421,415.9741,56.6564,415.1884,55.938,414.4701,55,413.532" style="stroke:#8B0000;stroke-width:1.0;"/><path d="M610,336.9575 L610,337.2377 L620.2143,336.405 L630.4286,337.2152 L640.6429,337.4904 L650.8571,336.0063 L661.0714,336.8538 L671.2857,336.3888 L681.5,336.4461 L691.7143,336.8666 L701.9286,336.0356 L712.1429,337.6956 L722.3571,336.1171 L732.5714,336.6938 L742.7857,337.5334 L753,336.9575 " fill="#8B0000" style="stroke:#8B0000;stroke-width:4.0;"/><path d="M753,336.9575 L753.2802,336.9575 L752.4476,346.9892 L753.2577,357.0209 L753.5329,367.0526 L752.0488,377.0843 L752.8964,387.1161 L752.4313,397.1478 L752.4887,407.1795 L752.9091,417.2112 L752.0782,427.243 L753.7382,437.2747 L752.1596,447.3064 L752.7363,457.3381 L753.5759,467.3699 L752.8856,477.4016 L753.091,487.4333 L752.9574,497.465 L753.238,507.4967 L753.3188,517.5285 L753.7809,527.5602 L753.8947,537.5919 L753.9057,547.6236 L753.3395,557.6554 L753.6181,567.6871 L753.9363,577.7188 L752.0384,587.7505 L753.9047,597.7823 L752.6047,607.814 L753.7117,617.8457 L752.34,627.8774 L752.9087,637.9091 L753,647.9409 " fill="#8B0000" style="stroke:#8B0000;stroke-width:4.0;"/><polygon fill="#8B0000" points="749,637.9409,749.065,637.9669,749.6718,639.8896,750.6598,641.9648,751.5237,643.9903,751.9792,645.8526,753,647.9409,752.9759,647.9312,753.668,645.8881,754.4813,643.8934,755.3789,641.9324,755.986,639.8553,757,637.9409,757.1305,638.0714,756.0514,638.5923,755.3534,639.4943,754.7018,640.4427,753.7798,641.1207,753,641.9409,753.0161,641.957,752.1925,641.1333,751.4421,640.3829,750.6564,639.5972,749.938,638.8789,749,637.9409" style="stroke:#8B0000;stroke-width:1.0;"/><path d="M59,474.1619 L59.2802,474.1619 L58.4476,484.2039 L59.2577,494.246 L59.5329,504.2881 L58.0488,514.3302 L58.8964,524.3722 L58.4313,534.4143 L58.4887,544.4564 L58.9091,554.4985 L58.0782,564.5405 L59.7382,574.5826 L58.1596,584.6247 L58.7363,594.6668 L59.5759,604.7088 L58.8856,614.7509 L59.091,624.793 L58.9574,634.835 L59.238,644.8771 L59.3188,654.9192 L59.7809,664.9613 L59.8947,675.0033 L59.9057,685.0454 L59.3395,695.0875 L59.6181,705.1296 L59.9363,715.1716 L58.0384,725.2137 L59.9047,735.2558 L58.6047,745.2979 L59.7117,755.3399 L58.34,765.382 L58.9087,775.4241 L59.9888,785.4662 L58.935,795.5082 L59.1404,805.5503 L59.4515,815.5924 L59.555,825.6345 L58.9948,835.6765 L59.383,845.7186 L58.2368,855.7607 L59.3792,865.8027 L59.7309,875.8448 L59.5927,885.8869 L59.8174,895.929 L58.3559,905.971 L58.1304,916.0131 L58.1715,926.0552 L58.9215,936.0973 L58.738,946.1393 L59.9085,956.1814 L58.7671,966.2235 L58.5426,976.2656 L59.3044,986.3076 L59,996.3497 " fill="#8B0000" style="stroke:#8B0000;stroke-width:4.0;"/><path d="M59,996.3497 L59,996.6299 L69,995.7973 L79,996.6074 L89,996.8826 L99,995.3985 L109,996.2461 L119,995.781 L129,995.8384 L139,996.2588 L149,995.4279 L159,997.0879 L169,995.5093 L179,996.086 L189,996.9256 L199,996.2353 L209,996.4407 L219,996.3071 L229,996.5877 L239,996.6685 L249,997.1306 L259,997.2444 L269,997.2554 L279,996.6892 L289,996.9678 L299,997.286 L309,995.3881 L319,997.2544 L329,995.9544 L339,997.0615 L349,995.6897 L359,996.2584 L369,997.3385 L379,996.3497 " fill="#8B0000" style="stroke:#8B0000;stroke-width:4.0;"/><polygon fill="#8B0000" points="369,992.3497,369.026,992.4148,370.9487,993.0215,373.0239,994.0095,375.0495,994.8734,376.9117,995.3289,379,996.3497,378.9904,996.3257,376.9472,997.0177,374.9525,997.831,372.9916,998.7286,370.9144,999.3357,369,1000.3497,369.1305,1000.4802,369.6514,999.4011,370.5534,998.7031,371.5018,998.0515,372.1798,997.1295,373,996.3497,373.0161,996.3658,372.1925,995.5422,371.4421,994.7918,370.6564,994.0061,369.938,993.2878,369,992.3497" style="stroke:#8B0000;stroke-width:1.0;"/><path d="M753,978.3497 L753.0934,978.3497 L752.8159,981.9497 L753.0859,985.5497 L753.1776,989.1497 L752.6829,992.7497 L753,996.3497 " fill="#8B0000" style="stroke:#8B0000;stroke-width:4.0;"/><path d="M753,996.3497 L753,996.6299 L743,995.7973 L733,996.6074 L723,996.8826 L713,995.3985 L703,996.2461 L693,995.781 L683,995.8384 L673,996.2588 L663,995.4279 L653,997.0879 L643,995.5093 L633,996.086 L623,996.9256 L613,996.2353 L603,996.4407 L593,996.3071 L583,996.5877 L573,996.6685 L563,997.1306 L553,997.2444 L543,997.2554 L533,996.6892 L523,996.9678 L513,997.286 L503,995.3881 L493,997.2544 L483,995.9544 L473,997.0615 L463,995.6897 L453,996.2584 L443,997.3385 L433,996.2847 L423,996.4901 L413,996.8012 L403,996.3497 " fill="#8B0000" style="stroke:#8B0000;stroke-width:4.0;"/><polygon fill="#8B0000" points="413,992.3497,413.026,992.4148,410.9487,993.0215,409.0239,994.0095,407.0495,994.8734,404.9117,995.3289,403,996.3497,402.9904,996.3257,404.9472,997.0177,406.9525,997.831,408.9916,998.7286,410.9144,999.3357,413,1000.3497,413.1305,1000.4802,412.0514,999.4011,411.3534,998.7031,410.7018,998.0515,409.7798,997.1295,409,996.3497,409.0161,996.3658,409.7925,995.5422,410.6421,994.7918,411.4564,994.0061,412.338,993.2878,413,992.3497" style="stroke:#8B0000;stroke-width:1.0;"/><path d="M391,214.753 L391.2802,214.753 L390.4476,223.879 L391.2577,233.005 L391.5329,242.1309 L390.0488,251.2569 L391,260.3829 " fill="#8B0000" style="stroke:#8B0000;stroke-width:4.0;"/><polygon fill="#8B0000" points="387,250.3829,387.065,250.4089,387.6718,252.3316,388.6598,254.4068,389.5237,256.4324,389.9792,258.2946,391,260.3829,390.9759,260.3733,391.668,258.3301,392.4813,256.3354,393.3789,254.3744,393.986,252.2973,395,250.3829,395.1305,250.5134,394.0514,251.0343,393.3534,251.9363,392.7018,252.8847,391.7798,253.5627,391,254.3829,391.0161,254.399,390.1925,253.5753,389.4421,252.825,388.6564,252.0392,387.938,251.3209,387,250.3829" style="stroke:#8B0000;stroke-width:1.0;"/><path d="M391,1008.3497 L391.0934,1008.3497 L390.8159,1015.5335 L391.0859,1022.7172 L391.1776,1029.901 L390.6829,1037.0847 L391,1044.2685 " fill="#8B0000" style="stroke:#8B0000;stroke-width:4.0;"/><polygon fill="#8B0000" points="387,1034.2685,387.065,1034.2945,387.6718,1036.2172,388.6598,1038.2924,389.5237,1040.318,389.9792,1042.1802,391,1044.2685,390.9759,1044.2589,391.668,1042.2157,392.4813,1040.221,393.3789,1038.26,393.986,1036.1829,395,1034.2685,395.1305,1034.399,394.0514,1034.9199,393.3534,1035.8219,392.7018,1036.7703,391.7798,1037.4483,391,1038.2685,391.0161,1038.2846,390.1925,1037.461,389.4421,1036.7106,388.6564,1035.9249,387.938,1035.2065,387,1034.2685" style="stroke:#8B0000;stroke-width:1.0;"/><!--SRC=[NLDDRzim3BtxLt2NDG6I9kVq40JDFeBjK2JOOO21GR5ecuDC6HATpllrezIbTUEJJ8gFVEzH7uWhDrZyrHaUuNvbZPYbdas37R8ieumEx-MF58MGEDp0O-jz96x0m5ulmn5x_HSVnf8_-t0DF_gkynnXZxtpOy8gqhUPb0UjX5fBHZy4gBnpM0bfqKF1NX02DQqKUzyPOeZOOqKrLRaiDoICO092ZSzWs49j0fnHdX5PEw564emUgORP2HFwwc1r4gf7RNyQphyrLB9EyB_9wTfZIgfaRE1fTzpj3wTFZx0gUJT42SQHuHUkkr2rT45OmNQxdOEqo33xYN6kV7z419A7JBv0ftypzlC2qamffnZ4KRKT4dNZIauMl97KII-6d3axl2Ad-eb0nHTaJED4WOzmuFYAzKOZIILZJvLnRjmKIoMSn87MwDYcgZ16DO0bUBToL24dY_JQJkLDznfKeMqsQ-8J-1hkrkjrFaYh9L5hlYRCI7yH77KacamKBLt83ZeJ2NOnJy1t0d7eUny4R3PW6Qy6T2Wc2J7nCKkMrqT7XWdfcpMyoZGc0m3WdGKmiI3bIaxPu_5Ryi_qVV2cQlCsKTUx_0PAXfllwV1zTpoL_90nelXUSPLXVONFhQTzNxAlXutrZDCjX-9GfsS0dR6f25eCkCYHsWywZG5BaNh76dstBuLQqhnfaT-Kj4QWqiqorePahRh-Of5oF7jbMgZPaQnMPICN-hpItgX7CYvk5c81UICltWqTJfxLFm00]--></g></svg>