<?xml version="1.0" encoding="us-ascii" standalone="no"?><svg xmlns="http://www.w3.org/2000/svg" xmlns:xlink="http://www.w3.org/1999/xlink" contentStyleType="text/css" height="1025px" preserveAspectRatio="none" style="width:1018px;height:1025px;background:#FFFFFF;" version="1.1" viewBox="0 0 1018 1025" width="1018px" zoomAndPan="magnify"><defs/><g><text fill="#000000" font-family="Chalkduster" font-size="42" font-weight="bold" lengthAdjust="spacing" textLength="890" x="57" y="51.7215">PILARS Implementations - mid 2024</text><!--cluster Implementations--><g id="cluster_Implementations"><polygon fill="none" points="9.5,83.8912,9.5,84.1013,19.5,83.4768,29.5,84.0844,39.5,84.2908,49.5,83.1778,59.5,83.8134,69.5,83.4647,79.5,83.5077,89.5,83.823,99.5,83.1998,109.5,84.4448,119.5,83.2609,129.5,83.6934,139.5,84.3231,149.5,83.8054,159.5,83.9594,169.5,83.8592,179.5,84.0697,189.5,84.1303,199.5,84.4769,209.5,84.5622,219.5,84.5704,229.5,84.1458,239.5,84.3547,249.5,84.5934,259.5,83.17,269.5,84.5697,279.5,83.5947,289.5,84.425,299.5,83.3961,309.5,83.8227,319.5,84.6328,329.5,83.8424,339.5,83.9965,349.5,84.2298,359.5,84.3074,369.5,83.8873,379.5,84.1784,389.5,83.3187,399.5,84.1755,409.5,84.4394,419.5,84.3357,429.5,84.5042,439.5,83.4081,449.5,83.239,459.5,83.2698,469.5,83.8323,479.5,83.6946,489.5,84.5726,499.5,83.7165,509.5,83.5481,519.5,84.1194,529.5,83.2243,539.5,83.372,549.5,84.5401,559.5,84.3268,569.5,84.6257,579.5,83.5694,589.5,84.2104,599.5,84.4816,609.5,83.4188,619.5,83.7953,629.5,84.0171,639.5,84.5429,649.5,83.887,659.5,84.3537,669.5,83.3374,679.5,83.2139,689.5,84.3948,699.5,83.1742,709.5,84.4001,719.5,84.0978,729.5,83.6232,739.5,83.5374,749.5,84.3499,759.5,83.5918,769.5,84.483,779.5,83.3384,789.5,84.5086,799.5,84.3755,809.5,84.1361,819.5,83.9384,829.5,84.6178,839.5,84.5047,849.5,84.0604,859.5,84.1593,869.5,83.7609,879.5,84.6076,889.5,84.046,899.5,84.0637,909.5,83.2828,919.5,83.4859,929.5,83.8912,929.5677,84.0546,929.9084,84.17,930.2016,84.1708,930.5196,84.2313,930.8863,84.4095,931.2678,84.6234,931.0565,84.5359,931.5419,85.0299,931.7884,85.4248,931.8692,85.7512,932.0676,86.1263,932,86.3912,931.8633,86.3912,932.0872,96.4484,931.6124,106.5057,932.284,116.563,932.2468,126.6203,932.5524,136.6775,931.7703,146.7348,931.8656,156.7921,932.4435,166.8493,932.5673,176.9066,931.4875,186.9639,932,197.0212,931.9403,196.9964,931.8995,197.3938,931.519,197.6503,931.6695,198.1269,931.4937,198.4683,931.2678,198.7889,931.2549,198.7579,930.9324,198.9792,930.6536,199.3062,930.1672,199.1319,929.8937,199.4717,929.5,199.5212,929.5,199.8068,919.5,199.6369,909.5,199.6621,899.5,199.6346,889.5,198.897,879.5,199.1203,869.5,199.0596,859.5,199.585,849.5,199.6093,839.5,199.6829,829.5,199.2302,819.5,199.4536,809.5,199.4009,799.5,200.098,789.5,199.9477,779.5,199.0356,769.5,199.4482,759.5,198.9439,749.5,199.8095,739.5,200.1296,729.5,200.0657,719.5,199.0856,709.5,199.9851,699.5,198.7784,689.5,199.7213,679.5,199.2218,669.5,199.6179,659.5,199.7615,649.5,199.9933,639.5,198.8012,629.5,199.9966,619.5,199.6993,609.5,199.8765,599.5,200.269,589.5,199.5266,579.5,199.6964,569.5,199.7346,559.5,199.7184,549.5,199.5203,539.5,200.2319,529.5,198.9114,519.5,200.0864,509.5,198.8972,499.5,198.9808,489.5,199.5612,479.5,199.5494,469.5,199.0283,459.5,199.9349,449.5,199.63,439.5,200.2478,429.5,200.1883,419.5,199.0729,409.5,199.1232,399.5,199.392,389.5,199.8767,379.5,199.9241,369.5,199.8223,359.5,199.1792,349.5,200.1575,339.5,200.1549,329.5,199.4739,319.5,199.2821,309.5,199.1198,299.5,199.3066,289.5,199.6586,279.5,199.4528,269.5,199.1034,259.5,200.0085,249.5,199.0622,239.5,200.0235,229.5,199.9484,219.5,199.893,209.5,200.2137,199.5,199.2753,189.5,199.2205,179.5,200.04,169.5,198.9243,159.5,199.2872,149.5,199.6367,139.5,199.5898,129.5,199.1627,119.5,199.4782,109.5,200.2658,99.5,200.1696,89.5,198.9249,79.5,199.5997,69.5,199.0073,59.5,199.4948,49.5,199.8142,39.5,199.941,29.5,198.8564,19.5,199.9217,9.5,199.5212,9.5011,199.5237,9.0756,199.2037,8.7328,199.0832,8.481,199.1824,8.1177,199.0123,7.7322,198.7889,7.7272,198.7868,7.3788,198.3496,7.642,198.1658,7.1969,197.6885,6.9838,197.3074,7,197.0212,6.9327,197.0212,7.5897,186.9639,7.6154,176.9066,7.0351,166.8493,6.8488,156.7921,7.1698,146.7348,7.1862,136.6775,6.4922,126.6203,7.414,116.563,7.5588,106.5057,6.7842,96.4484,7,86.3912,6.8678,86.3364,7.3542,86.1237,7.2994,85.6867,7.4393,85.3305,7.6779,85.0151,7.7322,84.6234,7.6499,84.4245,8.1534,84.6402,8.4374,84.3257,8.8782,84.39,9.1189,83.9711,9.5,83.8912" style="stroke:#181818;stroke-width:4.0;"/><text fill="#000000" font-family="Chalkduster" font-size="24" font-weight="bold" lengthAdjust="spacing" textLength="231" x="354" y="109.732">Implementations</text></g><!--cluster Open Source Toolkits / Software--><g id="cluster_Open Source Toolkits / Software"><polygon fill="none" points="293.5,321.5212,293.5,321.7313,303.4306,321.1068,313.3611,321.7144,323.2917,321.9208,333.2222,320.8078,343.1528,321.4434,353.0833,321.0947,363.0139,321.1377,372.9444,321.453,382.875,320.8298,392.8056,322.0748,402.7361,320.8909,412.6667,321.3234,422.5972,321.9531,432.5278,321.4354,442.4583,321.5894,452.3889,321.4892,462.3194,321.6997,472.25,321.7603,482.1806,322.1069,492.1111,322.1922,502.0417,322.2004,511.9722,321.7758,521.9028,321.9847,531.8333,322.2234,541.7639,320.8,551.6944,322.1997,561.625,321.2247,571.5556,322.055,581.4861,321.0261,591.4167,321.4527,601.3472,322.2628,611.2778,321.4724,621.2083,321.6265,631.1389,321.8598,641.0694,321.9374,651,321.5173,660.9306,321.8084,670.8611,320.9487,680.7917,321.8055,690.7222,322.0694,700.6528,321.9657,710.5833,322.1342,720.5139,321.0381,730.4444,320.869,740.375,320.8998,750.3056,321.4623,760.2361,321.3246,770.1667,322.2026,780.0972,321.3465,790.0278,321.1781,799.9583,321.7494,809.8889,320.8543,819.8194,321.002,829.75,322.1701,839.6806,321.9568,849.6111,322.2557,859.5417,321.1994,869.4722,321.8404,879.4028,322.1116,889.3333,321.0488,899.2639,321.4253,909.1944,321.6471,919.125,322.1729,929.0556,321.517,938.9861,321.9837,948.9167,320.9674,958.8472,320.8439,968.7778,322.0248,978.7083,320.8042,988.6389,322.0301,998.5694,321.7278,1008.5,321.5212,1008.4658,321.4387,1008.8084,321.5587,1009.2656,321.9553,1009.5225,321.8683,1009.9897,322.2892,1010.2678,322.2534,1010.0975,322.1829,1010.6044,322.6857,1010.7098,323.0223,1010.7825,323.3453,1010.8681,323.6736,1011,324.0212,1011.7266,324.0212,1011.6136,334.0784,1011.1693,344.1357,1011.2682,354.193,1010.8697,364.2503,1011.7165,374.3075,1011.1549,384.3648,1011.1726,394.4221,1010.3916,404.4793,1010.5948,414.5366,1011.5307,424.5939,1011,434.6512,1011.1323,434.706,1010.8403,434.9992,1010.6079,435.3172,1010.4932,435.6839,1010.2029,435.9778,1010.2678,436.4189,1010.3207,436.5467,1010.0086,436.7931,1009.6278,436.8739,1009.2958,437.0723,1008.8361,436.9626,1008.5,437.1512,1008.5,437.2384,998.5694,436.7636,988.6389,437.4352,978.7083,437.3979,968.7778,437.7035,958.8472,436.9215,948.9167,437.0168,938.9861,437.5946,929.0556,437.7185,919.125,436.6386,909.1944,436.9573,899.2639,437.3004,889.3333,436.5403,879.4028,437.5046,869.4722,437.4092,859.5417,437.0504,849.6111,437.2934,839.6806,437.8798,829.75,436.8383,819.8194,437.4661,809.8889,437.4368,799.9583,437.2669,790.0278,437.2921,780.0972,437.2646,770.1667,436.527,760.2361,436.7503,750.3056,436.6896,740.375,437.215,730.4444,437.2393,720.5139,437.3129,710.5833,436.8602,700.6528,437.0836,690.7222,437.0309,680.7917,437.728,670.8611,437.5777,660.9306,436.6656,651,437.0782,641.0694,436.5739,631.1389,437.4395,621.2083,437.7596,611.2778,437.6957,601.3472,436.7156,591.4167,437.6151,581.4861,436.4084,571.5556,437.3513,561.625,436.8518,551.6944,437.2479,541.7639,437.3915,531.8333,437.6233,521.9028,436.4312,511.9722,437.6266,502.0417,437.3293,492.1111,437.5065,482.1806,437.899,472.25,437.1566,462.3194,437.3264,452.3889,437.3646,442.4583,437.3484,432.5278,437.1503,422.5972,437.8619,412.6667,436.5414,402.7361,437.7164,392.8056,436.5272,382.875,436.6108,372.9444,437.1912,363.0139,437.1794,353.0833,436.6583,343.1528,437.5649,333.2222,437.26,323.2917,437.8778,313.3611,437.8183,303.4306,436.7029,293.5,437.1512,293.4492,437.0286,293.13,436.9649,292.8382,436.9678,292.4907,436.8359,292.1242,436.6581,291.7322,436.4189,291.6269,436.3753,291.7818,436.1465,291.6345,435.7927,291.2783,435.3522,291.0728,434.9742,291,434.6512,290.5986,434.6512,290.7854,424.5939,291.1374,414.5366,290.9316,404.4793,290.5822,394.4221,291.4874,384.3648,290.5411,374.3075,291.5024,364.2503,291.4272,354.193,291.3719,344.1357,291.6925,334.0784,291,324.0212,290.9243,323.9898,291.0539,323.6293,291.4527,323.3802,291.2555,322.8844,291.5137,322.5771,291.7322,322.2534,291.747,322.289,292.0945,322.1281,292.3936,321.8501,292.7874,321.8008,293.2414,321.8969,293.5,321.5212" style="stroke:#181818;stroke-width:4.0;"/><text fill="#000000" font-family="Chalkduster" font-size="24" font-weight="bold" lengthAdjust="spacing" textLength="449" x="426.5" y="347.362">Open Source Toolkits / Software</text></g><!--cluster Specs & Standards--><g id="cluster_Specs &amp; Standards"><polygon fill="none" points="118.5,559.1512,118.5,559.3613,128.5112,558.7368,138.5225,559.3444,148.5337,559.5508,158.5449,558.4378,168.5562,559.0734,178.5674,558.7247,188.5787,558.7677,198.5899,559.083,208.6011,558.4598,218.6124,559.7048,228.6236,558.5209,238.6348,558.9534,248.6461,559.5831,258.6573,559.0654,268.6685,559.2194,278.6798,559.1192,288.691,559.3297,298.7022,559.3903,308.7135,559.7369,318.7247,559.8222,328.736,559.8304,338.7472,559.4058,348.7584,559.6147,358.7697,559.8534,368.7809,558.43,378.7921,559.8297,388.8034,558.8547,398.8146,559.685,408.8258,558.6561,418.8371,559.0827,428.8483,559.8928,438.8596,559.1024,448.8708,559.2565,458.882,559.4898,468.8933,559.5674,478.9045,559.1473,488.9157,559.4384,498.927,558.5787,508.9382,559.4355,518.9494,559.6994,528.9607,559.5957,538.9719,559.7642,548.9831,558.6681,558.9944,558.499,569.0056,558.5298,579.0169,559.0923,589.0281,558.9546,599.0393,559.8326,609.0506,558.9765,619.0618,558.8081,629.073,559.3794,639.0843,558.4843,649.0955,558.632,659.1067,559.8001,669.118,559.5868,679.1292,559.8857,689.1404,558.8294,699.1517,559.4704,709.1629,559.7416,719.1742,558.6788,729.1854,559.0553,739.1966,559.2771,749.2079,559.8029,759.2191,559.147,769.2303,559.6137,779.2416,558.5974,789.2528,558.4739,799.264,559.6548,809.2753,558.4342,819.2865,559.6601,829.2978,559.3578,839.309,558.8832,849.3202,558.7974,859.3315,559.6099,869.3427,558.8518,879.3539,559.743,889.3652,558.5984,899.3764,559.7686,909.3876,559.6355,919.3989,559.3961,929.4101,559.1984,939.4213,559.8778,949.4326,559.7647,959.4438,559.3204,969.4551,559.4193,979.4663,559.0209,989.4775,559.8676,999.4888,559.306,1009.5,559.1512,1009.522,559.2043,1009.776,559.1103,1010.1554,559.3193,1010.6284,559.7539,1010.969,559.8693,1011.2678,559.8834,1011.2545,559.8779,1011.315,560.1959,1011.4932,560.5626,1011.4958,560.8565,1011.9813,561.3505,1012,561.6512,1012.7396,561.6512,1012.5264,571.7598,1012.6949,581.8685,1011.8633,591.9772,1012.0872,602.0858,1011.6124,612.1945,1012.284,622.3032,1012.2468,632.4118,1012.5524,642.5205,1011.7703,652.6292,1011.8656,662.7378,1012.4435,672.8465,1012.5673,682.9552,1011.4875,693.0638,1011.8061,703.1725,1012.1493,713.2812,1011.3892,723.3898,1012.3534,733.4985,1012.258,743.6072,1011.8992,753.7158,1012.1422,763.8245,1012.7287,773.9332,1011.6871,784.0418,1012.315,794.1505,1012.2856,804.2592,1012.1158,814.3678,1012.1409,824.4765,1012.1135,834.5852,1011.3758,844.6938,1011.5992,854.8025,1011.5385,864.9112,1012.0638,875.0198,1012.0881,885.1285,1012.1617,895.2372,1011.709,905.3458,1011.9325,915.4545,1011.8798,925.5632,1012.5769,935.6718,1012.4266,945.7805,1011.5145,955.8892,1011.9271,965.9978,1011.4228,976.1065,1012.2884,986.2152,1012.6085,996.3238,1012.5446,1006.4325,1012,1016.5412,1011.8659,1016.4856,1011.9964,1016.9539,1011.4784,1017.1535,1011.6223,1017.6274,1011.322,1017.9172,1011.2678,1018.3089,1011.2801,1018.3387,1010.9449,1018.5294,1010.6209,1018.7472,1010.1153,1018.5266,1009.9142,1019.0411,1009.5,1019.0412,1009.5,1019.2193,999.4888,1019.3965,989.4775,1019.789,979.4663,1019.0466,969.4551,1019.2164,959.4438,1019.2546,949.4326,1019.2384,939.4213,1019.0403,929.4101,1019.7519,919.3989,1018.4314,909.3876,1019.6064,899.3764,1018.4172,889.3652,1018.5008,879.3539,1019.0812,869.3427,1019.0694,859.3315,1018.5483,849.3202,1019.4549,839.309,1019.15,829.2978,1019.7678,819.2865,1019.7083,809.2753,1018.5929,799.264,1018.6432,789.2528,1018.912,779.2416,1019.3967,769.2303,1019.4441,759.2191,1019.3423,749.2079,1018.6992,739.1966,1019.6775,729.1854,1019.6749,719.1742,1018.9939,709.1629,1018.8021,699.1517,1018.6398,689.1404,1018.8266,679.1292,1019.1786,669.118,1018.9728,659.1067,1018.6234,649.0955,1019.5285,639.0843,1018.5822,629.073,1019.5435,619.0618,1019.4684,609.0506,1019.413,599.0393,1019.7337,589.0281,1018.7953,579.0169,1018.7405,569.0056,1019.56,558.9944,1018.4443,548.9831,1018.8072,538.9719,1019.1567,528.9607,1019.1098,518.9494,1018.6827,508.9382,1018.9982,498.927,1019.7858,488.9157,1019.6896,478.9045,1018.4449,468.8933,1019.1197,458.882,1018.5273,448.8708,1019.0148,438.8596,1019.3342,428.8483,1019.461,418.8371,1018.3764,408.8258,1019.4417,398.8146,1019.0496,388.8034,1018.4858,378.7921,1018.5701,368.7809,1019.3678,358.7697,1019.291,348.7584,1019.0247,338.7472,1018.3691,328.736,1019.6993,318.7247,1018.7293,308.7135,1018.5131,298.7022,1018.9738,288.691,1019.6309,278.6798,1019.6566,268.6685,1019.0763,258.6573,1018.89,248.6461,1019.2109,238.6348,1019.2274,228.6236,1018.5334,218.6124,1019.4551,208.6011,1019.6,198.5899,1018.8254,188.5787,1018.612,178.5674,1019.7158,168.5562,1019.0622,158.5449,1019.041,148.5337,1019.3402,138.5225,1018.3955,128.5112,1019.5711,118.5,1019.0412,118.498,1019.0364,118.2318,1019.1007,117.7654,1018.6818,117.4915,1018.7278,117.0292,1018.3186,116.7322,1018.3089,116.8077,1018.3402,116.7026,1018.0038,116.3385,1017.5601,116.4047,1017.2946,115.9705,1016.8218,116,1016.5412,115.5295,1016.5412,116.6828,1006.4325,116.6844,996.3238,116.5685,986.2152,115.6396,976.1065,116.3842,965.9978,115.5279,955.8892,116.0582,945.7805,115.9987,935.6718,115.7376,925.5632,116.6159,915.4545,116.4433,905.3458,115.6792,895.2372,116.5266,885.1285,116.0919,875.0198,115.4164,864.9112,115.7667,854.8025,115.4747,844.6938,115.8609,834.5852,115.371,824.4765,115.3998,814.3678,116.0703,804.2592,115.8796,794.1505,115.9414,784.0418,115.8568,773.9332,116.1673,763.8245,115.4449,753.7158,116.1601,743.6072,115.2569,733.4985,116.296,723.3898,116.5928,713.2812,116.5221,703.1725,116.3613,693.0638,116.1922,682.9552,116.1057,672.8465,115.36,662.7378,116.4465,652.6292,116.3296,642.5205,115.8466,632.4118,115.9942,622.3032,115.7914,612.1945,116.2177,602.0858,116.6805,591.9772,115.6461,581.8685,116.4689,571.7598,116,561.6512,115.9725,561.6398,116.0296,561.2492,116.1599,560.889,116.2408,560.5083,116.45,560.1807,116.7322,559.8834,116.7369,559.8946,117.1206,559.821,117.5128,559.7679,117.8465,559.5734,118.0557,559.0785,118.5,559.1512" style="stroke:#181818;stroke-width:4.0;"/><text fill="#000000" font-family="Chalkduster" font-size="24" font-weight="bold" lengthAdjust="spacing" textLength="253" x="437.5" y="584.992">Specs &amp; Standards</text></g><!--cluster Metadata--><g id="cluster_Metadata"><polygon fill="none" points="142.5,616.1512,142.5,616.3613,152.5769,615.7368,162.6538,616.3444,172.7308,616.5508,182.8077,615.4378,192.8846,616.0734,202.9615,615.7247,213.0385,615.7677,223.1154,616.083,233.1923,615.4598,243.2692,616.7048,253.3462,615.5209,263.4231,615.9534,273.5,616.5831,283.5769,616.0654,293.6538,616.2194,303.7308,616.1192,313.8077,616.3297,323.8846,616.3903,333.9615,616.7369,344.0385,616.8222,354.1154,616.8304,364.1923,616.4058,374.2692,616.6147,384.3462,616.8534,394.4231,615.43,404.5,616.8297,414.5769,615.8547,424.6538,616.685,434.7308,615.6561,444.8077,616.0827,454.8846,616.8928,464.9615,616.1024,475.0385,616.2565,485.1154,616.4898,495.1923,616.5674,505.2692,616.1473,515.3462,616.4384,525.4231,615.5787,535.5,616.1512,535.5363,616.2387,535.9235,616.4664,536.2638,616.581,536.6389,616.7793,536.8526,616.5882,537.2678,616.8834,537.0669,616.8002,537.2228,617.1577,537.5425,617.583,537.6466,617.919,538.0634,618.3845,538,618.6512,537.8253,618.6512,537.6569,628.7563,538.2283,638.8614,537.3332,648.9666,537.4809,659.0717,538.649,669.1768,538.4357,679.282,538.7345,689.3871,537.6782,699.4922,538.3192,709.5974,538.5904,719.7025,537.5276,729.8076,537.9041,739.9128,538.126,750.0179,538.6518,760.1231,537.9958,770.2282,538.4626,780.3333,537.4462,790.4385,537.3227,800.5436,538.5036,810.6487,537.2831,820.7539,538.509,830.859,538.2066,840.9641,537.7321,851.0693,537.6462,861.1744,538.4588,871.2795,537.7007,881.3847,538.5919,891.4898,537.4473,901.5949,538.6174,911.7001,538.4843,921.8052,538.245,931.9104,538.0472,942.0155,538.7266,952.1206,538.6136,962.2258,538.1693,972.3309,538.2682,982.436,538,992.5412,537.9599,992.5245,538.0742,992.9861,537.7548,993.268,537.6138,993.6238,537.2269,993.8778,537.2678,994.3089,537.2161,994.1841,536.9819,994.6188,536.6155,994.7342,536.2016,994.735,535.8125,994.7955,535.5,995.0412,535.5,994.8222,525.4231,994.355,515.3462,995.4559,505.2692,995.7807,495.1923,995.5676,485.1154,995.7361,475.0385,994.9044,464.9615,995.1284,454.8846,994.6536,444.8077,995.3252,434.7308,995.2879,424.6538,995.5935,414.5769,994.8115,404.5,994.9068,394.4231,995.4846,384.3462,995.6085,374.2692,994.5286,364.1923,994.8473,354.1154,995.1904,344.0385,994.4303,333.9615,995.3946,323.8846,995.2992,313.8077,994.9404,303.7308,995.1834,293.6538,995.7698,283.5769,994.7283,273.5,995.3561,263.4231,995.3268,253.3462,995.1569,243.2692,995.1821,233.1923,995.1546,223.1154,994.417,213.0385,994.6403,202.9615,994.5796,192.8846,995.105,182.8077,995.1293,172.7308,995.2029,162.6538,994.7502,152.5769,994.9736,142.5,995.0412,142.4847,995.0041,142.22,995.0724,141.8473,994.8796,141.3774,994.4523,141.0765,994.4329,140.7322,994.3089,140.5545,994.2353,140.6746,993.9922,140.6267,993.6794,140.4606,993.3177,140.0123,992.8392,140,992.5412,140.464,992.5412,139.2572,982.436,140.2002,972.3309,139.7007,962.2258,140.0967,952.1206,140.2403,942.0155,140.4721,931.9104,139.2801,921.8052,140.4755,911.7001,140.1782,901.5949,140.3553,891.4898,140.7478,881.3847,140.0055,871.2795,140.1753,861.1744,140.2134,851.0693,140.1972,840.9641,139.9992,830.859,140.7107,820.7539,139.3903,810.6487,140.5653,800.5436,139.376,790.4385,139.4597,780.3333,140.04,770.2282,140.0283,760.1231,139.5072,750.0179,140.4137,739.9128,140.1089,729.8076,140.7267,719.7025,140.6671,709.5974,139.5517,699.4922,139.6021,689.3871,139.8708,679.282,140.3555,669.1768,140.403,659.0717,140.3012,648.9666,139.658,638.8614,140.6364,628.7563,140,618.6512,140.1952,618.732,140.1319,618.2916,140.2193,617.9136,140.3157,617.5393,140.5197,617.2096,140.7322,616.8834,140.7498,616.9257,141.0771,616.7159,141.386,616.4618,141.8551,616.5941,142.0879,616.1563,142.5,616.1512" style="stroke:#181818;stroke-width:4.0;"/><text fill="#000000" font-family="Chalkduster" font-size="24" font-weight="bold" lengthAdjust="spacing" textLength="127" x="275.5" y="641.992">Metadata</text></g><!--cluster Storage--><g id="cluster_Storage"><polygon fill="none" points="564.5,631.4712,564.5,631.6813,574.5238,631.0568,584.5476,631.6644,594.5714,631.8708,604.5952,630.7578,614.619,631.3934,624.6429,631.0447,634.6667,631.0877,644.6905,631.403,654.7143,630.7798,664.7381,632.0248,674.7619,630.8409,684.7857,631.2734,694.8095,631.9031,704.8333,631.3854,714.8571,631.5394,724.881,631.4392,734.9048,631.6497,744.9286,631.7103,754.9524,632.0569,764.9762,632.1422,775,632.1504,785.0238,631.7258,795.0476,631.9347,805.0714,632.1734,815.0952,630.75,825.119,632.1497,835.1429,631.1747,845.1667,632.005,855.1905,630.9761,865.2143,631.4027,875.2381,632.2128,885.2619,631.4224,895.2857,631.5765,905.3095,631.8098,915.3333,631.8874,925.3571,631.4673,935.381,631.7584,945.4048,630.8987,955.4286,631.7555,965.4524,632.0194,975.4762,631.9157,985.5,631.4712,985.5782,631.6599,985.7919,631.4688,986.1239,631.5632,986.4814,631.7191,986.9067,632.0388,987.2678,632.2034,987.2072,632.1783,987.6241,632.6439,987.5069,632.8882,987.6015,633.2203,987.9239,633.6467,988,633.9712,987.3332,633.9712,987.4809,644.0284,988.649,654.0857,988.4357,664.143,988.7345,674.2003,987.6782,684.2575,988.3192,694.3148,988.5904,704.3721,987.5276,714.4293,987.9041,724.4866,988.126,734.5439,988,744.6012,988.2007,744.6843,987.8523,744.9542,987.8496,745.3673,987.3901,745.5912,987.2056,745.929,987.2678,746.3689,987.332,746.524,986.8228,746.2946,986.6256,746.8186,986.2335,746.8719,985.8194,746.8722,985.5,747.1012,985.5,746.7474,975.4762,747.5599,965.4524,746.8018,955.4286,747.693,945.4048,746.5484,935.381,747.7186,925.3571,747.5855,915.3333,747.3461,905.3095,747.1484,895.2857,747.8278,885.2619,747.7147,875.2381,747.2704,865.2143,747.3693,855.1905,746.9709,845.1667,747.8176,835.1429,747.256,825.119,747.2737,815.0952,746.4928,805.0714,746.6959,795.0476,747.6319,785.0238,747.5309,775,747.0582,764.9762,746.779,754.9524,746.8822,744.9286,746.415,734.9048,747.5159,724.881,747.8407,714.8571,747.6276,704.8333,747.7961,694.8095,746.9644,684.7857,747.1884,674.7619,746.7136,664.7381,747.3852,654.7143,747.3479,644.6905,747.6535,634.6667,746.8715,624.6429,746.9668,614.619,747.5446,604.5952,747.6685,594.5714,746.5886,584.5476,746.9073,574.5238,747.2504,564.5,747.1012,564.4221,746.913,564.1915,747.0635,563.8258,746.8877,563.4265,746.6308,563.1039,746.5592,562.7322,746.3689,562.9566,746.4619,562.4894,745.9755,562.5363,745.702,562.3809,745.3447,562.1821,744.9695,562,744.6012,562.1409,744.6012,562.1135,734.5439,561.3758,724.4866,561.5992,714.4293,561.5385,704.3721,562.0638,694.3148,562.0881,684.2575,562.1617,674.2003,561.709,664.143,561.9325,654.0857,561.8798,644.0284,562,633.9712,562.1776,634.0447,562.2778,633.672,562.1434,633.2021,562.4169,632.9012,562.408,632.4833,562.7322,632.2034,562.769,632.2922,563.1634,632.2443,563.5088,632.0782,563.7373,631.6299,564.2056,631.7605,564.5,631.4712" style="stroke:#181818;stroke-width:4.0;"/><text fill="#000000" font-family="Chalkduster" font-size="24" font-weight="bold" lengthAdjust="spacing" textLength="101" x="724.5" y="657.312">Storage</text></g><!--entity parai--><g id="elem_parai"><polygon fill="none" points="568.5,132.8912,568.5,133.1013,578.3235,132.4768,588.1471,133.0844,597.9706,133.2908,607.7941,132.1778,617.6176,132.8134,627.4412,132.4647,637.2647,132.5077,647.0882,132.823,656.9118,132.1998,666.7353,133.4448,676.5588,132.2609,686.3824,132.6934,696.2059,133.3231,706.0294,132.8054,715.8529,132.9594,725.6765,132.8592,735.5,132.8912,735.5228,132.9461,735.8841,133.1113,736.2818,133.3644,736.6463,133.5372,737.0009,133.6861,737.2678,133.6234,737.3462,133.6559,737.557,134.0361,737.7769,134.4201,737.485,134.5921,738.0625,135.1242,738,135.3912,737.7035,135.3912,738.5338,144.5171,737.505,153.6431,737.9315,162.7691,738.7416,171.895,738,181.021,737.985,181.0148,737.886,181.388,737.8114,181.7713,737.6888,182.1347,737.413,182.4347,737.2678,182.7888,737.3044,182.8772,736.8412,182.7589,736.5969,183.1692,736.277,183.3969,735.9103,183.5114,735.5,183.521,735.5,184.134,725.6765,183.0379,715.8529,182.8688,706.0294,182.8996,696.2059,183.4621,686.3824,183.3245,676.5588,184.2024,666.7353,183.3463,656.9118,183.1779,647.0882,183.7493,637.2647,182.8542,627.4412,183.0019,617.6176,184.1699,607.7941,183.9567,597.9706,184.2555,588.1471,183.1992,578.3235,183.8402,568.5,183.521,568.5753,183.7028,568.0862,183.2291,567.7807,183.1986,567.4554,183.1205,567.1689,183.1359,566.7322,182.7888,566.7309,182.7882,566.7282,182.4942,566.2688,182.011,566.0843,181.6417,566.3015,181.4388,566,181.021,565.2831,181.021,566.509,171.895,566.2066,162.7691,565.7321,153.6431,565.6462,144.5171,566,135.3912,566.1413,135.4497,566.0543,134.9994,566.4752,134.7596,566.2691,134.26,566.7759,134.0557,566.7322,133.6234,566.794,133.7725,567.117,133.5524,567.4454,133.345,567.8856,133.4078,568.2247,133.2266,568.5,132.8912" style="stroke:#181818;stroke-width:4.0;"/><text fill="#000000" font-family="Chalkduster" font-size="24" lengthAdjust="spacing" textLength="152" x="576" y="166.732">PARADISEC</text></g><!--entity nyi--><g id="elem_nyi"><polygon fill="none" points="776,132.8912,776,133.1013,785.8571,132.4768,795.7143,133.0844,805.5714,133.2908,815.4286,132.1778,825.2857,132.8134,835.1429,132.4647,845,132.5077,854.8571,132.823,864.7143,132.1998,874.5714,133.4448,884.4286,132.2609,894.2857,132.6934,904.1429,133.3231,914,132.8912,913.9891,132.8647,914.3623,133.0586,914.703,133.1742,915.0834,133.3855,915.4447,133.5506,915.7678,133.6234,915.9481,133.6981,916.1209,134.0625,916.2698,134.4171,916.2855,134.7165,916.4963,135.0967,916.5,135.3912,917.2022,135.3912,915.7788,144.5171,917.1785,153.6431,916.2035,162.7691,917.0338,171.895,916.5,181.021,916.3476,180.9578,916.3325,181.3658,916.4355,181.8227,916.0457,182.0754,915.9466,182.4486,915.7678,182.7888,915.811,182.893,915.4673,183.0634,915.0602,183.0805,914.7437,183.3166,914.2805,183.1983,914,183.521,914,183.8054,904.1429,184.0692,894.2857,183.9655,884.4286,184.134,874.5714,183.0379,864.7143,182.8688,854.8571,182.8996,845,183.4621,835.1429,183.3245,825.2857,184.2024,815.4286,183.3463,805.5714,183.1779,795.7143,183.7493,785.8571,182.8542,776,183.521,775.9338,183.3611,775.7292,183.5744,775.3485,183.3623,775.033,183.3078,774.5447,182.8361,774.2322,182.7888,774.3305,182.8295,774.2676,182.5105,773.7939,182.0214,773.7634,181.7159,773.6852,181.3906,773.5,181.021,774.1518,181.021,773.4958,171.895,773.9626,162.7691,772.9462,153.6431,772.8227,144.5171,773.5,135.3912,773.6551,135.4554,773.4257,134.9462,773.9496,134.749,774.003,134.3569,774.0033,133.9428,774.2322,133.6234,774.1871,133.5144,774.6443,133.6182,774.9012,133.2383,775.3684,133.3663,775.5759,132.8674,776,132.8912" style="stroke:#181818;stroke-width:4.0;"/><text fill="#000000" font-family="Chalkduster" font-size="24" lengthAdjust="spacing" textLength="123" x="783.5" y="166.732">Nyingarn</text></g><!--entity uts--><g id="elem_uts"><polygon fill="none" points="296,132.8912,296,133.1013,306.087,132.4768,316.1739,133.0844,326.2609,133.2908,336.3478,132.1778,346.4348,132.8134,356.5217,132.4647,366.6087,132.5077,376.6957,132.823,386.7826,132.1998,396.8696,133.4448,406.9565,132.2609,417.0435,132.6934,427.1304,133.3231,437.2174,132.8054,447.3043,132.9594,457.3913,132.8592,467.4783,133.0697,477.5652,133.1303,487.6522,133.4769,497.7391,133.5622,507.8261,133.5704,517.913,133.1458,528,132.8912,528.0591,133.0339,528.4431,133.2539,528.6151,132.962,529.1472,133.5395,529.3764,133.3856,529.7678,133.6234,529.9322,133.6915,529.7618,133.9138,530.0396,134.3218,530.4355,134.7787,530.3385,135.0314,530.5,135.3912,530.6053,135.3912,530.8386,144.5171,530.9162,153.6431,530.4961,162.7691,530.7872,171.895,530.5,181.021,530.3237,180.948,530.4411,181.4108,530.3759,181.798,530.1976,182.1384,530.103,182.5134,529.7678,182.7888,529.7061,182.64,529.331,182.7344,528.9814,182.8903,528.6996,183.21,528.3285,183.314,528,183.521,528,184.2024,517.913,183.3463,507.8261,183.1779,497.7391,183.7493,487.6522,182.8542,477.5652,183.0019,467.4783,184.1699,457.3913,183.9567,447.3043,184.2555,437.2174,183.1992,427.1304,183.8402,417.0435,184.1114,406.9565,183.0486,396.8696,183.4251,386.7826,183.647,376.6957,184.1728,366.6087,183.5168,356.5217,183.9836,346.4348,182.9672,336.3478,182.8437,326.2609,184.0246,316.1739,182.8041,306.087,184.03,296,183.521,296.0264,183.5846,295.6123,183.292,295.2478,183.1192,294.9979,183.2229,294.5476,182.843,294.2322,182.7888,294.4145,182.8643,293.9156,182.3647,294.1295,182.1604,293.942,181.7899,293.7219,181.4058,293.5,181.021,293.5472,181.021,294.2266,171.895,294.1136,162.7691,293.6693,153.6431,293.7682,144.5171,293.5,135.3912,293.4599,135.3745,293.8671,135.129,293.8406,134.7038,293.9925,134.3525,293.8984,133.8993,294.2322,133.6234,294.1805,133.4986,294.6535,133.6404,294.9942,133.4628,295.2874,133.1708,295.6054,132.9384,296,132.8912" style="stroke:#181818;stroke-width:4.0;"/><text fill="#000000" font-family="Chalkduster" font-size="24" lengthAdjust="spacing" textLength="217" x="303.5" y="166.732">UTS Data portal</text></g><!--entity om--><g id="elem_om"><polygon fill="none" points="26,132.8912,26,133.1013,35.7778,132.4768,45.5556,133.0844,55.3333,133.2908,65.1111,132.1778,74.8889,132.8134,84.6667,132.4647,94.4444,132.5077,104.2222,132.823,114,132.8912,113.9118,132.6782,114.4242,133.2081,114.6267,132.99,115.0354,133.2696,115.4693,133.61,115.7678,133.6234,115.7414,133.6125,115.9352,133.9857,116.0508,134.3264,116.2621,134.7068,116.4272,135.0681,116.5,135.3912,117.0857,135.3912,117.1711,144.5171,117.1793,153.6431,116.7546,162.7691,116.9636,171.895,116.5,181.021,116.7163,181.1106,116.1315,181.2826,116.4161,181.8147,115.9693,182.0438,116.0786,182.5033,115.7678,182.7888,115.7046,182.6363,115.4055,182.9141,115.1553,183.31,114.7009,183.2131,114.367,183.407,114,183.521,114,183.8596,104.2222,183.9372,94.4444,183.5171,84.6667,183.8082,74.8889,182.9486,65.1111,183.8054,55.3333,184.0692,45.5556,183.9655,35.7778,184.134,26,183.521,25.9384,183.3722,25.5633,183.1737,25.2136,183.0367,24.9318,183.0635,24.5607,182.8747,24.2322,182.7888,24.4421,182.8757,24.032,182.4129,23.8337,182.0379,23.8632,181.7572,23.4411,181.2895,23.5,181.021,22.9809,181.021,24.149,171.895,23.9357,162.7691,24.2345,153.6431,23.1782,144.5171,23.5,135.3912,23.5983,135.4319,23.8283,135.1129,23.6474,134.6238,23.9098,134.3183,24.1246,133.993,24.2322,133.6234,24.3154,133.8241,24.5853,133.4757,24.9983,133.473,25.2223,133.0135,25.5601,132.829,26,132.8912" style="stroke:#181818;stroke-width:4.0;"/><text fill="#000000" font-family="Chalkduster" font-size="24" lengthAdjust="spacing" textLength="73" x="33.5" y="166.732">OMAA</text></g><!--entity ldaca--><g id="elem_ldaca"><polygon fill="none" points="154.5,132.8912,154.5,133.1013,164.6,132.4768,174.7,133.0844,184.8,133.2908,194.9,132.1778,205,132.8134,215.1,132.4647,225.2,132.5077,235.3,132.823,245.4,132.1998,255.5,132.8912,255.5706,133.0617,255.7732,132.8435,256.1819,133.1231,256.6158,133.4635,256.9033,133.4505,257.2678,133.6234,257.2888,133.6321,257.4044,133.9729,257.6156,134.3533,257.7808,134.7146,258.0339,135.1123,258,135.3912,258.6711,135.3912,258.6793,144.5171,258.2546,153.6431,258.4636,162.7691,258.7022,171.895,258,181.021,257.7779,180.929,258.0625,181.4611,257.6158,181.6903,257.7251,182.1497,257.2618,182.3721,257.2678,182.7888,257.259,182.7677,257.0088,183.1636,256.5544,183.0666,256.2205,183.2605,255.8967,183.4788,255.5,183.521,255.5,183.9372,245.4,183.5171,235.3,183.8082,225.2,182.9486,215.1,183.8054,205,184.0692,194.9,183.9655,184.8,184.134,174.7,183.0379,164.6,182.8688,154.5,183.521,154.4207,183.3296,154.1389,183.3564,153.7678,183.1676,153.5263,183.2915,153.0635,182.8814,152.7322,182.7888,152.6266,182.745,152.6561,182.4643,152.234,181.9966,152.133,181.6619,152.3463,181.4573,152,181.021,152.4357,181.021,152.7345,171.895,151.6782,162.7691,152.3192,153.6431,152.5904,144.5171,152,135.3912,151.8545,135.3309,152.1169,135.0254,152.3317,134.7001,152.6401,134.4136,152.5845,133.9764,152.7322,133.6234,152.7912,133.7658,153.0151,133.3064,153.3529,133.1219,153.8571,133.3391,154.055,132.8168,154.5,132.8912" style="stroke:#181818;stroke-width:4.0;"/><text fill="#000000" font-family="Chalkduster" font-size="24" lengthAdjust="spacing" textLength="86" x="162" y="166.732">LDaCA</text></g><!--entity oni--><g id="elem_oni"><polygon fill="none" points="309.5,370.5212,309.5,370.7313,319.3333,370.1068,329.1667,370.7144,339,370.9208,348.8333,369.8078,358.6667,370.4434,368.5,370.5212,368.4456,370.3898,368.8046,370.5495,369.1984,370.7931,369.4725,370.7476,369.9848,371.2774,370.2678,371.2534,370.0737,371.173,370.3533,371.5817,370.6937,372.0156,370.6807,372.3031,370.8746,372.6763,371,373.0212,370.9681,373.0212,371.1785,382.1471,371.2391,391.2731,371.5857,400.3991,371.6711,409.525,371,418.651,371.2092,418.7376,370.932,419.037,370.8499,419.4172,370.7769,419.8012,370.1921,419.9732,370.2678,420.4188,370.3543,420.6277,369.8764,420.4739,369.6288,420.876,369.144,420.7057,368.8448,420.9835,368.5,421.151,368.5,421.8926,358.6667,421.1023,348.8333,421.2563,339,421.4896,329.1667,421.5672,319.3333,421.1471,309.5,421.151,309.5366,421.2394,309.0734,420.8283,308.8292,420.9457,308.5093,420.8805,308.1425,420.7021,307.7322,420.4188,307.921,420.497,307.437,420.0036,307.2385,419.6285,307.1015,419.2788,307.1283,418.997,307,418.651,306.8035,418.651,307.6814,409.525,306.8253,400.3991,306.6569,391.2731,307.2283,382.1471,307,373.0212,306.7946,372.9361,306.9866,372.6014,307.4927,372.3968,307.5735,372.0161,307.812,371.7006,307.7322,371.2534,307.6912,371.1543,308.1265,371.2052,308.5147,371.1423,308.7326,370.6686,309.1342,370.6381,309.5,370.5212" style="stroke:#181818;stroke-width:4.0;"/><text fill="#000000" font-family="Chalkduster" font-size="24" lengthAdjust="spacing" textLength="44" x="317" y="404.362">Oni</text></g><!--entity para--><g id="elem_para"><polygon fill="none" points="408.5,370.5212,408.5,370.7313,418.46,370.1068,428.42,370.7144,438.38,370.9208,448.34,369.8078,458.3,370.4434,468.26,370.0947,478.22,370.1377,488.18,370.453,498.14,369.8298,508.1,371.0748,518.06,369.8909,528.02,370.3234,537.98,370.9531,547.94,370.4354,557.9,370.5894,567.86,370.4892,577.82,370.6997,587.78,370.7603,597.74,371.1069,607.7,371.1922,617.66,371.2004,627.62,370.7758,637.58,370.9847,647.54,371.2234,657.5,370.5212,657.408,370.2991,657.9401,370.8766,658.1693,370.7227,658.6288,371.1249,658.8511,370.9545,659.2678,371.2534,659.2467,371.2447,659.6426,371.7015,659.5457,371.9543,659.7395,372.3275,659.9578,372.7108,660,373.0212,660.4162,373.0212,659.9961,382.1471,660.2872,391.2731,659.4276,400.3991,660.2844,409.525,660,418.651,660.1688,418.7209,659.9905,419.0613,659.8959,419.4363,659.4119,419.65,659.2134,419.982,659.2678,420.4188,659.1885,420.2274,658.9067,420.5471,658.5356,420.6511,658.294,421.0679,657.8313,420.9508,657.5,421.151,657.5,420.8079,647.54,421.3793,637.58,420.4842,627.62,420.6319,617.66,421.7999,607.7,421.5867,597.74,421.8855,587.78,420.8292,577.82,421.4702,567.86,421.7414,557.9,420.6786,547.94,421.0551,537.98,421.277,528.02,421.8028,518.06,421.1468,508.1,421.6136,498.14,420.5972,488.18,420.4737,478.22,421.6546,468.26,420.4341,458.3,421.66,448.34,421.3576,438.38,420.8831,428.42,420.7972,418.46,421.6098,408.5,421.151,408.4618,421.0588,408.2219,421.1868,407.7224,420.6879,407.5181,420.9018,407.1476,420.7144,406.7322,420.4188,406.8077,420.45,406.6003,420.0712,406.6631,419.8043,406.4819,419.4364,406.1986,419.0261,406,418.651,406.2682,418.651,405.8697,409.525,406.7165,400.3991,406.1549,391.2731,406.1726,382.1471,406,373.0212,405.8127,372.9436,406.0217,372.6159,406.4563,372.3818,406.5717,372.0153,406.5726,371.6015,406.7322,371.2534,406.6911,371.1542,407.0579,371.0395,407.3518,370.7492,407.8458,370.9418,408.2408,370.8954,408.5,370.5212" style="stroke:#181818;stroke-width:4.0;"/><text fill="#000000" font-family="Chalkduster" font-size="24" lengthAdjust="spacing" textLength="234" x="416" y="404.362">PARADISEC Code</text></g><!--entity ny--><g id="elem_ny"><polygon fill="none" points="697.5,370.5212,697.5,370.7313,707.3333,370.1068,717.1667,370.7144,727,370.9208,736.8333,369.8078,746.6667,370.4434,756.5,370.0947,766.3333,370.1377,776.1667,370.453,786,369.8298,795.8333,371.0748,805.6667,369.8909,815.5,370.3234,825.3333,370.9531,835.1667,370.4354,845,370.5894,854.8333,370.4892,864.6667,370.6997,874.5,370.7603,884.3333,371.1069,894.1667,371.1922,904,371.2004,913.8333,370.7758,923.6667,370.9847,933.5,371.2234,943.3333,369.8,953.1667,371.1997,963,370.2247,972.8333,371.055,982.6667,370.0261,992.5,370.5212,992.4913,370.5001,992.9482,370.896,993.2009,370.799,993.5741,370.9929,993.9574,371.2112,994.2678,371.2534,994.3959,371.3065,994.413,371.6064,994.6491,371.9971,994.5308,372.241,994.9411,372.7039,995,373.0212,995.5482,373.0212,995.4445,382.1471,995.613,391.2731,994.5169,400.3991,994.3478,409.525,995,418.651,994.8086,418.5717,994.8354,418.997,994.6466,419.333,994.7705,419.7986,994.3604,420.0429,994.2678,420.4188,994.224,420.3131,993.9433,420.6355,993.4756,420.5063,993.1409,420.6982,992.9363,421.2044,992.5,421.151,992.5,421.5867,982.6667,421.8855,972.8333,420.8292,963,421.4702,953.1667,421.7414,943.3333,420.6786,933.5,421.0551,923.6667,421.277,913.8333,421.8028,904,421.1468,894.1667,421.6136,884.3333,420.5972,874.5,420.4737,864.6667,421.6546,854.8333,420.4341,845,421.66,835.1667,421.3576,825.3333,420.8831,815.5,420.7972,805.6667,421.6098,795.8333,420.8517,786,421.7429,776.1667,420.5982,766.3333,421.7684,756.5,421.6353,746.6667,421.396,736.8333,421.1982,727,421.8776,717.1667,421.7646,707.3333,421.3202,697.5,421.151,697.5342,421.2336,697.1298,420.9644,696.8843,421.0787,696.4591,420.7593,696.1078,420.6184,695.7322,420.4188,695.5449,420.3412,695.461,420.0135,695.6028,419.7794,695.4252,419.4129,695.1332,418.9991,695,418.651,694.6778,418.651,694.7811,409.525,694.3138,400.3991,695.4147,391.2731,695.7396,382.1471,695,373.0212,695.1621,373.0883,695.3605,372.7563,695.2508,372.2966,695.4662,371.9716,695.4664,371.5575,695.7322,371.2534,695.7685,371.3409,696.1173,371.1829,696.5098,371.1306,696.7636,370.7433,697.1293,370.6262,697.5,370.5212" style="stroke:#181818;stroke-width:4.0;"/><text fill="#000000" font-family="Chalkduster" font-size="24" lengthAdjust="spacing" textLength="280" x="705" y="404.362">Nyingarn Workspace</text></g><!--entity ldacp--><g id="elem_ldacp"><polygon fill="none" points="158,665.1512,158,665.3613,168.0556,664.7368,178.1111,665.3444,188.1667,665.5508,198.2222,664.4378,208.2778,665.0734,218.3333,664.7247,228.3889,664.7677,238.4444,665.083,248.5,664.4598,258.5556,665.7048,268.6111,664.5209,278.6667,664.9534,288.7222,665.5831,298.7778,665.0654,308.8333,665.2194,318.8889,665.1192,328.9444,665.3297,339,665.3903,349.0556,665.7369,359.1111,665.8222,369.1667,665.8304,379.2222,665.4058,389.2778,665.6147,399.3333,665.8534,409.3889,664.43,419.4444,665.8297,429.5,664.8547,439.5556,665.685,449.6111,664.6561,459.6667,665.0827,469.7222,665.8928,479.7778,665.1024,489.8333,665.2565,499.8889,665.4898,509.9444,665.5674,520,665.1512,519.9995,665.15,520.3902,665.3861,520.6341,665.2678,521.0969,665.6781,521.4841,665.9058,521.7678,665.8834,521.9047,665.9401,522.103,666.3151,521.9119,666.5289,522.0063,666.8609,522.1622,667.2183,522.5,667.6512,522.4411,667.6512,522.3035,677.1836,523.1814,686.7161,522.3253,696.2485,522.1569,705.781,522.7283,715.3135,521.8332,724.8459,521.9809,734.3784,522.5,743.9108,522.6999,743.9936,522.4877,744.32,522.4333,744.7116,521.9616,744.9304,522.0125,745.3658,521.7678,745.6786,521.8431,745.8604,521.354,745.6796,521.0484,745.942,520.7232,746.1567,520.4367,746.4651,520,746.4108,520,746.4066,509.9444,746.8734,499.8889,745.857,489.8333,745.7336,479.7778,746.9144,469.7222,745.6939,459.6667,746.9198,449.6111,746.6175,439.5556,746.1429,429.5,746.0571,419.4444,746.8696,409.3889,746.1115,399.3333,747.0027,389.2778,745.8581,379.2222,747.0283,369.1667,746.8951,359.1111,746.6558,349.0556,746.458,339,747.1374,328.9444,747.0244,318.8889,746.5801,308.8333,746.679,298.7778,746.2806,288.7222,747.1273,278.6667,746.5657,268.6111,746.5834,258.5556,745.8025,248.5,746.0056,238.4444,746.9416,228.3889,746.8406,218.3333,746.3679,208.2778,746.0887,198.2222,746.1919,188.1667,745.7247,178.1111,746.8256,168.0556,747.1504,158,746.4108,158.0671,746.5729,157.7351,746.4784,157.2755,746.0758,156.9505,745.9983,156.5363,745.7057,156.2322,745.6786,156.3197,745.7148,156.1618,745.3565,156.1095,745.042,155.7222,744.5886,155.6051,744.2472,155.5,743.9108,155.9435,743.9108,156.0673,734.3784,154.9875,724.8459,155.3061,715.3135,155.6493,705.781,154.8892,696.2485,155.8534,686.7161,155.758,677.1836,155.5,667.6512,155.469,667.6383,155.6903,667.3158,156.0173,667.037,155.843,666.5506,156.1828,666.2771,156.2322,665.8834,156.2687,665.9714,156.6006,665.7726,156.9573,665.6339,157.3074,665.479,157.5668,665.1054,158,665.1512" style="stroke:#181818;stroke-width:4.0;"/><text fill="#000000" font-family="Chalkduster" font-size="24" lengthAdjust="spacing" textLength="347" x="165.5" y="698.992">Language Data Commons</text><text fill="#000000" font-family="Chalkduster" font-size="24" lengthAdjust="spacing" textLength="233" x="165.5" y="729.6219">RO-Crate Profile</text></g><!--entity rocrate--><g id="elem_rocrate"><polygon fill="none" points="213.5,928.4112,213.5,928.6213,223.5714,927.9968,233.6429,928.6044,243.7143,928.8108,253.7857,927.6978,263.8571,928.3334,273.9286,927.9847,284,928.0277,294.0714,928.343,304.1429,927.7198,314.2143,928.9648,324.2857,927.7809,334.3571,928.2134,344.4286,928.8431,354.5,928.4112,354.4891,928.3847,354.8623,928.5786,355.203,928.6942,355.5834,928.9055,355.9447,929.0706,356.2678,929.1434,356.4481,929.2181,356.6209,929.5825,356.7698,929.9371,356.7855,930.2365,356.9963,930.6167,357,930.9112,357.7022,930.9112,356.2788,940.0371,357.6785,949.1631,356.7035,958.2891,357.5338,967.415,357,976.541,356.8476,976.4778,356.8325,976.8858,356.9355,977.3427,356.5457,977.5954,356.4466,977.9686,356.2678,978.3088,356.311,978.413,355.9673,978.5834,355.5602,978.6005,355.2437,978.8366,354.7805,978.7183,354.5,979.041,354.5,979.3254,344.4286,979.5892,334.3571,979.4855,324.2857,979.654,314.2143,978.5579,304.1429,978.3888,294.0714,978.4196,284,978.9821,273.9286,978.8445,263.8571,979.7224,253.7857,978.8663,243.7143,978.6979,233.6429,979.2693,223.5714,978.3742,213.5,979.041,213.4338,978.8811,213.2292,979.0944,212.8485,978.8823,212.533,978.8278,212.0447,978.3561,211.7322,978.3088,211.8305,978.3495,211.7676,978.0305,211.2939,977.5414,211.2634,977.2359,211.1852,976.9106,211,976.541,211.6518,976.541,210.9958,967.415,211.4626,958.2891,210.4462,949.1631,210.3227,940.0371,211,930.9112,211.1551,930.9754,210.9257,930.4662,211.4496,930.269,211.503,929.8769,211.5033,929.4628,211.7322,929.1434,211.6871,929.0344,212.1443,929.1382,212.4012,928.7583,212.8684,928.8863,213.0759,928.3874,213.5,928.4112" style="stroke:#181818;stroke-width:4.0;"/><text fill="#000000" font-family="Chalkduster" font-size="24" lengthAdjust="spacing" textLength="126" x="221" y="962.252">RO-Crate</text></g><!--entity OCFL--><g id="elem_OCFL"><polygon fill="none" points="580,680.4712,580,680.6813,590.5,680.0568,601,680.6644,611.5,680.8708,622,679.7578,632.5,680.3934,643,680.0447,653.5,680.0877,664,680.4712,663.9913,680.4502,664.2654,680.4047,664.7777,680.9346,664.9803,680.7164,665.389,680.996,665.7678,681.2034,665.9008,681.2585,665.8878,681.546,666.0817,681.9192,666.1973,682.26,666.4085,682.6404,666.5,682.9712,666.7391,682.9712,667.0857,692.0971,667.1711,701.2231,667.1793,710.3491,666.7546,719.475,666.5,728.601,666.6428,728.6601,666.5698,729.0441,665.985,729.2161,666.2696,729.7482,665.8229,729.9774,665.7678,730.3688,665.8359,730.5332,665.3511,730.3628,665.0519,730.6406,664.8017,731.0365,664.3473,730.9395,664,731.101,664,731.2063,653.5,731.4396,643,731.5172,632.5,731.0971,622,731.3882,611.5,730.5286,601,731.3854,590.5,731.6492,580,731.101,580.0567,731.2379,579.7246,731.1433,579.2313,730.6593,578.8561,730.4608,578.5065,730.3238,578.2322,730.3688,578.2141,730.3613,578.0253,729.9901,578.1492,729.7486,577.7391,729.2858,577.5408,728.9108,577.5,728.601,577.7283,728.601,576.8332,719.475,576.9809,710.3491,578.149,701.2231,577.9357,692.0971,577.5,682.9712,577.7262,683.0649,577.5473,682.5766,577.8912,682.3048,578.1212,681.9858,577.9403,681.4967,578.2322,681.2034,578.22,681.1739,578.6019,681.0957,579.0225,681.1112,579.2924,680.7628,579.7055,680.7601,580,680.4712" style="stroke:#181818;stroke-width:4.0;"/><text fill="#000000" font-family="Chalkduster" font-size="24" lengthAdjust="spacing" textLength="69" x="587.5" y="714.312">OCFL</text></g><!--entity NOCFL--><g id="elem_NOCFL"><polygon fill="none" points="868.5,680.4712,868.5,680.6813,878.6,680.0568,888.7,680.6644,898.8,680.8708,908.9,679.7578,919,680.3934,929.1,680.0447,939.2,680.0877,949.3,680.403,959.4,679.7798,969.5,680.4712,969.5706,680.6417,969.7732,680.4235,970.1819,680.7031,970.6158,681.0435,970.9033,681.0305,971.2678,681.2034,971.2888,681.2121,971.4044,681.5529,971.6156,681.9333,971.7808,682.2946,972.0339,682.6923,972,682.9712,972.6711,682.9712,972.6793,692.0971,972.2546,701.2231,972.4636,710.3491,972.7022,719.475,972,728.601,971.7779,728.509,972.0625,729.0411,971.6158,729.2703,971.7251,729.7297,971.2618,729.9521,971.2678,730.3688,971.259,730.3477,971.0088,730.7436,970.5544,730.6466,970.2205,730.8405,969.8967,731.0588,969.5,731.101,969.5,731.5172,959.4,731.0971,949.3,731.3882,939.2,730.5286,929.1,731.3854,919,731.6492,908.9,731.5455,898.8,731.714,888.7,730.6179,878.6,730.4488,868.5,731.101,868.4207,730.9096,868.1389,730.9364,867.7678,730.7476,867.5263,730.8715,867.0635,730.4614,866.7322,730.3688,866.6266,730.325,866.6561,730.0443,866.234,729.5766,866.133,729.2419,866.3463,729.0373,866,728.601,866.4357,728.601,866.7345,719.475,865.6782,710.3491,866.3192,701.2231,866.5904,692.0971,866,682.9712,865.8545,682.9109,866.1169,682.6054,866.3317,682.2801,866.6401,681.9936,866.5845,681.5564,866.7322,681.2034,866.7912,681.3458,867.0151,680.8864,867.3529,680.7019,867.8571,680.9191,868.055,680.3968,868.5,680.4712" style="stroke:#181818;stroke-width:4.0;"/><text fill="#000000" font-family="Chalkduster" font-size="24" lengthAdjust="spacing" textLength="86" x="876" y="714.312">NOCFL</text></g><!--entity pr--><g id="elem_pr"><polygon fill="none" points="704,680.4712,704,680.6813,714.3333,680.0568,724.6667,680.6644,735,680.8708,745.3333,679.7578,755.6667,680.3934,766,680.0447,776.3333,680.0877,786.6667,680.403,797,679.7798,807.3333,681.0248,817.6667,679.8409,828,680.4712,827.9748,680.4103,828.4087,680.7506,828.6962,680.7376,829.0694,680.9315,829.4101,681.0471,829.7678,681.2034,829.8227,681.2262,829.9879,681.5875,830.241,681.9852,830.4138,682.3497,830.5627,682.7043,830.5,682.9712,830.7546,682.9712,830.9636,692.0971,831.2022,701.2231,829.7788,710.3491,831.1785,719.475,830.5,728.601,830.4087,728.5632,830.5179,729.0226,830.0547,729.245,830.0396,729.6529,830.1426,730.1098,829.7678,730.3688,829.7616,730.3538,829.4276,730.5476,829.1039,730.7659,828.7602,730.9363,828.3531,730.9533,828,731.101,828,731.3882,817.6667,730.5286,807.3333,731.3854,797,731.6492,786.6667,731.5455,776.3333,731.714,766,730.6179,755.6667,730.4488,745.3333,730.4796,735,731.0421,724.6667,730.9045,714.3333,731.7824,704,731.101,703.9777,731.0472,703.6027,730.8489,703.322,730.8784,702.8543,730.4563,702.5196,730.3553,702.2322,730.3688,702.4321,730.4515,702.22,730.0708,702.1655,729.7553,701.6938,729.2671,701.7447,728.9953,701.5,728.601,702.0904,728.601,701.0276,719.475,701.4041,710.3491,701.626,701.2231,702.1518,692.0971,701.5,682.9712,701.4987,682.9706,701.7889,682.6766,701.6223,682.1934,701.7308,681.8241,702.2409,681.6212,702.2322,681.2034,702.1408,680.9826,702.6507,681.2137,702.9657,680.9741,703.2587,680.6815,703.6013,680.5087,704,680.4712" style="stroke:#181818;stroke-width:4.0;"/><text fill="#000000" font-family="Chalkduster" font-size="24" lengthAdjust="spacing" textLength="109" x="711.5" y="714.312">Proxyist</text></g><!--link ny to NOCFL--><g id="link_ny_NOCFL"><path d="M850.93,421.5212 L851.2025,421.5866 L852.7278,431.1085 L855.8505,441.0141 L858.453,450.7948 L859.3449,460.1645 L862.5039,470.0789 L864.3867,479.6866 L866.7774,489.4164 L869.5211,499.231 L871.0481,508.7532 L874.9971,518.8575 L875.7972,528.205 L878.6928,538.0562 L881.8441,547.9687 L883.5079,557.5238 L886.0425,567.2882 L888.2475,576.9734 L890.8553,586.7553 L893.2688,596.4906 L896.0531,606.315 L898.4987,616.0579 L900.8442,625.7769 L902.6287,635.361 L905.2345,645.1425 L907.8788,654.9332 L908.3684,664.2061 L911.6383,674.1472 " fill="none" style="stroke:#8B0000;stroke-width:4.0;"/><polygon fill="#8B0000" points="913.04,679.9812,913.1089,679.9939,913.2615,678.019,913.8181,676.1187,914.2431,674.1941,914.2356,672.1897,914.8268,670.2957,914.8047,670.2822,914.1146,671.1862,913.5358,672.1585,913.0345,673.1781,912.2664,674.0344,911.8719,675.1195,911.9683,675.2769,910.7974,674.3494,909.908,673.8814,909.0529,673.4694,907.998,672.7312,907.0481,672.1647,907.0662,672.1785,908.2381,673.7215,909.4921,675.3275,910.7065,676.9031,911.9966,678.5366,913.04,679.9812" style="stroke:#8B0000;stroke-width:4.0;"/></g><!--link para to pr--><g id="link_para_pr"><path d="M561.65,421.5112 L561.7127,421.5804 L564.1326,423.7317 L566.9198,426.2891 L569.5875,428.7142 L571.8617,430.7045 L574.6805,433.2967 L574.657,433.2715 L577.4584,435.8672 L580.3785,438.5904 L583.3811,441.4021 L586.0994,443.9086 L589.2159,446.8426 L589.3868,447.0197 L592.1437,449.6524 L595.3994,452.8022 L598.7159,456.0151 L601.6784,458.861 L604.8271,461.8999 L604.8486,461.9213 L608.0687,465.1539 L611.3865,468.4839 L614.6572,471.7669 L618.0178,475.1396 L621.085,478.2199 L621.2999,478.4268 L622.9499,480.1404 L624.4614,481.7207 L626.1758,483.4963 L627.8997,485.281 L629.3223,486.7757 L629.0886,486.5563 L631.1898,488.7377 L632.5214,490.1968 L634.4381,492.2049 L635.7523,493.6476 L637.5604,495.5538 L637.5379,495.5333 L639.4408,497.5699 L640.8184,499.127 L642.506,500.967 L644.2196,502.8308 L645.7455,504.5233 L645.884,504.6459 L647.3599,506.348 L649.0725,508.2597 L650.4021,509.8324 L652.303,511.9107 L653.8241,513.6529 L654.0092,513.8112 L655.5579,515.633 L657.1985,517.5334 L658.4119,519.0685 L659.9385,520.8714 L661.7424,522.9116 L661.5292,522.736 L663.2632,524.7663 L664.7568,526.5987 L666.599,528.7181 L667.8462,530.3476 L669.447,532.2683 L669.3273,532.1738 L671.014,534.2158 L672.1892,535.8541 L673.7281,537.7795 L675.6231,539.9858 L676.8841,541.6918 L677.0388,541.8082 L678.5681,543.7799 L679.6161,545.3896 L681.267,547.4527 L682.7865,549.417 L684,551.1512 L683.8279,551.0309 L686.2192,554.3526 L688.5542,557.6349 L690.9999,560.9947 L693.015,564.0535 L695.2707,567.2805 L695.4438,567.3913 L697.1825,570.456 L699.2555,573.7348 L701.8165,577.3262 L703.4788,580.342 L705.8663,583.8222 L706.0608,583.9376 L707.9214,587.1988 L709.7162,590.4209 L711.6596,593.7312 L713.9463,597.2452 L715.7471,600.4709 L715.6308,600.4064 L717.8025,603.8886 L719.1829,606.9318 L721.463,610.4742 L723.2365,613.7356 L724.8736,616.9212 L724.9701,616.9716 L726.5587,620.1202 L728.4928,623.4493 L730.1147,626.6153 L731.6062,629.7131 L733.206,632.8676 L733.3128,632.9205 L734.6539,635.8693 L736.4908,639.0637 L737.7669,641.9803 L739.2737,645.0112 L740.7047,648.0046 L740.4602,647.8891 L741.8669,650.7321 L743.5681,653.7142 L744.8525,656.4995 L745.9876,659.2142 L747.33,662.0268 L747.1995,661.9677 L748.3838,664.507 L749.3371,666.9417 L750.9252,669.664 L752.1991,672.244 L753.0422,674.6287 " fill="none" style="stroke:#8B0000;stroke-width:4.0;"/><polygon fill="#8B0000" points="755.48,680.1112,755.5501,680.1112,755.3415,678.1414,755.5437,676.1716,755.6122,674.2019,755.2408,672.232,755.4783,670.2623,755.4541,670.253,754.9396,671.2673,754.547,672.3285,754.2392,673.4222,753.6393,674.4037,753.4485,675.5425,753.5147,675.7147,752.3171,674.9404,751.3128,674.669,750.3321,674.459,749.2141,673.892,748.1683,673.5127,748.1836,673.5296,749.6235,674.8245,751.1329,676.1963,752.6087,677.531,754.1485,678.9364,755.48,680.1112" style="stroke:#8B0000;stroke-width:4.0;"/></g><!--link pr to OCFL--><g id="link_pr_OCFL"><path d="M701.23,705.7812 L701.23,705.8746 L695.528,705.597 L689.826,705.8671 L684.124,705.9588 L678.422,705.4641 L672.72,705.7812 " fill="none" style="stroke:#8B0000;stroke-width:4.0;stroke-dasharray:7.0,7.0;"/><polygon fill="#8B0000" points="666.72,705.7812,666.7485,705.8452,668.4639,706.455,670.3462,707.44,672.1741,708.3029,673.8234,708.7639,675.72,709.7812,675.7017,709.7628,674.8195,708.8806,674.0296,708.0908,673.3039,707.3651,672.357,706.4182,671.72,705.7812,671.8505,705.9117,672.3714,704.8326,673.2734,704.1345,674.2218,703.483,674.8998,702.5609,675.72,701.7812,675.7292,701.8019,673.9157,702.5714,672.1442,703.4355,670.3524,704.254,668.5993,705.1596,666.72,705.7812" style="stroke:#8B0000;stroke-width:4.0;"/></g><!--link oni to OCFL--><g id="link_oni_OCFL"><path d="M362.19,421.2412 L362.255,421.3083 L364.577,423.5418 L367.2797,426.1689 L369.8585,428.6678 L372.0295,430.7453 L374.765,433.4062 L374.7421,433.3803 L377.2862,435.6134 L379.9459,437.9767 L382.6859,440.4305 L385.149,442.5723 L388,445.1512 L388.154,445.3431 L390.1058,446.7636 L392.5072,448.7444 L394.9635,450.7936 L397.1006,452.4451 L399.4056,454.3057 L399.4236,454.3301 L401.5547,455.8827 L403.7677,457.5465 L405.9412,459.1567 L408.1901,460.8692 L410.1933,462.248 L410.3602,462.4952 L412.411,463.8817 L414.3542,465.1088 L416.455,466.5693 L418.5632,468.0408 L420.4374,469.1656 L420.2681,468.8935 L422.5516,470.6378 L424.2778,471.4859 L426.4277,473.0153 L428.1411,473.8431 L430.2123,475.246 L430.1971,475.2197 L432.2535,476.6174 L433.9536,477.3995 L435.8639,478.5449 L437.7919,479.7208 L439.5926,480.6766 L439.6815,480.8388 L441.4037,481.6688 L443.2779,482.7759 L444.9062,483.4346 L446.9012,484.7622 L448.6524,485.645 L448.767,485.86 L452.2366,487.6794 L455.7631,489.6054 L459.0253,491.0355 L462.4812,492.8291 L466.1088,494.9449 L465.9723,494.7048 L469.5094,496.8623 L472.8927,498.7492 L476.499,501.0286 L479.7246,502.638 L483.1765,504.6456 L483.0945,504.5171 L484.9459,505.825 L486.4467,506.5835 L488.1969,507.7327 L490.1909,509.2642 L491.7506,510.1149 L491.8621,510.2732 L493.6787,511.6082 L495.1483,512.4508 L497.0524,513.9101 L498.8619,515.235 L500.4508,516.2469 L500.3212,516.0817 L502.2046,517.6098 L504.0456,519.0839 L505.9699,520.6641 L507.5701,521.8312 L509.3514,523.2291 L509.4867,523.3839 L511.0245,524.6477 L512.8235,526.2103 L515.004,528.2095 L516.4821,529.405 L518.5269,531.2488 L518.6844,531.4112 L520.4958,533.1637 L522.2539,534.8613 L524.1322,536.6829 L526.2887,538.791 L528.0516,540.4937 L527.9544,540.4029 L530.2336,542.8047 L531.8514,544.5891 L534.2212,547.0754 L536.1677,549.1665 L538,551.1512 L538.0839,551.2206 L540.5568,554.2334 L543.33,557.4949 L545.832,560.5318 L548.2205,563.4747 L550.7032,566.4956 L550.7998,566.5655 L552.9856,569.6799 L555.6196,573.1188 L557.7466,576.1907 L560.0822,579.4136 L562.3493,582.5868 L562.1219,582.4406 L564.3168,585.7843 L566.7856,589.3042 L568.8668,592.5748 L570.8091,595.756 L572.9441,599.0613 L572.8202,598.9895 L574.7697,602.3114 L576.4999,605.5062 L578.8332,609.0502 L580.868,612.4214 L582.4933,615.5555 L582.7003,615.6646 L584.4685,618.9296 L585.8434,621.9875 L587.6334,625.264 L589.1486,628.3958 L591.0029,631.7062 L591.1165,631.7612 L592.5968,634.8427 L594.2142,637.9906 L595.3965,640.9279 L596.9297,644.0351 L598.4786,647.1498 L598.6584,647.2305 L599.9982,650.1277 L600.8498,652.8059 L602.2686,655.7385 L603.6973,658.6756 L604.9263,661.5231 L604.6759,661.4181 L606.1562,664.1716 L607.2022,666.7431 L608.1402,669.2693 L609.3249,671.899 L610.3517,674.4624 " fill="none" style="stroke:#8B0000;stroke-width:4.0;"/><polygon fill="#8B0000" points="612.61,680.0212,612.68,680.0234,612.5356,678.048,612.8018,676.0858,612.9342,674.1192,612.627,672.1385,612.9284,670.1775,612.9045,670.1674,612.3574,671.1644,611.9305,672.2123,611.5873,673.2954,610.9558,674.2569,610.7281,675.3888,610.7999,675.5589,609.6041,674.7552,608.6179,674.448,607.6572,674.2013,606.5478,673.6023,605.5167,673.1885,605.5325,673.2049,606.928,674.5474,608.3953,675.9644,609.828,677.3455,611.3268,678.7952,612.61,680.0212" style="stroke:#8B0000;stroke-width:4.0;"/></g><!--link ny to ldacp--><g id="link_ny_ldacp"><path d="M796.06,421.5512 L796.1028,421.6342 L791.3411,423.7792 L786.8306,426.4109 L782.2383,428.8842 L777.377,430.8363 L772.888,433.5097 L772.872,433.4791 L767.5532,436.0865 L762.3151,438.8482 L757.1331,441.7172 L751.7578,444.2165 L746.6533,447.2335 L746.7687,447.4508 L740.7948,450.0286 L735.1579,453.2408 L729.5621,456.5304 L723.7271,459.3697 L718.0179,462.4458 L718.0323,462.4725 L711.9363,465.7181 L705.906,469.0852 L699.844,472.3938 L693.8424,475.8141 L687.6438,478.8699 L687.7879,479.131 L681.4995,482.6061 L675.1181,485.9127 L668.8728,489.4659 L662.6339,493.0306 L656.1929,496.2292 L656.0351,495.9502 L649.9682,500.0952 L643.3818,503.3216 L637.1903,507.2464 L630.5922,510.4519 L624.3273,514.2469 L624.312,514.2206 L618.1695,518.2117 L611.6691,521.588 L605.3799,525.3271 L599.1084,529.0967 L592.709,532.6465 L592.8038,532.8053 L589.6062,534.4963 L586.5706,536.4587 L583.2729,537.9819 L580.3662,540.1602 L577.1995,541.903 L577.3261,542.1111 L574.2623,543.9214 L571.2613,545.835 L567.9682,547.2685 L564.8892,549.0539 L562,551.1512 L561.8536,550.917 L557.5522,553.8998 L553.0859,556.6188 L548.8587,559.7205 L544.2232,562.1687 L539.8304,565.0054 L539.7479,564.8772 L535.4702,567.9309 L530.8398,570.4365 L526.4602,573.3319 L522.3259,576.6086 L517.7548,579.2062 L517.8614,579.3679 L513.5773,582.3517 L508.9618,584.8326 L504.7615,587.9434 L500.4707,590.9169 L495.9691,593.5707 L495.8518,593.3966 L491.6854,596.4045 L487.4806,599.3553 L483.3512,602.4182 L478.9284,605.0455 L474.6695,607.9161 L474.7858,608.0856 L470.4068,610.5418 L466.2522,613.3252 L462.4256,616.5867 L457.9952,618.968 L454.0519,622.0594 L454.1813,622.245 L450.1565,624.8864 L446.088,627.4651 L442.1183,630.1855 L438.3769,633.2334 L434.3124,635.8178 L434.2353,635.7094 L427.2526,641.1584 L419.7457,645.8699 L412.8348,651.4199 L405.5884,656.4978 L398.2515,661.4485 " fill="none" style="stroke:#8B0000;stroke-width:4.0;"/><polygon fill="#8B0000" points="393.38,664.9512,393.3943,665.0198,395.2803,664.4147,397.2501,664.2117,399.1925,663.8778,401.0454,663.1133,403.0223,662.9449,403.0182,662.9193,401.8829,662.6221,400.7686,662.4537,399.669,662.3749,398.519,661.9874,397.4396,662.0323,397.6217,662.0621,397.4148,660.8819,397.7396,659.7886,398.1292,658.7059,398.1414,657.5615,398.3522,656.4495,398.3718,656.461,397.3485,658.1445,396.4147,659.8802,395.4377,661.5908,394.543,663.3494,393.38,664.9512" style="stroke:#8B0000;stroke-width:4.0;"/></g><!--link para to ldacp--><g id="link_para_ldacp"><path d="M517.45,421.5212 L517.6871,421.6705 L511.6247,429.7315 L506.9522,438.6681 L501.8271,447.3195 L495.2135,455.0332 L490.5727,463.9898 L484.8213,472.2466 L479.5119,480.782 L474.5098,489.5109 L468.4488,497.5727 L464.4954,506.9623 L457.8018,514.6256 L452.9319,523.4378 L448.2843,532.3901 L442.3424,540.5269 L437.1582,549.1412 L431.6872,557.5747 L426.5668,566.2291 L421.2772,574.7769 L416.3103,583.528 L411.0486,592.0934 L405.7,600.604 L399.863,608.807 L394.7408,617.4603 L389.6521,626.1346 L382.6884,633.6278 L378.9095,643.1273 L372.4517,650.9391 L367.4283,659.6546 " fill="none" style="stroke:#8B0000;stroke-width:4.0;"/><polygon fill="#8B0000" points="364.23,664.7312,364.269,664.7894,365.7895,663.5199,367.5386,662.5916,369.2132,661.5523,370.643,660.1475,372.4117,659.2485,372.406,659.2233,371.277,659.3603,370.1768,659.6247,369.0968,659.9777,367.9475,660.0255,366.8952,660.5007,367.0752,660.5416,366.4399,659.3509,366.3301,658.2795,366.2843,657.2227,365.8656,656.0812,365.643,654.9842,365.6655,654.9875,365.3499,656.9321,365.1367,658.8915,364.8741,660.8438,364.7058,662.8098,364.23,664.7312" style="stroke:#8B0000;stroke-width:4.0;"/></g><!--link oni to ldacp--><g id="link_oni_ldacp"><path d="M339,421.5212 L339.2802,421.5212 L338.4476,431.4049 L339.2577,441.2887 L339.5329,451.1724 L338.0488,461.0562 L338.8964,470.9399 L338.4313,480.8237 L338.4887,490.7074 L338.9091,500.5912 L338.0782,510.4749 L339.7382,520.3587 L338.1596,530.2424 L338.7363,540.1262 L339.5759,550.0099 L338.8856,559.8937 L339.091,569.7774 L338.9574,579.6612 L339.238,589.5449 L339.3188,599.4287 L339.7809,609.3124 L339.8947,619.1962 L339.9057,629.0799 L339.3395,638.9637 L339.6181,648.8474 L339,658.7312 " fill="none" style="stroke:#8B0000;stroke-width:4.0;"/><polygon fill="#8B0000" points="339,664.7312,339.064,664.7596,339.6738,662.8751,340.6589,661.1573,341.5217,659.3853,341.9827,657.4346,343,655.7312,342.9817,655.7128,342.0995,656.4306,341.3096,657.2408,340.5839,658.1151,339.637,658.7682,339,659.7312,339.1305,659.8617,338.0514,658.7826,337.3534,658.0845,336.7018,657.433,335.7798,656.5109,335,655.7312,335.0208,655.7404,335.7903,657.5268,336.6544,659.3553,337.4728,661.1635,338.3784,663.0105,339,664.7312" style="stroke:#8B0000;stroke-width:4.0;"/></g><!--link oni to rocrate--><g id="link_oni_rocrate"><path d="M306.68,401.4112 L306.6969,401.503 L304.059,401.7066 L301.5203,402.4487 L298.9493,403.0154 L296.2721,403.0054 L293.7419,403.7937 L293.7348,403.7599 L290.8293,404.2069 L287.9593,404.8244 L285.1139,405.5604 L282.1835,405.888 L279.3722,406.7876 L279.4288,407.027 L276.2102,407.2464 L273.1567,408.165 L270.1233,409.1688 L266.9727,409.6763 L263.8838,410.4449 L263.8917,410.4742 L260.6212,411.3058 L257.3865,412.2708 L254.1346,413.1714 L250.9156,414.1948 L247.5892,414.818 L247.6766,415.1032 L244.32,416.1349 L240.9072,416.9827 L237.5768,418.0997 L234.2502,419.2294 L230.8012,419.9592 L230.695,419.6568 L227.5074,421.436 L223.9701,422.2195 L220.6986,423.7599 L217.1533,424.5208 L213.8325,425.9207 L213.8211,425.8925 L210.5891,427.5929 L207.0897,428.6342 L203.7481,430.0645 L200.4197,431.5274 L196.9958,432.7548 L197.0749,432.922 L193.7166,434.305 L190.4936,435.9737 L187.0517,437.1801 L183.9362,439.0761 L180.6038,440.5137 L180.7226,440.7264 L177.5732,442.4333 L174.4828,444.2459 L171.1182,445.5678 L167.9546,447.2494 L164.9691,449.2497 L164.8153,449.0203 L162.0416,451.181 L159.0946,453.0833 L156.399,455.3605 L153.2742,456.9975 L150.4045,459.0151 L150.3076,458.8973 L147.8326,461.2628 L144.9435,463.125 L142.3488,465.3451 L140.0423,467.9154 L137.2227,469.8621 L137.3625,469.9961 L135.1611,472.4842 L132.525,474.5555 L130.4333,477.1488 L128.2231,479.6284 L125.7364,481.843 L125.566,481.7204 L123.8062,484.4516 L121.9906,487.1426 L120.2846,489.9125 L118.1524,492.3756 L116.2583,495.0101 L116.4424,495.1016 L114.6064,497.7817 L113.1258,500.6384 L112.1644,503.7531 L110.2471,506.3928 L109.101,509.4157 L109.3184,509.4783 L108.2845,512.5804 L107.1772,515.6612 L106.2358,518.7899 L105.678,522.0292 L104.5774,525.1119 L104.4449,525.0997 L104.5238,528.544 L103.7018,531.905 L103.9042,535.3608 L103.5298,538.7632 L103,542.1512 L103.3266,542.1512 L103.063,551.9756 L103.9688,561.8 L103.8181,571.6245 L103.2257,581.4489 L103.3576,591.2734 L102.8263,601.0978 L103.9553,610.9223 L103.2065,620.7467 L103.2301,630.5712 L102.1889,640.3956 L102.4597,650.22 L103.7077,660.0445 L103.573,669.8689 L102.9428,679.6934 L102.5704,689.5178 L102.7081,699.3423 L102.0851,709.1667 L103.553,718.9912 L103.9861,728.8156 L103.7019,738.64 L103.9266,748.4645 L102.8177,758.2889 L103.1163,768.1134 L102.4832,777.9378 L103.3787,787.7623 L103.329,797.5867 L103,807.4112 L103.2451,807.4251 L103.0209,809.5636 L103.1861,811.7242 L103.5653,813.8971 L103.7431,816.0584 L103.6142,818.2023 L103.3898,818.1633 L103.8868,820.2434 L104.3946,822.3254 L104.4192,824.3234 L105.1989,826.4527 L105.4017,828.4816 L105.5117,828.514 L105.9343,830.4249 L106.6135,832.4114 L107.4391,834.4409 L107.5706,836.2662 L108.2796,838.2614 L108.4088,838.3154 L109.1738,840.1688 L109.8813,841.9982 L110.6687,843.861 L111.4346,845.7148 L112.1651,847.5539 L111.9216,847.421 L112.9708,849.2321 L113.9092,850.9827 L115.0762,852.8581 L116.0478,854.6268 L116.9755,856.3715 L117.035,856.4118 L117.9988,857.9701 L119.2116,859.6968 L120.3226,861.3547 L121.7097,863.1993 L122.6278,864.7266 L122.7751,864.8461 L123.7425,866.1717 L125.1672,867.8682 L126.2755,869.308 L127.8566,871.1313 L129.0393,872.6316 L129.2355,872.8177 L130.6324,874.2916 L131.7341,875.4851 L133.4416,877.2538 L134.4702,878.3779 L136.1272,880.0986 L136.1873,880.1642 L137.5736,881.4089 L139.2288,882.9469 L140.8082,884.4023 L142.4141,885.8865 L143.8086,887.1402 L143.6074,886.8915 L145.58,888.6302 L147.1353,889.8531 L148.8233,891.24 L150.5714,892.7013 L152.0008,893.7686 L152.0022,893.7706 L153.7705,895.0772 L155.5044,896.3365 L157.2242,897.5762 L158.8967,898.7504 L160.6209,899.9962 L160.7933,900.2608 L162.2661,900.9369 L164.3441,902.5423 L165.8487,903.2672 L167.662,904.4662 L169.5861,905.8352 L169.5952,905.8506 L171.4381,906.9387 L173.1656,907.8319 L175.2163,909.2712 L176.9928,910.2472 L178.8137,911.2982 L178.9676,911.5821 L180.8364,912.5787 L182.4815,913.1627 L184.3736,914.2022 L186.3119,915.327 L188.2207,916.3973 L188.2913,916.5387 L190.2015,917.5071 L192.082,918.4162 L193.855,919.11 L195.95,920.4485 L197.7244,921.145 L197.8428,921.4006 L199.619,922.0077 L201.4867,922.812 L203.3599,923.6283 L205.2983,924.5853 L207.2419,925.5536 " fill="none" style="stroke:#8B0000;stroke-width:4.0;"/><polygon fill="#8B0000" points="212.72,928.0012,212.7721,928.048,211.3002,926.4441,210.1337,925.1149,208.8678,923.6962,207.2748,921.9834,206.1346,920.6778,206.1104,920.6685,206.4059,921.6837,206.8233,922.7456,207.3256,923.8399,207.5356,924.8225,208.1549,925.9615,208.2208,926.1339,207.0231,926.1694,206.0179,926.7081,205.0361,927.3082,203.9177,927.5511,202.8712,927.9819,202.8712,928.0046,204.8409,927.9751,206.8108,928.0491,208.7806,928.0732,210.7506,928.1925,212.72,928.0012" style="stroke:#8B0000;stroke-width:4.0;"/></g><!--link om to oni--><g id="link_om_oni"><path d="M98.28,183.9812 L98.4646,184.192 L105.3412,190.0694 L113.3003,197.1827 L120.9068,203.8935 L127.3542,209.2809 L135.3379,216.4223 L142.4567,222.5763 L149.9197,229.1233 L157.6219,235.9434 L164.4997,241.8221 L173.0186,249.5746 L179.4038,254.891 L187.209,261.8286 L195.1874,268.964 L202.1578,274.9486 L209.7183,281.6069 L217.0555,288.0102 L224.6657,294.7251 L232.1442,301.2898 L239.8738,308.1412 L247.3741,314.7306 L254.8065,321.2426 L261.8587,327.3206 L269.4675,334.034 L277.1023,340.7771 L283.2771,345.8533 L291.932,353.761 L298.5006,359.2869 L306.1863,366.0881 " fill="none" style="stroke:#8B0000;stroke-width:4.0;"/><polygon fill="#8B0000" points="310.7,370.0412,310.7636,370.0706,309.7476,368.1954,309.1044,366.4927,308.3398,364.7339,307.1761,362.7903,306.5649,361.1024,306.539,361.1007,306.4978,362.2219,306.5868,363.3518,306.7664,364.4876,306.6339,365.6028,306.9386,366.7469,306.9508,366.9311,305.7958,366.6121,304.6765,366.8307,303.5614,367.1148,302.4211,367.0174,301.2941,367.1207,301.3009,367.1424,303.1721,367.6946,305.0741,368.3457,306.9613,368.9491,308.8767,369.6435,310.7,370.0412" style="stroke:#8B0000;stroke-width:4.0;"/></g><!--link uts to oni--><g id="link_uts_oni"><path d="M404.33,183.9812 L404.5977,184.0641 L400.8616,193.3087 L398.6947,203.0394 L396.0168,212.6119 L391.6585,221.6636 L389.5274,231.4055 L386.1424,240.7588 L383.2565,250.2668 L380.7174,259.8822 L376.9829,269.1273 L375.6278,279.1096 L371.1793,288.1334 L368.7894,297.7951 L366.6507,307.5346 L363.0506,316.8213 L360.306,326.373 L357.2377,335.8245 L354.565,345.3985 L351.7015,354.9135 L348.4562,364.3101 " fill="none" style="stroke:#8B0000;stroke-width:4.0;"/><polygon fill="#8B0000" points="346.68,370.0412,346.7327,370.0873,347.8731,368.4677,349.3225,367.1186,350.6712,365.6814,351.689,363.9546,353.165,362.6287,353.1529,362.6057,352.0977,363.0302,351.1035,363.5702,350.1515,364.1905,349.0537,364.534,348.1601,365.2653,348.3234,365.3513,347.4469,364.1664,347.0472,363.2326,346.7056,362.3295,346.0256,361.2481,345.5235,360.2604,345.5461,360.2631,345.7442,362.2153,346.0452,364.1797,346.2966,366.1382,346.6426,368.1079,346.68,370.0412" style="stroke:#8B0000;stroke-width:4.0;"/></g><!--link ldaca to oni--><g id="link_ldaca_oni"><path d="M219.09,183.9812 L219.3336,184.1197 L223.5071,192.3197 L229.1087,201.3318 L234.2453,210.0795 L237.8526,217.9575 L243.4867,226.9881 L247.9798,235.3698 L252.927,244.0098 L258.1898,252.8293 L262.3648,261.0301 L268.7052,270.4624 L272.2303,278.2936 L277.629,287.1903 L283.2562,296.217 L287.5535,304.4874 L292.6293,313.2005 L297.4106,321.7461 L302.5519,330.4965 L307.5195,339.1481 L312.8185,347.9881 L317.8148,356.656 L321.9343,364.8253 " fill="none" style="stroke:#8B0000;stroke-width:4.0;"/><polygon fill="#8B0000" points="324.9,370.0412,324.9697,370.0481,324.5683,368.0674,324.5756,366.1272,324.4498,364.1738,323.8863,362.177,323.9287,360.2403,323.9038,360.2334,323.4916,361.2935,323.2054,362.3881,323.0068,363.5069,322.5064,364.5427,322.4286,365.6946,322.4776,365.8726,321.282,365.192,320.2294,365.031,319.1942,364.9334,318.0576,364.467,316.9743,364.1945,316.9878,364.2128,318.5531,365.3553,320.1799,366.5811,321.777,367.7667,323.4308,369.0289,324.9,370.0412" style="stroke:#8B0000;stroke-width:4.0;"/></g><!--link ldacp to rocrate--><g id="link_ldacp_rocrate"><path d="M330.04,746.8412 L330.3135,746.9023 L327.3225,756.462 L325.9348,766.3801 L324.025,776.1816 L320.3984,785.5991 L319.0472,795.5254 L316.415,805.1653 L314.2926,814.9192 L312.5246,824.7523 L309.5353,834.3124 L308.977,844.416 L305.2581,853.8129 L303.6426,863.6801 L302.2836,873.6047 L299.4316,883.1954 L297.4537,892.9816 L295.145,902.6938 L293.2405,912.4965 L290.8299,922.1859 " fill="none" style="stroke:#8B0000;stroke-width:4.0;"/><polygon fill="#8B0000" points="289.52,928.0412,289.5763,928.0829,290.5828,926.3769,291.9191,924.9157,293.148,923.3748,294.0237,921.5718,295.3884,920.1315,295.3745,920.1096,294.3568,920.6175,293.4092,921.2357,292.5101,921.9305,291.4435,922.3611,290.6116,923.1618,290.7674,923.2606,289.8281,922.0939,289.3438,921.2157,288.915,920.3728,288.1632,919.325,287.5813,918.385,287.6036,918.3895,287.9586,920.3141,288.4151,922.2592,288.8227,924.1944,289.3237,926.1484,289.52,928.0412" style="stroke:#8B0000;stroke-width:4.0;"/></g><!--link parai to para--><g id="link_parai_para"><path d="M639.49,183.9812 L639.7401,184.1075 L634.4336,192.7673 L630.5935,202.1678 L626.2759,211.327 L620.3879,219.6932 L616.5811,229.1105 L611.6028,237.936 L607.0907,246.9971 L602.9027,256.2218 L597.5977,264.8824 L594.5162,274.666 L588.5439,282.9896 L584.4954,292.2848 L580.6815,301.6985 L575.5021,310.4225 L571.1221,319.5503 L566.4396,328.5253 L562.1268,337.687 L557.6357,346.7586 L553.4849,356.0021 L548.2246,364.6853 " fill="none" style="stroke:#8B0000;stroke-width:4.0;"/><polygon fill="#8B0000" points="545.52,370.0412,545.5643,370.0954,546.9581,368.6881,548.6117,367.5987,550.1807,366.4059,551.4715,364.8724,553.1474,363.8104,553.1393,363.7858,552.0283,364.0289,550.958,364.396,549.9161,364.8493,548.7765,365.0055,547.7738,365.5779,547.9491,365.6356,547.2207,364.4376,547.0042,363.4079,546.85,362.3988,546.3326,361.2701,546.0063,360.2043,546.029,360.2054,545.8984,362.1712,545.8712,364.142,545.7941,366.1104,545.8122,368.0834,545.52,370.0412" style="stroke:#8B0000;stroke-width:4.0;"/></g><!--link nyi to ny--><g id="link_nyi_ny"><path d="M845,183.9812 L845.2802,183.9812 L844.4476,193.9845 L845.2577,203.9878 L845.5329,213.9912 L844.0488,223.9945 L844.8964,233.9978 L844.4313,244.0012 L844.4887,254.0045 L844.9091,264.0078 L844.0782,274.0112 L845.7382,284.0145 L844.1596,294.0178 L844.7363,304.0212 L845.5759,314.0245 L844.8856,324.0278 L845.091,334.0312 L844.9574,344.0345 L845.238,354.0378 L845,364.0412 " fill="none" style="stroke:#8B0000;stroke-width:4.0;"/><polygon fill="#8B0000" points="845,370.0412,845.064,370.0696,845.6738,368.1851,846.6589,366.4673,847.5217,364.6953,847.9827,362.7446,849,361.0412,848.9817,361.0228,848.0995,361.7406,847.3096,362.5508,846.5839,363.4251,845.637,364.0782,845,365.0412,845.1305,365.1717,844.0514,364.0926,843.3534,363.3945,842.7018,362.743,841.7798,361.8209,841,361.0412,841.0208,361.0504,841.7903,362.8368,842.6544,364.6653,843.4728,366.4735,844.3784,368.3205,845,370.0412" style="stroke:#8B0000;stroke-width:4.0;"/></g><!--SRC=[VP9HIyCm4CVVyodEFVZMJOPFFWYbKnXqEbR55q6EDXjXQLBI6rh4x-ubTJEjmvRIyBl_NUx-oOKofJvKygr6qy5qLY5XmclSoLeQIbhgj9pI1mbIfEKDh9TvkYbWMJSwA92KDIqaKAiAvbVpQ-5aIMXsMi9af9h0PnnTfvjqiIpkiWbW2mqwL77ueLDcXyw4gEa6iUUd0XRSAZJM4UeWEL0RInvNQHguhMESBp3hkQwmHF4bn22haGOAUt2bX2ThzLvH2pCcMtf79_q44CkDwlSmQi1Feq5cAtcQRw0vpWSlrktR1alvCwdmJKN2ef5b2vTGCAZGLMCVLvBGdzi8v_m_y3dsHcMshla8NitcCSaSaeIrirkbvScBXjE5tpkgSHG7aRDbIFmC3Owb1Ld7kmM7-8bDokvpZmF_6aSV_Wzpbn-TQgdtqFtg_EjN8FZY9abbtqsIt48e1yAx7L5E5FnDRy671HzN50neMANtOrpbXmwppyAZLMoIhIFkLO8lwXY5ktWEDd-BXgxYpKANt7_CU1hn3G00]--></g></svg>