<?xml version="1.0" encoding="us-ascii" standalone="no"?><svg xmlns="http://www.w3.org/2000/svg" xmlns:xlink="http://www.w3.org/1999/xlink" contentStyleType="text/css" height="1025px" preserveAspectRatio="none" style="width:1017px;height:1025px;background:#FFFFFF;" version="1.1" viewBox="0 0 1017 1025" width="1017px" zoomAndPan="magnify"><defs/><g><text fill="#000000" font-family="Chalkduster" font-size="42" font-weight="bold" lengthAdjust="spacing" textLength="890" x="56.5" y="51.7215">PILARS Implementations - mid 2024</text><!--cluster Implementations--><g id="cluster_Implementations"><polygon fill="none" points="9.5,83.8912,9.5,84.1013,19.5,83.4768,29.5,84.0844,39.5,84.2908,49.5,83.1778,59.5,83.8134,69.5,83.4647,79.5,83.5077,89.5,83.823,99.5,83.1998,109.5,84.4448,119.5,83.2609,129.5,83.6934,139.5,84.3231,149.5,83.8054,159.5,83.9594,169.5,83.8592,179.5,84.0697,189.5,84.1303,199.5,84.4769,209.5,84.5622,219.5,84.5704,229.5,84.1458,239.5,84.3547,249.5,84.5934,259.5,83.17,269.5,84.5697,279.5,83.5947,289.5,84.425,299.5,83.3961,309.5,83.8227,319.5,84.6328,329.5,83.8424,339.5,83.9965,349.5,84.2298,359.5,84.3074,369.5,83.8873,379.5,84.1784,389.5,83.3187,399.5,84.1755,409.5,84.4394,419.5,84.3357,429.5,84.5042,439.5,83.4081,449.5,83.239,459.5,83.2698,469.5,83.8323,479.5,83.6946,489.5,84.5726,499.5,83.7165,509.5,83.5481,519.5,84.1194,529.5,83.2243,539.5,83.372,549.5,84.5401,559.5,84.3268,569.5,84.6257,579.5,83.5694,589.5,84.2104,599.5,84.4816,609.5,83.4188,619.5,83.7953,629.5,84.0171,639.5,84.5429,649.5,83.887,659.5,84.3537,669.5,83.3374,679.5,83.2139,689.5,84.3948,699.5,83.1742,709.5,84.4001,719.5,84.0978,729.5,83.6232,739.5,83.5374,749.5,84.3499,759.5,83.5918,769.5,84.483,779.5,83.3384,789.5,84.5086,799.5,84.3755,809.5,84.1361,819.5,83.9384,829.5,84.6178,839.5,84.5047,849.5,84.0604,859.5,84.1593,869.5,83.7609,879.5,84.6076,889.5,84.046,899.5,84.0637,909.5,83.2828,919.5,83.4859,929.5,83.8912,929.5677,84.0546,929.9084,84.17,930.2016,84.1708,930.5196,84.2313,930.8863,84.4095,931.2678,84.6234,931.0565,84.5359,931.5419,85.0299,931.7884,85.4248,931.8692,85.7512,932.0676,86.1263,932,86.3912,931.8633,86.3912,932.0872,96.4484,931.6124,106.5057,932.284,116.563,932.2468,126.6203,932.5524,136.6775,931.7703,146.7348,931.8656,156.7921,932.4435,166.8493,932.5673,176.9066,931.4875,186.9639,932,197.0212,931.9403,196.9964,931.8995,197.3938,931.519,197.6503,931.6695,198.1269,931.4937,198.4683,931.2678,198.7889,931.2549,198.7579,930.9324,198.9792,930.6536,199.3062,930.1672,199.1319,929.8937,199.4717,929.5,199.5212,929.5,199.8068,919.5,199.6369,909.5,199.6621,899.5,199.6346,889.5,198.897,879.5,199.1203,869.5,199.0596,859.5,199.585,849.5,199.6093,839.5,199.6829,829.5,199.2302,819.5,199.4536,809.5,199.4009,799.5,200.098,789.5,199.9477,779.5,199.0356,769.5,199.4482,759.5,198.9439,749.5,199.8095,739.5,200.1296,729.5,200.0657,719.5,199.0856,709.5,199.9851,699.5,198.7784,689.5,199.7213,679.5,199.2218,669.5,199.6179,659.5,199.7615,649.5,199.9933,639.5,198.8012,629.5,199.9966,619.5,199.6993,609.5,199.8765,599.5,200.269,589.5,199.5266,579.5,199.6964,569.5,199.7346,559.5,199.7184,549.5,199.5203,539.5,200.2319,529.5,198.9114,519.5,200.0864,509.5,198.8972,499.5,198.9808,489.5,199.5612,479.5,199.5494,469.5,199.0283,459.5,199.9349,449.5,199.63,439.5,200.2478,429.5,200.1883,419.5,199.0729,409.5,199.1232,399.5,199.392,389.5,199.8767,379.5,199.9241,369.5,199.8223,359.5,199.1792,349.5,200.1575,339.5,200.1549,329.5,199.4739,319.5,199.2821,309.5,199.1198,299.5,199.3066,289.5,199.6586,279.5,199.4528,269.5,199.1034,259.5,200.0085,249.5,199.0622,239.5,200.0235,229.5,199.9484,219.5,199.893,209.5,200.2137,199.5,199.2753,189.5,199.2205,179.5,200.04,169.5,198.9243,159.5,199.2872,149.5,199.6367,139.5,199.5898,129.5,199.1627,119.5,199.4782,109.5,200.2658,99.5,200.1696,89.5,198.9249,79.5,199.5997,69.5,199.0073,59.5,199.4948,49.5,199.8142,39.5,199.941,29.5,198.8564,19.5,199.9217,9.5,199.5212,9.5011,199.5237,9.0756,199.2037,8.7328,199.0832,8.481,199.1824,8.1177,199.0123,7.7322,198.7889,7.7272,198.7868,7.3788,198.3496,7.642,198.1658,7.1969,197.6885,6.9838,197.3074,7,197.0212,6.9327,197.0212,7.5897,186.9639,7.6154,176.9066,7.0351,166.8493,6.8488,156.7921,7.1698,146.7348,7.1862,136.6775,6.4922,126.6203,7.414,116.563,7.5588,106.5057,6.7842,96.4484,7,86.3912,6.8678,86.3364,7.3542,86.1237,7.2994,85.6867,7.4393,85.3305,7.6779,85.0151,7.7322,84.6234,7.6499,84.4245,8.1534,84.6402,8.4374,84.3257,8.8782,84.39,9.1189,83.9711,9.5,83.8912" style="stroke:#181818;stroke-width:4.0;"/><text fill="#000000" font-family="Chalkduster" font-size="24" font-weight="bold" lengthAdjust="spacing" textLength="231" x="354" y="109.732">Implementations</text></g><!--cluster Open Source Toolkits / Software--><g id="cluster_Open Source Toolkits / Software"><polygon fill="none" points="293.5,321.5212,293.5,321.7313,303.4306,321.1068,313.3611,321.7144,323.2917,321.9208,333.2222,320.8078,343.1528,321.4434,353.0833,321.0947,363.0139,321.1377,372.9444,321.453,382.875,320.8298,392.8056,322.0748,402.7361,320.8909,412.6667,321.3234,422.5972,321.9531,432.5278,321.4354,442.4583,321.5894,452.3889,321.4892,462.3194,321.6997,472.25,321.7603,482.1806,322.1069,492.1111,322.1922,502.0417,322.2004,511.9722,321.7758,521.9028,321.9847,531.8333,322.2234,541.7639,320.8,551.6944,322.1997,561.625,321.2247,571.5556,322.055,581.4861,321.0261,591.4167,321.4527,601.3472,322.2628,611.2778,321.4724,621.2083,321.6265,631.1389,321.8598,641.0694,321.9374,651,321.5173,660.9306,321.8084,670.8611,320.9487,680.7917,321.8055,690.7222,322.0694,700.6528,321.9657,710.5833,322.1342,720.5139,321.0381,730.4444,320.869,740.375,320.8998,750.3056,321.4623,760.2361,321.3246,770.1667,322.2026,780.0972,321.3465,790.0278,321.1781,799.9583,321.7494,809.8889,320.8543,819.8194,321.002,829.75,322.1701,839.6806,321.9568,849.6111,322.2557,859.5417,321.1994,869.4722,321.8404,879.4028,322.1116,889.3333,321.0488,899.2639,321.4253,909.1944,321.6471,919.125,322.1729,929.0556,321.517,938.9861,321.9837,948.9167,320.9674,958.8472,320.8439,968.7778,322.0248,978.7083,320.8042,988.6389,322.0301,998.5694,321.7278,1008.5,321.5212,1008.4658,321.4387,1008.8084,321.5587,1009.2656,321.9553,1009.5225,321.8683,1009.9897,322.2892,1010.2678,322.2534,1010.0975,322.1829,1010.6044,322.6857,1010.7098,323.0223,1010.7825,323.3453,1010.8681,323.6736,1011,324.0212,1011.7266,324.0212,1011.6136,334.0784,1011.1693,344.1357,1011.2682,354.193,1010.8697,364.2503,1011.7165,374.3075,1011.1549,384.3648,1011.1726,394.4221,1010.3916,404.4793,1010.5948,414.5366,1011.5307,424.5939,1011,434.6512,1011.1323,434.706,1010.8403,434.9992,1010.6079,435.3172,1010.4932,435.6839,1010.2029,435.9778,1010.2678,436.4189,1010.3207,436.5467,1010.0086,436.7931,1009.6278,436.8739,1009.2958,437.0723,1008.8361,436.9626,1008.5,437.1512,1008.5,437.2384,998.5694,436.7636,988.6389,437.4352,978.7083,437.3979,968.7778,437.7035,958.8472,436.9215,948.9167,437.0168,938.9861,437.5946,929.0556,437.7185,919.125,436.6386,909.1944,436.9573,899.2639,437.3004,889.3333,436.5403,879.4028,437.5046,869.4722,437.4092,859.5417,437.0504,849.6111,437.2934,839.6806,437.8798,829.75,436.8383,819.8194,437.4661,809.8889,437.4368,799.9583,437.2669,790.0278,437.2921,780.0972,437.2646,770.1667,436.527,760.2361,436.7503,750.3056,436.6896,740.375,437.215,730.4444,437.2393,720.5139,437.3129,710.5833,436.8602,700.6528,437.0836,690.7222,437.0309,680.7917,437.728,670.8611,437.5777,660.9306,436.6656,651,437.0782,641.0694,436.5739,631.1389,437.4395,621.2083,437.7596,611.2778,437.6957,601.3472,436.7156,591.4167,437.6151,581.4861,436.4084,571.5556,437.3513,561.625,436.8518,551.6944,437.2479,541.7639,437.3915,531.8333,437.6233,521.9028,436.4312,511.9722,437.6266,502.0417,437.3293,492.1111,437.5065,482.1806,437.899,472.25,437.1566,462.3194,437.3264,452.3889,437.3646,442.4583,437.3484,432.5278,437.1503,422.5972,437.8619,412.6667,436.5414,402.7361,437.7164,392.8056,436.5272,382.875,436.6108,372.9444,437.1912,363.0139,437.1794,353.0833,436.6583,343.1528,437.5649,333.2222,437.26,323.2917,437.8778,313.3611,437.8183,303.4306,436.7029,293.5,437.1512,293.4492,437.0286,293.13,436.9649,292.8382,436.9678,292.4907,436.8359,292.1242,436.6581,291.7322,436.4189,291.6269,436.3753,291.7818,436.1465,291.6345,435.7927,291.2783,435.3522,291.0728,434.9742,291,434.6512,290.5986,434.6512,290.7854,424.5939,291.1374,414.5366,290.9316,404.4793,290.5822,394.4221,291.4874,384.3648,290.5411,374.3075,291.5024,364.2503,291.4272,354.193,291.3719,344.1357,291.6925,334.0784,291,324.0212,290.9243,323.9898,291.0539,323.6293,291.4527,323.3802,291.2555,322.8844,291.5137,322.5771,291.7322,322.2534,291.747,322.289,292.0945,322.1281,292.3936,321.8501,292.7874,321.8008,293.2414,321.8969,293.5,321.5212" style="stroke:#181818;stroke-width:4.0;"/><text fill="#000000" font-family="Chalkduster" font-size="24" font-weight="bold" lengthAdjust="spacing" textLength="449" x="426.5" y="347.362">Open Source Toolkits / Software</text></g><!--cluster Specs & Standards--><g id="cluster_Specs &amp; Standards"><polygon fill="none" points="120.5,559.1512,120.5,559.3613,130.4663,558.7368,140.4326,559.3444,150.3989,559.5508,160.3652,558.4378,170.3315,559.0734,180.2978,558.7247,190.264,558.7677,200.2303,559.083,210.1966,558.4598,220.1629,559.7048,230.1292,558.5209,240.0955,558.9534,250.0618,559.5831,260.0281,559.0654,269.9944,559.2194,279.9607,559.1192,289.927,559.3297,299.8933,559.3903,309.8596,559.7369,319.8258,559.8222,329.7921,559.8304,339.7584,559.4058,349.7247,559.6147,359.691,559.8534,369.6573,558.43,379.6236,559.8297,389.5899,558.8547,399.5562,559.685,409.5225,558.6561,419.4888,559.0827,429.4551,559.8928,439.4213,559.1024,449.3876,559.2565,459.3539,559.4898,469.3202,559.5674,479.2865,559.1473,489.2528,559.4384,499.2191,558.5787,509.1854,559.4355,519.1517,559.6994,529.118,559.5957,539.0843,559.7642,549.0506,558.6681,559.0169,558.499,568.9831,558.5298,578.9494,559.0923,588.9157,558.9546,598.882,559.8326,608.8483,558.9765,618.8146,558.8081,628.7809,559.3794,638.7472,558.4843,648.7135,558.632,658.6798,559.8001,668.6461,559.5868,678.6124,559.8857,688.5787,558.8294,698.5449,559.4704,708.5112,559.7416,718.4775,558.6788,728.4438,559.0553,738.4101,559.2771,748.3764,559.8029,758.3427,559.147,768.309,559.6137,778.2753,558.5974,788.2416,558.4739,798.2079,559.6548,808.1742,558.4342,818.1404,559.6601,828.1067,559.3578,838.073,558.8832,848.0393,558.7974,858.0056,559.6099,867.9719,558.8518,877.9382,559.743,887.9045,558.5984,897.8708,559.7686,907.8371,559.6355,917.8034,559.3961,927.7697,559.1984,937.736,559.8778,947.7022,559.7647,957.6685,559.3204,967.6348,559.4193,977.6011,559.0209,987.5674,559.8676,997.5337,559.306,1007.5,559.1512,1007.522,559.2043,1007.776,559.1103,1008.1554,559.3193,1008.6284,559.7539,1008.969,559.8693,1009.2678,559.8834,1009.2545,559.8779,1009.315,560.1959,1009.4932,560.5626,1009.4958,560.8565,1009.9813,561.3505,1010,561.6512,1010.7396,561.6512,1010.5264,571.7598,1010.6949,581.8685,1009.8633,591.9772,1010.0872,602.0858,1009.6124,612.1945,1010.284,622.3032,1010.2468,632.4118,1010.5524,642.5205,1009.7703,652.6292,1009.8656,662.7378,1010.4435,672.8465,1010.5673,682.9552,1009.4875,693.0638,1009.8061,703.1725,1010.1493,713.2812,1009.3892,723.3898,1010.3534,733.4985,1010.258,743.6072,1009.8992,753.7158,1010.1422,763.8245,1010.7287,773.9332,1009.6871,784.0418,1010.315,794.1505,1010.2856,804.2592,1010.1158,814.3678,1010.1409,824.4765,1010.1135,834.5852,1009.3758,844.6938,1009.5992,854.8025,1009.5385,864.9112,1010.0638,875.0198,1010.0881,885.1285,1010.1617,895.2372,1009.709,905.3458,1009.9325,915.4545,1009.8798,925.5632,1010.5769,935.6718,1010.4266,945.7805,1009.5145,955.8892,1009.9271,965.9978,1009.4228,976.1065,1010.2884,986.2152,1010.6085,996.3238,1010.5446,1006.4325,1010,1016.5412,1009.8659,1016.4856,1009.9964,1016.9539,1009.4784,1017.1535,1009.6223,1017.6274,1009.322,1017.9172,1009.2678,1018.3089,1009.2801,1018.3387,1008.9449,1018.5294,1008.6209,1018.7472,1008.1153,1018.5266,1007.9142,1019.0411,1007.5,1019.0412,1007.5,1019.2193,997.5337,1019.3965,987.5674,1019.789,977.6011,1019.0466,967.6348,1019.2164,957.6685,1019.2546,947.7022,1019.2384,937.736,1019.0403,927.7697,1019.7519,917.8034,1018.4314,907.8371,1019.6064,897.8708,1018.4172,887.9045,1018.5008,877.9382,1019.0812,867.9719,1019.0694,858.0056,1018.5483,848.0393,1019.4549,838.073,1019.15,828.1067,1019.7678,818.1404,1019.7083,808.1742,1018.5929,798.2079,1018.6432,788.2416,1018.912,778.2753,1019.3967,768.309,1019.4441,758.3427,1019.3423,748.3764,1018.6992,738.4101,1019.6775,728.4438,1019.6749,718.4775,1018.9939,708.5112,1018.8021,698.5449,1018.6398,688.5787,1018.8266,678.6124,1019.1786,668.6461,1018.9728,658.6798,1018.6234,648.7135,1019.5285,638.7472,1018.5822,628.7809,1019.5435,618.8146,1019.4684,608.8483,1019.413,598.882,1019.7337,588.9157,1018.7953,578.9494,1018.7405,568.9831,1019.56,559.0169,1018.4443,549.0506,1018.8072,539.0843,1019.1567,529.118,1019.1098,519.1517,1018.6827,509.1854,1018.9982,499.2191,1019.7858,489.2528,1019.6896,479.2865,1018.4449,469.3202,1019.1197,459.3539,1018.5273,449.3876,1019.0148,439.4213,1019.3342,429.4551,1019.461,419.4888,1018.3764,409.5225,1019.4417,399.5562,1019.0496,389.5899,1018.4858,379.6236,1018.5701,369.6573,1019.3678,359.691,1019.291,349.7247,1019.0247,339.7584,1018.3691,329.7921,1019.6993,319.8258,1018.7293,309.8596,1018.5131,299.8933,1018.9738,289.927,1019.6309,279.9607,1019.6566,269.9944,1019.0763,260.0281,1018.89,250.0618,1019.2109,240.0955,1019.2274,230.1292,1018.5334,220.1629,1019.4551,210.1966,1019.6,200.2303,1018.8254,190.264,1018.612,180.2978,1019.7158,170.3315,1019.0622,160.3652,1019.041,150.3989,1019.3402,140.4326,1018.3955,130.4663,1019.5711,120.5,1019.0412,120.498,1019.0364,120.2318,1019.1007,119.7654,1018.6818,119.4915,1018.7278,119.0292,1018.3186,118.7322,1018.3089,118.8077,1018.3402,118.7026,1018.0038,118.3385,1017.5601,118.4047,1017.2946,117.9705,1016.8218,118,1016.5412,117.5295,1016.5412,118.6828,1006.4325,118.6844,996.3238,118.5685,986.2152,117.6396,976.1065,118.3842,965.9978,117.5279,955.8892,118.0582,945.7805,117.9987,935.6718,117.7376,925.5632,118.6159,915.4545,118.4433,905.3458,117.6792,895.2372,118.5266,885.1285,118.0919,875.0198,117.4164,864.9112,117.7667,854.8025,117.4747,844.6938,117.8609,834.5852,117.371,824.4765,117.3998,814.3678,118.0703,804.2592,117.8796,794.1505,117.9414,784.0418,117.8568,773.9332,118.1673,763.8245,117.4449,753.7158,118.1601,743.6072,117.2569,733.4985,118.296,723.3898,118.5928,713.2812,118.5221,703.1725,118.3613,693.0638,118.1922,682.9552,118.1057,672.8465,117.36,662.7378,118.4465,652.6292,118.3296,642.5205,117.8466,632.4118,117.9942,622.3032,117.7914,612.1945,118.2177,602.0858,118.6805,591.9772,117.6461,581.8685,118.4689,571.7598,118,561.6512,117.9725,561.6398,118.0296,561.2492,118.1599,560.889,118.2408,560.5083,118.45,560.1807,118.7322,559.8834,118.7369,559.8946,119.1206,559.821,119.5128,559.7679,119.8465,559.5734,120.0557,559.0785,120.5,559.1512" style="stroke:#181818;stroke-width:4.0;"/><text fill="#000000" font-family="Chalkduster" font-size="24" font-weight="bold" lengthAdjust="spacing" textLength="253" x="437.5" y="584.992">Specs &amp; Standards</text></g><!--cluster Metadata--><g id="cluster_Metadata"><polygon fill="none" points="144.5,616.1512,144.5,616.3613,154.4744,615.7368,164.4487,616.3444,174.4231,616.5508,184.3974,615.4378,194.3718,616.0734,204.3462,615.7247,214.3205,615.7677,224.2949,616.083,234.2692,615.4598,244.2436,616.7048,254.2179,615.5209,264.1923,615.9534,274.1667,616.5831,284.141,616.0654,294.1154,616.2194,304.0897,616.1192,314.0641,616.3297,324.0385,616.3903,334.0128,616.7369,343.9872,616.8222,353.9615,616.8304,363.9359,616.4058,373.9103,616.6147,383.8846,616.8534,393.859,615.43,403.8333,616.8297,413.8077,615.8547,423.7821,616.685,433.7564,615.6561,443.7308,616.0827,453.7051,616.8928,463.6795,616.1024,473.6538,616.2565,483.6282,616.4898,493.6026,616.5674,503.5769,616.1473,513.5513,616.4384,523.5256,615.5787,533.5,616.1512,533.5363,616.2387,533.9235,616.4664,534.2638,616.581,534.6389,616.7793,534.8526,616.5882,535.2678,616.8834,535.0669,616.8002,535.2228,617.1577,535.5425,617.583,535.6466,617.919,536.0634,618.3845,536,618.6512,535.8253,618.6512,535.6569,628.7563,536.2283,638.8614,535.3332,648.9666,535.4809,659.0717,536.649,669.1768,536.4357,679.282,536.7345,689.3871,535.6782,699.4922,536.3192,709.5974,536.5904,719.7025,535.5276,729.8076,535.9041,739.9128,536.126,750.0179,536.6518,760.1231,535.9958,770.2282,536.4626,780.3333,535.4462,790.4385,535.3227,800.5436,536.5036,810.6487,535.2831,820.7539,536.509,830.859,536.2066,840.9641,535.7321,851.0693,535.6462,861.1744,536.4588,871.2795,535.7007,881.3847,536.5919,891.4898,535.4473,901.5949,536.6174,911.7001,536.4843,921.8052,536.245,931.9104,536.0472,942.0155,536.7266,952.1206,536.6136,962.2258,536.1693,972.3309,536.2682,982.436,536,992.5412,535.9599,992.5245,536.0742,992.9861,535.7548,993.268,535.6138,993.6238,535.2269,993.8778,535.2678,994.3089,535.2161,994.1841,534.9819,994.6188,534.6155,994.7342,534.2016,994.735,533.8125,994.7955,533.5,995.0412,533.5,994.8222,523.5256,994.355,513.5513,995.4559,503.5769,995.7807,493.6026,995.5676,483.6282,995.7361,473.6538,994.9044,463.6795,995.1284,453.7051,994.6536,443.7308,995.3252,433.7564,995.2879,423.7821,995.5935,413.8077,994.8115,403.8333,994.9068,393.859,995.4846,383.8846,995.6085,373.9103,994.5286,363.9359,994.8473,353.9615,995.1904,343.9872,994.4303,334.0128,995.3946,324.0385,995.2992,314.0641,994.9404,304.0897,995.1834,294.1154,995.7698,284.141,994.7283,274.1667,995.3561,264.1923,995.3268,254.2179,995.1569,244.2436,995.1821,234.2692,995.1546,224.2949,994.417,214.3205,994.6403,204.3462,994.5796,194.3718,995.105,184.3974,995.1293,174.4231,995.2029,164.4487,994.7502,154.4744,994.9736,144.5,995.0412,144.4847,995.0041,144.22,995.0724,143.8473,994.8796,143.3774,994.4523,143.0765,994.4329,142.7322,994.3089,142.5545,994.2353,142.6746,993.9922,142.6267,993.6794,142.4606,993.3177,142.0123,992.8392,142,992.5412,142.464,992.5412,141.2572,982.436,142.2002,972.3309,141.7007,962.2258,142.0967,952.1206,142.2403,942.0155,142.4721,931.9104,141.2801,921.8052,142.4755,911.7001,142.1782,901.5949,142.3553,891.4898,142.7478,881.3847,142.0055,871.2795,142.1753,861.1744,142.2134,851.0693,142.1972,840.9641,141.9992,830.859,142.7107,820.7539,141.3903,810.6487,142.5653,800.5436,141.376,790.4385,141.4597,780.3333,142.04,770.2282,142.0283,760.1231,141.5072,750.0179,142.4137,739.9128,142.1089,729.8076,142.7267,719.7025,142.6671,709.5974,141.5517,699.4922,141.6021,689.3871,141.8708,679.282,142.3555,669.1768,142.403,659.0717,142.3012,648.9666,141.658,638.8614,142.6364,628.7563,142,618.6512,142.1952,618.732,142.1319,618.2916,142.2193,617.9136,142.3157,617.5393,142.5197,617.2096,142.7322,616.8834,142.7498,616.9257,143.0771,616.7159,143.386,616.4618,143.8551,616.5941,144.0879,616.1563,144.5,616.1512" style="stroke:#181818;stroke-width:4.0;"/><text fill="#000000" font-family="Chalkduster" font-size="24" font-weight="bold" lengthAdjust="spacing" textLength="127" x="275.5" y="641.992">Metadata</text></g><!--cluster Storage--><g id="cluster_Storage"><polygon fill="none" points="562.5,631.4712,562.5,631.6813,572.5238,631.0568,582.5476,631.6644,592.5714,631.8708,602.5952,630.7578,612.619,631.3934,622.6429,631.0447,632.6667,631.0877,642.6905,631.403,652.7143,630.7798,662.7381,632.0248,672.7619,630.8409,682.7857,631.2734,692.8095,631.9031,702.8333,631.3854,712.8571,631.5394,722.881,631.4392,732.9048,631.6497,742.9286,631.7103,752.9524,632.0569,762.9762,632.1422,773,632.1504,783.0238,631.7258,793.0476,631.9347,803.0714,632.1734,813.0952,630.75,823.119,632.1497,833.1429,631.1747,843.1667,632.005,853.1905,630.9761,863.2143,631.4027,873.2381,632.2128,883.2619,631.4224,893.2857,631.5765,903.3095,631.8098,913.3333,631.8874,923.3571,631.4673,933.381,631.7584,943.4048,630.8987,953.4286,631.7555,963.4524,632.0194,973.4762,631.9157,983.5,631.4712,983.5782,631.6599,983.7919,631.4688,984.1239,631.5632,984.4814,631.7191,984.9067,632.0388,985.2678,632.2034,985.2072,632.1783,985.6241,632.6439,985.5069,632.8882,985.6015,633.2203,985.9239,633.6467,986,633.9712,985.3332,633.9712,985.4809,644.0284,986.649,654.0857,986.4357,664.143,986.7345,674.2003,985.6782,684.2575,986.3192,694.3148,986.5904,704.3721,985.5276,714.4293,985.9041,724.4866,986.126,734.5439,986,744.6012,986.2007,744.6843,985.8523,744.9542,985.8496,745.3673,985.3901,745.5912,985.2056,745.929,985.2678,746.3689,985.332,746.524,984.8228,746.2946,984.6256,746.8186,984.2335,746.8719,983.8194,746.8722,983.5,747.1012,983.5,746.7474,973.4762,747.5599,963.4524,746.8018,953.4286,747.693,943.4048,746.5484,933.381,747.7186,923.3571,747.5855,913.3333,747.3461,903.3095,747.1484,893.2857,747.8278,883.2619,747.7147,873.2381,747.2704,863.2143,747.3693,853.1905,746.9709,843.1667,747.8176,833.1429,747.256,823.119,747.2737,813.0952,746.4928,803.0714,746.6959,793.0476,747.6319,783.0238,747.5309,773,747.0582,762.9762,746.779,752.9524,746.8822,742.9286,746.415,732.9048,747.5159,722.881,747.8407,712.8571,747.6276,702.8333,747.7961,692.8095,746.9644,682.7857,747.1884,672.7619,746.7136,662.7381,747.3852,652.7143,747.3479,642.6905,747.6535,632.6667,746.8715,622.6429,746.9668,612.619,747.5446,602.5952,747.6685,592.5714,746.5886,582.5476,746.9073,572.5238,747.2504,562.5,747.1012,562.4221,746.913,562.1915,747.0635,561.8258,746.8877,561.4265,746.6308,561.1039,746.5592,560.7322,746.3689,560.9566,746.4619,560.4894,745.9755,560.5363,745.702,560.3809,745.3447,560.1821,744.9695,560,744.6012,560.1409,744.6012,560.1135,734.5439,559.3758,724.4866,559.5992,714.4293,559.5385,704.3721,560.0638,694.3148,560.0881,684.2575,560.1617,674.2003,559.709,664.143,559.9325,654.0857,559.8798,644.0284,560,633.9712,560.1776,634.0447,560.2778,633.672,560.1434,633.2021,560.4169,632.9012,560.408,632.4833,560.7322,632.2034,560.769,632.2922,561.1634,632.2443,561.5088,632.0782,561.7373,631.6299,562.2056,631.7605,562.5,631.4712" style="stroke:#181818;stroke-width:4.0;"/><text fill="#000000" font-family="Chalkduster" font-size="24" font-weight="bold" lengthAdjust="spacing" textLength="101" x="722.5" y="657.312">Storage</text></g><!--entity parai--><g id="elem_parai"><polygon fill="none" points="568.5,132.8912,568.5,133.1013,578.3235,132.4768,588.1471,133.0844,597.9706,133.2908,607.7941,132.1778,617.6176,132.8134,627.4412,132.4647,637.2647,132.5077,647.0882,132.823,656.9118,132.1998,666.7353,133.4448,676.5588,132.2609,686.3824,132.6934,696.2059,133.3231,706.0294,132.8054,715.8529,132.9594,725.6765,132.8592,735.5,132.8912,735.5228,132.9461,735.8841,133.1113,736.2818,133.3644,736.6463,133.5372,737.0009,133.6861,737.2678,133.6234,737.3462,133.6559,737.557,134.0361,737.7769,134.4201,737.485,134.5921,738.0625,135.1242,738,135.3912,737.7035,135.3912,738.5338,144.5171,737.505,153.6431,737.9315,162.7691,738.7416,171.895,738,181.021,737.985,181.0148,737.886,181.388,737.8114,181.7713,737.6888,182.1347,737.413,182.4347,737.2678,182.7888,737.3044,182.8772,736.8412,182.7589,736.5969,183.1692,736.277,183.3969,735.9103,183.5114,735.5,183.521,735.5,184.134,725.6765,183.0379,715.8529,182.8688,706.0294,182.8996,696.2059,183.4621,686.3824,183.3245,676.5588,184.2024,666.7353,183.3463,656.9118,183.1779,647.0882,183.7493,637.2647,182.8542,627.4412,183.0019,617.6176,184.1699,607.7941,183.9567,597.9706,184.2555,588.1471,183.1992,578.3235,183.8402,568.5,183.521,568.5753,183.7028,568.0862,183.2291,567.7807,183.1986,567.4554,183.1205,567.1689,183.1359,566.7322,182.7888,566.7309,182.7882,566.7282,182.4942,566.2688,182.011,566.0843,181.6417,566.3015,181.4388,566,181.021,565.2831,181.021,566.509,171.895,566.2066,162.7691,565.7321,153.6431,565.6462,144.5171,566,135.3912,566.1413,135.4497,566.0543,134.9994,566.4752,134.7596,566.2691,134.26,566.7759,134.0557,566.7322,133.6234,566.794,133.7725,567.117,133.5524,567.4454,133.345,567.8856,133.4078,568.2247,133.2266,568.5,132.8912" style="stroke:#181818;stroke-width:4.0;"/><text fill="#000000" font-family="Chalkduster" font-size="24" lengthAdjust="spacing" textLength="152" x="576" y="166.732">PARADISEC</text></g><!--entity nyi--><g id="elem_nyi"><polygon fill="none" points="776,132.8912,776,133.1013,785.8571,132.4768,795.7143,133.0844,805.5714,133.2908,815.4286,132.1778,825.2857,132.8134,835.1429,132.4647,845,132.5077,854.8571,132.823,864.7143,132.1998,874.5714,133.4448,884.4286,132.2609,894.2857,132.6934,904.1429,133.3231,914,132.8912,913.9891,132.8647,914.3623,133.0586,914.703,133.1742,915.0834,133.3855,915.4447,133.5506,915.7678,133.6234,915.9481,133.6981,916.1209,134.0625,916.2698,134.4171,916.2855,134.7165,916.4963,135.0967,916.5,135.3912,917.2022,135.3912,915.7788,144.5171,917.1785,153.6431,916.2035,162.7691,917.0338,171.895,916.5,181.021,916.3476,180.9578,916.3325,181.3658,916.4355,181.8227,916.0457,182.0754,915.9466,182.4486,915.7678,182.7888,915.811,182.893,915.4673,183.0634,915.0602,183.0805,914.7437,183.3166,914.2805,183.1983,914,183.521,914,183.8054,904.1429,184.0692,894.2857,183.9655,884.4286,184.134,874.5714,183.0379,864.7143,182.8688,854.8571,182.8996,845,183.4621,835.1429,183.3245,825.2857,184.2024,815.4286,183.3463,805.5714,183.1779,795.7143,183.7493,785.8571,182.8542,776,183.521,775.9338,183.3611,775.7292,183.5744,775.3485,183.3623,775.033,183.3078,774.5447,182.8361,774.2322,182.7888,774.3305,182.8295,774.2676,182.5105,773.7939,182.0214,773.7634,181.7159,773.6852,181.3906,773.5,181.021,774.1518,181.021,773.4958,171.895,773.9626,162.7691,772.9462,153.6431,772.8227,144.5171,773.5,135.3912,773.6551,135.4554,773.4257,134.9462,773.9496,134.749,774.003,134.3569,774.0033,133.9428,774.2322,133.6234,774.1871,133.5144,774.6443,133.6182,774.9012,133.2383,775.3684,133.3663,775.5759,132.8674,776,132.8912" style="stroke:#181818;stroke-width:4.0;"/><text fill="#000000" font-family="Chalkduster" font-size="24" lengthAdjust="spacing" textLength="123" x="783.5" y="166.732">Nyingarn</text></g><!--entity uts--><g id="elem_uts"><polygon fill="none" points="296,132.8912,296,133.1013,306.087,132.4768,316.1739,133.0844,326.2609,133.2908,336.3478,132.1778,346.4348,132.8134,356.5217,132.4647,366.6087,132.5077,376.6957,132.823,386.7826,132.1998,396.8696,133.4448,406.9565,132.2609,417.0435,132.6934,427.1304,133.3231,437.2174,132.8054,447.3043,132.9594,457.3913,132.8592,467.4783,133.0697,477.5652,133.1303,487.6522,133.4769,497.7391,133.5622,507.8261,133.5704,517.913,133.1458,528,132.8912,528.0591,133.0339,528.4431,133.2539,528.6151,132.962,529.1472,133.5395,529.3764,133.3856,529.7678,133.6234,529.9322,133.6915,529.7618,133.9138,530.0396,134.3218,530.4355,134.7787,530.3385,135.0314,530.5,135.3912,530.6053,135.3912,530.8386,144.5171,530.9162,153.6431,530.4961,162.7691,530.7872,171.895,530.5,181.021,530.3237,180.948,530.4411,181.4108,530.3759,181.798,530.1976,182.1384,530.103,182.5134,529.7678,182.7888,529.7061,182.64,529.331,182.7344,528.9814,182.8903,528.6996,183.21,528.3285,183.314,528,183.521,528,184.2024,517.913,183.3463,507.8261,183.1779,497.7391,183.7493,487.6522,182.8542,477.5652,183.0019,467.4783,184.1699,457.3913,183.9567,447.3043,184.2555,437.2174,183.1992,427.1304,183.8402,417.0435,184.1114,406.9565,183.0486,396.8696,183.4251,386.7826,183.647,376.6957,184.1728,366.6087,183.5168,356.5217,183.9836,346.4348,182.9672,336.3478,182.8437,326.2609,184.0246,316.1739,182.8041,306.087,184.03,296,183.521,296.0264,183.5846,295.6123,183.292,295.2478,183.1192,294.9979,183.2229,294.5476,182.843,294.2322,182.7888,294.4145,182.8643,293.9156,182.3647,294.1295,182.1604,293.942,181.7899,293.7219,181.4058,293.5,181.021,293.5472,181.021,294.2266,171.895,294.1136,162.7691,293.6693,153.6431,293.7682,144.5171,293.5,135.3912,293.4599,135.3745,293.8671,135.129,293.8406,134.7038,293.9925,134.3525,293.8984,133.8993,294.2322,133.6234,294.1805,133.4986,294.6535,133.6404,294.9942,133.4628,295.2874,133.1708,295.6054,132.9384,296,132.8912" style="stroke:#181818;stroke-width:4.0;"/><text fill="#000000" font-family="Chalkduster" font-size="24" lengthAdjust="spacing" textLength="217" x="303.5" y="166.732">UTS Data portal</text></g><!--entity om--><g id="elem_om"><polygon fill="none" points="26,132.8912,26,133.1013,35.7778,132.4768,45.5556,133.0844,55.3333,133.2908,65.1111,132.1778,74.8889,132.8134,84.6667,132.4647,94.4444,132.5077,104.2222,132.823,114,132.8912,113.9118,132.6782,114.4242,133.2081,114.6267,132.99,115.0354,133.2696,115.4693,133.61,115.7678,133.6234,115.7414,133.6125,115.9352,133.9857,116.0508,134.3264,116.2621,134.7068,116.4272,135.0681,116.5,135.3912,117.0857,135.3912,117.1711,144.5171,117.1793,153.6431,116.7546,162.7691,116.9636,171.895,116.5,181.021,116.7163,181.1106,116.1315,181.2826,116.4161,181.8147,115.9693,182.0438,116.0786,182.5033,115.7678,182.7888,115.7046,182.6363,115.4055,182.9141,115.1553,183.31,114.7009,183.2131,114.367,183.407,114,183.521,114,183.8596,104.2222,183.9372,94.4444,183.5171,84.6667,183.8082,74.8889,182.9486,65.1111,183.8054,55.3333,184.0692,45.5556,183.9655,35.7778,184.134,26,183.521,25.9384,183.3722,25.5633,183.1737,25.2136,183.0367,24.9318,183.0635,24.5607,182.8747,24.2322,182.7888,24.4421,182.8757,24.032,182.4129,23.8337,182.0379,23.8632,181.7572,23.4411,181.2895,23.5,181.021,22.9809,181.021,24.149,171.895,23.9357,162.7691,24.2345,153.6431,23.1782,144.5171,23.5,135.3912,23.5983,135.4319,23.8283,135.1129,23.6474,134.6238,23.9098,134.3183,24.1246,133.993,24.2322,133.6234,24.3154,133.8241,24.5853,133.4757,24.9983,133.473,25.2223,133.0135,25.5601,132.829,26,132.8912" style="stroke:#181818;stroke-width:4.0;"/><text fill="#000000" font-family="Chalkduster" font-size="24" lengthAdjust="spacing" textLength="73" x="33.5" y="166.732">OMAA</text></g><!--entity ldaca--><g id="elem_ldaca"><polygon fill="none" points="154.5,132.8912,154.5,133.1013,164.6,132.4768,174.7,133.0844,184.8,133.2908,194.9,132.1778,205,132.8134,215.1,132.4647,225.2,132.5077,235.3,132.823,245.4,132.1998,255.5,132.8912,255.5706,133.0617,255.7732,132.8435,256.1819,133.1231,256.6158,133.4635,256.9033,133.4505,257.2678,133.6234,257.2888,133.6321,257.4044,133.9729,257.6156,134.3533,257.7808,134.7146,258.0339,135.1123,258,135.3912,258.6711,135.3912,258.6793,144.5171,258.2546,153.6431,258.4636,162.7691,258.7022,171.895,258,181.021,257.7779,180.929,258.0625,181.4611,257.6158,181.6903,257.7251,182.1497,257.2618,182.3721,257.2678,182.7888,257.259,182.7677,257.0088,183.1636,256.5544,183.0666,256.2205,183.2605,255.8967,183.4788,255.5,183.521,255.5,183.9372,245.4,183.5171,235.3,183.8082,225.2,182.9486,215.1,183.8054,205,184.0692,194.9,183.9655,184.8,184.134,174.7,183.0379,164.6,182.8688,154.5,183.521,154.4207,183.3296,154.1389,183.3564,153.7678,183.1676,153.5263,183.2915,153.0635,182.8814,152.7322,182.7888,152.6266,182.745,152.6561,182.4643,152.234,181.9966,152.133,181.6619,152.3463,181.4573,152,181.021,152.4357,181.021,152.7345,171.895,151.6782,162.7691,152.3192,153.6431,152.5904,144.5171,152,135.3912,151.8545,135.3309,152.1169,135.0254,152.3317,134.7001,152.6401,134.4136,152.5845,133.9764,152.7322,133.6234,152.7912,133.7658,153.0151,133.3064,153.3529,133.1219,153.8571,133.3391,154.055,132.8168,154.5,132.8912" style="stroke:#181818;stroke-width:4.0;"/><text fill="#000000" font-family="Chalkduster" font-size="24" lengthAdjust="spacing" textLength="86" x="162" y="166.732">LDaCA</text></g><!--entity oni--><g id="elem_oni"><polygon fill="none" points="309.5,370.5212,309.5,370.7313,319.3333,370.1068,329.1667,370.7144,339,370.9208,348.8333,369.8078,358.6667,370.4434,368.5,370.5212,368.4456,370.3898,368.8046,370.5495,369.1984,370.7931,369.4725,370.7476,369.9848,371.2774,370.2678,371.2534,370.0737,371.173,370.3533,371.5817,370.6937,372.0156,370.6807,372.3031,370.8746,372.6763,371,373.0212,370.9681,373.0212,371.1785,382.1471,371.2391,391.2731,371.5857,400.3991,371.6711,409.525,371,418.651,371.2092,418.7376,370.932,419.037,370.8499,419.4172,370.7769,419.8012,370.1921,419.9732,370.2678,420.4188,370.3543,420.6277,369.8764,420.4739,369.6288,420.876,369.144,420.7057,368.8448,420.9835,368.5,421.151,368.5,421.8926,358.6667,421.1023,348.8333,421.2563,339,421.4896,329.1667,421.5672,319.3333,421.1471,309.5,421.151,309.5366,421.2394,309.0734,420.8283,308.8292,420.9457,308.5093,420.8805,308.1425,420.7021,307.7322,420.4188,307.921,420.497,307.437,420.0036,307.2385,419.6285,307.1015,419.2788,307.1283,418.997,307,418.651,306.8035,418.651,307.6814,409.525,306.8253,400.3991,306.6569,391.2731,307.2283,382.1471,307,373.0212,306.7946,372.9361,306.9866,372.6014,307.4927,372.3968,307.5735,372.0161,307.812,371.7006,307.7322,371.2534,307.6912,371.1543,308.1265,371.2052,308.5147,371.1423,308.7326,370.6686,309.1342,370.6381,309.5,370.5212" style="stroke:#181818;stroke-width:4.0;"/><text fill="#000000" font-family="Chalkduster" font-size="24" lengthAdjust="spacing" textLength="44" x="317" y="404.362">Oni</text></g><!--entity para--><g id="elem_para"><polygon fill="none" points="408.5,370.5212,408.5,370.7313,418.46,370.1068,428.42,370.7144,438.38,370.9208,448.34,369.8078,458.3,370.4434,468.26,370.0947,478.22,370.1377,488.18,370.453,498.14,369.8298,508.1,371.0748,518.06,369.8909,528.02,370.3234,537.98,370.9531,547.94,370.4354,557.9,370.5894,567.86,370.4892,577.82,370.6997,587.78,370.7603,597.74,371.1069,607.7,371.1922,617.66,371.2004,627.62,370.7758,637.58,370.9847,647.54,371.2234,657.5,370.5212,657.408,370.2991,657.9401,370.8766,658.1693,370.7227,658.6288,371.1249,658.8511,370.9545,659.2678,371.2534,659.2467,371.2447,659.6426,371.7015,659.5457,371.9543,659.7395,372.3275,659.9578,372.7108,660,373.0212,660.4162,373.0212,659.9961,382.1471,660.2872,391.2731,659.4276,400.3991,660.2844,409.525,660,418.651,660.1688,418.7209,659.9905,419.0613,659.8959,419.4363,659.4119,419.65,659.2134,419.982,659.2678,420.4188,659.1885,420.2274,658.9067,420.5471,658.5356,420.6511,658.294,421.0679,657.8313,420.9508,657.5,421.151,657.5,420.8079,647.54,421.3793,637.58,420.4842,627.62,420.6319,617.66,421.7999,607.7,421.5867,597.74,421.8855,587.78,420.8292,577.82,421.4702,567.86,421.7414,557.9,420.6786,547.94,421.0551,537.98,421.277,528.02,421.8028,518.06,421.1468,508.1,421.6136,498.14,420.5972,488.18,420.4737,478.22,421.6546,468.26,420.4341,458.3,421.66,448.34,421.3576,438.38,420.8831,428.42,420.7972,418.46,421.6098,408.5,421.151,408.4618,421.0588,408.2219,421.1868,407.7224,420.6879,407.5181,420.9018,407.1476,420.7144,406.7322,420.4188,406.8077,420.45,406.6003,420.0712,406.6631,419.8043,406.4819,419.4364,406.1986,419.0261,406,418.651,406.2682,418.651,405.8697,409.525,406.7165,400.3991,406.1549,391.2731,406.1726,382.1471,406,373.0212,405.8127,372.9436,406.0217,372.6159,406.4563,372.3818,406.5717,372.0153,406.5726,371.6015,406.7322,371.2534,406.6911,371.1542,407.0579,371.0395,407.3518,370.7492,407.8458,370.9418,408.2408,370.8954,408.5,370.5212" style="stroke:#181818;stroke-width:4.0;"/><text fill="#000000" font-family="Chalkduster" font-size="24" lengthAdjust="spacing" textLength="234" x="416" y="404.362">PARADISEC Code</text></g><!--entity ny--><g id="elem_ny"><polygon fill="none" points="697.5,370.5212,697.5,370.7313,707.3333,370.1068,717.1667,370.7144,727,370.9208,736.8333,369.8078,746.6667,370.4434,756.5,370.0947,766.3333,370.1377,776.1667,370.453,786,369.8298,795.8333,371.0748,805.6667,369.8909,815.5,370.3234,825.3333,370.9531,835.1667,370.4354,845,370.5894,854.8333,370.4892,864.6667,370.6997,874.5,370.7603,884.3333,371.1069,894.1667,371.1922,904,371.2004,913.8333,370.7758,923.6667,370.9847,933.5,371.2234,943.3333,369.8,953.1667,371.1997,963,370.2247,972.8333,371.055,982.6667,370.0261,992.5,370.5212,992.4913,370.5001,992.9482,370.896,993.2009,370.799,993.5741,370.9929,993.9574,371.2112,994.2678,371.2534,994.3959,371.3065,994.413,371.6064,994.6491,371.9971,994.5308,372.241,994.9411,372.7039,995,373.0212,995.5482,373.0212,995.4445,382.1471,995.613,391.2731,994.5169,400.3991,994.3478,409.525,995,418.651,994.8086,418.5717,994.8354,418.997,994.6466,419.333,994.7705,419.7986,994.3604,420.0429,994.2678,420.4188,994.224,420.3131,993.9433,420.6355,993.4756,420.5063,993.1409,420.6982,992.9363,421.2044,992.5,421.151,992.5,421.5867,982.6667,421.8855,972.8333,420.8292,963,421.4702,953.1667,421.7414,943.3333,420.6786,933.5,421.0551,923.6667,421.277,913.8333,421.8028,904,421.1468,894.1667,421.6136,884.3333,420.5972,874.5,420.4737,864.6667,421.6546,854.8333,420.4341,845,421.66,835.1667,421.3576,825.3333,420.8831,815.5,420.7972,805.6667,421.6098,795.8333,420.8517,786,421.7429,776.1667,420.5982,766.3333,421.7684,756.5,421.6353,746.6667,421.396,736.8333,421.1982,727,421.8776,717.1667,421.7646,707.3333,421.3202,697.5,421.151,697.5342,421.2336,697.1298,420.9644,696.8843,421.0787,696.4591,420.7593,696.1078,420.6184,695.7322,420.4188,695.5449,420.3412,695.461,420.0135,695.6028,419.7794,695.4252,419.4129,695.1332,418.9991,695,418.651,694.6778,418.651,694.7811,409.525,694.3138,400.3991,695.4147,391.2731,695.7396,382.1471,695,373.0212,695.1621,373.0883,695.3605,372.7563,695.2508,372.2966,695.4662,371.9716,695.4664,371.5575,695.7322,371.2534,695.7685,371.3409,696.1173,371.1829,696.5098,371.1306,696.7636,370.7433,697.1293,370.6262,697.5,370.5212" style="stroke:#181818;stroke-width:4.0;"/><text fill="#000000" font-family="Chalkduster" font-size="24" lengthAdjust="spacing" textLength="280" x="705" y="404.362">Nyingarn Workspace</text></g><!--entity ldacp--><g id="elem_ldacp"><polygon fill="none" points="160.5,665.1512,160.5,665.3613,170.4167,664.7368,180.3333,665.3444,190.25,665.5508,200.1667,664.4378,210.0833,665.0734,220,664.7247,229.9167,664.7677,239.8333,665.083,249.75,664.4598,259.6667,665.7048,269.5833,664.5209,279.5,664.9534,289.4167,665.5831,299.3333,665.0654,309.25,665.2194,319.1667,665.1192,329.0833,665.3297,339,665.3903,348.9167,665.7369,358.8333,665.8222,368.75,665.8304,378.6667,665.4058,388.5833,665.6147,398.5,665.8534,408.4167,664.43,418.3333,665.8297,428.25,664.8547,438.1667,665.685,448.0833,664.6561,458,665.0827,467.9167,665.8928,477.8333,665.1024,487.75,665.2565,497.6667,665.4898,507.5833,665.5674,517.5,665.1512,517.4995,665.15,517.8902,665.3861,518.1341,665.2678,518.5969,665.6781,518.9841,665.9058,519.2678,665.8834,519.4047,665.9401,519.603,666.3151,519.4119,666.5289,519.5063,666.8609,519.6622,667.2183,520,667.6512,519.9411,667.6512,519.8035,677.1836,520.6814,686.7161,519.8253,696.2485,519.6569,705.781,520.2283,715.3135,519.3332,724.8459,519.4809,734.3784,520,743.9108,520.1999,743.9936,519.9877,744.32,519.9333,744.7116,519.4616,744.9304,519.5125,745.3658,519.2678,745.6786,519.3431,745.8604,518.854,745.6796,518.5484,745.942,518.2232,746.1567,517.9367,746.4651,517.5,746.4108,517.5,746.4066,507.5833,746.8734,497.6667,745.857,487.75,745.7336,477.8333,746.9144,467.9167,745.6939,458,746.9198,448.0833,746.6175,438.1667,746.1429,428.25,746.0571,418.3333,746.8696,408.4167,746.1115,398.5,747.0027,388.5833,745.8581,378.6667,747.0283,368.75,746.8951,358.8333,746.6558,348.9167,746.458,339,747.1374,329.0833,747.0244,319.1667,746.5801,309.25,746.679,299.3333,746.2806,289.4167,747.1273,279.5,746.5657,269.5833,746.5834,259.6667,745.8025,249.75,746.0056,239.8333,746.9416,229.9167,746.8406,220,746.3679,210.0833,746.0887,200.1667,746.1919,190.25,745.7247,180.3333,746.8256,170.4167,747.1504,160.5,746.4108,160.5671,746.5729,160.2351,746.4784,159.7755,746.0758,159.4505,745.9983,159.0363,745.7057,158.7322,745.6786,158.8197,745.7148,158.6618,745.3565,158.6095,745.042,158.2222,744.5886,158.1051,744.2472,158,743.9108,158.4435,743.9108,158.5673,734.3784,157.4875,724.8459,157.8061,715.3135,158.1493,705.781,157.3892,696.2485,158.3534,686.7161,158.258,677.1836,158,667.6512,157.969,667.6383,158.1903,667.3158,158.5173,667.037,158.343,666.5506,158.6828,666.2771,158.7322,665.8834,158.7687,665.9714,159.1006,665.7726,159.4573,665.6339,159.8074,665.479,160.0668,665.1054,160.5,665.1512" style="stroke:#181818;stroke-width:4.0;"/><text fill="#000000" font-family="Chalkduster" font-size="24" lengthAdjust="spacing" textLength="342" x="168" y="698.992">Languate Data Commons</text><text fill="#000000" font-family="Chalkduster" font-size="24" lengthAdjust="spacing" textLength="233" x="168" y="729.6219">RO-Crate Profile</text></g><!--entity rocrate--><g id="elem_rocrate"><polygon fill="none" points="214.5,928.4112,214.5,928.6213,224.5714,927.9968,234.6429,928.6044,244.7143,928.8108,254.7857,927.6978,264.8571,928.3334,274.9286,927.9847,285,928.0277,295.0714,928.343,305.1429,927.7198,315.2143,928.9648,325.2857,927.7809,335.3571,928.2134,345.4286,928.8431,355.5,928.4112,355.4891,928.3847,355.8623,928.5786,356.203,928.6942,356.5834,928.9055,356.9447,929.0706,357.2678,929.1434,357.4481,929.2181,357.6209,929.5825,357.7698,929.9371,357.7855,930.2365,357.9963,930.6167,358,930.9112,358.7022,930.9112,357.2788,940.0371,358.6785,949.1631,357.7035,958.2891,358.5338,967.415,358,976.541,357.8476,976.4778,357.8325,976.8858,357.9355,977.3427,357.5457,977.5954,357.4466,977.9686,357.2678,978.3088,357.311,978.413,356.9673,978.5834,356.5602,978.6005,356.2437,978.8366,355.7805,978.7183,355.5,979.041,355.5,979.3254,345.4286,979.5892,335.3571,979.4855,325.2857,979.654,315.2143,978.5579,305.1429,978.3888,295.0714,978.4196,285,978.9821,274.9286,978.8445,264.8571,979.7224,254.7857,978.8663,244.7143,978.6979,234.6429,979.2693,224.5714,978.3742,214.5,979.041,214.4338,978.8811,214.2292,979.0944,213.8485,978.8823,213.533,978.8278,213.0447,978.3561,212.7322,978.3088,212.8305,978.3495,212.7676,978.0305,212.2939,977.5414,212.2634,977.2359,212.1852,976.9106,212,976.541,212.6518,976.541,211.9958,967.415,212.4626,958.2891,211.4462,949.1631,211.3227,940.0371,212,930.9112,212.1551,930.9754,211.9257,930.4662,212.4496,930.269,212.503,929.8769,212.5033,929.4628,212.7322,929.1434,212.6871,929.0344,213.1443,929.1382,213.4012,928.7583,213.8684,928.8863,214.0759,928.3874,214.5,928.4112" style="stroke:#181818;stroke-width:4.0;"/><text fill="#000000" font-family="Chalkduster" font-size="24" lengthAdjust="spacing" textLength="126" x="222" y="962.252">RO-Crate</text></g><!--entity OCFL--><g id="elem_OCFL"><polygon fill="none" points="578,680.4712,578,680.6813,588.5,680.0568,599,680.6644,609.5,680.8708,620,679.7578,630.5,680.3934,641,680.0447,651.5,680.0877,662,680.4712,661.9913,680.4502,662.2654,680.4047,662.7777,680.9346,662.9803,680.7164,663.389,680.996,663.7678,681.2034,663.9008,681.2585,663.8878,681.546,664.0817,681.9192,664.1973,682.26,664.4085,682.6404,664.5,682.9712,664.7391,682.9712,665.0857,692.0971,665.1711,701.2231,665.1793,710.3491,664.7546,719.475,664.5,728.601,664.6428,728.6601,664.5698,729.0441,663.985,729.2161,664.2696,729.7482,663.8229,729.9774,663.7678,730.3688,663.8359,730.5332,663.3511,730.3628,663.0519,730.6406,662.8017,731.0365,662.3473,730.9395,662,731.101,662,731.2063,651.5,731.4396,641,731.5172,630.5,731.0971,620,731.3882,609.5,730.5286,599,731.3854,588.5,731.6492,578,731.101,578.0567,731.2379,577.7246,731.1433,577.2313,730.6593,576.8561,730.4608,576.5065,730.3238,576.2322,730.3688,576.2141,730.3613,576.0253,729.9901,576.1492,729.7486,575.7391,729.2858,575.5408,728.9108,575.5,728.601,575.7283,728.601,574.8332,719.475,574.9809,710.3491,576.149,701.2231,575.9357,692.0971,575.5,682.9712,575.7262,683.0649,575.5473,682.5766,575.8912,682.3048,576.1212,681.9858,575.9403,681.4967,576.2322,681.2034,576.22,681.1739,576.6019,681.0957,577.0225,681.1112,577.2924,680.7628,577.7055,680.7601,578,680.4712" style="stroke:#181818;stroke-width:4.0;"/><text fill="#000000" font-family="Chalkduster" font-size="24" lengthAdjust="spacing" textLength="69" x="585.5" y="714.312">OCFL</text></g><!--entity NOCFL--><g id="elem_NOCFL"><polygon fill="none" points="866.5,680.4712,866.5,680.6813,876.6,680.0568,886.7,680.6644,896.8,680.8708,906.9,679.7578,917,680.3934,927.1,680.0447,937.2,680.0877,947.3,680.403,957.4,679.7798,967.5,680.4712,967.5706,680.6417,967.7732,680.4235,968.1819,680.7031,968.6158,681.0435,968.9033,681.0305,969.2678,681.2034,969.2888,681.2121,969.4044,681.5529,969.6156,681.9333,969.7808,682.2946,970.0339,682.6923,970,682.9712,970.6711,682.9712,970.6793,692.0971,970.2546,701.2231,970.4636,710.3491,970.7022,719.475,970,728.601,969.7779,728.509,970.0625,729.0411,969.6158,729.2703,969.7251,729.7297,969.2618,729.9521,969.2678,730.3688,969.259,730.3477,969.0088,730.7436,968.5544,730.6466,968.2205,730.8405,967.8967,731.0588,967.5,731.101,967.5,731.5172,957.4,731.0971,947.3,731.3882,937.2,730.5286,927.1,731.3854,917,731.6492,906.9,731.5455,896.8,731.714,886.7,730.6179,876.6,730.4488,866.5,731.101,866.4207,730.9096,866.1389,730.9364,865.7678,730.7476,865.5263,730.8715,865.0635,730.4614,864.7322,730.3688,864.6266,730.325,864.6561,730.0443,864.234,729.5766,864.133,729.2419,864.3463,729.0373,864,728.601,864.4357,728.601,864.7345,719.475,863.6782,710.3491,864.3192,701.2231,864.5904,692.0971,864,682.9712,863.8545,682.9109,864.1169,682.6054,864.3317,682.2801,864.6401,681.9936,864.5845,681.5564,864.7322,681.2034,864.7912,681.3458,865.0151,680.8864,865.3529,680.7019,865.8571,680.9191,866.055,680.3968,866.5,680.4712" style="stroke:#181818;stroke-width:4.0;"/><text fill="#000000" font-family="Chalkduster" font-size="24" lengthAdjust="spacing" textLength="86" x="874" y="714.312">NOCFL</text></g><!--entity pr--><g id="elem_pr"><polygon fill="none" points="702,680.4712,702,680.6813,712.3333,680.0568,722.6667,680.6644,733,680.8708,743.3333,679.7578,753.6667,680.3934,764,680.0447,774.3333,680.0877,784.6667,680.403,795,679.7798,805.3333,681.0248,815.6667,679.8409,826,680.4712,825.9748,680.4103,826.4087,680.7506,826.6962,680.7376,827.0694,680.9315,827.4101,681.0471,827.7678,681.2034,827.8227,681.2262,827.9879,681.5875,828.241,681.9852,828.4138,682.3497,828.5627,682.7043,828.5,682.9712,828.7546,682.9712,828.9636,692.0971,829.2022,701.2231,827.7788,710.3491,829.1785,719.475,828.5,728.601,828.4087,728.5632,828.5179,729.0226,828.0547,729.245,828.0396,729.6529,828.1426,730.1098,827.7678,730.3688,827.7616,730.3538,827.4276,730.5476,827.1039,730.7659,826.7602,730.9363,826.3531,730.9533,826,731.101,826,731.3882,815.6667,730.5286,805.3333,731.3854,795,731.6492,784.6667,731.5455,774.3333,731.714,764,730.6179,753.6667,730.4488,743.3333,730.4796,733,731.0421,722.6667,730.9045,712.3333,731.7824,702,731.101,701.9777,731.0472,701.6027,730.8489,701.322,730.8784,700.8543,730.4563,700.5196,730.3553,700.2322,730.3688,700.4321,730.4515,700.22,730.0708,700.1655,729.7553,699.6938,729.2671,699.7447,728.9953,699.5,728.601,700.0904,728.601,699.0276,719.475,699.4041,710.3491,699.626,701.2231,700.1518,692.0971,699.5,682.9712,699.4987,682.9706,699.7889,682.6766,699.6223,682.1934,699.7308,681.8241,700.2409,681.6212,700.2322,681.2034,700.1408,680.9826,700.6507,681.2137,700.9657,680.9741,701.2587,680.6815,701.6013,680.5087,702,680.4712" style="stroke:#181818;stroke-width:4.0;"/><text fill="#000000" font-family="Chalkduster" font-size="24" lengthAdjust="spacing" textLength="109" x="709.5" y="714.312">Proxyist</text></g><!--link ny to NOCFL--><g id="link_ny_NOCFL"><path d="M850.77,421.5212 L851.0429,421.585 L852.5038,431.1115 L855.5643,441.012 L858.104,450.7907 L858.9305,460.1689 L862.0275,470.0779 L863.8464,479.6881 L866.1739,489.4172 L868.855,499.229 L870.3175,508.7559 L874.2056,518.8498 L874.9402,528.2065 L877.7734,538.0539 L880.8627,547.9611 L882.4622,557.52 L884.9338,567.2828 L887.0754,576.9685 L889.6204,586.7484 L891.9707,596.4829 L894.6924,606.3041 L897.0749,616.0461 L899.3572,625.7647 L901.0776,635.3518 L903.6206,645.1313 L906.2021,654.9198 L906.6257,664.2038 L909.8337,674.1388 " fill="none" style="stroke:#8B0000;stroke-width:4.0;"/><polygon fill="#8B0000" points="911.2,679.9812,911.2688,679.9943,911.4334,678.0204,912.0015,676.1235,912.4382,674.2015,912.4428,672.1971,913.0455,670.3068,913.0235,670.2931,912.3279,671.1929,911.7433,672.1616,911.2357,673.1782,910.4625,674.0298,910.0614,675.1125,910.1588,675.2693,908.9894,674.3372,908.1043,673.8629,907.2539,673.4444,906.2017,672.701,905.2557,672.1285,905.2738,672.1422,906.436,673.6926,907.6808,675.3055,908.8858,676.8882,910.1668,678.5285,911.2,679.9812" style="stroke:#8B0000;stroke-width:4.0;"/></g><!--link para to pr--><g id="link_para_pr"><path d="M561.24,421.5912 L561.3032,421.6599 L563.6854,423.8177 L566.4381,426.3786 L569.0701,428.8082 L571.3053,430.8061 L574.0898,433.4016 L574.0661,433.3765 L576.8266,435.9771 L579.7069,438.7042 L582.6703,441.5193 L585.347,444.0313 L588.4253,446.9677 L588.5974,447.1436 L591.3092,449.7816 L594.5235,452.933 L597.799,456.1471 L600.7179,458.9968 L603.8244,462.0381 L603.846,462.0593 L607.0224,465.2927 L610.2972,468.6229 L613.5246,471.9064 L616.8425,475.279 L619.865,478.3612 L620.0812,478.5666 L621.7096,480.2797 L623.1986,481.8602 L624.8917,483.6347 L626.5944,485.4184 L627.9939,486.9139 L627.7589,486.696 L629.8413,488.8732 L631.1497,490.3329 L633.0465,492.3381 L634.3374,493.7816 L636.125,495.6855 L636.1024,495.6651 L637.9858,497.6981 L639.341,499.2546 L641.0079,501.0923 L642.701,502.9535 L644.2053,504.6445 L644.3445,504.7664 L645.7994,506.4664 L647.4921,508.3746 L648.8,509.946 L650.6819,512.0198 L652.1822,513.7596 L652.3682,513.917 L653.8971,515.7352 L655.5184,517.6315 L656.7107,519.1647 L658.2175,520.964 L660.0029,522.9992 L659.7888,522.8247 L661.5049,524.8492 L662.9799,526.6771 L664.8046,528.7903 L666.0321,530.4164 L667.6146,532.332 L667.4945,532.238 L669.1645,534.2734 L670.3211,535.9071 L671.8428,537.8265 L673.7217,540.0253 L674.9645,541.7264 L675.1197,541.8423 L676.6332,543.8067 L677.6641,545.4108 L679.2995,547.4661 L680.8032,549.4232 L682,551.1512 L681.8276,551.0314 L684.2102,554.359 L686.5363,557.6474 L688.9734,561.0129 L690.9791,564.0787 L693.2258,567.3119 L693.3992,567.4224 L695.1313,570.4919 L697.1981,573.7749 L699.7536,577.3695 L701.4092,580.3902 L703.7909,583.874 L703.9855,583.9893 L705.8425,587.2528 L707.6336,590.4773 L709.5733,593.7898 L711.8566,597.3057 L713.6538,600.5338 L713.5374,600.4693 L715.7077,603.952 L717.0867,606.9961 L719.3655,610.5389 L721.1376,613.801 L722.7733,616.9873 L722.8697,617.0378 L724.4588,620.1858 L726.3934,623.5144 L728.0158,626.6798 L729.5078,629.777 L731.1081,632.9309 L731.2148,632.9839 L732.558,635.9311 L734.3968,639.1243 L735.675,642.0393 L737.1838,645.0688 L738.6169,648.0606 L738.3726,647.9448 L739.7825,650.7859 L741.4867,653.7665 L742.7745,656.5497 L743.9129,659.2622 L745.2585,662.0728 L745.1282,662.0134 L746.3165,664.5506 L747.2742,666.9827 L748.8661,669.7036 L750.1441,672.2815 L750.9915,674.6635 " fill="none" style="stroke:#8B0000;stroke-width:4.0;"/><polygon fill="#8B0000" points="753.44,680.1412,753.5101,680.1413,753.2977,678.1711,753.4961,676.2018,753.5607,674.2321,753.1855,672.2616,753.4191,670.2923,753.3949,670.2831,752.8824,671.2984,752.4919,672.3603,752.1862,673.4547,751.5882,674.4373,751.3996,675.5764,751.4655,675.7488,750.2678,674.9763,749.2624,674.7071,748.2805,674.4992,747.1621,673.9341,746.1155,673.557,746.1307,673.5739,747.5733,674.8659,749.0851,676.2349,750.5635,677.5668,752.1056,678.9695,753.44,680.1412" style="stroke:#8B0000;stroke-width:4.0;"/></g><!--link pr to OCFL--><g id="link_pr_OCFL"><path d="M699.23,705.7812 L699.23,705.8746 L693.528,705.597 L687.826,705.8671 L682.124,705.9588 L676.422,705.4641 L670.72,705.7812 " fill="none" style="stroke:#8B0000;stroke-width:4.0;stroke-dasharray:7.0,7.0;"/><polygon fill="#8B0000" points="664.72,705.7812,664.7485,705.8452,666.4639,706.455,668.3462,707.44,670.1741,708.3029,671.8234,708.7639,673.72,709.7812,673.7017,709.7628,672.8195,708.8806,672.0296,708.0908,671.3039,707.3651,670.357,706.4182,669.72,705.7812,669.8505,705.9117,670.3714,704.8326,671.2734,704.1345,672.2218,703.483,672.8998,702.5609,673.72,701.7812,673.7292,701.8019,671.9157,702.5714,670.1442,703.4355,668.3524,704.254,666.5993,705.1596,664.72,705.7812" style="stroke:#8B0000;stroke-width:4.0;"/></g><!--link oni to OCFL--><g id="link_oni_OCFL"><path d="M362.22,421.2112 L362.285,421.2783 L364.6062,423.5118 L367.3082,426.1389 L369.8863,428.6378 L372.0565,430.7153 L374.7913,433.3762 L374.7683,433.3504 L377.3069,435.5897 L379.9613,437.9589 L382.6963,440.4185 L385.1538,442.5668 L388,445.1512 L388.1547,445.3425 L390.0783,446.7562 L392.4535,448.7285 L394.8839,450.7689 L396.9936,452.4128 L399.272,454.2653 L399.2901,454.2896 L401.3948,455.8379 L403.5819,457.4971 L405.7293,459.1028 L407.9525,460.8105 L409.9285,462.1857 L410.0968,462.4319 L412.1219,463.8172 L414.0384,465.0437 L416.1139,466.5026 L418.1967,467.9725 L420.0437,469.0971 L419.8727,468.826 L422.1342,470.5695 L423.8326,471.4204 L425.9591,472.95 L427.6447,473.7806 L429.6917,475.1841 L429.6763,475.1579 L431.7099,476.5577 L433.3827,477.3444 L435.2684,478.4929 L437.172,479.6717 L438.9466,480.6315 L439.0368,480.793 L440.733,481.6285 L442.5832,482.7399 L444.1841,483.4049 L446.157,484.7358 L447.8825,485.6239 L447.9989,485.838 L451.4191,487.6692 L454.8972,489.6067 L458.1067,491.0504 L461.513,492.8561 L465.0938,494.9824 L464.9552,494.7435 L468.4455,496.9107 L471.7797,498.8087 L475.3404,501.0972 L478.5144,502.7189 L481.9183,504.737 L481.8352,504.6091 L483.664,505.9196 L485.1379,506.6834 L486.8641,507.836 L488.8373,509.3689 L490.3708,510.2245 L490.4835,510.382 L492.2764,511.7181 L493.7188,512.5644 L495.6002,514.0242 L497.386,515.3503 L498.9489,516.3651 L498.8182,516.2007 L500.678,517.7274 L502.4949,519.2002 L504.3959,520.7788 L505.9701,521.9462 L507.7268,523.3433 L507.8629,523.4974 L509.3741,524.7591 L511.1481,526.3181 L513.3061,528.3114 L514.7572,529.5051 L516.7785,531.344 L516.9368,531.5056 L518.7227,533.2511 L520.4551,534.942 L522.3083,536.7563 L524.441,538.8558 L526.1782,540.5517 L526.0807,540.4613 L528.3355,542.8504 L529.9267,544.6245 L532.2726,547.0979 L534.1935,549.1776 L536,551.1512 L536.084,551.2204 L538.5492,554.2403 L541.3153,557.5081 L543.8096,560.552 L546.1901,563.5023 L548.6651,566.5303 L548.7618,566.6 L550.9422,569.7192 L553.5716,573.1621 L555.6932,576.2389 L558.0237,579.4663 L560.2856,582.6442 L560.0581,582.4982 L562.2501,585.8443 L564.7162,589.3664 L566.7944,592.6395 L568.7336,595.8235 L570.8657,599.1312 L570.7418,599.0595 L572.6902,602.3821 L574.4192,605.5778 L576.7515,609.1225 L578.7853,612.4945 L580.4095,615.6296 L580.6165,615.7387 L582.385,619.0033 L583.7604,622.0606 L585.5507,625.3366 L587.0664,628.4679 L588.9211,631.7779 L589.0347,631.8329 L590.5165,634.913 L592.1354,638.0596 L593.3193,640.9952 L594.8541,644.101 L596.4046,647.2144 L596.5844,647.2952 L597.9265,650.1904 L598.7807,652.8662 L600.2018,655.7969 L601.6328,658.7321 L602.8642,661.5775 L602.614,661.4722 L604.0969,664.224 L605.1458,666.7932 L606.0868,669.3169 L607.2743,671.9444 L608.304,674.5055 " fill="none" style="stroke:#8B0000;stroke-width:4.0;"/><polygon fill="#8B0000" points="610.57,680.0612,610.64,680.0633,610.4929,678.0881,610.7563,676.1255,610.886,674.1588,610.5761,672.1785,610.8747,670.217,610.8508,670.207,610.3051,671.2048,609.8797,672.2532,609.5379,673.3369,608.9078,674.2992,608.6816,675.4315,608.7532,675.6016,607.5573,674.7992,606.5703,674.4935,605.6088,674.2483,604.499,673.6506,603.4672,673.2384,603.483,673.2548,604.8804,674.5953,606.3495,676.0104,607.7841,677.3895,609.2847,678.8374,610.57,680.0612" style="stroke:#8B0000;stroke-width:4.0;"/></g><!--link ny to ldacp--><g id="link_ny_ldacp"><path d="M795.4,421.5712 L795.4425,421.6544 L790.6446,423.7916 L786.0957,426.4165 L781.4657,428.8826 L776.5692,430.8264 L772.0416,433.4932 L772.0257,433.4625 L766.6697,436.062 L761.3938,438.816 L756.1735,441.6776 L750.7614,444.1687 L745.618,447.1787 L745.7326,447.3964 L739.7229,449.9664 L734.0478,453.1721 L728.4136,456.4553 L722.5418,459.2873 L716.795,462.3566 L716.8094,462.3834 L710.6771,465.624 L704.61,468.9864 L698.5115,472.29 L692.4731,475.7056 L686.2388,478.7562 L686.3822,479.0176 L680.0592,482.4909 L673.6437,485.7954 L667.3637,489.3469 L661.09,492.9099 L654.6151,496.1063 L654.4579,495.827 L648.3581,499.9751 L641.7405,503.2034 L635.5165,507.131 L628.8872,510.3385 L622.5902,514.1362 L622.5749,514.1098 L616.4036,518.1089 L609.8751,521.4929 L603.5574,525.2398 L597.2574,529.0172 L590.8298,532.5748 L590.9245,532.7336 L587.7143,534.4308 L584.666,536.3996 L581.3558,537.929 L578.4363,540.1136 L575.2569,541.8627 L575.3836,542.0708 L572.3083,543.8891 L569.2958,545.8108 L565.9911,547.2524 L562.9007,549.0459 L560,551.1512 L559.8534,550.9171 L555.5824,553.8879 L551.1463,556.595 L546.9497,559.6846 L542.3441,562.121 L537.9816,564.9457 L537.8989,564.8177 L533.6548,567.8622 L529.057,570.3592 L524.7107,573.2456 L520.6105,576.5129 L516.0721,579.1018 L516.1791,579.2632 L511.9309,582.2406 L507.3497,584.7161 L503.1856,587.8203 L498.9305,590.7875 L494.4638,593.4355 L494.3459,593.2618 L490.2169,596.2657 L486.0493,599.2128 L481.9576,602.2716 L477.5709,604.8958 L473.349,607.7628 L473.466,607.9319 L469.1231,610.3878 L465.0061,613.1701 L461.219,616.4291 L456.8245,618.8104 L452.92,621.8998 L453.0502,622.0848 L449.0627,624.7275 L445.0311,627.3076 L441.0989,630.0289 L437.3966,633.0768 L433.369,635.6626 L433.2914,635.5546 L426.3829,641.0095 L418.9462,645.7299 L412.1101,651.2855 L404.9359,656.3709 L397.6705,661.3295 " fill="none" style="stroke:#8B0000;stroke-width:4.0;"/><polygon fill="#8B0000" points="392.82,664.8612,392.8347,664.9297,394.7171,664.3134,396.6856,664.0986,398.626,663.7532,400.4743,662.9776,402.4502,662.7974,402.4462,662.7718,401.3105,662.4811,400.1951,662.3194,399.0938,662.2474,397.9439,661.8663,396.8621,661.9181,397.0444,661.9468,396.8304,660.7678,397.1487,659.6726,397.5319,658.5876,397.5372,657.4432,397.7413,656.33,397.761,656.3414,396.7478,658.0309,395.8243,659.7722,394.8576,661.4885,393.9734,663.2525,392.82,664.8612" style="stroke:#8B0000;stroke-width:4.0;"/></g><!--link para to ldacp--><g id="link_para_ldacp"><path d="M517.45,421.5212 L517.6871,421.6705 L511.6247,429.7315 L506.9522,438.6681 L501.8271,447.3195 L495.2135,455.0332 L490.5727,463.9898 L484.8213,472.2466 L479.5119,480.782 L474.5098,489.5109 L468.4488,497.5727 L464.4954,506.9623 L457.8018,514.6256 L452.9319,523.4378 L448.2843,532.3901 L442.3424,540.5269 L437.1582,549.1412 L431.6872,557.5747 L426.5668,566.2291 L421.2772,574.7769 L416.3103,583.528 L411.0486,592.0934 L405.7,600.604 L399.863,608.807 L394.7408,617.4603 L389.6521,626.1346 L382.6884,633.6278 L378.9095,643.1273 L372.4517,650.9391 L367.4283,659.6546 " fill="none" style="stroke:#8B0000;stroke-width:4.0;"/><polygon fill="#8B0000" points="364.23,664.7312,364.269,664.7894,365.7895,663.5199,367.5386,662.5916,369.2132,661.5523,370.643,660.1475,372.4117,659.2485,372.406,659.2233,371.277,659.3603,370.1768,659.6247,369.0968,659.9777,367.9475,660.0255,366.8952,660.5007,367.0752,660.5416,366.4399,659.3509,366.3301,658.2795,366.2843,657.2227,365.8656,656.0812,365.643,654.9842,365.6655,654.9875,365.3499,656.9321,365.1367,658.8915,364.8741,660.8438,364.7058,662.8098,364.23,664.7312" style="stroke:#8B0000;stroke-width:4.0;"/></g><!--link oni to ldacp--><g id="link_oni_ldacp"><path d="M339,421.5212 L339.2802,421.5212 L338.4476,431.4049 L339.2577,441.2887 L339.5329,451.1724 L338.0488,461.0562 L338.8964,470.9399 L338.4313,480.8237 L338.4887,490.7074 L338.9091,500.5912 L338.0782,510.4749 L339.7382,520.3587 L338.1596,530.2424 L338.7363,540.1262 L339.5759,550.0099 L338.8856,559.8937 L339.091,569.7774 L338.9574,579.6612 L339.238,589.5449 L339.3188,599.4287 L339.7809,609.3124 L339.8947,619.1962 L339.9057,629.0799 L339.3395,638.9637 L339.6181,648.8474 L339,658.7312 " fill="none" style="stroke:#8B0000;stroke-width:4.0;"/><polygon fill="#8B0000" points="339,664.7312,339.064,664.7596,339.6738,662.8751,340.6589,661.1573,341.5217,659.3853,341.9827,657.4346,343,655.7312,342.9817,655.7128,342.0995,656.4306,341.3096,657.2408,340.5839,658.1151,339.637,658.7682,339,659.7312,339.1305,659.8617,338.0514,658.7826,337.3534,658.0845,336.7018,657.433,335.7798,656.5109,335,655.7312,335.0208,655.7404,335.7903,657.5268,336.6544,659.3553,337.4728,661.1635,338.3784,663.0105,339,664.7312" style="stroke:#8B0000;stroke-width:4.0;"/></g><!--link oni to rocrate--><g id="link_oni_rocrate"><path d="M306.95,401.5112 L306.9673,401.603 L304.3503,401.8134 L301.8347,402.5619 L299.286,403.1352 L296.6289,403.1322 L294.1219,403.927 L294.1148,403.8932 L291.233,404.3474 L288.3875,404.9718 L285.5672,405.7147 L282.6601,406.0495 L279.8745,406.9559 L279.932,407.1951 L276.7376,407.422 L273.7112,408.3475 L270.7053,409.3581 L267.5801,409.8729 L264.5177,410.6485 L264.5257,410.6778 L261.2827,411.5162 L258.0761,412.4879 L254.852,413.3954 L251.6613,414.4254 L248.3616,415.0557 L248.4501,415.3405 L245.1221,416.3785 L241.737,417.2328 L238.4355,418.3559 L235.1379,419.4917 L231.7162,420.2282 L231.6087,419.9262 L228.4524,421.71 L224.9422,422.4994 L221.701,424.0448 L218.1827,424.8117 L214.8916,426.2167 L214.88,426.1885 L211.6781,427.8926 L208.2059,428.9388 L204.8931,430.3732 L201.5938,431.8402 L198.1979,433.072 L198.2777,433.2389 L194.9465,434.625 L191.7518,436.2963 L188.3364,437.5062 L185.2501,439.4044 L181.945,440.8449 L182.0647,441.0571 L178.9417,442.7652 L175.8781,444.5787 L172.5384,445.9026 L169.4011,447.5854 L166.4431,449.5861 L166.2884,449.3573 L163.5402,451.5165 L160.6178,453.4179 L157.9481,455.6932 L154.8469,457.33 L152.0021,459.3464 L151.9049,459.229 L149.4529,461.5906 L146.5851,463.4503 L144.013,465.6668 L141.7303,468.2326 L138.9323,470.1765 L139.0724,470.3101 L136.8908,472.7919 L134.2732,474.8582 L132.2017,477.4448 L130.0112,479.9181 L127.5434,482.1273 L127.3727,482.005 L125.6293,484.7269 L123.8299,487.4087 L122.1403,490.1692 L120.0238,492.6238 L118.1458,495.2493 L118.33,495.3405 L116.5059,498.009 L115.0374,500.8535 L114.0885,503.9551 L112.183,506.5834 L111.0493,509.5935 L111.2667,509.6559 L110.2405,512.7422 L109.1407,515.8074 L108.207,518.9203 L107.657,522.1434 L106.564,525.2105 L106.4315,525.1983 L106.5131,528.6228 L105.6938,531.9642 L105.8988,535.4001 L105.5271,538.7828 L105,542.1512 L105.3266,542.1512 L105.063,551.9756 L105.9688,561.8 L105.8181,571.6245 L105.2257,581.4489 L105.3576,591.2734 L104.8263,601.0978 L105.9553,610.9223 L105.2065,620.7467 L105.2301,630.5712 L104.1889,640.3956 L104.4597,650.22 L105.7077,660.0445 L105.573,669.8689 L104.9428,679.6934 L104.5704,689.5178 L104.7081,699.3423 L104.0851,709.1667 L105.553,718.9912 L105.9861,728.8156 L105.7019,738.64 L105.9266,748.4645 L104.8177,758.2889 L105.1163,768.1134 L104.4832,777.9378 L105.3787,787.7623 L105.329,797.5867 L105,807.4112 L105.2451,807.4251 L105.0207,809.5602 L105.1855,811.7174 L105.5645,813.8868 L105.7421,816.0448 L105.6129,818.1853 L105.3885,818.1463 L105.8847,820.2236 L106.3916,822.3028 L106.4155,824.2981 L107.1944,826.4245 L107.3964,828.4507 L107.5064,828.4831 L107.9276,830.3919 L108.6055,832.3761 L109.4298,834.4034 L109.5599,836.2267 L110.2676,838.2197 L110.3968,838.2736 L111.16,840.1255 L111.8656,841.9533 L112.6511,843.8145 L113.4151,845.6667 L114.1438,847.5041 L113.9002,847.3715 L114.9471,849.1814 L115.883,850.9309 L117.0478,852.805 L118.017,854.5726 L118.9422,856.3163 L119.0018,856.3565 L119.9626,857.9143 L121.1725,859.6402 L122.2806,861.2975 L123.665,863.1412 L124.58,864.6682 L124.7274,864.7874 L125.6911,866.1132 L127.1126,867.8093 L128.2172,869.2491 L129.7951,871.0719 L130.9744,872.572 L131.1708,872.7579 L132.5638,874.232 L133.661,875.4261 L135.365,877.1945 L136.3891,878.3194 L138.0425,880.0399 L138.1027,880.1054 L139.4843,881.3508 L141.1353,882.8891 L142.7103,884.3449 L144.3118,885.8295 L145.7016,887.0839 L145.4999,886.8355 L147.4683,888.5744 L149.0185,889.7982 L150.7015,891.1858 L152.445,892.6477 L153.8689,893.7161 L153.8703,893.7181 L155.6332,895.0257 L157.3617,896.2859 L159.076,897.5266 L160.7428,898.7019 L162.4616,899.9487 L162.6345,900.213 L164.1003,900.8909 L166.1732,902.497 L167.6709,903.2236 L169.4783,904.4238 L171.3968,905.7938 L171.4059,905.809 L173.2422,906.8985 L174.9628,907.7934 L177.0078,909.2336 L178.7776,910.2111 L180.5918,911.2634 L180.7463,911.547 L182.6081,912.545 L184.2453,913.131 L186.1304,914.1719 L188.0619,915.2981 L189.9638,916.3698 L190.0347,916.511 L191.9374,917.4809 L193.8104,918.3915 L195.5753,919.0871 L197.6637,920.4267 L199.43,921.125 L199.5489,921.3803 L201.3166,921.9891 L203.1761,922.7951 L205.0412,923.6129 L206.9717,924.5714 L208.9075,925.5411 " fill="none" style="stroke:#8B0000;stroke-width:4.0;"/><polygon fill="#8B0000" points="214.38,928.0012,214.4322,928.0479,212.9634,926.4414,211.8005,925.1088,210.5381,923.687,208.9479,921.9718,207.8113,920.6627,207.7871,920.6535,208.0801,921.6699,208.4951,922.7327,208.995,923.8277,209.2025,924.8116,209.8196,925.9511,209.8851,926.1236,208.6873,926.1564,207.6808,926.6928,206.6977,927.2907,205.5788,927.531,204.5312,927.9594,204.5313,927.9821,206.5009,927.9571,208.471,928.0356,210.4408,928.0642,212.4111,928.188,214.38,928.0012" style="stroke:#8B0000;stroke-width:4.0;"/></g><!--link om to oni--><g id="link_om_oni"><path d="M98.28,183.9812 L98.4646,184.192 L105.3412,190.0694 L113.3003,197.1827 L120.9068,203.8935 L127.3542,209.2809 L135.3379,216.4223 L142.4567,222.5763 L149.9197,229.1233 L157.6219,235.9434 L164.4997,241.8221 L173.0186,249.5746 L179.4038,254.891 L187.209,261.8286 L195.1874,268.964 L202.1578,274.9486 L209.7183,281.6069 L217.0555,288.0102 L224.6657,294.7251 L232.1442,301.2898 L239.8738,308.1412 L247.3741,314.7306 L254.8065,321.2426 L261.8587,327.3206 L269.4675,334.034 L277.1023,340.7771 L283.2771,345.8533 L291.932,353.761 L298.5006,359.2869 L306.1863,366.0881 " fill="none" style="stroke:#8B0000;stroke-width:4.0;"/><polygon fill="#8B0000" points="310.7,370.0412,310.7636,370.0706,309.7476,368.1954,309.1044,366.4927,308.3398,364.7339,307.1761,362.7903,306.5649,361.1024,306.539,361.1007,306.4978,362.2219,306.5868,363.3518,306.7664,364.4876,306.6339,365.6028,306.9386,366.7469,306.9508,366.9311,305.7958,366.6121,304.6765,366.8307,303.5614,367.1148,302.4211,367.0174,301.2941,367.1207,301.3009,367.1424,303.1721,367.6946,305.0741,368.3457,306.9613,368.9491,308.8767,369.6435,310.7,370.0412" style="stroke:#8B0000;stroke-width:4.0;"/></g><!--link uts to oni--><g id="link_uts_oni"><path d="M404.33,183.9812 L404.5977,184.0641 L400.8616,193.3087 L398.6947,203.0394 L396.0168,212.6119 L391.6585,221.6636 L389.5274,231.4055 L386.1424,240.7588 L383.2565,250.2668 L380.7174,259.8822 L376.9829,269.1273 L375.6278,279.1096 L371.1793,288.1334 L368.7894,297.7951 L366.6507,307.5346 L363.0506,316.8213 L360.306,326.373 L357.2377,335.8245 L354.565,345.3985 L351.7015,354.9135 L348.4562,364.3101 " fill="none" style="stroke:#8B0000;stroke-width:4.0;"/><polygon fill="#8B0000" points="346.68,370.0412,346.7327,370.0873,347.8731,368.4677,349.3225,367.1186,350.6712,365.6814,351.689,363.9546,353.165,362.6287,353.1529,362.6057,352.0977,363.0302,351.1035,363.5702,350.1515,364.1905,349.0537,364.534,348.1601,365.2653,348.3234,365.3513,347.4469,364.1664,347.0472,363.2326,346.7056,362.3295,346.0256,361.2481,345.5235,360.2604,345.5461,360.2631,345.7442,362.2153,346.0452,364.1797,346.2966,366.1382,346.6426,368.1079,346.68,370.0412" style="stroke:#8B0000;stroke-width:4.0;"/></g><!--link ldaca to oni--><g id="link_ldaca_oni"><path d="M219.09,183.9812 L219.3336,184.1197 L223.5071,192.3197 L229.1087,201.3318 L234.2453,210.0795 L237.8526,217.9575 L243.4867,226.9881 L247.9798,235.3698 L252.927,244.0098 L258.1898,252.8293 L262.3648,261.0301 L268.7052,270.4624 L272.2303,278.2936 L277.629,287.1903 L283.2562,296.217 L287.5535,304.4874 L292.6293,313.2005 L297.4106,321.7461 L302.5519,330.4965 L307.5195,339.1481 L312.8185,347.9881 L317.8148,356.656 L321.9343,364.8253 " fill="none" style="stroke:#8B0000;stroke-width:4.0;"/><polygon fill="#8B0000" points="324.9,370.0412,324.9697,370.0481,324.5683,368.0674,324.5756,366.1272,324.4498,364.1738,323.8863,362.177,323.9287,360.2403,323.9038,360.2334,323.4916,361.2935,323.2054,362.3881,323.0068,363.5069,322.5064,364.5427,322.4286,365.6946,322.4776,365.8726,321.282,365.192,320.2294,365.031,319.1942,364.9334,318.0576,364.467,316.9743,364.1945,316.9878,364.2128,318.5531,365.3553,320.1799,366.5811,321.777,367.7667,323.4308,369.0289,324.9,370.0412" style="stroke:#8B0000;stroke-width:4.0;"/></g><!--link ldacp to rocrate--><g id="link_ldacp_rocrate"><path d="M330.2,746.8412 L330.4737,746.9013 L327.5219,756.4638 L326.1746,766.3786 L324.3049,776.1787 L320.7168,785.6015 L319.4061,795.5244 L316.8133,805.1657 L314.7308,814.9191 L313.0029,824.7503 L310.0527,834.3132 L309.5356,844.4103 L305.8552,853.8129 L304.2799,863.6776 L302.9615,873.5987 L300.1487,883.1918 L298.2107,892.9769 L295.9417,902.6894 L294.0773,912.4906 L291.7063,922.1807 " fill="none" style="stroke:#8B0000;stroke-width:4.0;"/><polygon fill="#8B0000" points="290.42,928.0412,290.4764,928.0827,291.476,926.3727,292.8065,924.906,294.0291,923.3602,294.8976,921.5536,296.2564,920.1079,296.2424,920.0861,295.2268,920.5981,294.2817,921.22,293.3854,921.9185,292.3205,922.3534,291.4919,923.1574,291.6473,923.2569,290.705,922.0912,290.2166,921.2161,289.7834,920.3763,289.0282,919.3304,288.4424,918.3929,288.4647,918.3975,288.8275,920.3204,289.2917,922.2642,289.707,924.1979,290.2157,926.1507,290.42,928.0412" style="stroke:#8B0000;stroke-width:4.0;"/></g><!--link parai to para--><g id="link_parai_para"><path d="M639.49,183.9812 L639.7401,184.1075 L634.4336,192.7673 L630.5935,202.1678 L626.2759,211.327 L620.3879,219.6932 L616.5811,229.1105 L611.6028,237.936 L607.0907,246.9971 L602.9027,256.2218 L597.5977,264.8824 L594.5162,274.666 L588.5439,282.9896 L584.4954,292.2848 L580.6815,301.6985 L575.5021,310.4225 L571.1221,319.5503 L566.4396,328.5253 L562.1268,337.687 L557.6357,346.7586 L553.4849,356.0021 L548.2246,364.6853 " fill="none" style="stroke:#8B0000;stroke-width:4.0;"/><polygon fill="#8B0000" points="545.52,370.0412,545.5643,370.0954,546.9581,368.6881,548.6117,367.5987,550.1807,366.4059,551.4715,364.8724,553.1474,363.8104,553.1393,363.7858,552.0283,364.0289,550.958,364.396,549.9161,364.8493,548.7765,365.0055,547.7738,365.5779,547.9491,365.6356,547.2207,364.4376,547.0042,363.4079,546.85,362.3988,546.3326,361.2701,546.0063,360.2043,546.029,360.2054,545.8984,362.1712,545.8712,364.142,545.7941,366.1104,545.8122,368.0834,545.52,370.0412" style="stroke:#8B0000;stroke-width:4.0;"/></g><!--link nyi to ny--><g id="link_nyi_ny"><path d="M845,183.9812 L845.2802,183.9812 L844.4476,193.9845 L845.2577,203.9878 L845.5329,213.9912 L844.0488,223.9945 L844.8964,233.9978 L844.4313,244.0012 L844.4887,254.0045 L844.9091,264.0078 L844.0782,274.0112 L845.7382,284.0145 L844.1596,294.0178 L844.7363,304.0212 L845.5759,314.0245 L844.8856,324.0278 L845.091,334.0312 L844.9574,344.0345 L845.238,354.0378 L845,364.0412 " fill="none" style="stroke:#8B0000;stroke-width:4.0;"/><polygon fill="#8B0000" points="845,370.0412,845.064,370.0696,845.6738,368.1851,846.6589,366.4673,847.5217,364.6953,847.9827,362.7446,849,361.0412,848.9817,361.0228,848.0995,361.7406,847.3096,362.5508,846.5839,363.4251,845.637,364.0782,845,365.0412,845.1305,365.1717,844.0514,364.0926,843.3534,363.3945,842.7018,362.743,841.7798,361.8209,841,361.0412,841.0208,361.0504,841.7903,362.8368,842.6544,364.6653,843.4728,366.4735,844.3784,368.3205,845,370.0412" style="stroke:#8B0000;stroke-width:4.0;"/></g><!--SRC=[VP9HIyCm4CVVyodEFVZMJOPFFWYbKnXqEbR55q6EDXjXQLBI6rh4x-ubTJEjmvRIyBl_NUx-oOKofJvKygr6qy5qLY5XmclSoLeQIbhgj9pI1mbIfEKDh9TvkYbWMJSwA92KDIqaKAiAvbVpQ-5aIMXsMi9af9h0PnnTfvjqiIpkiWbW2mqwL77ueLDcXyw4gEa6iUUd0XRSAZJM4UeWEL0RInvNQHguhMESBp3hkQwmHF4bn22haGOAUt2bX2ThzLvH2pCcMtf79_q44CkDwlSmQi1Feq5cAtcQRw0vpWSlrktR1alvCwdmJKN2ef5b2vTGCAZGLMCVLvBGdzi8v_m_8CdUgCpMDH_1gzay9fdpUEtiLcbvygBXTE7tZceSnK7aR1aIFqE3Osb1rl6j2Gxn4vkKtUSU1_urZZxy7-OkFphLKk-X-zNvrwz0yCLDaig-coIvXL0EX7Sxefme-9lUWWyBFgue6D2mIk_7kCeF7MQVXKUhs2HRHzoh15_KCGftyHni_XODNSMRXIwv_vZnDE8R]--></g></svg>