<?xml version="1.0" encoding="us-ascii" standalone="no"?><svg xmlns="http://www.w3.org/2000/svg" xmlns:xlink="http://www.w3.org/1999/xlink" contentStyleType="text/css" height="1198px" preserveAspectRatio="none" style="width:1507px;height:1198px;background:#FFFFFF;" version="1.1" viewBox="0 0 1507 1198" width="1507px" zoomAndPan="magnify"><defs/><g><text fill="#000000" font-family="Chalkduster" font-size="42" font-weight="bold" lengthAdjust="spacing" textLength="1089" x="207.5" y="61.7215">3 Steps to PILARS-style Archival-Repositories</text><text fill="#000000" font-family="Chalkduster" font-size="42" font-weight="bold" lengthAdjust="spacing" textLength="895" x="304.5" y="115.3238">(Turn that R: drive into an `RRKive`)</text><polygon fill="#222222" points="544.0552,150.6368,542.5894,152.6397,540.8556,155.5732,538.376,157.5502,535.7703,158.6313,533.6927,158.7252,531.0224,157.3731,528.5029,156.4898,526.5905,154.6964,525.5873,152.6433,524.9924,151.0085,524.4096,148.8732,523.4636,147.0358,524.1906,145.2417,524.8275,143.2764,527.2175,141.7221,528.8991,139.7054,530.9804,139.0357,533.4547,138.459,536.6276,138.8017,538.3655,139.6213,540.3861,139.9928,542.8429,142.5099,543.6993,145.1671,544.0714,146.9802,543.65,149.9679" style="stroke:#222222;stroke-width:1.0;"/><path d="M708,168.4934 L708.5605,168.4934 L706.8951,178.8144 L708.5154,189.1355 L709.0658,199.4565 L706.0976,209.7776 L707.7928,220.0986 L706.8627,230.4197 L706.9773,240.7408 L707.8182,251.0618 L708,261.3829 L707.8795,260.7803 L704.0965,262.6654 L699.8901,262.4335 L695.9655,263.6105 L692.0753,264.9594 L688,265.3829 L687.985,265.3081 L692.0119,266.2424 L695.9944,266.955 L700.0311,267.9385 L704.0417,268.7913 L708,269.3829 L709.5618,269.3829 L709.7895,279.7039 L709.8114,290.025 L708.679,300.346 L709.2362,310.6671 L709.8726,320.9881 L706.0768,331.3092 L709.8094,341.6303 L707.2093,351.9513 L708,362.2724 L708,362.2724 L708,363.6959 L717.9464,360.9523 L727.8929,362.0897 L737.8393,364.25 L747.7857,362.1424 L757.7321,362.5532 L767.6786,363.1754 L777.625,363.3823 L787.5714,362.262 L797.5179,363.0383 L807.4643,360.7459 L817.4107,363.0307 L827.3571,363.7342 L837.3036,363.4578 L847.25,363.9071 L857.1964,360.9842 L867.1429,360.5332 L877.0893,360.6153 L887.0357,362.1154 L896.9821,361.7483 L906.9286,364.0895 L916.875,361.8066 L926.8214,361.3576 L936.7679,362.8811 L946.7143,360.4941 L956.6607,360.888 L966.6071,364.0029 L976.5536,363.4342 L986.5,364.231 L996.4464,361.4143 L1006.3929,363.1236 L1016.3393,363.8468 L1026.2857,361.0126 L1036.2321,362.0167 L1046.1786,362.6083 L1056.125,364.0104 L1066.0714,362.2612 L1076.0179,363.5059 L1085.9643,360.7956 L1095.9107,360.4664 L1105.8571,363.6153 L1115.8036,360.3605 L1125.75,363.6296 L1135.6964,362.8234 L1145.6429,361.5579 L1155.5893,361.329 L1165.5357,363.4957 L1175.4821,361.4742 L1185.4286,363.8507 L1195.375,360.7984 L1205.3214,363.9188 L1215.2679,363.5638 L1225.2143,362.9256 L1235.1607,362.3983 L1245.1071,364.21 L1255.0536,363.9086 L1265,362.2724 L1265,362.2724 L1265.4513,362.2724 L1265.7152,352.0624 L1264.6526,341.8525 L1266.9105,331.6425 L1265.413,321.4326 L1265.4602,311.2226 L1263.3777,301.0127 L1263.9194,290.8028 L1266.4153,280.5928 L1266.146,270.3829 L1264.8855,260.1729 L1264.1409,249.963 L1264.4162,239.753 L1263.1702,229.5431 L1266.106,219.3331 L1266.9722,209.1232 L1266.4037,198.9133 L1266.8532,188.7033 L1265,178.4934 L1264.9141,178.4074 L1263.0548,176.5482 L1260.7564,174.2498 L1259.1785,172.6719 L1257.1551,170.6485 L1255,168.4934 L1255,169.9664 L1245.0545,167.881 L1235.1091,168.135 L1225.1636,169.6759 L1215.2182,170.0063 L1205.2727,167.1266 L1195.3273,167.9764 L1185.3818,168.8914 L1175.4364,166.8645 L1165.4909,169.4358 L1155.5455,169.1813 L1145.6,168.2247 L1135.6545,168.8727 L1125.7091,170.4365 L1115.7636,167.659 L1105.8182,169.3333 L1095.8727,169.2551 L1085.9273,168.8021 L1075.9818,168.8692 L1066.0364,168.796 L1056.0909,166.829 L1046.1455,167.4245 L1036.2,167.2626 L1026.2545,168.6636 L1016.3091,168.7284 L1006.3636,168.9247 L996.4182,167.7174 L986.4727,168.3133 L976.5273,168.1728 L966.5818,170.0316 L956.6364,169.6309 L946.6909,167.1986 L936.7455,168.2989 L926.8,166.9541 L916.8545,169.2624 L906.9091,170.116 L896.9636,169.9455 L887.0182,167.3319 L877.0727,169.7306 L867.1273,166.5125 L857.1818,169.0271 L847.2364,167.6952 L837.2909,168.7513 L827.3455,169.1343 L817.4,169.7523 L807.4545,166.5736 L797.5091,169.7613 L787.5636,168.9685 L777.6182,169.4409 L767.6727,170.4875 L757.7273,168.508 L747.7818,168.9608 L737.8364,169.0625 L727.8909,169.0193 L717.9455,168.4912 L708,168.4934 L708,168.4934 " fill="#FFFFE0" style="stroke:#181818;stroke-width:4.0;"/><path d="M1255,168.4934 L1255.1868,168.4934 L1254.6317,170.4934 L1255.1718,172.4934 L1255.3553,174.4934 L1254.3659,176.4934 L1255,178.4934 L1255,178.4243 L1257,178.1143 L1259,178.1525 L1261,178.4328 L1263,177.8788 L1265,178.4934 L1265.348,178.8414 L1262.6038,176.0972 L1260.8757,174.3691 L1259.2715,172.7649 L1256.9461,170.4395 L1255,168.4934 " fill="#FFFFE0" style="stroke:#181818;stroke-width:4.0;"/><text fill="#000000" font-family="Chalkduster" font-size="24" lengthAdjust="spacing" textLength="220" x="714" y="197.3343">Make "Folders":</text><text fill="#000000" font-family="Chalkduster" font-size="24" lengthAdjust="spacing" textLength="389" x="714" y="227.9641">-  Manageable sized objects</text><text fill="#000000" font-family="Chalkduster" font-size="24" lengthAdjust="spacing" textLength="536" x="714" y="258.5939">-  Treat collections as metadata-only</text><text fill="#000000" font-family="Chalkduster" font-size="24" lengthAdjust="spacing" textLength="95" x="750" y="289.2238">objects</text><text fill="#000000" font-family="Chalkduster" font-size="24" lengthAdjust="spacing" textLength="413" x="714" y="319.8536">-  Common access conditions</text><text fill="#000000" font-family="Chalkduster" font-size="24" lengthAdjust="spacing" textLength="296" x="750" y="350.4834">(licensing) per object</text><polygon fill="#F1F1F1" points="392.5,224.753,392.5,224.9632,402.6071,224.3387,412.7143,224.9463,422.8214,225.1527,432.9286,224.0396,443.0357,224.6753,453.1429,224.3265,463.25,224.3695,473.3571,224.6849,483.4643,224.0617,493.5714,225.3067,503.6786,224.1228,513.7857,224.5553,523.8929,225.185,534,224.6673,544.1071,224.8213,554.2143,224.7211,564.3214,224.9316,574.4286,224.9922,584.5357,225.3387,594.6429,225.4241,604.75,225.4323,614.8571,225.0077,624.9643,225.2166,635.0714,225.4553,645.1786,224.0319,655.2857,225.4315,665.3929,224.4565,675.5,224.753,675.5681,224.9174,677.2046,225.3328,679.0268,226.1964,680.8979,227.1781,682.5649,227.667,684.3388,228.4142,684.3713,228.4276,685.1754,230.2252,685.9315,232.0028,686.5343,233.717,687.3562,235.5219,688,237.253,687.4276,237.253,688.2844,246.6296,688.5482,256.0063,688.4445,265.3829,688.613,274.7595,687.5169,284.1361,688,293.5127,687.7992,293.4295,687.0764,295.2012,686.5174,297.0407,685.7428,298.7909,685.2809,300.6707,684.3388,302.3515,684.3166,302.2977,682.5273,302.9781,680.8324,303.8863,678.9505,304.3429,677.2015,305.1206,675.5,306.0127,675.5,306.6617,665.3929,306.4484,655.2857,306.7472,645.1786,305.6909,635.0714,306.3319,624.9643,306.6031,614.8571,305.5403,604.75,305.9168,594.6429,306.1387,584.5357,306.6645,574.4286,306.0085,564.3214,306.4753,554.2143,305.4589,544.1071,305.3354,534,306.5163,523.8929,305.2958,513.7857,306.5217,503.6786,306.2193,493.5714,305.7448,483.4643,305.6589,473.3571,306.4715,463.25,305.7134,453.1429,306.6046,443.0357,305.46,432.9286,306.6301,422.8214,306.497,412.7143,306.2577,402.6071,306.0599,392.5,306.0127,392.5927,306.2365,390.8105,305.4694,388.9861,304.6004,387.2309,303.8986,385.4123,303.0437,383.6612,302.3515,383.8818,302.4429,382.9766,300.6035,382.2498,298.838,381.2771,296.9706,380.6074,295.2288,380,293.5127,380.5307,293.5127,380.4298,284.1361,379.9571,274.7595,379.6778,265.3829,379.7811,256.0063,379.3138,246.6296,380,237.253,380.1277,237.3059,380.96,235.5796,381.6266,233.7847,382.4107,232.0384,382.8868,230.1645,383.6612,228.4142,383.6723,228.4411,385.3795,227.5626,387.2329,227.0372,388.9959,226.2935,390.8027,225.6554,392.5,224.753" style="stroke:#181818;stroke-width:0.5;"/><text fill="#000000" font-family="Chalkduster" font-size="24" lengthAdjust="spacing" textLength="232" x="390" y="258.5939">1: Organize data</text><text fill="#000000" font-family="Chalkduster" font-size="24" lengthAdjust="spacing" textLength="288" x="390" y="289.2238">into "Digital Objects"</text><path d="M738.5,372.5613 L739.0605,372.5613 L737.3951,382.7503 L739.0154,392.9392 L739.5658,403.1282 L736.5976,413.3171 L738.2928,423.5061 L737.3627,433.695 L737.4773,443.884 L738.3182,454.0729 L736.6563,464.2619 L738.5,474.4508 L738.5,475.9272 L748.4615,472.7701 L758.4231,473.9234 L768.3846,475.6027 L778.3462,474.2221 L788.3077,474.6328 L798.2692,474.3656 L808.2308,474.9269 L818.1923,475.0885 L828.1538,476.0127 L838.1154,476.2403 L848.0769,476.2622 L858.0385,475.1298 L868,475.687 L877.9615,476.3234 L887.9231,472.5277 L897.8846,476.2602 L907.8462,473.6601 L917.8077,475.8743 L927.7692,473.1308 L937.7308,474.2682 L947.6923,476.4284 L957.6538,474.3209 L967.6154,474.7316 L977.5769,475.3538 L987.5385,475.5608 L997.5,474.4404 L1007.4615,475.2167 L1017.4231,472.9244 L1027.3846,475.2092 L1037.3462,475.9127 L1047.3077,475.6362 L1057.2692,476.0856 L1067.2308,473.1626 L1077.1923,472.7117 L1087.1538,472.7938 L1097.1154,474.2938 L1107.0769,473.9267 L1117.0385,476.2679 L1127,473.985 L1136.9615,473.536 L1146.9231,475.0595 L1156.8846,472.6726 L1166.8462,473.0665 L1176.8077,476.1814 L1186.7692,475.6126 L1196.7308,476.4095 L1206.6923,473.5927 L1216.6538,475.302 L1226.6154,476.0253 L1236.5769,473.1911 L1246.5385,474.1952 L1256.5,474.4508 L1256.836,474.4508 L1258.238,464.2409 L1256.4888,454.0309 L1257.7335,443.821 L1255.0232,433.611 L1254.694,423.4011 L1257.843,413.1912 L1254.5882,402.9812 L1257.8572,392.7713 L1256.5,382.5613 L1256.6299,382.6912 L1254.3316,380.3929 L1252.2776,378.339 L1250.7883,376.8497 L1248.3119,374.3732 L1246.5,372.5613 L1246.5,374.1396 L1236.5392,371.0873 L1226.5784,374.2078 L1216.6176,373.8528 L1206.6569,373.2146 L1196.6961,372.6872 L1186.7353,374.4989 L1176.7745,374.1975 L1166.8137,373.0127 L1156.8529,373.2765 L1146.8922,372.2139 L1136.9314,374.4719 L1126.9706,372.9743 L1117.0098,373.0215 L1107.049,370.9391 L1097.0882,371.4807 L1087.1275,373.9766 L1077.1667,373.7074 L1067.2059,372.4468 L1057.2451,371.7022 L1047.2843,371.9775 L1037.3235,370.7315 L1027.3627,373.6673 L1017.402,374.5335 L1007.4412,373.965 L997.4804,374.4145 L987.5196,372.1967 L977.5588,372.7939 L967.598,371.5277 L957.6373,373.3188 L947.6765,373.2194 L937.7157,374.0344 L927.7549,371.9489 L917.7941,372.2029 L907.8333,373.7439 L897.8725,374.0742 L887.9118,371.1946 L877.951,372.0443 L867.9902,372.9594 L858.0294,370.9324 L848.0686,373.5037 L838.1078,373.2493 L828.1471,372.2926 L818.1863,372.9407 L808.2255,374.5045 L798.2647,371.727 L788.3039,373.4013 L778.3431,373.323 L768.3824,372.87 L758.4216,372.9371 L748.4608,372.8639 L738.5,372.5613 " fill="#FFFFE0" style="stroke:#181818;stroke-width:4.0;"/><path d="M1246.5,372.5613 L1246.6868,372.5613 L1246.1317,374.5613 L1246.6718,376.5613 L1246.8553,378.5613 L1245.8659,380.5613 L1246.5,382.5613 L1246.5,382.4922 L1248.5,382.1822 L1250.5,382.2204 L1252.5,382.5007 L1254.5,381.9468 L1256.5,382.5613 L1256.848,382.9093 L1254.1038,380.1652 L1252.3757,378.437 L1250.7715,376.8328 L1248.4461,374.5074 L1246.5,372.5613 " fill="#FFFFE0" style="stroke:#181818;stroke-width:4.0;"/><text fill="#000000" font-family="Chalkduster" font-size="24" lengthAdjust="spacing" textLength="497" x="744.5" y="401.4022">Oxford Common File Layout (OCFL)</text><text fill="#000000" font-family="Chalkduster" font-size="24" lengthAdjust="spacing" textLength="475" x="744.5" y="432.032">adds version control and content</text><text fill="#000000" font-family="Chalkduster" font-size="24" lengthAdjust="spacing" textLength="241" x="744.5" y="462.6619">integrity features</text><polygon fill="#F1F1F1" points="341.5,474.4508,341.5,474.661,351.3718,474.0365,361.2436,474.6441,371.1154,474.8505,380.9872,473.7374,390.859,474.3731,400.7308,474.0243,410.6026,474.0673,420.4744,474.3827,430.3462,473.7595,440.2179,475.0045,450.0897,473.8205,459.9615,474.2531,469.8333,474.8828,479.7051,474.365,489.5769,474.5191,499.4487,474.4189,509.3205,474.6293,519.1923,474.69,529.0641,475.0365,538.9359,475.1219,548.8077,475.1301,558.6795,474.7054,568.5513,474.9144,578.4231,475.1531,588.2949,473.7296,598.1667,475.1293,608.0385,474.1543,617.9103,474.9846,627.7821,473.9558,637.6538,474.3823,647.5256,475.1924,657.3974,474.4021,667.2692,474.5561,677.141,474.7894,687.0128,474.8671,696.8846,474.4469,706.7564,474.738,716.6282,473.8784,726.5,474.4508,726.5746,474.5093,729.0438,477.6265,731.4166,480.6682,733.8608,483.7658,735.9732,486.6034,738.5,489.7657,738.3289,489.6317,735.937,492.701,733.6846,495.8796,731.2484,498.9143,729.0788,502.1578,726.5,505.0807,726.5,504.906,716.6282,504.7376,706.7564,505.3089,696.8846,504.4138,687.0128,504.5615,677.141,505.7296,667.2692,505.5163,657.3974,505.8151,647.5256,504.7589,637.6538,505.3999,627.7821,505.6711,617.9103,504.6082,608.0385,504.9848,598.1667,505.2066,588.2949,505.7324,578.4231,505.0765,568.5513,505.5432,558.6795,504.5269,548.8077,504.4034,538.9359,505.5843,529.0641,504.3637,519.1923,505.5896,509.3205,505.2873,499.4487,504.8127,489.5769,504.7269,479.7051,505.5394,469.8333,504.7813,459.9615,505.6725,450.0897,504.5279,440.2179,505.6981,430.3462,505.565,420.4744,505.3256,410.6026,505.1279,400.7308,505.8073,390.859,505.6942,380.9872,505.2499,371.1154,505.3488,361.2436,504.9504,351.3718,505.7971,341.5,505.0807,341.5406,505.1125,339.1453,502.0532,336.5404,498.8296,334.1937,495.8084,332.0393,492.9378,329.5,489.7657,329.6128,489.8541,331.8887,486.6939,334.2155,483.5735,336.6426,480.5318,338.92,477.3727,341.5,474.4508" style="stroke:#181818;stroke-width:0.5;"/><text fill="#000000" font-family="Chalkduster" font-size="24" lengthAdjust="spacing" textLength="385" x="341.5" y="498.2917">Add more archival features</text><polygon fill="#F1F1F1" points="119,515.0807,119,515.2908,129.025,514.6663,139.05,515.2739,149.075,515.4803,159.1,514.3673,169.125,515.0029,179.15,514.6542,189.175,514.6972,199.2,515.0125,209.225,514.3893,219.25,515.6343,229.275,514.4504,239.3,514.8829,249.325,515.5126,259.35,514.9949,269.375,515.1489,279.4,515.0487,289.425,515.2592,299.45,515.3198,309.475,515.6663,319.5,515.7517,329.525,515.7599,339.55,515.3353,349.575,515.5442,359.6,515.7829,369.625,514.3595,379.65,515.7592,389.675,514.7842,399.7,515.6145,409.725,514.5856,419.75,515.0122,429.775,515.8223,439.8,515.0319,449.825,515.186,459.85,515.4193,469.875,515.4969,479.9,515.0767,489.925,515.3679,499.95,514.5082,509.975,515.365,520,515.0807,520.0699,515.2495,521.8245,515.9498,523.6137,516.7339,525.2417,517.1286,526.9879,517.8087,528.8388,518.7418,528.6475,518.6626,529.5529,520.5021,530.2428,522.2523,531.2454,524.132,531.714,525.7906,532.5,527.5807,532.1569,527.5807,532.7283,536.9573,531.8332,546.3339,531.9809,555.7105,533.149,565.0871,532.9357,574.4637,532.5,583.8403,532.7262,583.934,531.6687,585.567,531.1338,587.4166,530.4851,589.2189,529.4256,590.8511,528.8388,592.6792,528.8266,592.6496,527.0871,593.4502,525.3864,594.3443,523.535,594.8746,521.8268,595.7505,520,596.3403,520,595.7865,509.975,595.6631,499.95,596.8439,489.925,595.6234,479.9,596.8493,469.875,596.5469,459.85,596.0724,449.825,595.9865,439.8,596.7991,429.775,596.041,419.75,596.9322,409.725,595.7876,399.7,596.9577,389.675,596.8246,379.65,596.5853,369.625,596.3875,359.6,597.0669,349.575,596.9539,339.55,596.5096,329.525,596.6085,319.5,596.2101,309.475,597.0568,299.45,596.4952,289.425,596.5129,279.4,595.732,269.375,595.9351,259.35,596.8711,249.325,596.7701,239.3,596.2974,229.275,596.0182,219.25,596.1214,209.225,595.6541,199.2,596.7551,189.175,597.0799,179.15,596.8667,169.125,597.0353,159.1,596.2036,149.075,596.4275,139.05,595.9527,129.025,596.6244,119,596.3403,119.0315,596.4163,117.3027,595.7782,115.4352,594.8051,113.6796,594.1022,111.9855,593.548,110.1612,592.6792,110.3359,592.7515,109.2711,590.846,108.637,589.1189,108.0104,587.3949,107.0441,585.5302,106.5,583.8403,106.8534,583.8403,106.758,574.4637,106.3992,565.0871,106.6422,555.7105,107.2287,546.3339,106.1871,536.9573,106.5,527.5807,106.597,527.6208,107.3202,525.8493,108.0001,524.0599,108.7401,522.2953,109.4639,520.5241,110.1612,518.7418,110.0815,518.5496,111.8778,517.8862,113.6378,517.1352,115.4726,516.5648,117.2435,515.84,119,515.0807" style="stroke:#181818;stroke-width:0.5;"/><text fill="#000000" font-family="Chalkduster" font-size="24" lengthAdjust="spacing" textLength="358" x="116.5" y="548.9215">1a: Choose an alternative</text><text fill="#000000" font-family="Chalkduster" font-size="24" lengthAdjust="spacing" textLength="406" x="116.5" y="579.5514">eg Bagit manifests in folders</text><polygon fill="#F1F1F1" points="662.5,515.0807,662.5,515.2908,672.6176,514.6663,682.7353,515.2739,692.8529,515.4803,702.9706,514.3673,713.0882,515.0029,723.2059,514.6542,733.3235,514.6972,743.4412,515.0125,753.5588,514.3893,763.6765,515.6343,773.7941,514.4504,783.9118,514.8829,794.0294,515.5126,804.1471,514.9949,814.2647,515.1489,824.3824,515.0487,834.5,515.0807,834.5228,515.1356,836.2983,515.8865,838.1102,516.7255,839.8889,517.484,841.6577,518.2188,843.3388,518.7418,843.4172,518.7743,844.2138,520.5687,845.0196,522.3669,845.3134,523.9531,846.4767,525.8994,847,527.5807,846.9012,527.5807,847.1779,532.7066,846.835,537.8326,846.9772,542.9586,847.2472,548.0845,847,553.2105,846.985,553.2043,846.3002,554.9917,845.6398,556.7892,844.9315,558.5669,844.0699,560.2811,843.3388,562.0493,843.3755,562.1378,841.498,562.6053,839.8396,563.6014,838.1055,564.4148,836.3245,565.1152,834.5,565.7105,834.5,566.3235,824.3824,565.2274,814.2647,565.0583,804.1471,565.0891,794.0294,565.6516,783.9118,565.514,773.7941,566.3919,763.6765,565.5358,753.5588,565.3674,743.4412,565.9388,733.3235,565.0436,723.2059,565.1914,713.0882,566.3594,702.9706,566.1462,692.8529,566.445,682.7353,565.3887,672.6176,566.0297,662.5,565.7105,662.5753,565.8923,660.672,564.8328,658.9522,564.2165,657.2128,563.5526,655.5121,562.9823,653.6612,562.0493,653.6599,562.0488,653.0714,560.3406,652.0262,558.4431,651.2559,556.6596,650.8873,555.0425,650,553.2105,649.761,553.2105,650.1697,548.0845,650.0689,542.9586,649.9107,537.8326,649.8821,532.7066,650,527.5807,650.1413,527.6392,650.6401,525.7747,651.6467,524.1206,652.0265,522.2068,653.1191,520.5883,653.6612,518.7418,653.7229,518.891,655.4602,518.085,657.2027,517.2919,659.0572,516.7689,660.8105,516.0018,662.5,515.0807" style="stroke:#181818;stroke-width:0.5;"/><text fill="#000000" font-family="Chalkduster" font-size="24" lengthAdjust="spacing" textLength="177" x="660" y="548.9215">1a: Use OCFL</text><polygon fill="#F1F1F1" points="534,602.3403,534.0495,602.3899,536.3023,604.6427,538.8456,607.1859,541.2942,609.6345,543.4319,611.7722,546,614.3403,545.9817,614.322,543.4995,616.6398,541.1096,619.0499,538.7839,621.5243,536.237,623.7774,534,626.3403,534.1305,626.4708,531.4514,623.7918,529.1534,621.4937,526.9018,619.2421,524.3798,616.7201,522,614.3403,522.0161,614.3564,524.3925,611.9328,526.8421,609.5824,529.2564,607.1967,531.738,604.8784,534,602.3403" style="stroke:#181818;stroke-width:0.5;"/><path d="M20,676.9702 L20.5605,676.9702 L18.8951,687.1639 L20.5154,697.3577 L21.0658,707.5515 L18.0976,717.7453 L19.7928,727.9391 L18.8627,738.1329 L18.9773,748.3267 L19.8182,758.5205 L18.1563,768.7143 L21.4764,778.9081 L18.3193,789.1019 L19.4726,799.2957 L20,809.4895 L20,810.6413 L29.9474,809.2607 L39.8947,809.6715 L49.8421,809.4043 L59.7895,809.9656 L69.7368,810.1272 L79.6842,811.0513 L89.6316,811.279 L99.5789,811.3008 L109.5263,810.1685 L119.4737,810.7257 L129.4211,811.3621 L139.3684,807.5663 L149.3158,811.2988 L159.2632,808.6988 L169.2105,810.913 L179.1579,808.1694 L189.1053,809.3068 L199.0526,811.4671 L209,809.3595 L218.9474,809.7703 L228.8947,810.3925 L238.8421,810.5994 L248.7895,809.4791 L258.7368,810.2554 L268.6842,807.963 L278.6316,810.2479 L288.5789,810.9513 L298.5263,810.6749 L308.4737,811.1242 L318.4211,808.2013 L328.3684,807.7503 L338.3158,807.8324 L348.2632,809.3325 L358.2105,808.9654 L368.1579,811.3066 L378.1053,809.0237 L388.0526,808.5747 L398,809.4895 L398.6087,809.4895 L396.2218,799.2795 L396.6157,789.0696 L399.7305,778.8597 L399.1618,768.6497 L399.9586,758.4398 L397.1419,748.2298 L398.8512,738.0199 L399.5745,727.8099 L396.7403,717.6 L397.7444,707.39 L398.336,697.1801 L398,686.9702 L398.4097,687.3798 L395.9974,684.9675 L394.2907,683.2609 L391.6519,680.6221 L389.5743,678.5445 L388,676.9702 L388,678.3131 L378.0541,675.0583 L368.1081,678.3274 L358.1622,677.5212 L348.2162,676.2557 L338.2703,676.0268 L328.3243,678.1935 L318.3784,676.1719 L308.4324,678.5485 L298.4865,675.4962 L288.5405,678.6166 L278.5946,678.2616 L268.6486,677.6234 L258.7027,677.0961 L248.7568,678.9078 L238.8108,678.6064 L228.8649,677.4215 L218.9189,677.6853 L208.973,676.6228 L199.027,678.8807 L189.0811,677.3831 L179.1351,677.4303 L169.1892,675.3479 L159.2432,675.8896 L149.2973,678.3855 L139.3514,678.1162 L129.4054,676.8557 L119.4595,676.111 L109.5135,676.3863 L99.5676,675.1404 L89.6216,678.0761 L79.6757,678.9423 L69.7297,678.3739 L59.7838,678.8233 L49.8378,676.6055 L39.8919,677.2027 L29.9459,675.9366 L20,676.9702 " fill="#FFFFE0" style="stroke:#181818;stroke-width:4.0;"/><path d="M388,676.9702 L388.1868,676.9702 L387.6317,678.9702 L388.1718,680.9702 L388.3553,682.9702 L387.3659,684.9702 L388,686.9702 L388,686.9011 L390,686.591 L392,686.6293 L394,686.9096 L396,686.3556 L398,686.9702 L398.348,687.3181 L395.6038,684.574 L393.8757,682.8458 L392.2715,681.2416 L389.9461,678.9162 L388,676.9702 " fill="#FFFFE0" style="stroke:#181818;stroke-width:4.0;"/><text fill="#000000" font-family="Chalkduster" font-size="24" lengthAdjust="spacing" textLength="357" x="26" y="705.811">RO-Crate metadata tools:</text><text fill="#000000" font-family="Chalkduster" font-size="24" lengthAdjust="spacing" textLength="111" x="26" y="736.4409">- Forms</text><text fill="#000000" font-family="Chalkduster" font-size="24" lengthAdjust="spacing" textLength="198" x="26" y="767.0707">- Spreadsheets</text><text fill="#000000" font-family="Chalkduster" font-size="24" lengthAdjust="spacing" textLength="348" x="26" y="797.7005">- Batch crosswalk scripts</text><path d="M670,646.3403 L670.5605,646.3403 L668.8951,656.5392 L670.5154,666.7381 L671.0658,676.937 L668.0976,687.1359 L669.7928,697.3348 L668.8627,707.5337 L668.9773,717.7326 L669.8182,727.9315 L668.1563,738.1304 L671.4764,748.3293 L668.3193,758.5282 L669.4726,768.7271 L671.1519,778.926 L669.7713,789.1248 L670.182,799.3237 L669.9148,809.5226 L670.4761,819.7215 L670.6377,829.9204 L670,840.1193 L670,841.6812 L680.0196,841.9088 L690.0392,841.9307 L700.0588,840.7983 L710.0784,841.3555 L720.098,841.9919 L730.1176,838.1962 L740.1373,841.9287 L750.1569,839.3286 L760.1765,841.5428 L770.1961,838.7993 L780.2157,839.9367 L790.2353,842.0969 L800.2549,839.9894 L810.2745,840.4001 L820.2941,841.0223 L830.3137,841.2293 L840.3333,840.1089 L850.3529,840.8852 L860.3725,838.5929 L870.3922,840.8777 L880.4118,841.5812 L890.4314,841.3047 L900.451,841.7541 L910.4706,838.8311 L920.4902,838.3802 L930.5098,838.4623 L940.5294,839.9623 L950.549,839.5952 L960.5686,841.9364 L970.5882,839.6535 L980.6078,839.2045 L990.6275,840.728 L1000.6471,838.3411 L1010.6667,838.735 L1020.6863,841.8499 L1030.7059,841.2811 L1040.7255,842.078 L1050.7451,839.2612 L1060.7647,840.9705 L1070.7843,841.6938 L1080.8039,838.8596 L1090.8235,839.8637 L1100.8431,840.4553 L1110.8627,841.8573 L1120.8824,840.1081 L1130.902,841.3528 L1140.9216,838.6426 L1150.9412,838.3133 L1160.9608,841.4623 L1170.9804,838.2075 L1181,840.1193 L1182.3572,840.1193 L1181.551,829.9094 L1180.2856,819.6994 L1180.0566,809.4895 L1182.2234,799.2795 L1180.2018,789.0696 L1182.5783,778.8597 L1179.526,768.6497 L1182.6465,758.4398 L1182.2915,748.2298 L1181.6532,738.0199 L1181.1259,727.8099 L1182.9376,717.6 L1182.6362,707.39 L1181.4513,697.1801 L1181.7152,686.9702 L1180.6526,676.7602 L1182.9105,666.5503 L1181,656.3403 L1181.0973,656.4377 L1179.1085,654.4488 L1176.6176,651.9579 L1174.7453,650.0856 L1173.3336,648.6739 L1171,646.3403 L1171,647.4863 L1160.98,646.2258 L1150.96,645.4812 L1140.94,645.7565 L1130.92,644.5105 L1120.9,647.4463 L1110.88,648.3125 L1100.86,647.744 L1090.84,648.1935 L1080.82,645.9757 L1070.8,646.5729 L1060.78,645.3067 L1050.76,647.0978 L1040.74,646.9984 L1030.72,647.8134 L1020.7,645.7279 L1010.68,645.9819 L1000.66,647.5229 L990.64,647.8532 L980.62,644.9736 L970.6,645.8233 L960.58,646.7384 L950.56,644.7114 L940.54,647.2827 L930.52,647.0283 L920.5,646.0716 L910.48,646.7197 L900.46,648.2835 L890.44,645.506 L880.42,647.1803 L870.4,647.102 L860.38,646.649 L850.36,646.7161 L840.34,646.6429 L830.32,644.6759 L820.3,645.2715 L810.28,645.1096 L800.26,646.5105 L790.24,646.5753 L780.22,646.7716 L770.2,645.5644 L760.18,646.1603 L750.16,646.0197 L740.14,647.8786 L730.12,647.4778 L720.1,645.0456 L710.08,646.1459 L700.06,644.801 L690.04,647.1093 L680.02,647.9629 L670,646.3403 " fill="#FFFFE0" style="stroke:#181818;stroke-width:4.0;"/><path d="M1171,646.3403 L1171.1868,646.3403 L1170.6317,648.3403 L1171.1718,650.3403 L1171.3553,652.3403 L1170.3659,654.3403 L1171,656.3403 L1171,656.2712 L1173,655.9612 L1175,655.9994 L1177,656.2797 L1179,655.7258 L1181,656.3403 L1181.348,656.6883 L1178.6038,653.9442 L1176.8757,652.216 L1175.2715,650.6118 L1172.9461,648.2864 L1171,646.3403 " fill="#FFFFE0" style="stroke:#181818;stroke-width:4.0;"/><text fill="#000000" font-family="Chalkduster" font-size="24" lengthAdjust="spacing" textLength="126" x="676" y="675.1812">- License</text><text fill="#000000" font-family="Chalkduster" font-size="24" lengthAdjust="spacing" textLength="315" x="676" y="705.811">- Assign IDs (DOIs etc)</text><text fill="#000000" font-family="Chalkduster" font-size="24" lengthAdjust="spacing" textLength="478" x="676" y="736.4409">- Object&lt;-&gt;Collection relationships</text><text fill="#000000" font-family="Chalkduster" font-size="24" lengthAdjust="spacing" textLength="253" x="676" y="767.0707">- Who, what where</text><text fill="#000000" font-family="Chalkduster" font-size="24" lengthAdjust="spacing" textLength="257" x="676" y="797.7005">- File descriptions</text><text fill="#000000" font-family="Chalkduster" font-size="24" lengthAdjust="spacing" textLength="187" x="676" y="828.3304">- Provenance</text><polygon fill="#F1F1F1" points="420.5,702.6,420.5,702.8102,430.3696,702.1857,440.2391,702.7933,450.1087,702.9997,459.9783,701.8866,469.8478,702.5223,479.7174,702.1735,489.587,702.2165,499.4565,702.5318,509.3261,701.9086,519.1957,703.1536,529.0652,701.9697,538.9348,702.4022,548.8043,703.0319,558.6739,702.5142,568.5435,702.6682,578.413,702.568,588.2826,702.7785,598.1522,702.8391,608.0217,703.1857,617.8913,703.271,627.7609,703.2792,637.6304,702.8546,647.5,702.6,647.5591,702.7428,649.3573,703.5485,650.9435,703.8424,652.8899,705.0056,654.5332,705.4376,656.3388,706.2612,656.5032,706.3292,656.9186,707.9658,657.7822,709.7879,658.7639,711.6591,659.2528,713.326,660,715.1,660.1053,715.1,660.3386,724.4766,660.4162,733.8532,659.9961,743.2298,660.2872,752.6064,659.4276,761.983,660,771.3597,660.0876,771.3959,659.4366,773.1973,658.6724,774.9519,657.9921,776.7412,656.9223,778.3691,656.3388,780.1985,656.2556,779.9976,654.4918,780.7394,652.7958,781.6448,651.0105,782.3347,649.3547,783.3373,647.5,783.8597,647.5,783.685,637.6304,783.5166,627.7609,784.0879,617.8913,783.1928,608.0217,783.3405,598.1522,784.5086,588.2826,784.2953,578.413,784.5941,568.5435,783.5379,558.6739,784.1789,548.8043,784.4501,538.9348,783.3872,529.0652,783.7638,519.1957,783.9856,509.3261,784.5114,499.4565,783.8555,489.587,784.3222,479.7174,783.3059,469.8478,783.1824,459.9783,784.3633,450.1087,783.1427,440.2391,784.3686,430.3696,784.0663,420.5,783.8597,420.4658,783.7771,418.6871,783.0185,417.023,782.5365,415.1585,781.5708,413.5044,781.113,411.6612,780.1985,411.4909,780.128,411.1191,778.5095,410.3458,776.7247,409.5399,774.9264,408.7468,773.1334,408,771.3597,408.7266,771.3597,408.6136,761.983,408.1693,752.6064,408.2682,743.2298,407.8697,733.8532,408.7165,724.4766,408,715.1,408.0477,715.1197,408.7854,713.3542,409.2771,711.4869,410.0719,709.745,411.0924,708.0966,411.6612,706.2612,411.716,706.3935,413.4235,705.5157,415.1556,704.6975,416.9365,703.997,418.6447,703.1209,420.5,702.6" style="stroke:#181818;stroke-width:0.5;"/><text fill="#000000" font-family="Chalkduster" font-size="24" lengthAdjust="spacing" textLength="232" x="418" y="736.4409">2: Add metadata</text><text fill="#000000" font-family="Chalkduster" font-size="24" lengthAdjust="spacing" textLength="212" x="418" y="767.0707">for each object</text><path d="M723.5,875.1193 L723.6868,875.1193 L723.1317,881.4453 L723.6718,887.7713 L723.8553,894.0972 L722.8659,900.4232 L723.5,906.7492 L723.4865,906.6814 L719.4257,907.1774 L715.4331,908.0149 L711.4881,909.0897 L707.3795,909.3465 L703.5,910.7492 L703.5965,911.2317 L707.3901,910.9998 L711.4655,912.1768 L715.5753,913.5256 L719.485,913.8744 L723.5,914.7492 L723.5607,914.7492 L723.4716,921.0751 L723.6587,927.4011 L723.7126,933.7271 L724.0206,940.053 L723.5,946.379 L723.5,946.379 L723.5,948.1685 L733.55,948.1903 L743.6,947.058 L753.65,947.6152 L763.7,948.2516 L773.75,944.4558 L783.8,948.1883 L793.85,945.5883 L803.9,947.8025 L813.95,945.0589 L824,946.1963 L834.05,948.3566 L844.1,946.249 L854.15,946.6598 L864.2,947.282 L874.25,947.4889 L884.3,946.3686 L894.35,947.1449 L904.4,944.8525 L914.45,947.1374 L924.5,947.8408 L934.55,947.5644 L944.6,948.0137 L954.65,945.0908 L964.7,944.6398 L974.75,944.7219 L984.8,946.222 L994.85,945.8549 L1004.9,948.1961 L1014.95,945.9132 L1025,945.4642 L1035.05,946.9877 L1045.1,944.6007 L1055.15,944.9947 L1065.2,948.1095 L1075.25,947.5408 L1085.3,948.3376 L1095.35,945.5209 L1105.4,947.2302 L1115.45,947.9534 L1125.5,945.1192 L1135.55,946.1234 L1145.6,946.7149 L1155.65,948.117 L1165.7,946.3678 L1175.75,947.6125 L1185.8,944.9022 L1195.85,944.573 L1205.9,947.722 L1215.95,944.4671 L1226,947.7362 L1236.05,946.93 L1246.1,945.6645 L1256.15,945.4356 L1266.2,947.6023 L1276.25,945.5808 L1286.3,947.9573 L1296.35,944.905 L1306.4,948.0255 L1316.45,947.6705 L1326.5,946.379 L1326.5,946.379 L1327.1532,946.379 L1326.6259,936.169 L1328.4376,925.9591 L1328.1362,915.7492 L1326.9513,905.5392 L1327.2152,895.3293 L1326.5,885.1193 L1326.4181,885.0374 L1324.9503,883.5696 L1322.5973,881.2167 L1320.6085,879.2278 L1318.1176,876.7369 L1316.5,875.1193 L1316.5,874.0387 L1306.4492,876.5346 L1296.3983,876.2653 L1286.3475,875.0048 L1276.2966,874.2602 L1266.2458,874.5355 L1256.1949,873.2895 L1246.1441,876.2253 L1236.0932,877.0915 L1226.0424,876.523 L1215.9915,876.9725 L1205.9407,874.7547 L1195.8898,875.3519 L1185.839,874.0857 L1175.7881,875.8768 L1165.7373,875.7774 L1155.6864,876.5924 L1145.6356,874.5069 L1135.5847,874.7609 L1125.5339,876.3019 L1115.4831,876.6322 L1105.4322,873.7526 L1095.3814,874.6023 L1085.3305,875.5174 L1075.2797,873.4904 L1065.2288,876.0617 L1055.178,875.8073 L1045.1271,874.8506 L1035.0763,875.4987 L1025.0254,877.0625 L1014.9746,874.285 L1004.9237,875.9593 L994.8729,875.881 L984.822,875.428 L974.7712,875.4951 L964.7203,875.4219 L954.6695,873.4549 L944.6186,874.0505 L934.5678,873.8886 L924.5169,875.2895 L914.4661,875.3543 L904.4153,875.5506 L894.3644,874.3434 L884.3136,874.9393 L874.2627,874.7987 L864.2119,876.6576 L854.161,876.2568 L844.1102,873.8246 L834.0593,874.9249 L824.0085,873.58 L813.9576,875.8883 L803.9068,876.7419 L793.8559,876.5715 L783.8051,873.9578 L773.7542,876.3566 L763.7034,873.1385 L753.6525,875.6531 L743.6017,874.3212 L733.5508,875.3772 L723.5,875.1193 L723.5,875.1193 " fill="#FFFFE0" style="stroke:#181818;stroke-width:4.0;"/><path d="M1316.5,875.1193 L1316.6868,875.1193 L1316.1317,877.1193 L1316.6718,879.1193 L1316.8553,881.1193 L1315.8659,883.1193 L1316.5,885.1193 L1316.5,885.0502 L1318.5,884.7402 L1320.5,884.7784 L1322.5,885.0587 L1324.5,884.5048 L1326.5,885.1193 L1326.848,885.4673 L1324.1038,882.7232 L1322.3757,880.995 L1320.7715,879.3908 L1318.4461,877.0654 L1316.5,875.1193 " fill="#FFFFE0" style="stroke:#181818;stroke-width:4.0;"/><text fill="#000000" font-family="Chalkduster" font-size="24" lengthAdjust="spacing" textLength="582" x="729.5" y="903.9602">Ready for institutional storage service or</text><text fill="#000000" font-family="Chalkduster" font-size="24" lengthAdjust="spacing" textLength="396" x="729.5" y="934.59">other well-governed storage</text><polygon fill="#F1F1F1" points="377,870.1193,377,870.3295,387.129,869.705,397.2581,870.3126,407.3871,870.519,417.5161,869.4059,427.6452,870.0416,437.7742,869.6928,447.9032,869.7358,458.0323,870.0512,468.1613,869.428,478.2903,870.673,488.4194,869.489,498.5484,869.9216,508.6774,870.5513,518.8065,870.0335,528.9355,870.1876,539.0645,870.0874,549.1935,870.2978,559.3226,870.3585,569.4516,870.705,579.5806,870.7904,589.7097,870.7986,599.8387,870.3739,609.9677,870.5829,620.0968,870.8216,630.2258,869.3981,640.3548,870.7978,650.4839,869.8228,660.6129,870.6531,670.7419,869.6243,680.871,870.0508,691,870.1193,691.0946,870.3477,692.7616,870.8365,694.549,871.6162,696.3465,872.4203,698.1242,873.1764,699.8388,873.7805,699.8376,873.78,700.6595,875.5849,701.127,877.243,702.1231,879.1201,702.9366,880.9215,703.5,882.6193,703.9445,882.6193,704.113,891.9959,703.0169,901.3725,702.8478,910.7492,702.8786,920.1258,703.4411,929.5024,703.5,938.879,703.4395,938.8539,702.9776,940.7337,701.9817,942.3922,701.1977,944.1385,700.6414,945.9792,699.8388,947.7178,699.7538,947.5125,698.0048,948.2902,696.3861,949.3821,694.5911,950.0487,692.8615,950.8729,691,951.379,691,951.0572,680.871,951.6982,670.7419,951.9694,660.6129,950.9066,650.4839,951.2831,640.3548,951.505,630.2258,952.0307,620.0968,951.3748,609.9677,951.8416,599.8387,950.8252,589.7097,950.7017,579.5806,951.8826,569.4516,950.662,559.3226,951.8879,549.1935,951.5856,539.0645,951.1111,528.9355,951.0252,518.8065,951.8377,508.6774,951.0797,498.5484,951.9708,488.4194,950.8262,478.2903,951.9964,468.1613,951.8633,458.0323,951.624,447.9032,951.4262,437.7742,952.1056,427.6452,951.9926,417.5161,951.5482,407.3871,951.6472,397.2581,951.2487,387.129,952.0954,377,951.379,377.0198,951.4267,375.2542,950.6999,373.3869,949.7272,371.645,949.0575,369.9966,948.6135,368.1612,947.7178,368.2935,947.7726,367.4157,945.9446,366.5975,944.1412,365.897,942.3866,365.0209,940.5592,364.5,938.879,364.9147,938.879,365.2396,929.5024,365.0264,920.1258,365.1949,910.7492,364.3633,901.3725,364.5872,891.9959,364.5,882.6193,364.3806,882.5699,365.3197,880.8878,366.0405,879.1153,366.8668,877.3865,367.3582,875.519,368.1612,873.7805,368.144,873.7391,369.9855,873.1848,371.7691,872.4907,373.3991,871.4259,375.2075,870.7918,377,870.1193" style="stroke:#181818;stroke-width:0.5;"/><text fill="#000000" font-family="Chalkduster" font-size="24" lengthAdjust="spacing" textLength="258" x="374.5" y="903.9602">&#127881; PILANS ready &#127881;</text><text fill="#000000" font-family="Chalkduster" font-size="24" lengthAdjust="spacing" textLength="211" x="470.5" y="934.59">status achieved</text><path d="M817,961.6679 L817.5605,961.6679 L815.8951,971.5047 L817.5154,981.3415 L818.0658,991.1782 L815.0976,1001.015 L816.7928,1010.8518 L815.8627,1020.6885 L815.9773,1030.5253 L816.8182,1040.3621 L815.1563,1050.1988 L818.4764,1060.0356 L817,1069.8724 L816.8901,1069.323 L812.9655,1070.5 L809.0753,1071.8488 L804.985,1072.1976 L801.0119,1073.1318 L797,1073.8724 L796.9944,1073.8445 L801.0311,1074.828 L805.0417,1075.6808 L809.1021,1076.7829 L813.117,1077.6573 L817,1077.8724 L818.8114,1077.8724 L817.679,1087.7091 L818.2362,1097.5459 L818.8726,1107.3826 L815.0768,1117.2194 L818.8094,1127.0562 L816.2093,1136.8929 L818.4235,1146.7297 L815.6799,1156.5665 L816.8173,1166.4032 L818.9776,1176.24 L817,1186.0768 L817,1186.0768 L817,1185.9468 L826.9706,1186.3576 L836.9412,1186.9798 L846.9118,1187.1867 L856.8824,1186.0664 L866.8529,1186.8427 L876.8235,1184.5503 L886.7941,1186.8351 L896.7647,1187.5386 L906.7353,1187.2622 L916.7059,1187.7115 L926.6765,1184.7886 L936.6471,1184.3376 L946.6176,1184.4197 L956.5882,1185.9198 L966.5588,1185.5527 L976.5294,1187.8939 L986.5,1185.611 L996.4706,1185.162 L1006.4412,1186.6855 L1016.4118,1184.2985 L1026.3824,1184.6924 L1036.3529,1187.8073 L1046.3235,1187.2385 L1056.2941,1188.0354 L1066.2647,1185.2186 L1076.2353,1186.928 L1086.2059,1187.6512 L1096.1765,1184.817 L1106.1471,1185.8211 L1116.1176,1186.4127 L1126.0882,1187.8148 L1136.0588,1186.0656 L1146.0294,1187.3103 L1156,1184.6 L1165.9706,1184.2707 L1175.9412,1187.4197 L1185.9118,1184.1649 L1195.8824,1187.434 L1205.8529,1186.6278 L1215.8235,1185.3623 L1225.7941,1185.1334 L1235.7647,1187.3001 L1245.7353,1185.2785 L1255.7059,1187.6551 L1265.6765,1184.6028 L1275.6471,1187.7232 L1285.6176,1187.3682 L1295.5882,1186.73 L1305.5588,1186.2027 L1315.5294,1188.0144 L1325.5,1187.713 L1335.4706,1186.5281 L1345.4412,1186.7919 L1355.4118,1185.7294 L1365.3824,1187.9873 L1375.3529,1186.4897 L1385.3235,1186.537 L1395.2941,1184.4545 L1405.2647,1184.9962 L1415.2353,1187.4921 L1425.2059,1187.2228 L1435.1765,1185.9623 L1445.1471,1185.2176 L1455.1176,1185.493 L1465.0882,1184.247 L1475.0588,1187.1827 L1485.0294,1188.0489 L1495,1186.0768 L1495,1186.0768 L1496.4037,1186.0768 L1496.8532,1175.8668 L1494.6354,1165.6569 L1495.2326,1155.4469 L1493.9664,1145.237 L1495.7574,1135.027 L1495.658,1124.8171 L1496.473,1114.6072 L1494.3876,1104.3972 L1494.6416,1094.1873 L1496.1826,1083.9773 L1496.5129,1073.7674 L1493.6332,1063.5574 L1494.483,1053.3475 L1495.398,1043.1375 L1493.3711,1032.9276 L1495.9424,1022.7177 L1495.688,1012.5077 L1494.7313,1002.2978 L1495.3793,992.0878 L1496.9431,981.8779 L1495,971.6679 L1494.8033,971.4713 L1493.198,969.8659 L1491.1795,967.8475 L1489.0728,965.7407 L1487.0886,963.7565 L1485,961.6679 L1485,961.9705 L1475.0299,960.0035 L1465.0597,960.5991 L1455.0896,960.4372 L1445.1194,961.8381 L1435.1493,961.9029 L1425.1791,962.0993 L1415.209,960.892 L1405.2388,961.4879 L1395.2687,961.3474 L1385.2985,963.2062 L1375.3284,962.8054 L1365.3582,960.3732 L1355.3881,961.4735 L1345.4179,960.1287 L1335.4478,962.437 L1325.4776,963.2906 L1315.5075,963.1201 L1305.5373,960.5065 L1295.5672,962.9052 L1285.597,959.6871 L1275.6269,962.2017 L1265.6567,960.8698 L1255.6866,961.9259 L1245.7164,962.3088 L1235.7463,962.9269 L1225.7761,959.7482 L1215.806,962.9359 L1205.8358,962.1431 L1195.8657,962.6155 L1185.8955,963.6621 L1175.9254,961.6825 L1165.9552,962.1353 L1155.9851,962.2371 L1146.0149,962.1939 L1136.0448,961.6658 L1126.0746,963.5632 L1116.1045,960.042 L1106.1343,963.1753 L1096.1642,960.0039 L1086.194,960.2271 L1076.2239,961.7746 L1066.2537,961.7433 L1056.2836,960.3537 L1046.3134,962.7712 L1036.3433,961.9582 L1026.3731,963.6057 L1016.403,963.4469 L1006.4328,960.4726 L996.4627,960.6068 L986.4925,961.3235 L976.5224,962.616 L966.5522,962.7426 L956.5821,962.471 L946.6119,960.7561 L936.6418,963.3649 L926.6716,963.358 L916.7015,961.5419 L906.7313,961.0304 L896.7612,960.5976 L886.791,961.0957 L876.8209,962.0344 L866.8507,961.4856 L856.8806,960.5538 L846.9104,962.9676 L836.9403,960.4441 L826.9701,963.0076 L817,961.6679 L817,961.6679 " fill="#FFFFE0" style="stroke:#181818;stroke-width:4.0;"/><path d="M1485,961.6679 L1485.1868,961.6679 L1484.6317,963.6679 L1485.1718,965.6679 L1485.3553,967.6679 L1484.3659,969.6679 L1485,971.6679 L1485,971.5989 L1487,971.2888 L1489,971.327 L1491,971.6074 L1493,971.0534 L1495,971.6679 L1495.348,972.0159 L1492.6038,969.2718 L1490.8757,967.5436 L1489.2715,965.9394 L1486.9461,963.614 L1485,961.6679 " fill="#FFFFE0" style="stroke:#181818;stroke-width:4.0;"/><text fill="#000000" font-family="Chalkduster" font-size="24" lengthAdjust="spacing" textLength="657" x="823" y="990.5088">Choose according to your means/requirements:</text><text fill="#000000" font-family="Chalkduster" font-size="24" lengthAdjust="spacing" textLength="527" x="823" y="1021.1387">- Simple spreadsheet based summaries</text><text fill="#000000" font-family="Chalkduster" font-size="24" lengthAdjust="spacing" textLength="435" x="823" y="1051.7685">- Portable database catalogues</text><text fill="#000000" font-family="Chalkduster" font-size="24" lengthAdjust="spacing" textLength="640" x="823" y="1082.3983">- Access controlled API with license manager</text><text fill="#000000" font-family="Chalkduster" font-size="24" lengthAdjust="spacing" textLength="641" x="823" y="1113.0282">- Full search features a la LDaCA/PARADISEC</text><text fill="#000000" font-family="Chalkduster" font-size="24" lengthAdjust="spacing" textLength="403" x="823" y="1143.658">- IDN-style "Data Catalogue"</text><text fill="#000000" font-family="Chalkduster" font-size="24" lengthAdjust="spacing" textLength="239" x="823" y="1174.2878">- More coming ...</text><polygon fill="#F1F1F1" points="283.5,1048.5574,283.5,1048.7676,293.52,1048.1431,303.54,1048.7507,313.56,1048.9571,323.58,1047.844,333.6,1048.4797,343.62,1048.1309,353.64,1048.1739,363.66,1048.4893,373.68,1047.8661,383.7,1049.1111,393.72,1047.9272,403.74,1048.3597,413.76,1048.9894,423.78,1048.4717,433.8,1048.6257,443.82,1048.5255,453.84,1048.736,463.86,1048.7966,473.88,1049.1431,483.9,1049.2285,493.92,1049.2367,503.94,1048.8121,513.96,1049.021,523.98,1049.2597,534,1047.8363,544.02,1049.2359,554.04,1048.2609,564.06,1049.0912,574.08,1048.0624,584.1,1048.4889,594.12,1049.299,604.14,1048.5087,614.16,1048.6627,624.18,1048.8961,634.2,1048.9737,644.22,1048.5535,654.24,1048.8446,664.26,1047.985,674.28,1048.8418,684.3,1049.1056,694.32,1049.002,704.34,1049.1705,714.36,1048.0744,724.38,1047.9053,734.4,1047.936,744.42,1048.4986,754.44,1048.3609,764.46,1049.2388,774.48,1048.3828,784.5,1048.5574,784.4562,1048.4518,786.2969,1049.36,787.9505,1049.8165,789.7371,1050.5943,791.6538,1051.6862,793.3388,1052.2186,793.473,1052.2742,794.2973,1054.0801,794.7042,1055.7131,795.6338,1057.5626,796.4496,1059.365,797,1061.0574,796.8425,1061.0574,796.968,1066.1834,797.042,1071.3094,797.2173,1076.4353,796.9986,1081.5613,797,1086.6873,797.1425,1086.7463,796.0972,1088.3844,795.327,1090.1364,794.9584,1092.0548,793.8503,1093.6669,793.3388,1095.5261,793.4038,1095.6828,791.5974,1096.322,789.7691,1096.9081,787.9904,1097.6139,786.3263,1098.5963,784.5,1099.1873,784.5,1098.8879,774.48,1099.7791,764.46,1098.6345,754.44,1099.8047,744.42,1099.6716,734.4,1099.4322,724.38,1099.2345,714.36,1099.9139,704.34,1099.8008,694.32,1099.3565,684.3,1099.4555,674.28,1099.057,664.26,1099.9037,654.24,1099.3421,644.22,1099.3598,634.2,1098.5789,624.18,1098.782,614.16,1099.718,604.14,1099.617,594.12,1099.1443,584.1,1098.8651,574.08,1098.9683,564.06,1098.5011,554.04,1099.602,544.02,1099.9268,534,1099.7137,523.98,1099.8822,513.96,1099.0505,503.94,1099.2745,493.92,1098.7997,483.9,1099.4713,473.88,1099.434,463.86,1099.7397,453.84,1098.9576,443.82,1099.0529,433.8,1099.6307,423.78,1099.7546,413.76,1098.6747,403.74,1098.9934,393.72,1099.3365,383.7,1098.5764,373.68,1099.5407,363.66,1099.4453,353.64,1099.0865,343.62,1099.3295,333.6,1099.9159,323.58,1098.8744,313.56,1099.5023,303.54,1099.4729,293.52,1099.303,283.5,1099.1873,283.518,1099.2307,281.7467,1098.49,279.8848,1097.5306,278.1456,1096.8671,276.3701,1096.1162,274.6612,1095.5261,274.6808,1095.5342,273.9561,1093.7696,273.2465,1092.0112,272.3749,1090.1857,271.7114,1088.4464,271,1086.6873,270.9599,1086.6873,271.1923,1081.5613,271.1422,1076.4353,270.8382,1071.3094,270.9757,1066.1834,271,1061.0574,270.8222,1060.9838,271.821,1059.3265,272.6519,1057.5995,273.3644,1055.8236,273.7948,1053.9308,274.6612,1052.2186,274.7203,1052.3615,276.3342,1051.2576,278.2222,1050.8158,279.9263,1049.9297,281.7446,1049.3195,283.5,1048.5574" style="stroke:#181818;stroke-width:0.5;"/><text fill="#000000" font-family="Chalkduster" font-size="24" lengthAdjust="spacing" textLength="506" x="281" y="1082.3983">3: Index and catalogue the `RRKive`</text><path d="M534,158.2044 L534.2802,158.2044 L533.4476,167.7114 L534.2577,177.2183 L534.5329,186.7253 L533.0488,196.2322 L533.8964,205.7391 L533.4313,215.2461 L534,224.753 " fill="#8B0000" style="stroke:#8B0000;stroke-width:4.0;"/><polygon fill="#8B0000" points="530,214.753,530.065,214.7791,530.6718,216.7017,531.6598,218.777,532.5237,220.8025,532.9792,222.6647,534,224.753,533.9759,224.7434,534.668,222.7002,535.4813,220.7056,536.3789,218.7446,536.986,216.6674,538,214.753,538.1305,214.8835,537.0514,215.4045,536.3534,216.3064,535.7018,217.2548,534.7798,217.9328,534,218.753,534.0161,218.7691,533.1925,217.9455,532.4421,217.1951,531.6564,216.4094,530.938,215.6911,530,214.753" style="stroke:#8B0000;stroke-width:1.0;"/><path d="M329.5,489.7657 L329.5,489.8592 L327.5,489.5816 L325.5,489.8516 L323.5,489.9434 L321.5,489.4487 L319.5,489.7657 " fill="#8B0000" style="stroke:#8B0000;stroke-width:4.0;"/><path d="M319.5,489.7657 L319.5934,489.7657 L319.3159,494.8287 L319.5859,499.8917 L319.6776,504.9547 L319.1829,510.0177 L319.5,515.0807 " fill="#8B0000" style="stroke:#8B0000;stroke-width:4.0;"/><polygon fill="#8B0000" points="315.5,505.0807,315.565,505.1067,316.1718,507.0294,317.1598,509.1046,318.0237,511.1301,318.4792,512.9923,319.5,515.0807,319.4759,515.071,320.168,513.0279,320.9813,511.0332,321.8789,509.0722,322.486,506.9951,323.5,505.0807,323.6305,505.2111,322.5514,505.7321,321.8534,506.634,321.2018,507.5825,320.2798,508.2604,319.5,509.0807,319.5161,509.0967,318.6925,508.2731,317.9421,507.5227,317.1564,506.737,316.438,506.0187,315.5,505.0807" style="stroke:#8B0000;stroke-width:1.0;"/><path d="M738.5,489.7657 L738.5,489.8592 L740.5,489.5816 L742.5,489.8516 L744.5,489.9434 L746.5,489.4487 L748.5,489.7657 " fill="#8B0000" style="stroke:#8B0000;stroke-width:4.0;"/><path d="M748.5,489.7657 L748.5934,489.7657 L748.3159,494.8287 L748.5859,499.8917 L748.6776,504.9547 L748.1829,510.0177 L748.5,515.0807 " fill="#8B0000" style="stroke:#8B0000;stroke-width:4.0;"/><polygon fill="#8B0000" points="744.5,505.0807,744.565,505.1067,745.1718,507.0294,746.1598,509.1046,747.0237,511.1301,747.4792,512.9923,748.5,515.0807,748.4759,515.071,749.168,513.0279,749.9813,511.0332,750.8789,509.0722,751.486,506.9951,752.5,505.0807,752.6305,505.2111,751.5514,505.7321,750.8534,506.634,750.2018,507.5825,749.2798,508.2604,748.5,509.0807,748.5161,509.0967,747.6925,508.2731,746.9421,507.5227,746.1564,506.737,745.438,506.0187,744.5,505.0807" style="stroke:#8B0000;stroke-width:1.0;"/><path d="M319.5,596.3403 L319.5934,596.3403 L319.3159,599.9403 L319.5859,603.5403 L319.6776,607.1403 L319.1829,610.7403 L319.5,614.3403 " fill="#8B0000" style="stroke:#8B0000;stroke-width:4.0;"/><path d="M319.5,614.3403 L319.5,614.6206 L329.625,613.7879 L339.75,614.598 L349.875,614.8732 L360,613.3891 L370.125,614.2367 L380.25,613.7717 L390.375,613.829 L400.5,614.2494 L410.625,613.4185 L420.75,615.0785 L430.875,613.4999 L441,614.0766 L451.125,614.9163 L461.25,614.226 L471.375,614.4313 L481.5,614.2977 L491.625,614.5784 L501.75,614.6592 L511.875,615.1212 L522,614.3403 " fill="#8B0000" style="stroke:#8B0000;stroke-width:4.0;"/><polygon fill="#8B0000" points="512,610.3403,512.026,610.4054,513.9487,611.0121,516.0239,612.0001,518.0495,612.864,519.9117,613.3195,522,614.3403,521.9904,614.3163,519.9472,615.0083,517.9525,615.8216,515.9916,616.7192,513.9144,617.3263,512,618.3403,512.1305,618.4708,512.6514,617.3918,513.5534,616.6937,514.5018,616.0421,515.1798,615.1201,516,614.3403,516.0161,614.3564,515.1925,613.5328,514.4421,612.7824,513.6564,611.9967,512.938,611.2784,512,610.3403" style="stroke:#8B0000;stroke-width:1.0;"/><path d="M748.5,565.7105 L748.7802,565.7105 L747.9476,575.4365 L748.7577,585.1624 L749.0329,594.8884 L747.5488,604.6144 L748.5,614.3403 " fill="#8B0000" style="stroke:#8B0000;stroke-width:4.0;"/><path d="M748.5,614.3403 L748.5,614.6206 L738.375,613.7879 L728.25,614.598 L718.125,614.8732 L708,613.3891 L697.875,614.2367 L687.75,613.7717 L677.625,613.829 L667.5,614.2494 L657.375,613.4185 L647.25,615.0785 L637.125,613.4999 L627,614.0766 L616.875,614.9163 L606.75,614.226 L596.625,614.4313 L586.5,614.2977 L576.375,614.5784 L566.25,614.6592 L556.125,615.1212 L546,614.3403 " fill="#8B0000" style="stroke:#8B0000;stroke-width:4.0;"/><polygon fill="#8B0000" points="556,610.3403,556.026,610.4054,553.9487,611.0121,552.0239,612.0001,550.0495,612.864,547.9117,613.3195,546,614.3403,545.9904,614.3163,547.9472,615.0083,549.9525,615.8216,551.9916,616.7192,553.9144,617.3263,556,618.3403,556.1305,618.4708,555.0514,617.3918,554.3534,616.6937,553.7018,616.0421,552.7798,615.1201,552,614.3403,552.0161,614.3564,552.7925,613.5328,553.6421,612.7824,554.4564,611.9967,555.338,611.2784,556,610.3403" style="stroke:#8B0000;stroke-width:1.0;"/><path d="M534,306.0127 L534.2802,306.0127 L533.4476,315.9208 L534.2577,325.829 L534.5329,335.7371 L533.0488,345.6452 L533.8964,355.5533 L533.4313,365.4615 L533.4887,375.3696 L533.9091,385.2777 L533.0782,395.1858 L534.7382,405.0939 L533.1596,415.0021 L533.7363,424.9102 L534.5759,434.8183 L533.8856,444.7264 L534.091,454.6346 L533.9574,464.5427 L534,474.4508 " fill="#8B0000" style="stroke:#8B0000;stroke-width:4.0;"/><polygon fill="#8B0000" points="530,464.4508,530.065,464.4768,530.6718,466.3995,531.6598,468.4747,532.5237,470.5003,532.9792,472.3625,534,474.4508,533.9759,474.4412,534.668,472.398,535.4813,470.4033,536.3789,468.4424,536.986,466.3652,538,464.4508,538.1305,464.5813,537.0514,465.1023,536.3534,466.0042,535.7018,466.9526,534.7798,467.6306,534,468.4508,534.0161,468.4669,533.1925,467.6433,532.4421,466.8929,531.6564,466.1072,530.938,465.3889,530,464.4508" style="stroke:#8B0000;stroke-width:1.0;"/><path d="M534,626.3403 L534.2802,626.3403 L533.4476,635.8728 L534.2577,645.4052 L534.5329,654.9377 L533.0488,664.4702 L533.8964,674.0026 L533.4313,683.5351 L533.4887,693.0675 L534,702.6 " fill="#8B0000" style="stroke:#8B0000;stroke-width:4.0;"/><polygon fill="#8B0000" points="530,692.6,530.065,692.626,530.6718,694.5487,531.6598,696.6239,532.5237,698.6495,532.9792,700.5117,534,702.6,533.9759,702.5904,534.668,700.5472,535.4813,698.5525,536.3789,696.5915,536.986,694.5144,538,692.6,538.1305,692.7305,537.0514,693.2514,536.3534,694.1534,535.7018,695.1018,534.7798,695.7798,534,696.6,534.0161,696.6161,533.1925,695.7925,532.4421,695.0421,531.6564,694.2564,530.938,693.538,530,692.6" style="stroke:#8B0000;stroke-width:1.0;"/><path d="M534,783.8597 L534.2802,783.8597 L533.4476,793.4441 L534.2577,803.0285 L534.5329,812.6129 L533.0488,822.1973 L533.8964,831.7817 L533.4313,841.3661 L533.4887,850.9505 L533.9091,860.5349 L534,870.1193 " fill="#8B0000" style="stroke:#8B0000;stroke-width:4.0;"/><polygon fill="#8B0000" points="530,860.1193,530.065,860.1453,530.6718,862.068,531.6598,864.1432,532.5237,866.1688,532.9792,868.031,534,870.1193,533.9759,870.1097,534.668,868.0665,535.4813,866.0718,536.3789,864.1109,536.986,862.0337,538,860.1193,538.1305,860.2498,537.0514,860.7708,536.3534,861.6727,535.7018,862.6211,534.7798,863.2991,534,864.1193,534.0161,864.1354,533.1925,863.3118,532.4421,862.5614,531.6564,861.7757,530.938,861.0574,530,860.1193" style="stroke:#8B0000;stroke-width:1.0;"/><path d="M534,951.379 L534.2802,951.379 L533.4476,961.0968 L534.2577,970.8147 L534.5329,980.5325 L533.0488,990.2504 L533.8964,999.9682 L533.4313,1009.6861 L533.4887,1019.4039 L533.9091,1029.1217 L533.0782,1038.8396 L534,1048.5574 " fill="#8B0000" style="stroke:#8B0000;stroke-width:4.0;"/><polygon fill="#8B0000" points="530,1038.5574,530.065,1038.5835,530.6718,1040.5061,531.6598,1042.5814,532.5237,1044.6069,532.9792,1046.4691,534,1048.5574,533.9759,1048.5478,534.668,1046.5046,535.4813,1044.51,536.3789,1042.549,536.986,1040.4718,538,1038.5574,538.1305,1038.6879,537.0514,1039.2089,536.3534,1040.1108,535.7018,1041.0592,534.7798,1041.7372,534,1042.5574,534.0161,1042.5735,533.1925,1041.7499,532.4421,1040.9995,531.6564,1040.2138,530.938,1039.4955,530,1038.5574" style="stroke:#8B0000;stroke-width:1.0;"/><!--SRC=[LLHBRjim4Dtp55ElRA1oa6Qd50KKkGQCEh5Xf-Z6G3CHnn8RYdH9oevxWsvwXLwnH-XGyYzQKUGCvxqtR_XEcK8tahxNQFOml98OCE4rbbIJ2OaFUqt3y1g422feIk46be4s7eA5-MIQBPPT36IkgDGMTRAWZVKgMAV8hqp_iN46GeK15Yb8fxO4od0o6dXQBBxm_zD0-82EIwJNASnSYKRz8eXGLgQDxOrKgG9gc3t_e2ButgqmDX0uLLP1tECBGMzijIJdUwb80EvR1lZCk3pV9S5sYV7iqH63AQpMlAEiyO0UQWhOShT6xmN0PK9kwzeQmA8WxpdHIDNcnR2-LWKPhqmvW0svGne8CX8YHA7MqC-aXDew0Zne16k6q3Zo0rQ635oocRskhPF7ecF55AQujqs0_YmVJmS2fVImPQgC8Q89pcfMKxPhxfbWoQXqAknFPSvm87xfDQQGLzPwYcr07SWP3DoAbQ4Ixf351ZQ1MfCFdji5wqxSMyudpLcYlU8hhoAcs-xQM4MjHVeXXPRnGTALOK90M5G7TTuqBu5fgo3nAlDUbGOc8m_zqMpYWK8nuFskwn-JJ_cfQU18Ozk5Ih4PEUXRPT_3BlfiLv6BrxNQIVA5KvkkOGdCdTsIGLFGMPCEZgPr48jPaZlaloDujhdLFdfgR5qTRrXks3_ILqIjE-umCB72MUztg5-WgtQXk4Z__VtpkvsLXoN4t3t4dPM1myVc3msxaBr1M_Rg6tqMRK9KK1dF8zX49kmWpmF65WTFRii2WdN2ifSSx4Zhf6IMpl1TXx0BE0pe9eM9aVJQkOPPQbis5Aru6iat68vMAGfs9bizpZuxqh5AQFoLev-DSkrxqIgrLFKc3jvPA7X67y4qTOtnMOYDi2wqynbLZiTd8F4uEmrRjBVcv6m-WPqA5NGJHz2zKYwsfj4i2CNfEbaU43J2T8HvTZNF5jbeiloSS-naz71ui7gZsD_yMBN7X_TnI0jRHux3uV2asdy0]--></g></svg>